*
*
G04 PADS 9.4.1 Build Number: 494907 generated Gerber (RS-274-X) file*
G04 PC Version=2.1*
*
%IN "09051-00122-A1.pcb"*%
*
%MOIN*%
*
%FSLAX35Y35*%
*
*
*
*
G04 PC Standard Apertures*
*
*
G04 Thermal Relief Aperture macro.*
%AMTER*
1,1,$1,0,0*
1,0,$1-$2,0,0*
21,0,$3,$4,0,0,45*
21,0,$3,$4,0,0,135*
%
*
*
G04 Annular Aperture macro.*
%AMANN*
1,1,$1,0,0*
1,0,$2,0,0*
%
*
*
G04 Odd Aperture macro.*
%AMODD*
1,1,$1,0,0*
1,0,$1-0.005,0,0*
%
*
*
G04 PC Custom Aperture Macros*
*
*
*
*
*
*
G04 PC Aperture Table*
*
%ADD010C,0.01*%
%ADD012C,0.001*%
%ADD014C,0.008*%
%ADD016C,0.02*%
%ADD156C,0.00787*%
%ADD157C,0.006*%
%ADD158C,0.007*%
*
*
*
*
G04 PC Circuitry*
G04 Layer Name 09051-00122-A1.pcb - circuitry*
%LPD*%
*
G54D12*
G01X2060103Y1567020D02*
X2060033Y1567072D01*
X2059832Y1566805*
X2059824Y1566796*
X2059593Y1566603*
X2059400Y1566449*
X2059396Y1566446*
X2059088Y1566254*
X2059019Y1566270*
X2058827Y1566577*
X2058825Y1566581*
X2058632Y1566966*
X2058655Y1567033*
X2058797Y1567104*
X2058935Y1567311*
Y1567361*
X2058869Y1567492*
X2058715Y1567584*
X2058557Y1567489*
X2058450Y1567347*
X2058378Y1567202*
X2058344Y1567065*
X2058347Y1567052*
X2058156Y1566980*
X2058146Y1566977*
X2057876Y1566939*
X2057862*
X2057593Y1566977*
X2057584Y1566979*
X2057353Y1567056*
X2057334Y1567068*
X2057182Y1567220*
X2056998Y1567368*
X2056818Y1567440*
X2056599Y1567471*
X2056575Y1567375*
X2056606Y1567281*
X2056710Y1567143*
X2056853Y1567072*
X2056856Y1567070*
X2057049Y1566954*
X2057072Y1566922*
X2057149Y1566576*
X2057150Y1566565*
Y1566560*
X2057111Y1566214*
X2057106Y1566197*
X2056952Y1565889*
X2056940Y1565873*
X2056709Y1565681*
X2056691Y1565671*
X2056421Y1565594*
X2056396*
X2056242Y1565632*
X2056224Y1565641*
X2056070Y1565756*
X2056055Y1565774*
X2055978Y1565928*
X2055974Y1565940*
X2055936Y1566133*
X2055936D02*
X2055935Y1566142D01*
Y1566147*
X2055973Y1566570*
X2055974Y1566575*
X2056383Y1568692*
X2056111Y1568632*
X2056107Y1568631*
X2055838Y1568593*
X2055823*
X2055592Y1568631*
X2055578Y1568636*
X2055515Y1568667*
X2055532Y1568585*
X2055598Y1568486*
X2055696Y1568420*
X2055874Y1568385*
X2056023*
X2056072Y1568324*
X2055767Y1566936*
X2055525Y1566612*
X2055522Y1566609*
X2055176Y1566224*
X2055168Y1566218*
X2054861Y1565987*
X2054859Y1565985*
X2054743Y1565908*
X2054715Y1565900*
X2054600*
X2054578Y1565905*
X2054424Y1565982*
X2054398Y1566015*
X2054359Y1566169*
X2054358Y1566181*
Y1566642*
Y1566649*
X2054397Y1566956*
X2054398Y1566962*
X2054436Y1567116*
X2054437Y1567120*
X2054514Y1567350*
X2054515Y1567353*
X2054563Y1567472*
X2054320Y1567441*
X2054217Y1567305*
X2054155Y1567290*
X2053855Y1567440*
X2053563Y1567476*
X2053382Y1567440*
X2053159Y1567366*
X2052977Y1567256*
X2052793Y1567072*
X2052644Y1566849*
X2052533Y1566590*
X2052496Y1566366*
X2052458Y1566066*
X2052495Y1565847*
X2052566Y1565634*
X2052699Y1565535*
X2052831Y1565502*
X2053117Y1565573*
X2053259Y1565680*
X2053409Y1565830*
X2053713Y1566210*
X2053981Y1566631*
X2054073Y1566604*
Y1566261*
X2054110Y1565963*
X2054181Y1565786*
X2054278Y1565688*
X2054445Y1565655*
X2054588Y1565691*
X2054590*
X2054771Y1565727*
X2055143Y1566025*
X2055561Y1566482*
X2055722Y1566706*
X2055722D02*
X2055688Y1566406D01*
Y1566404*
X2055651Y1566142*
X2055686Y1565891*
X2055827Y1565680*
X2056078Y1565537*
X2056367Y1565501*
X2056552Y1565537*
X2056553Y1565538*
X2056775Y1565575*
X2056954Y1565682*
X2057101Y1565830*
X2057251Y1566017*
X2057360Y1566199*
X2057397Y1566382*
X2057434Y1566603*
X2057397Y1566786*
X2057452Y1566846*
X2057790Y1566808*
X2058162Y1566883*
X2058367Y1566974*
X2058416Y1566775*
X2058606Y1566397*
X2058759Y1566129*
X2058740Y1566060*
X2058395Y1565869*
X2058170Y1565719*
X2058028Y1565577*
X2057998Y1565486*
X2058030Y1565360*
X2058127Y1565263*
X2058228Y1565229*
X2058410Y1565193*
X2058699Y1565229*
X2058950Y1565372*
X2059093Y1565587*
X2059163Y1565835*
X2059090Y1566090*
X2059109Y1566144*
X2059682Y1566564*
X2060103Y1567020*
X2054174Y1567030D02*
X2054112Y1566968D01*
Y1566950*
X2054103Y1566922*
X2053756Y1566422*
X2053754Y1566419*
X2053447Y1566034*
X2053443Y1566030*
X2053251Y1565838*
X2053234Y1565827*
X2053042Y1565750*
X2053001Y1565751*
X2052847Y1565828*
X2052828Y1565845*
X2052751Y1565961*
X2052742Y1565988*
Y1566181*
X2052743Y1566185*
X2052781Y1566608*
X2052785Y1566624*
X2052939Y1566970*
X2052945Y1566980*
X2053060Y1567134*
X2053065Y1567139*
X2053180Y1567255*
X2053200Y1567267*
X2053315Y1567305*
X2053319Y1567306*
X2053472Y1567345*
X2053498Y1567344*
X2053768Y1567267*
X2053772Y1567266*
X2054157Y1567112*
X2054174Y1567030*
X2058881Y1565950D02*
Y1565719D01*
X2058879Y1565707*
X2058841Y1565553*
X2058834Y1565538*
X2058757Y1565422*
X2058743Y1565408*
X2058628Y1565331*
X2058616Y1565326*
X2058500Y1565287*
X2058475Y1565286*
X2058283Y1565324*
X2058283D02*
X2058245Y1565357D01*
X2058206Y1565473*
X2058209Y1565511*
X2058248Y1565588*
X2058257Y1565601*
X2058372Y1565716*
X2058378Y1565721*
X2058532Y1565836*
X2058537Y1565840*
X2058806Y1565993*
X2058881Y1565950*
X2059643Y1570436D02*
X2059566Y1570494D01*
X2059366Y1570194*
X2059214Y1569889*
X2059208Y1569880*
X2059057Y1569691*
X2058943Y1569501*
X2058928Y1569485*
X2058697Y1569331*
X2058692Y1569328*
X2058538Y1569251*
X2058493*
X2058416Y1569290*
X2058397Y1569307*
X2058320Y1569422*
X2058313Y1569440*
X2058274Y1569633*
X2058274D02*
X2058273Y1569642D01*
Y1570216*
X2058235Y1570556*
X2058162Y1570812*
X2058064Y1570943*
X2057903Y1570975*
X2057800Y1570941*
X2057797Y1570940*
X2057653Y1570904*
X2057513Y1570799*
X2057402Y1570651*
X2057401Y1570650*
X2057249Y1570460*
X2057097Y1570194*
X2057095Y1570190*
X2056905Y1569924*
X2056905D02*
X2056752Y1569620D01*
X2056658Y1569642*
Y1569646*
X2056696Y1570144*
Y1570258*
X2056697Y1570266*
X2056735Y1570493*
Y1570637*
X2056703Y1570796*
X2056628Y1570821*
X2056458Y1570788*
X2056383Y1570737*
X2056409Y1570658*
X2056411Y1570652*
X2056428Y1570565*
X2056260Y1570517*
X2056254Y1570516*
X2056024Y1570478*
X2056009Y1570477*
X2055701Y1570516*
X2055692Y1570518*
X2055346Y1570633*
X2055322Y1570650*
X2055170Y1570840*
X2055024Y1570986*
X2054807Y1571095*
X2054662Y1571124*
X2054606Y1570985*
X2054641Y1570847*
X2054576Y1570787*
X2054473Y1570822*
X2054255Y1570785*
X2054075Y1570749*
X2053930Y1570641*
X2053926Y1570638*
X2053744Y1570529*
X2053635Y1570347*
X2053632Y1570343*
X2053524Y1570198*
X2053488Y1570018*
X2053451Y1569798*
X2053524Y1569468*
X2053669Y1569215*
X2053918Y1569037*
X2054283Y1569000*
X2054503Y1569037*
X2054725Y1569111*
X2054910Y1569222*
X2055096Y1569371*
X2055281Y1569593*
X2055390Y1569812*
X2055428Y1570035*
X2055465Y1570300*
Y1570373*
X2055531Y1570421*
X2055754Y1570346*
X2055974*
X2056267Y1570383*
X2056443Y1570492*
X2056449Y1570460*
X2056450Y1570450*
Y1570296*
X2056449Y1570288*
X2056411Y1570059*
X2056373Y1569678*
Y1569450*
X2056372Y1569438*
X2056335Y1569290*
Y1569148*
X2056364Y1569030*
X2056483Y1569000*
X2056627*
X2056625Y1569005*
X2056621Y1569039*
X2056659Y1569193*
X2056663Y1569203*
X2056932Y1569742*
X2056935Y1569746*
X2057204Y1570169*
X2057396Y1570476*
X2057396D02*
X2057407Y1570489D01*
X2057600Y1570643*
X2057608Y1570649*
X2057762Y1570725*
X2057807*
X2057884Y1570687*
X2057906Y1570665*
X2057945Y1570588*
X2057949Y1570575*
X2057987Y1570383*
X2057988Y1570373*
Y1569723*
X2058026Y1569497*
X2058027Y1569488*
Y1569311*
X2058095Y1569209*
X2058097Y1569206*
X2058201Y1569033*
X2058360Y1569001*
X2058644Y1569072*
X2058940Y1569368*
X2059091Y1569557*
X2059282Y1569824*
X2059472Y1570129*
X2059643Y1570436*
X2055181Y1570258D02*
X2055180Y1570249D01*
X2055103Y1569826*
X2055100Y1569816*
X2054946Y1569431*
X2054935Y1569415*
X2054820Y1569299*
X2054815Y1569295*
X2054661Y1569179*
X2054653Y1569175*
X2054499Y1569098*
X2054477Y1569092*
X2054323*
X2054313Y1569093*
X2054121Y1569132*
X2054105Y1569138*
X2053913Y1569253*
X2053896Y1569270*
X2053780Y1569463*
X2053774Y1569481*
X2053735Y1569751*
Y1569758*
X2053736Y1569769*
X2053813Y1570115*
X2053821Y1570133*
X2054013Y1570402*
X2054021Y1570411*
X2054291Y1570642*
X2054311Y1570652*
X2054619Y1570729*
X2054631Y1570731*
X2054785*
X2054807Y1570725*
X2055115Y1570572*
X2055142Y1570534*
X2055180Y1570265*
X2055181Y1570258*
X2052011Y1565824D02*
X2051618Y1565673D01*
X2051604Y1565669*
X2051143Y1565631*
X2051138*
X2050908*
X2050898Y1565632*
X2050706Y1565670*
X2050680Y1565684*
X2050603Y1565761*
X2050591Y1565780*
X2050553Y1565896*
X2050550Y1565912*
Y1566104*
X2050551Y1566116*
X2050628Y1566422*
X2050935Y1568075*
X2050937Y1568081*
X2051012Y1568304*
Y1568365*
X2050982Y1568453*
X2050940Y1568474*
X2050808Y1568441*
X2050716Y1568404*
X2050727Y1568373*
Y1568219*
X2050725Y1568207*
X2050687Y1568055*
X2050341Y1566210*
X2050340Y1566205*
X2050265Y1565943*
Y1565801*
X2050300Y1565628*
X2050397Y1565531*
X2050575Y1565460*
X2050794Y1565424*
X2051514Y1565499*
X2051774Y1565574*
X2051912Y1565643*
X2051979Y1565743*
X2052011Y1565824*
X2053902Y1571164D02*
X2053845Y1571136D01*
X2053823Y1571131*
X2052592*
X2052547Y1571201*
X2052700Y1571547*
X2052703Y1571552*
X2052812Y1571744*
X2052608Y1571710*
X2052471Y1571641*
X2052368Y1571503*
X2052255Y1571165*
X2052208Y1571131*
X2051796*
X2051742Y1571104*
X2051673Y1571000*
X2052131*
X2052179Y1570938*
X2052102Y1570629*
X2052041Y1570401*
X2051825Y1570112*
X2051822Y1570109*
X2051476Y1569724*
X2051468Y1569718*
X2051161Y1569487*
X2051159Y1569485*
X2051043Y1569408*
X2051015Y1569400*
X2050900*
X2050878Y1569405*
X2050724Y1569482*
X2050698Y1569515*
X2050659Y1569669*
X2050658Y1569681*
Y1570142*
Y1570149*
X2050697Y1570456*
X2050698Y1570462*
X2050736Y1570616*
X2050737Y1570620*
X2050814Y1570850*
X2050815Y1570853*
X2050863Y1570972*
X2050620Y1570941*
X2050517Y1570805*
X2050455Y1570790*
X2050155Y1570940*
X2049863Y1570976*
X2049682Y1570940*
X2049459Y1570866*
X2049277Y1570756*
X2049093Y1570572*
X2048944Y1570349*
X2048833Y1570090*
X2048815Y1569982*
X2048672Y1569768*
X2048670Y1569765*
X2048516Y1569573*
X2048512Y1569568*
X2048397Y1569453*
X2048392Y1569448*
X2048241Y1569335*
X2048166Y1569261*
X2048131Y1569246*
X2048015*
X2048000Y1569249*
X2047884Y1569287*
X2047851Y1569325*
X2047813Y1569517*
X2047812Y1569527*
Y1569681*
X2047813Y1569691*
X2047851Y1569883*
Y1569885*
X2047928Y1570192*
X2048004Y1570532*
Y1570819*
X2047943Y1570911*
X2047881Y1570942*
X2047783Y1570975*
X2047648Y1570941*
X2047503Y1570869*
X2047358Y1570760*
X2047209Y1570573*
X2046865Y1570114*
X2046520Y1569540*
X2046428Y1569576*
X2046543Y1570114*
X2046581Y1570301*
Y1570488*
X2046583Y1570504*
X2046619Y1570612*
Y1570827*
X2046590Y1570915*
X2046535Y1570942*
X2046438Y1570974*
X2046339Y1570941*
X2046335Y1570940*
X2046195Y1570905*
X2045937Y1570647*
X2045787Y1570459*
X2045635Y1570231*
X2045483Y1569966*
X2045330Y1569622*
X2045235Y1569642*
Y1569646*
X2045273Y1570184*
X2045274Y1570191*
X2045312Y1570378*
Y1570675*
X2045281Y1570796*
X2045208Y1570820*
X2045108Y1570787*
X2045102Y1570786*
X2044961Y1570757*
X2045009Y1570566*
X2044837Y1570517*
X2044831Y1570516*
X2044601Y1570478*
X2044586Y1570477*
X2044278Y1570516*
X2044269Y1570518*
X2043923Y1570633*
X2043899Y1570650*
X2043747Y1570840*
X2043601Y1570986*
X2043384Y1571095*
X2043239Y1571124*
X2043183Y1570985*
X2043218Y1570847*
X2043153Y1570787*
X2043050Y1570822*
X2042832Y1570785*
X2042652Y1570749*
X2042507Y1570641*
X2042503Y1570638*
X2042321Y1570529*
X2042212Y1570347*
X2042209Y1570343*
X2042101Y1570198*
X2042065Y1570018*
X2042028Y1569798*
X2042101Y1569468*
X2042246Y1569215*
X2042495Y1569037*
X2042860Y1569000*
X2043080Y1569037*
X2043302Y1569111*
X2043487Y1569222*
X2043673Y1569371*
X2043858Y1569593*
X2043967Y1569812*
X2044004Y1570035*
X2044042Y1570300*
Y1570373*
X2044108Y1570421*
X2044331Y1570346*
X2044551*
X2044844Y1570383*
X2045026Y1570497*
X2045027Y1570488*
Y1570483*
X2044988Y1570099*
X2044950Y1569678*
Y1569450*
X2044949Y1569438*
X2044912Y1569290*
Y1569148*
X2044941Y1569030*
X2045056Y1569001*
X2045210Y1569027*
X2045201Y1569043*
X2045199Y1569081*
X2045237Y1569195*
X2045275Y1569347*
X2045280Y1569359*
X2045433Y1569627*
X2045740Y1570242*
X2045743Y1570247*
X2045897Y1570478*
X2045903Y1570485*
X2046057Y1570639*
X2046076Y1570651*
X2046192Y1570690*
X2046243Y1570678*
X2046282Y1570639*
X2046291Y1570626*
X2046329Y1570549*
X2046335Y1570527*
Y1570450*
X2046332Y1570434*
X2046296Y1570326*
Y1570181*
X2046295Y1570171*
X2046180Y1569595*
X2046142Y1569365*
X2046139Y1569355*
X2046065Y1569171*
Y1569074*
X2046093Y1568992*
X2046214Y1568962*
X2046302*
X2046350Y1569009*
Y1569027*
X2046355Y1569049*
X2046393Y1569124*
X2046469Y1569315*
X2046474Y1569324*
X2046627Y1569554*
X2046819Y1569861*
X2046820Y1569862*
X2047051Y1570209*
X2047054Y1570213*
X2047285Y1570483*
X2047288Y1570485*
X2047442Y1570639*
X2047461Y1570651*
X2047576Y1570690*
X2047615Y1570687*
X2047692Y1570649*
X2047719Y1570604*
Y1570450*
Y1570442*
X2047680Y1570211*
X2047678Y1570203*
X2047603Y1569977*
X2047565Y1569675*
Y1569673*
X2047528Y1569450*
X2047563Y1569235*
X2047631Y1569100*
X2047728Y1569035*
X2047862Y1569002*
X2047998Y1569036*
X2048145Y1569109*
X2048331Y1569220*
X2048478Y1569368*
X2048668Y1569596*
X2048782Y1569755*
X2048758Y1569566*
X2048795Y1569347*
X2048866Y1569134*
X2048999Y1569035*
X2049131Y1569002*
X2049417Y1569073*
X2049559Y1569180*
X2049709Y1569330*
X2050013Y1569710*
X2050281Y1570131*
X2050373Y1570104*
Y1569761*
X2050410Y1569463*
X2050481Y1569286*
X2050578Y1569188*
X2050745Y1569155*
X2050888Y1569191*
X2050890*
X2051071Y1569227*
X2051443Y1569525*
X2051861Y1569982*
X2051970Y1570134*
X2051949Y1570057*
X2051912Y1569644*
X2051948Y1569388*
X2052056Y1569172*
X2052194Y1569035*
X2052363Y1569001*
X2052613Y1569036*
X2052911Y1569223*
X2053022Y1569297*
X2053126Y1569400*
X2053160Y1569504*
X2053163Y1569511*
X2053190Y1569565*
X2053169Y1569607*
X2053137Y1569543*
X2053124Y1569526*
X2052931Y1569372*
X2052922Y1569367*
X2052769Y1569290*
X2052756Y1569286*
X2052564Y1569247*
X2052538Y1569249*
X2052423Y1569287*
X2052411Y1569293*
X2052295Y1569370*
X2052276Y1569396*
X2052237Y1569511*
X2052236Y1569517*
X2052197Y1569709*
X2052196Y1569719*
Y1569950*
X2052199Y1569966*
X2052274Y1570192*
X2052312Y1570495*
X2052314Y1570503*
X2052429Y1570887*
X2052432Y1570895*
X2052471Y1570972*
X2052515Y1571000*
X2053738*
X2053829Y1571030*
X2053892Y1571124*
X2053902Y1571164*
X2050474Y1570530D02*
X2050412Y1570468D01*
Y1570450*
X2050403Y1570422*
X2050056Y1569922*
X2050054Y1569919*
X2049747Y1569534*
X2049743Y1569530*
X2049551Y1569338*
X2049534Y1569327*
X2049342Y1569250*
X2049301Y1569251*
X2049147Y1569328*
X2049128Y1569345*
X2049051Y1569461*
X2049042Y1569488*
Y1569681*
X2049043Y1569685*
X2049081Y1570108*
X2049085Y1570124*
X2049239Y1570470*
X2049245Y1570480*
X2049360Y1570634*
X2049365Y1570639*
X2049480Y1570755*
X2049500Y1570767*
X2049615Y1570805*
X2049619Y1570806*
X2049772Y1570845*
X2049798Y1570844*
X2050068Y1570767*
X2050072Y1570766*
X2050457Y1570612*
X2050474Y1570530*
X2043758Y1570258D02*
X2043757Y1570249D01*
X2043680Y1569826*
X2043677Y1569816*
X2043523Y1569431*
X2043512Y1569415*
X2043397Y1569299*
X2043392Y1569295*
X2043238Y1569179*
X2043230Y1569175*
X2043076Y1569098*
X2043054Y1569092*
X2042900*
X2042890Y1569093*
X2042698Y1569132*
X2042682Y1569138*
X2042490Y1569253*
X2042473Y1569270*
X2042357Y1569463*
X2042351Y1569481*
X2042351D02*
X2042312Y1569751D01*
Y1569758*
X2042313Y1569769*
X2042390Y1570115*
X2042398Y1570133*
X2042590Y1570402*
X2042598Y1570411*
X2042867Y1570642*
X2042888Y1570652*
X2043196Y1570729*
X2043208Y1570731*
X2043362*
X2043384Y1570725*
X2043692Y1570572*
X2043719Y1570534*
X2043757Y1570265*
X2043758Y1570258*
X2042479Y1571164D02*
X2042422Y1571136D01*
X2042400Y1571131*
X2041169*
X2041124Y1571201*
X2041277Y1571547*
X2041280Y1571552*
X2041389Y1571744*
X2041185Y1571710*
X2041048Y1571641*
X2040945Y1571503*
X2040832Y1571165*
X2040785Y1571131*
X2040373*
X2040319Y1571104*
X2040250Y1571000*
X2040708*
X2040756Y1570938*
X2040679Y1570629*
X2040656Y1570543*
X2040568Y1570517*
X2040562Y1570516*
X2040331Y1570478*
X2040317Y1570477*
X2040009Y1570516*
X2040000Y1570518*
X2039653Y1570633*
X2039630Y1570650*
X2039478Y1570840*
X2039332Y1570986*
X2039114Y1571095*
X2038969Y1571124*
X2038914Y1570985*
X2038949Y1570847*
X2038884Y1570787*
X2038781Y1570822*
X2038563Y1570785*
X2038382Y1570749*
X2038238Y1570641*
X2038233Y1570638*
X2038052Y1570529*
X2037943Y1570347*
X2037940Y1570343*
X2037831Y1570198*
X2037795Y1570018*
X2037759Y1569798*
X2037832Y1569468*
X2037976Y1569215*
X2038226Y1569037*
X2038591Y1569000*
X2038811Y1569037*
X2039033Y1569111*
X2039218Y1569222*
X2039403Y1569371*
X2039589Y1569593*
X2039698Y1569812*
X2039735Y1570035*
X2039773Y1570300*
Y1570373*
X2039839Y1570421*
X2040062Y1570346*
X2040281*
X2040281D02*
X2040575Y1570383D01*
X2040621Y1570411*
X2040526Y1570057*
X2040489Y1569644*
X2040525Y1569388*
X2040633Y1569172*
X2040771Y1569035*
X2040940Y1569001*
X2041190Y1569036*
X2041488Y1569223*
X2041599Y1569297*
X2041702Y1569400*
X2041737Y1569504*
X2041740Y1569511*
X2041767Y1569565*
X2041746Y1569607*
X2041714Y1569543*
X2041700Y1569526*
X2041508Y1569372*
X2041499Y1569367*
X2041345Y1569290*
X2041333Y1569286*
X2041141Y1569247*
X2041115Y1569249*
X2041000Y1569287*
X2040988Y1569293*
X2040872Y1569370*
X2040853Y1569396*
X2040814Y1569511*
X2040813Y1569517*
X2040774Y1569709*
X2040773Y1569719*
Y1569950*
X2040776Y1569966*
X2040851Y1570192*
X2040889Y1570495*
X2040891Y1570503*
X2041006Y1570887*
X2041009Y1570895*
X2041048Y1570972*
X2041092Y1571000*
X2042315*
X2042406Y1571030*
X2042469Y1571124*
X2042479Y1571164*
X2039488Y1570258D02*
Y1570249D01*
X2039411Y1569826*
X2039408Y1569816*
X2039254Y1569431*
X2039243Y1569415*
X2039128Y1569299*
X2039122Y1569295*
X2038968Y1569179*
X2038961Y1569175*
X2038807Y1569098*
X2038785Y1569092*
X2038631*
X2038621Y1569093*
X2038429Y1569132*
X2038413Y1569138*
X2038220Y1569253*
X2038203Y1569270*
X2038088Y1569463*
X2038081Y1569481*
X2038043Y1569751*
X2038042Y1569758*
X2038043Y1569769*
X2038043D02*
X2038120Y1570115D01*
X2038129Y1570133*
X2038321Y1570402*
X2038329Y1570411*
X2038598Y1570642*
X2038619Y1570652*
X2038926Y1570729*
X2038938Y1570731*
X2039092*
X2039115Y1570725*
X2039422Y1570572*
X2039449Y1570534*
X2039449D02*
X2039488Y1570265D01*
Y1570258*
X2037234Y1569874D02*
X2037199Y1570083D01*
X2037058Y1570259*
X2036839Y1570405*
X2036536Y1570519*
X2036525Y1570606*
X2036788Y1570794*
X2036937Y1570981*
X2037045Y1571124*
X2037080Y1571333*
X2037047Y1571463*
X2036910Y1571600*
X2036656Y1571709*
X2036362Y1571746*
X2035796Y1571670*
X2035232Y1571482*
X2035047Y1571334*
X2035041Y1571330*
X2034861Y1571222*
X2034793Y1571086*
X2034759Y1570949*
X2034777Y1570859*
X2035057Y1571139*
X2035062Y1571143*
X2035408Y1571413*
X2035420Y1571419*
X2035420D02*
X2035805Y1571573D01*
X2035819Y1571577*
X2036242Y1571615*
X2036254*
X2036485Y1571576*
X2036489Y1571575*
X2036643Y1571537*
X2036672Y1571516*
X2036749Y1571401*
X2036756Y1571385*
X2036795Y1571231*
Y1571207*
X2036756Y1571053*
X2036752Y1571043*
X2036675Y1570889*
X2036666Y1570876*
X2036551Y1570761*
X2036547Y1570757*
X2036354Y1570603*
X2036323Y1570592*
X2036214*
X2036068Y1570556*
X2035965Y1570522*
X2035904Y1570460*
X2035858Y1570346*
X2035935*
X2036201Y1570384*
X2036220Y1570383*
X2036528Y1570306*
X2036541Y1570301*
X2036733Y1570185*
X2036748Y1570172*
X2036863Y1570018*
X2036872Y1569997*
X2036911Y1569766*
X2036912Y1569758*
X2036910Y1569744*
X2036833Y1569475*
X2036823Y1569456*
X2036631Y1569226*
X2036619Y1569215*
X2036311Y1569023*
X2036290Y1569016*
X2035944Y1568977*
X2035938*
X2035746*
X2035734Y1568978*
X2035580Y1569017*
X2035557Y1569030*
X2035480Y1569107*
X2035468Y1569126*
X2035429Y1569242*
X2035427Y1569258*
Y1569373*
X2035428Y1569385*
X2035466Y1569537*
X2035697Y1570805*
X2035699Y1570812*
X2035773Y1571035*
Y1571131*
X2035747Y1571182*
X2035704Y1571204*
X2035608Y1571172*
X2035602Y1571170*
X2035461Y1571142*
X2035487Y1571039*
X2035488Y1571027*
Y1570950*
X2035486Y1570934*
X2035448Y1570822*
X2035180Y1569479*
X2035142Y1569254*
Y1569112*
X2035176Y1569011*
X2035241Y1568914*
X2035410Y1568846*
X2035932*
X2036231Y1568921*
X2036534Y1569034*
X2036757Y1569146*
X2036982Y1569333*
X2037126Y1569477*
X2037198Y1569694*
X2037234Y1569874*
X2034800Y1570882D02*
Y1571100D01*
X2034900Y1570982D02*
Y1571246D01*
X2035000Y1571082D02*
Y1571306D01*
X2035100Y1571173D02*
Y1571377D01*
X2035200Y1568975D02*
Y1569580D01*
Y1571251D02*
Y1571457D01*
X2035300Y1568890D02*
Y1570080D01*
Y1571329D02*
Y1571505D01*
X2035400Y1568850D02*
Y1570580D01*
Y1571407D02*
Y1571538D01*
X2035500Y1568846D02*
Y1569087D01*
Y1569722D02*
Y1571150D01*
Y1571452D02*
Y1571572D01*
X2035600Y1568846D02*
Y1569012D01*
Y1570272D02*
Y1571170D01*
Y1571492D02*
Y1571605D01*
X2035700Y1568846D02*
Y1568987D01*
Y1570816D02*
Y1571202D01*
Y1571532D02*
Y1571638D01*
X2035800Y1568846D02*
Y1568977D01*
Y1571572D02*
Y1571671D01*
X2035900Y1568846D02*
Y1568977D01*
Y1570346D02*
Y1570450D01*
Y1571584D02*
Y1571684D01*
X2036000Y1568863D02*
Y1568983D01*
Y1570355D02*
Y1570533D01*
Y1571593D02*
Y1571698D01*
X2036100Y1568888D02*
Y1568995D01*
Y1570370D02*
Y1570564D01*
Y1571602D02*
Y1571711D01*
X2036200Y1568913D02*
Y1569006D01*
Y1570384D02*
Y1570589D01*
Y1571611D02*
Y1571724D01*
X2036300Y1568947D02*
Y1569018D01*
Y1570363D02*
Y1570592D01*
Y1571607D02*
Y1571738D01*
X2036400Y1568984D02*
Y1569079D01*
Y1570338D02*
Y1570640D01*
Y1571590D02*
Y1571741D01*
X2036500Y1569022D02*
Y1569141D01*
Y1570313D02*
Y1570720D01*
Y1571573D02*
Y1571728D01*
X2036600Y1569067D02*
Y1569204D01*
Y1570265D02*
Y1570495D01*
Y1570660D02*
Y1570810D01*
Y1571548D02*
Y1571716D01*
X2036700Y1569117D02*
Y1569309D01*
Y1570205D02*
Y1570457D01*
Y1570731D02*
Y1570938D01*
Y1571475D02*
Y1571690D01*
X2036800Y1569182D02*
Y1569429D01*
Y1570103D02*
Y1570420D01*
Y1570809D02*
Y1571647D01*
X2036900Y1569265D02*
Y1569710D01*
Y1569831D02*
Y1570364D01*
Y1570934D02*
Y1571604D01*
X2037000Y1569351D02*
Y1570298D01*
Y1571064D02*
Y1571510D01*
X2037100Y1569451D02*
Y1570207D01*
X2037200Y1569705D02*
Y1570077D01*
X2037800Y1569611D02*
Y1570041D01*
X2037900Y1569349D02*
Y1570290D01*
X2038000Y1569198D02*
Y1570443D01*
X2038100Y1569127D02*
Y1569443D01*
Y1570023D02*
Y1570558D01*
X2038200Y1569055D02*
Y1569276D01*
Y1570233D02*
Y1570618D01*
X2038300Y1569029D02*
Y1569206D01*
Y1570373D02*
Y1570687D01*
X2038400Y1569019D02*
Y1569146D01*
Y1570472D02*
Y1570753D01*
X2038500Y1569009D02*
Y1569117D01*
Y1570558D02*
Y1570773D01*
X2038600Y1569002D02*
Y1569097D01*
Y1570643D02*
Y1570792D01*
X2038700Y1569019D02*
Y1569092D01*
Y1570673D02*
Y1570808D01*
X2038800Y1569035D02*
Y1569095D01*
Y1570698D02*
Y1570815D01*
X2038900Y1569067D02*
Y1569144D01*
Y1570723D02*
Y1570785D01*
X2039000Y1569100D02*
Y1569203D01*
Y1570731D02*
Y1571117D01*
X2039100Y1569151D02*
Y1569278D01*
Y1570730D02*
Y1571097D01*
X2039200Y1569211D02*
Y1569372D01*
Y1570683D02*
Y1571052D01*
X2039300Y1569288D02*
Y1569546D01*
Y1570633D02*
Y1571002D01*
X2039400Y1569368D02*
Y1569796D01*
Y1570583D02*
Y1570918D01*
X2039500Y1569487D02*
Y1570812D01*
X2039600Y1569616D02*
Y1570687D01*
X2039700Y1569823D02*
Y1570618D01*
X2039800Y1570417D02*
Y1570584D01*
X2039900Y1570400D02*
Y1570551D01*
X2040000Y1570367D02*
Y1570518D01*
X2040100Y1570346D02*
Y1570504D01*
X2040200Y1570346D02*
Y1570492D01*
X2040300Y1570348D02*
Y1570479D01*
Y1571000D02*
Y1571075D01*
X2040400Y1570361D02*
Y1570489D01*
Y1571000D02*
Y1571131D01*
X2040500Y1569565D02*
Y1569767D01*
Y1570373D02*
Y1570506D01*
Y1571000D02*
Y1571131D01*
X2040600Y1569239D02*
Y1570333D01*
Y1570398D02*
Y1570527D01*
Y1571000D02*
Y1571131D01*
X2040700Y1569105D02*
Y1570713D01*
Y1571000D02*
Y1571131D01*
X2040800Y1569029D02*
Y1569580D01*
Y1570039D02*
Y1571133D01*
X2040900Y1569009D02*
Y1569351D01*
Y1570534D02*
Y1571369D01*
X2041000Y1569009D02*
Y1569287D01*
Y1570868D02*
Y1571577D01*
X2041100Y1569024D02*
Y1569254D01*
Y1571000D02*
Y1571667D01*
X2041200Y1569043D02*
Y1569259D01*
Y1571000D02*
Y1571131D01*
Y1571373D02*
Y1571712D01*
X2041300Y1569105D02*
Y1569279D01*
Y1571000D02*
Y1571131D01*
Y1571587D02*
Y1571729D01*
X2041400Y1569168D02*
Y1569317D01*
Y1571000D02*
Y1571131D01*
X2041500Y1569231D02*
Y1569367D01*
Y1571000D02*
Y1571131D01*
X2041600Y1569298D02*
Y1569446D01*
Y1571000D02*
Y1571131D01*
X2041700Y1569398D02*
Y1569526D01*
Y1571000D02*
Y1571131D01*
X2041800Y1571000D02*
Y1571131D01*
X2041900Y1571000D02*
Y1571131D01*
X2042000Y1571000D02*
Y1571131D01*
X2042100Y1569473D02*
Y1570195D01*
Y1571000D02*
Y1571131D01*
X2042200Y1569295D02*
Y1570331D01*
Y1571000D02*
Y1571131D01*
X2042300Y1569176D02*
Y1570494D01*
Y1571000D02*
Y1571131D01*
X2042400Y1569105D02*
Y1569391D01*
Y1570136D02*
Y1570576D01*
Y1571028D02*
Y1571131D01*
X2042500Y1569036D02*
Y1569247D01*
Y1570276D02*
Y1570636D01*
X2042600Y1569026D02*
Y1569187D01*
Y1570413D02*
Y1570711D01*
X2042700Y1569016D02*
Y1569131D01*
Y1570498D02*
Y1570759D01*
X2042800Y1569006D02*
Y1569111D01*
Y1570584D02*
Y1570779D01*
X2042900Y1569007D02*
Y1569092D01*
Y1570655D02*
Y1570797D01*
X2043000Y1569024D02*
Y1569092D01*
Y1570680D02*
Y1570813D01*
X2043100Y1569044D02*
Y1569109D01*
Y1570705D02*
Y1570805D01*
X2043200Y1569077D02*
Y1569159D01*
Y1570730D02*
Y1570795D01*
Y1570918D02*
Y1571027D01*
X2043300Y1569110D02*
Y1569226D01*
Y1570731D02*
Y1571111D01*
X2043400Y1569170D02*
Y1569302D01*
Y1570717D02*
Y1571086D01*
X2043500Y1569232D02*
Y1569402D01*
Y1570667D02*
Y1571036D01*
X2043600Y1569312D02*
Y1569623D01*
Y1570617D02*
Y1570986D01*
X2043700Y1569403D02*
Y1569936D01*
Y1570566D02*
Y1570887D01*
X2043800Y1569523D02*
Y1570774D01*
X2043900Y1569677D02*
Y1570649D01*
X2044000Y1570008D02*
Y1570608D01*
X2044100Y1570422D02*
Y1570574D01*
X2044200Y1570390D02*
Y1570541D01*
X2044300Y1570357D02*
Y1570513D01*
X2044400Y1570346D02*
Y1570501D01*
X2044500Y1570346D02*
Y1570488D01*
X2044600Y1570352D02*
Y1570478D01*
X2044700Y1570365D02*
Y1570494D01*
X2044800Y1570377D02*
Y1570511D01*
X2044900Y1570418D02*
Y1570535D01*
X2045000Y1569015D02*
Y1570217D01*
Y1570480D02*
Y1570564D01*
Y1570602D02*
Y1570765D01*
X2045100Y1569008D02*
Y1570785D01*
X2045200Y1569025D02*
Y1569046D01*
Y1569085D02*
Y1570818D01*
X2045300Y1569395D02*
Y1569595D01*
Y1570320D02*
Y1570721D01*
X2045400Y1569570D02*
Y1569779D01*
X2045500Y1569762D02*
Y1569995D01*
X2045600Y1569962D02*
Y1570170D01*
X2045700Y1570162D02*
Y1570329D01*
X2045800Y1570332D02*
Y1570476D01*
X2045900Y1570482D02*
Y1570601D01*
X2046000Y1570582D02*
Y1570710D01*
X2046100Y1568990D02*
Y1569258D01*
Y1570659D02*
Y1570810D01*
X2046200Y1568965D02*
Y1569695D01*
Y1570692D02*
Y1570906D01*
X2046300Y1568962D02*
Y1570338D01*
Y1570608D02*
Y1570931D01*
X2046400Y1569142D02*
Y1570961D01*
X2046500Y1569363D02*
Y1569521D01*
Y1569912D02*
Y1570954D01*
X2046600Y1569513D02*
Y1569673D01*
Y1570554D02*
Y1570884D01*
X2046700Y1569670D02*
Y1569840D01*
X2046800Y1569830D02*
Y1570007D01*
X2046900Y1569982D02*
Y1570162D01*
X2047000Y1570132D02*
Y1570295D01*
X2047100Y1570267D02*
Y1570428D01*
X2047200Y1570383D02*
Y1570562D01*
X2047300Y1570498D02*
Y1570687D01*
X2047400Y1570598D02*
Y1570791D01*
X2047500Y1570664D02*
Y1570866D01*
X2047600Y1569162D02*
Y1569955D01*
Y1570692D02*
Y1570917D01*
X2047700Y1569054D02*
Y1570330D01*
Y1570643D02*
Y1570954D01*
X2047800Y1569017D02*
Y1570969D01*
X2047900Y1569011D02*
Y1569282D01*
Y1570079D02*
Y1570933D01*
X2048000Y1569037D02*
Y1569249D01*
Y1570515D02*
Y1570825D01*
X2048100Y1569087D02*
Y1569246D01*
X2048200Y1569142D02*
Y1569295D01*
X2048300Y1569202D02*
Y1569380D01*
X2048400Y1569290D02*
Y1569456D01*
X2048500Y1569394D02*
Y1569556D01*
X2048600Y1569514D02*
Y1569678D01*
X2048700Y1569641D02*
Y1569810D01*
X2048800Y1569331D02*
Y1569960D01*
X2048900Y1569109D02*
Y1570246D01*
X2049000Y1569034D02*
Y1570433D01*
X2049100Y1569009D02*
Y1569387D01*
Y1570158D02*
Y1570579D01*
X2049200Y1569019D02*
Y1569302D01*
Y1570383D02*
Y1570679D01*
X2049300Y1569044D02*
Y1569252D01*
Y1570554D02*
Y1570770D01*
X2049400Y1569069D02*
Y1569273D01*
Y1570675D02*
Y1570830D01*
X2049500Y1569136D02*
Y1569313D01*
Y1570767D02*
Y1570879D01*
X2049600Y1569221D02*
Y1569387D01*
Y1570800D02*
Y1570913D01*
X2049700Y1569321D02*
Y1569487D01*
Y1570827D02*
Y1570944D01*
X2049800Y1569444D02*
Y1569601D01*
Y1570844D02*
Y1570964D01*
X2049900Y1569569D02*
Y1569726D01*
Y1570815D02*
Y1570972D01*
X2050000Y1569694D02*
Y1569851D01*
Y1570787D02*
Y1570959D01*
X2050100Y1569846D02*
Y1569984D01*
Y1570755D02*
Y1570947D01*
X2050200Y1570004D02*
Y1570129D01*
Y1570715D02*
Y1570917D01*
X2050300Y1565628D02*
Y1566064D01*
Y1570148D02*
Y1570273D01*
Y1570675D02*
Y1570867D01*
X2050400Y1565530D02*
Y1566522D01*
Y1569545D02*
Y1570418D01*
Y1570635D02*
Y1570817D01*
X2050500Y1565490D02*
Y1567056D01*
Y1569267D02*
Y1570790D01*
X2050600Y1565456D02*
Y1565764D01*
Y1566310D02*
Y1567589D01*
Y1569184D02*
Y1570915D01*
X2050700Y1565439D02*
Y1565672D01*
Y1566809D02*
Y1568105D01*
Y1569164D02*
Y1569508D01*
Y1570472D02*
Y1570952D01*
X2050800Y1565424D02*
Y1565651D01*
Y1567346D02*
Y1568438D01*
Y1569169D02*
Y1569444D01*
Y1570808D02*
Y1570964D01*
X2050900Y1565435D02*
Y1565631D01*
Y1567884D02*
Y1568464D01*
Y1569193D02*
Y1569400D01*
X2051000Y1565445D02*
Y1565631D01*
Y1568270D02*
Y1568400D01*
Y1569213D02*
Y1569400D01*
X2051100Y1565456D02*
Y1565631D01*
Y1569251D02*
Y1569446D01*
X2051200Y1565466D02*
Y1565636D01*
Y1569331D02*
Y1569516D01*
X2051300Y1565477D02*
Y1565644D01*
Y1569411D02*
Y1569591D01*
X2051400Y1565487D02*
Y1565652D01*
Y1569491D02*
Y1569666D01*
X2051500Y1565498D02*
Y1565661D01*
Y1569588D02*
Y1569751D01*
X2051600Y1565524D02*
Y1565669D01*
Y1569697D02*
Y1569862D01*
X2051700Y1565553D02*
Y1565704D01*
Y1569806D02*
Y1569974D01*
Y1571000D02*
Y1571041D01*
X2051800Y1565587D02*
Y1565743D01*
Y1569915D02*
Y1570085D01*
Y1571000D02*
Y1571131D01*
X2051900Y1565637D02*
Y1565781D01*
Y1570036D02*
Y1570213D01*
Y1571000D02*
Y1571131D01*
X2052000Y1565796D02*
Y1565820D01*
Y1569285D02*
Y1570346D01*
Y1571000D02*
Y1571131D01*
X2052100Y1569128D02*
Y1570621D01*
Y1571000D02*
Y1571131D01*
X2052200Y1569033D02*
Y1569695D01*
Y1569970D02*
Y1571131D01*
X2052300Y1569013D02*
Y1569367D01*
Y1570399D02*
Y1571300D01*
X2052400Y1569006D02*
Y1569300D01*
Y1570791D02*
Y1571546D01*
X2052500Y1565831D02*
Y1566392D01*
Y1569020D02*
Y1569261D01*
Y1570998D02*
Y1571656D01*
X2052600Y1565609D02*
Y1566746D01*
Y1569035D02*
Y1569254D01*
Y1571000D02*
Y1571131D01*
Y1571321D02*
Y1571706D01*
X2052700Y1565534D02*
Y1566933D01*
Y1569091D02*
Y1569274D01*
Y1571000D02*
Y1571131D01*
Y1571546D02*
Y1571725D01*
X2052800Y1565509D02*
Y1565887D01*
Y1566658D02*
Y1567079D01*
Y1569153D02*
Y1569306D01*
Y1571000D02*
Y1571131D01*
Y1571722D02*
Y1571742D01*
X2052900Y1565519D02*
Y1565802D01*
Y1566883D02*
Y1567179D01*
Y1569216D02*
Y1569356D01*
Y1571000D02*
Y1571131D01*
X2053000Y1565544D02*
Y1565752D01*
Y1567054D02*
Y1567270D01*
Y1569282D02*
Y1569428D01*
Y1571000D02*
Y1571131D01*
X2053100Y1565569D02*
Y1565773D01*
Y1567175D02*
Y1567330D01*
Y1569375D02*
Y1569508D01*
Y1571000D02*
Y1571131D01*
X2053200Y1565636D02*
Y1565813D01*
Y1567267D02*
Y1567379D01*
Y1571000D02*
Y1571131D01*
X2053300Y1565721D02*
Y1565887D01*
Y1567300D02*
Y1567413D01*
Y1571000D02*
Y1571131D01*
X2053400Y1565821D02*
Y1565987D01*
Y1567327D02*
Y1567444D01*
Y1571000D02*
Y1571131D01*
X2053500Y1565944D02*
Y1566101D01*
Y1567344D02*
Y1567464D01*
Y1569577D02*
Y1570080D01*
Y1571000D02*
Y1571131D01*
X2053600Y1566069D02*
Y1566226D01*
Y1567315D02*
Y1567472D01*
Y1569335D02*
Y1570300D01*
Y1571000D02*
Y1571131D01*
X2053700Y1566194D02*
Y1566351D01*
Y1567287D02*
Y1567459D01*
Y1569193D02*
Y1570455D01*
Y1571000D02*
Y1571131D01*
X2053800Y1566346D02*
Y1566484D01*
Y1567255D02*
Y1567447D01*
Y1569121D02*
Y1569430D01*
Y1570057D02*
Y1570562D01*
Y1571021D02*
Y1571131D01*
X2053900Y1566504D02*
Y1566629D01*
Y1567215D02*
Y1567417D01*
Y1569050D02*
Y1569264D01*
Y1570244D02*
Y1570622D01*
Y1571156D02*
Y1571163D01*
X2054000Y1566648D02*
Y1566773D01*
Y1567175D02*
Y1567367D01*
Y1569029D02*
Y1569201D01*
Y1570384D02*
Y1570693D01*
X2054100Y1566045D02*
Y1566918D01*
Y1567135D02*
Y1567317D01*
Y1569019D02*
Y1569141D01*
Y1570478D02*
Y1570754D01*
X2054200Y1565767D02*
Y1567290D01*
Y1569009D02*
Y1569116D01*
Y1570564D02*
Y1570774D01*
X2054300Y1565684D02*
Y1567415D01*
Y1569003D02*
Y1569096D01*
Y1570648D02*
Y1570793D01*
X2054400Y1565664D02*
Y1566008D01*
Y1566972D02*
Y1567452D01*
Y1569020D02*
Y1569092D01*
Y1570675D02*
Y1570810D01*
X2054500Y1565669D02*
Y1565944D01*
Y1567308D02*
Y1567464D01*
Y1569037D02*
Y1569098D01*
Y1570700D02*
Y1570813D01*
X2054600Y1565693D02*
Y1565900D01*
Y1569069D02*
Y1569148D01*
Y1570725D02*
Y1570785D01*
X2054700Y1565713D02*
Y1565900D01*
Y1569103D02*
Y1569209D01*
Y1570731D02*
Y1571116D01*
X2054800Y1565751D02*
Y1565946D01*
Y1569156D02*
Y1569284D01*
Y1570728D02*
Y1571096D01*
X2054900Y1565831D02*
Y1566016D01*
Y1569216D02*
Y1569379D01*
Y1570679D02*
Y1571048D01*
X2055000Y1565911D02*
Y1566091D01*
Y1569294D02*
Y1569565D01*
Y1570629D02*
Y1570998D01*
X2055100Y1565991D02*
Y1566166D01*
Y1569376D02*
Y1569815D01*
Y1570579D02*
Y1570910D01*
X2055200Y1566088D02*
Y1566251D01*
Y1569496D02*
Y1570803D01*
X2055300Y1566197D02*
Y1566362D01*
Y1569631D02*
Y1570678D01*
X2055400Y1566306D02*
Y1566474D01*
Y1569870D02*
Y1570615D01*
X2055500Y1566415D02*
Y1566585D01*
Y1570421D02*
Y1570582D01*
X2055600Y1566536D02*
Y1566713D01*
Y1568484D02*
Y1568630D01*
Y1570398D02*
Y1570549D01*
X2055700Y1565871D02*
Y1566513D01*
Y1566676D02*
Y1566846D01*
Y1568419D02*
Y1568613D01*
Y1570364D02*
Y1570516D01*
X2055800Y1565721D02*
Y1567085D01*
Y1568399D02*
Y1568597D01*
Y1570346D02*
Y1570503D01*
X2055900Y1565638D02*
Y1567541D01*
Y1568385D02*
Y1568602D01*
Y1570346D02*
Y1570491D01*
X2056000Y1565581D02*
Y1565884D01*
Y1566710D02*
Y1567996D01*
Y1568385D02*
Y1568616D01*
Y1570349D02*
Y1570478D01*
X2056100Y1565534D02*
Y1565734D01*
Y1567228D02*
Y1568630D01*
Y1570362D02*
Y1570490D01*
X2056200Y1565522D02*
Y1565659D01*
Y1567746D02*
Y1568652D01*
Y1570374D02*
Y1570507D01*
X2056300Y1565509D02*
Y1565618D01*
Y1568264D02*
Y1568674D01*
Y1570403D02*
Y1570529D01*
X2056400Y1565507D02*
Y1565593D01*
Y1569021D02*
Y1569948D01*
Y1570466D02*
Y1570557D01*
Y1570685D02*
Y1570749D01*
X2056500Y1565527D02*
Y1565617D01*
Y1569000D02*
Y1570796D01*
X2056600Y1565546D02*
Y1565645D01*
Y1567300D02*
Y1567471D01*
Y1569000D02*
Y1570816D01*
X2056700Y1565562D02*
Y1565675D01*
Y1567156D02*
Y1567457D01*
Y1569277D02*
Y1569593D01*
Y1570285D02*
Y1570797D01*
X2056800Y1565590D02*
Y1565757D01*
Y1567098D02*
Y1567442D01*
Y1569477D02*
Y1569715D01*
X2056900Y1565650D02*
Y1565840D01*
Y1567044D02*
Y1567407D01*
Y1569677D02*
Y1569915D01*
X2057000Y1565728D02*
Y1565984D01*
Y1566984D02*
Y1567366D01*
Y1569849D02*
Y1570058D01*
X2057100Y1565828D02*
Y1566184D01*
Y1566796D02*
Y1567286D01*
Y1570006D02*
Y1570199D01*
X2057200Y1565953D02*
Y1567202D01*
Y1570163D02*
Y1570374D01*
X2057300Y1566098D02*
Y1567102D01*
Y1570323D02*
Y1570524D01*
X2057400Y1566400D02*
Y1566772D01*
Y1566815D02*
Y1567041D01*
Y1570482D02*
Y1570649D01*
X2057500Y1566840D02*
Y1567008D01*
Y1570563D02*
Y1570782D01*
X2057600Y1566829D02*
Y1566976D01*
Y1570643D02*
Y1570864D01*
X2057700Y1566818D02*
Y1566962D01*
Y1570694D02*
Y1570916D01*
X2057800Y1566810D02*
Y1566948D01*
Y1570728D02*
Y1570941D01*
X2057900Y1566830D02*
Y1566942D01*
Y1570674D02*
Y1570974D01*
X2058000Y1565479D02*
Y1565492D01*
Y1566850D02*
Y1566957D01*
Y1569654D02*
Y1570956D01*
X2058100Y1565290D02*
Y1565649D01*
Y1566870D02*
Y1566971D01*
Y1569201D02*
Y1570895D01*
X2058200Y1565239D02*
Y1565739D01*
Y1566900D02*
Y1566997D01*
Y1569034D02*
Y1570680D01*
X2058300Y1565215D02*
Y1565321D01*
Y1565644D02*
Y1565805D01*
Y1566944D02*
Y1567034D01*
Y1569013D02*
Y1569503D01*
X2058400Y1565195D02*
Y1565301D01*
Y1565737D02*
Y1565871D01*
Y1566841D02*
Y1567246D01*
Y1569011D02*
Y1569303D01*
X2058500Y1565204D02*
Y1565287D01*
Y1565813D02*
Y1565927D01*
Y1566608D02*
Y1567413D01*
Y1569036D02*
Y1569249D01*
X2058600Y1565217D02*
Y1565320D01*
Y1565876D02*
Y1565983D01*
Y1566408D02*
Y1567515D01*
Y1569061D02*
Y1569283D01*
X2058700Y1565230D02*
Y1565380D01*
Y1565933D02*
Y1566038D01*
Y1566232D02*
Y1566831D01*
Y1567056D02*
Y1567575D01*
Y1569128D02*
Y1569333D01*
X2058800Y1565287D02*
Y1565487D01*
Y1565990D02*
Y1566631D01*
Y1567109D02*
Y1567533D01*
Y1569228D02*
Y1569400D01*
X2058900Y1565344D02*
Y1566460D01*
Y1567259D02*
Y1567431D01*
Y1569328D02*
Y1569467D01*
X2059000Y1565448D02*
Y1566300D01*
Y1569443D02*
Y1569596D01*
X2059100Y1565613D02*
Y1566056D01*
Y1566136D02*
Y1566261D01*
Y1569570D02*
Y1569745D01*
X2059200Y1566211D02*
Y1566324D01*
Y1569710D02*
Y1569870D01*
X2059300Y1566284D02*
Y1566386D01*
Y1569854D02*
Y1570061D01*
X2059400Y1566358D02*
Y1566449D01*
Y1570014D02*
Y1570244D01*
X2059500Y1566431D02*
Y1566529D01*
Y1570179D02*
Y1570394D01*
X2059600Y1566504D02*
Y1566609D01*
Y1570359D02*
Y1570468D01*
X2059700Y1566584D02*
Y1566693D01*
X2059800Y1566692D02*
Y1566776D01*
X2059900Y1566801D02*
Y1566895D01*
X2060000Y1566909D02*
Y1567028D01*
X2060100Y1567017D02*
Y1567022D01*
*
G04 PC Custom Flashes*
G04 Layer Name 09051-00122-A1.pcb - flashes*
%LPD*%
*
*
G04 PC Circuitry*
G04 Layer Name 09051-00122-A1.pcb - circuitry*
%LPD*%
*
G54D10*
X1940000Y1630000D02*
Y1570000D01*
X1965000*
Y1630000*
X1940000*
X1943182Y1633731D02*
X1942841Y1633575D01*
X1942614Y1633106*
X1942500Y1632325*
Y1631856*
X1942614Y1631075*
X1942841Y1630606*
X1943182Y1630450*
X1943409*
X1943750Y1630606*
X1943977Y1631075*
X1944091Y1631856*
Y1632325*
X1943977Y1633106*
X1943750Y1633575*
X1943409Y1633731*
X1943182*
X1945795D02*
X1945455Y1633575D01*
X1945227Y1633106*
X1945114Y1632325*
Y1631856*
X1945227Y1631075*
X1945455Y1630606*
X1945795Y1630450*
X1946023*
X1946364Y1630606*
X1946591Y1631075*
X1946705Y1631856*
Y1632325*
X1946591Y1633106*
X1946364Y1633575*
X1946023Y1633731*
X1945795*
X1948409D02*
X1948068Y1633575D01*
X1947841Y1633106*
X1947727Y1632325*
Y1631856*
X1947841Y1631075*
X1948068Y1630606*
X1948409Y1630450*
X1948636*
X1948977Y1630606*
X1949205Y1631075*
X1949318Y1631856*
Y1632325*
X1949205Y1633106*
X1948977Y1633575*
X1948636Y1633731*
X1948409*
X1951023D02*
X1950682Y1633575D01*
X1950455Y1633106*
X1950341Y1632325*
Y1631856*
X1950455Y1631075*
X1950682Y1630606*
X1951023Y1630450*
X1951250*
X1951591Y1630606*
X1951818Y1631075*
X1951932Y1631856*
Y1632325*
X1951818Y1633106*
X1951591Y1633575*
X1951250Y1633731*
X1951023*
X1952955Y1633106D02*
X1953182Y1633263D01*
X1953182D02*
X1953523Y1633731D01*
Y1630450*
X1954545Y1631856D02*
X1956591D01*
X1958295Y1633731D02*
X1957955Y1633575D01*
X1957727Y1633106*
X1957614Y1632325*
Y1631856*
X1957727Y1631075*
X1957955Y1630606*
X1958295Y1630450*
X1958523*
X1958864Y1630606*
X1959091Y1631075*
X1959205Y1631856*
Y1632325*
X1959091Y1633106*
X1958864Y1633575*
X1958523Y1633731*
X1958295*
X1960909D02*
X1960568Y1633575D01*
X1960341Y1633106*
X1960227Y1632325*
Y1631856*
X1960341Y1631075*
X1960568Y1630606*
X1960909Y1630450*
X1961136*
X1961477Y1630606*
X1961705Y1631075*
X1961818Y1631856*
Y1632325*
X1961705Y1633106*
X1961477Y1633575*
X1961136Y1633731*
X1960909*
X1962841Y1633106D02*
X1963068Y1633263D01*
X1963068D02*
X1963409Y1633731D01*
Y1630450*
X1966023Y1633731D02*
X1964886Y1630450D01*
X1964432Y1633731D02*
X1966023D01*
X1967045Y1633106D02*
X1967273Y1633263D01*
X1967273D02*
X1967614Y1633731D01*
Y1630450*
X1968636Y1631856D02*
X1970682D01*
X1972614Y1633731D02*
X1971705Y1630450D01*
X1972614Y1633731D02*
X1973523Y1630450D01*
X1972045Y1631544D02*
X1973182D01*
G54D12*
G54D14*
X1991594Y1601969D02*
Y1609843D01*
X1993563Y1611811*
X2001437*
X2003406Y1609843*
Y1601969*
X1991594Y1598031D02*
Y1588189D01*
X2003406*
Y1598031*
X2001605Y1615450D02*
X2001491Y1615713D01*
X2001491D02*
X2001264Y1615975D01*
X2001036Y1616106*
X2000582*
X2000355Y1615975*
X2000127Y1615713*
X2000127D02*
X2000014Y1615450D01*
X1999900Y1615056*
Y1614400*
X2000014Y1614006*
X2000127Y1613744*
X2000355Y1613481*
X2000582Y1613350*
X2001036*
X2001264Y1613481*
X2001491Y1613744*
X2001605Y1614006*
X2002627Y1615581D02*
X2002855Y1615713D01*
X2002855D02*
X2003195Y1616106D01*
Y1613350*
X2026255Y1593650D02*
X2026141Y1593913D01*
X2026141D02*
X2025914Y1594175D01*
X2025686Y1594306*
X2025232*
X2025005Y1594175*
X2024777Y1593913*
X2024777D02*
X2024664Y1593650D01*
X2024550Y1593256*
Y1592600*
X2024664Y1592206*
X2024777Y1591944*
X2025005Y1591681*
X2025232Y1591550*
X2025686*
X2025914Y1591681*
X2026141Y1591944*
X2026255Y1592206*
X2027391Y1593650D02*
Y1593781D01*
X2027505Y1594044*
X2027618Y1594175*
X2027845Y1594306*
X2028300*
X2028527Y1594175*
X2028641Y1594044*
X2028755Y1593781*
Y1593519*
X2028641Y1593256*
X2028414Y1592863*
X2028414D02*
X2027277Y1591550D01*
X2028868*
X2017405Y1593650D02*
X2017291Y1593913D01*
X2017291D02*
X2017064Y1594175D01*
X2016836Y1594306*
X2016382*
X2016155Y1594175*
X2015927Y1593913*
X2015927D02*
X2015814Y1593650D01*
X2015700Y1593256*
Y1592600*
X2015814Y1592206*
X2015927Y1591944*
X2016155Y1591681*
X2016382Y1591550*
X2016836*
X2017064Y1591681*
X2017291Y1591944*
X2017405Y1592206*
X2018655Y1594306D02*
X2019905D01*
X2019223Y1593256*
X2019564*
X2019791Y1593125*
X2019905Y1592994*
X2020018Y1592600*
Y1592338*
X2020018D02*
X2019905Y1591944D01*
X2019677Y1591681*
X2019336Y1591550*
X2018995*
X2018655Y1591681*
X2018541Y1591813*
X2018541D02*
X2018427Y1592075D01*
X1981900Y1616706D02*
Y1613950D01*
Y1616706D02*
X1983377D01*
X1981900Y1615394D02*
X1982809D01*
X1984400Y1616706D02*
Y1613950D01*
Y1616706D02*
X1985423D01*
X1985764Y1616575*
X1985877Y1616444*
X1985991Y1616181*
Y1615919*
X1985877Y1615656*
X1985764Y1615525*
X1985423Y1615394*
X1984400D02*
X1985423D01*
X1985764Y1615263*
X1985764D02*
X1985877Y1615131D01*
X1985991Y1614869*
Y1614475*
X1985877Y1614213*
X1985877D02*
X1985764Y1614081D01*
X1985423Y1613950*
X1984400*
X1987014Y1616181D02*
X1987241Y1616313D01*
X1987241D02*
X1987582Y1616706D01*
Y1613950*
X1981900Y1626606D02*
Y1623850D01*
Y1626606D02*
X1983377D01*
X1981900Y1625294D02*
X1982809D01*
X1984400Y1626606D02*
Y1623850D01*
Y1626606D02*
X1985423D01*
X1985764Y1626475*
X1985877Y1626344*
X1985991Y1626081*
Y1625819*
X1985877Y1625556*
X1985764Y1625425*
X1985423Y1625294*
X1984400D02*
X1985423D01*
X1985764Y1625163*
X1985764D02*
X1985877Y1625031D01*
X1985991Y1624769*
Y1624375*
X1985877Y1624113*
X1985877D02*
X1985764Y1623981D01*
X1985423Y1623850*
X1984400*
X1987127Y1625950D02*
Y1626081D01*
X1987241Y1626344*
X1987355Y1626475*
X1987582Y1626606*
X1988036*
X1988264Y1626475*
X1988377Y1626344*
X1988491Y1626081*
Y1625819*
X1988377Y1625556*
X1988150Y1625163*
X1988150D02*
X1987014Y1623850D01*
X1988605*
X2007600Y1594306D02*
Y1591550D01*
X2008964*
X2009986Y1593781D02*
X2010214Y1593913D01*
X2010214D02*
X2010555Y1594306D01*
Y1591550*
X2009600Y1578306D02*
Y1575550D01*
Y1578306D02*
X2010623D01*
X2010964Y1578175*
X2011077Y1578044*
X2011191Y1577781*
Y1577519*
X2011077Y1577256*
X2010964Y1577125*
X2010623Y1576994*
X2009600*
X2010395D02*
X2011191Y1575550D01*
X2012441Y1578306D02*
X2013691D01*
X2013009Y1577256*
X2013350*
X2013577Y1577125*
X2013691Y1576994*
X2013805Y1576600*
Y1576338*
X2013805D02*
X2013691Y1575944D01*
X2013464Y1575681*
X2013123Y1575550*
X2012782*
X2012441Y1575681*
X2012327Y1575813*
X2012327D02*
X2012214Y1576075D01*
X2009100Y1624206D02*
Y1621450D01*
Y1624206D02*
X2010123D01*
X2010464Y1624075*
X2010577Y1623944*
X2010691Y1623681*
Y1623419*
X2010577Y1623156*
X2010464Y1623025*
X2010123Y1622894*
X2009100*
X2009895D02*
X2010691Y1621450D01*
X2012850Y1624206D02*
X2011714Y1622369D01*
X2013418*
X2012850Y1624206D02*
Y1621450D01*
X1981900Y1586806D02*
Y1584050D01*
Y1586806D02*
X1982923D01*
X1983264Y1586675*
X1983377Y1586544*
X1983491Y1586281*
Y1586019*
X1983377Y1585756*
X1983264Y1585625*
X1982923Y1585494*
X1981900*
X1982695D02*
X1983491Y1584050D01*
X1985991Y1586806D02*
X1984855D01*
X1984741Y1585625*
X1984855Y1585756*
X1985195Y1585888*
X1985195D02*
X1985536D01*
X1985536D02*
X1985877Y1585756D01*
X1986105Y1585494*
X1986218Y1585100*
X1986105Y1584838*
X1986105D02*
X1985991Y1584444D01*
X1985764Y1584181*
X1985423Y1584050*
X1985082*
X1984741Y1584181*
X1984627Y1584313*
X1984627D02*
X1984514Y1584575D01*
X1981900Y1606806D02*
Y1604050D01*
Y1606806D02*
X1982923D01*
X1983264Y1606675*
X1983377Y1606544*
X1983491Y1606281*
Y1606019*
X1983377Y1605756*
X1983264Y1605625*
X1982923Y1605494*
X1981900*
X1982695D02*
X1983491Y1604050D01*
X1985877Y1606413D02*
X1985764Y1606675D01*
X1985423Y1606806*
X1985195*
X1984855Y1606675*
X1984627Y1606281*
X1984514Y1605625*
Y1604969*
X1984627Y1604444*
X1984855Y1604181*
X1985195Y1604050*
X1985309*
X1985650Y1604181*
X1985877Y1604444*
X1985991Y1604838*
X1985991D02*
Y1604969D01*
X1985877Y1605363*
X1985877D02*
X1985650Y1605625D01*
X1985309Y1605756*
X1985195*
X1984855Y1605625*
X1984627Y1605363*
X1984627D02*
X1984514Y1604969D01*
X1981900Y1596606D02*
Y1593850D01*
Y1596606D02*
X1982923D01*
X1983264Y1596475*
X1983377Y1596344*
X1983491Y1596081*
Y1595819*
X1983377Y1595556*
X1983264Y1595425*
X1982923Y1595294*
X1981900*
X1982695D02*
X1983491Y1593850D01*
X1986105Y1596606D02*
X1984968Y1593850D01*
X1984514Y1596606D02*
X1986105D01*
X1981900Y1576706D02*
Y1573950D01*
Y1576706D02*
X1982923D01*
X1983264Y1576575*
X1983377Y1576444*
X1983491Y1576181*
Y1575919*
X1983377Y1575656*
X1983264Y1575525*
X1982923Y1575394*
X1981900*
X1982695D02*
X1983491Y1573950D01*
X1985082Y1576706D02*
X1984741Y1576575D01*
X1984627Y1576313*
X1984627D02*
Y1576050D01*
X1984741Y1575788*
X1984741D02*
X1984968Y1575656D01*
X1985423Y1575525*
X1985764Y1575394*
X1985991Y1575131*
X1986105Y1574869*
Y1574475*
X1985991Y1574213*
X1985991D02*
X1985877Y1574081D01*
X1985536Y1573950*
X1985082*
X1984741Y1574081*
X1984627Y1574213*
X1984627D02*
X1984514Y1574475D01*
Y1574869*
X1984627Y1575131*
X1984855Y1575394*
X1985195Y1575525*
X1985650Y1575656*
X1985877Y1575788*
X1985877D02*
X1985991Y1576050D01*
Y1576313*
X1985991D02*
X1985877Y1576575D01*
X1985536Y1576706*
X1985082*
X2037600Y1577506D02*
Y1574750D01*
Y1577506D02*
X2038623D01*
X2038964Y1577375*
X2039077Y1577244*
X2039191Y1576981*
Y1576719*
X2039077Y1576456*
X2038964Y1576325*
X2038623Y1576194*
X2037600*
X2038395D02*
X2039191Y1574750D01*
X2040214Y1576981D02*
X2040441Y1577113D01*
X2040441D02*
X2040782Y1577506D01*
Y1574750*
X2037900Y1607306D02*
Y1604550D01*
Y1607306D02*
X2038923D01*
X2039264Y1607175*
X2039377Y1607044*
X2039491Y1606781*
Y1606519*
X2039377Y1606256*
X2039264Y1606125*
X2038923Y1605994*
X2037900*
X2038695D02*
X2039491Y1604550D01*
X2040627Y1606650D02*
Y1606781D01*
X2040741Y1607044*
X2040855Y1607175*
X2041082Y1607306*
X2041536*
X2041764Y1607175*
X2041877Y1607044*
X2041991Y1606781*
Y1606519*
X2041877Y1606256*
X2041650Y1605863*
X2041650D02*
X2040514Y1604550D01*
X2042105*
X1960909Y1567500D02*
X1958159D01*
X1957644Y1567625*
X1957472Y1567750*
X1957300Y1568000*
Y1568250*
X1957472Y1568500*
X1957644Y1568625*
X1958159Y1568750*
X1958503*
X1960222Y1566375D02*
X1960394Y1566125D01*
X1960909Y1565750*
X1957300*
X1991500Y1583631D02*
Y1580350D01*
X1992864*
X1993886Y1583631D02*
Y1580350D01*
Y1583631D02*
X1995364D01*
X1993886Y1582069D02*
X1994795D01*
X1993886Y1580350D02*
X1995364D01*
X1996386Y1583631D02*
Y1580350D01*
Y1583631D02*
X1997182D01*
X1997523Y1583475*
X1997750Y1583163*
X1997750D02*
X1997864Y1582850D01*
X1997977Y1582381*
Y1581600*
X1997864Y1581131*
X1997750Y1580819*
X1997523Y1580506*
X1997182Y1580350*
X1996386*
X1999000Y1583006D02*
X1999227Y1583163D01*
X1999227D02*
X1999568Y1583631D01*
Y1580350*
X1991600Y1619831D02*
Y1616550D01*
X1992964*
X1993986Y1619831D02*
Y1616550D01*
Y1619831D02*
X1995464D01*
X1993986Y1618269D02*
X1994895D01*
X1993986Y1616550D02*
X1995464D01*
X1996486Y1619831D02*
Y1616550D01*
Y1619831D02*
X1997282D01*
X1997623Y1619675*
X1997850Y1619363*
X1997850D02*
X1997964Y1619050D01*
X1998077Y1618581*
Y1617800*
X1997964Y1617331*
X1997850Y1617019*
X1997623Y1616706*
X1997282Y1616550*
X1996486*
X1999214Y1619050D02*
Y1619206D01*
X1999327Y1619519*
X1999441Y1619675*
X1999668Y1619831*
X2000123*
X2000350Y1619675*
X2000464Y1619519*
X2000577Y1619206*
Y1618894*
X2000464Y1618581*
X2000236Y1618113*
X2000236D02*
X1999100Y1616550D01*
X2000691*
X2033882Y1633731D02*
X2033655Y1633575D01*
X2033427Y1633263*
X2033427D02*
X2033314Y1632950D01*
X2033200Y1632481*
Y1631700*
X2033314Y1631231*
X2033427Y1630919*
X2033655Y1630606*
X2033882Y1630450*
X2034336*
X2034564Y1630606*
X2034791Y1630919*
X2034905Y1631231*
X2035018Y1631700*
Y1632481*
X2034905Y1632950*
X2034791Y1633263*
X2034791D02*
X2034564Y1633575D01*
X2034336Y1633731*
X2033882*
X2034223Y1631075D02*
X2034905Y1630137D01*
X2036155Y1632950D02*
Y1633106D01*
X2036268Y1633419*
X2036382Y1633575*
X2036609Y1633731*
X2037064*
X2037291Y1633575*
X2037405Y1633419*
X2037518Y1633106*
Y1632794*
X2037405Y1632481*
X2037177Y1632013*
X2037177D02*
X2036041Y1630450D01*
X2037632*
X2028082Y1583231D02*
X2027855Y1583075D01*
X2027627Y1582763*
X2027627D02*
X2027514Y1582450D01*
X2027400Y1581981*
Y1581200*
X2027514Y1580731*
X2027627Y1580419*
X2027855Y1580106*
X2028082Y1579950*
X2028536*
X2028764Y1580106*
X2028991Y1580419*
X2029105Y1580731*
X2029218Y1581200*
Y1581981*
X2029105Y1582450*
X2028991Y1582763*
X2028991D02*
X2028764Y1583075D01*
X2028536Y1583231*
X2028082*
X2028423Y1580575D02*
X2029105Y1579637D01*
X2030241Y1582606D02*
X2030468Y1582763D01*
X2030468D02*
X2030809Y1583231D01*
Y1579950*
G54D16*
X1937500Y1636250D02*
X2062500D01*
Y1563750*
X1937500*
Y1636250*
G54D156*
X2028450Y1602150D02*
X2024450D01*
X2019500D02*
X2015500D01*
X1973500Y1613050D02*
Y1617050D01*
Y1622950D02*
Y1626950D01*
X2007000Y1602150D02*
X2011000D01*
X2012500Y1585750D02*
Y1581750D01*
Y1618250D02*
Y1614250D01*
X1973500Y1583150D02*
Y1587150D01*
Y1603150D02*
Y1607150D01*
Y1592950D02*
Y1596950D01*
Y1573050D02*
Y1577050D01*
X2036413Y1578907D02*
Y1598593D01*
X2050587*
Y1578907*
X2036413*
Y1608907D02*
Y1628593D01*
X2050587*
Y1608907*
X2036413*
X2006500Y1570250D02*
G75*
G03X2006500I-9000J0D01*
G01Y1629750D02*
G03X2006500I-9000J0D01*
G01X2031500Y1628750D02*
G03X2031500I-9000J0D01*
G01Y1570250D02*
G03X2031500I-9000J0D01*
G54D157*
G01X1956500Y1630000D02*
Y1570000D01*
X1957100Y1630000D02*
Y1570000D01*
X1957600Y1630000D02*
Y1570000D01*
X1958100Y1630000D02*
Y1570000D01*
X1958500Y1630000D02*
Y1570000D01*
X1959100Y1630000D02*
Y1570000D01*
X1959500Y1630000D02*
Y1570000D01*
X1960030Y1629990D02*
Y1569990D01*
X1960630Y1629990D02*
Y1569990D01*
X1961130Y1629990D02*
Y1569990D01*
X1961630Y1629990D02*
Y1569990D01*
X1962030Y1629990D02*
Y1569990D01*
X1962630Y1629990D02*
Y1569990D01*
X1963030Y1629990D02*
Y1569990D01*
G54D158*
X2002364Y1577830D02*
X2002388Y1573558D01*
X2005848*
X2002364Y1577830*
X2002872Y1576774D02*
Y1573882D01*
X2004788Y1573862*
X2002872Y1576774*
X2003340Y1575918D02*
X2003360Y1574210D01*
X2004196Y1574230*
X2003320Y1575898*
X2003340Y1575918*
X2002328Y1566922D02*
X2002324Y1562810D01*
X2005828Y1566922*
X2002328*
X2002936Y1566354D02*
X2004968Y1566270D01*
X2002936Y1563646*
Y1566354*
X2003444Y1566066D02*
Y1564886D01*
X2004624Y1566106*
X2003424Y1566046*
X2003444Y1566066*
X2002364Y1637330D02*
X2002388Y1633058D01*
X2005848*
X2002364Y1637330*
X2002872Y1636274D02*
Y1633382D01*
X2004788Y1633362*
X2002872Y1636274*
X2003340Y1635418D02*
X2003360Y1633710D01*
X2004196Y1633730*
X2003320Y1635398*
X2003340Y1635418*
X2002328Y1626422D02*
X2002324Y1622310D01*
X2005828Y1626422*
X2002328*
X2002936Y1625854D02*
X2004968Y1625770D01*
X2002936Y1623146*
Y1625854*
X2003444Y1625566D02*
Y1624386D01*
X2004624Y1625606*
X2003424Y1625546*
X2003444Y1625566*
X2027364Y1636330D02*
X2027388Y1632058D01*
X2030848*
X2027364Y1636330*
X2027872Y1635274D02*
Y1632382D01*
X2029788Y1632362*
X2027872Y1635274*
X2028340Y1634418D02*
X2028360Y1632710D01*
X2029196Y1632730*
X2028320Y1634398*
X2028340Y1634418*
X2027328Y1625422D02*
X2027324Y1621310D01*
X2030828Y1625422*
X2027328*
X2027936Y1624854D02*
X2029968Y1624770D01*
X2027936Y1622146*
Y1624854*
X2028444Y1624566D02*
Y1623386D01*
X2029624Y1624606*
X2028424Y1624546*
X2028444Y1624566*
X2027364Y1577830D02*
X2027388Y1573558D01*
X2030848*
X2027364Y1577830*
X2027872Y1576774D02*
Y1573882D01*
X2029788Y1573862*
X2027872Y1576774*
X2028340Y1575918D02*
X2028360Y1574210D01*
X2029196Y1574230*
X2028320Y1575898*
X2028340Y1575918*
X2027328Y1566922D02*
X2027324Y1562810D01*
X2030828Y1566922*
X2027328*
X2027936Y1566354D02*
X2029968Y1566270D01*
X2027936Y1563646*
Y1566354*
X2028444Y1566066D02*
Y1564886D01*
X2029624Y1566106*
X2028424Y1566046*
X2028444Y1566066*
G74*
X0Y0D02*
M02*
