*
*
G04 PADS Layout (Build Number 2007.45.1) generated Gerber (RS-274-X) file*
G04 PC Version=2.1*
*
%IN "09051-00121-A.pcb"*%
*
%MOIN*%
*
%FSLAX35Y35*%
*
*
*
*
G04 PC Standard Apertures*
*
*
G04 Thermal Relief Aperture macro.*
%AMTER*
1,1,$1,0,0*
1,0,$1-$2,0,0*
21,0,$3,$4,0,0,45*
21,0,$3,$4,0,0,135*
%
*
*
G04 Annular Aperture macro.*
%AMANN*
1,1,$1,0,0*
1,0,$2,0,0*
%
*
*
G04 Odd Aperture macro.*
%AMODD*
1,1,$1,0,0*
1,0,$1-0.005,0,0*
%
*
*
G04 PC Custom Aperture Macros*
*
*
*
*
*
*
G04 PC Aperture Table*
*
%ADD191C,0.03048*%
%ADD192C,0.07619*%
%ADD193C,0.00305*%
*
*
*
*
G04 PC Copper Outlines (0)*
G04 Layer Name 09051-00121-A.pcb - dark (0)*
%LPD*%
*
*
G04 PC Area=Custom_Thermal*
*
G04 PC Custom Flashes*
G04 Layer Name 09051-00121-A.pcb - flashes*
%LPD*%
*
*
G04 PC Circuitry*
G04 Layer Name 09051-00121-A.pcb - circuitry*
%LPD*%
*
G54D191*
G01X1036378Y2655850D02*
X1060760D01*
X1048569Y2643659D02*
Y2668041D01*
X1054665Y2671946D02*
Y2661945D01*
Y2671946D02*
X1059167D01*
X1054665Y2667184D02*
X1057435D01*
X1036378Y2686327D02*
X1060760D01*
X1048569Y2674136D02*
Y2698518D01*
X1054665Y2702423D02*
Y2692423D01*
Y2702423D02*
X1059167D01*
X1054665Y2697661D02*
X1057435D01*
X1036378Y2716805D02*
X1060760D01*
X1048569Y2704614D02*
Y2728996D01*
X1054665Y2732901D02*
Y2722900D01*
Y2732901D02*
X1059167D01*
X1054665Y2728139D02*
X1057435D01*
X1036378Y2747282D02*
X1060760D01*
X1048569Y2735091D02*
Y2759473D01*
X1054665Y2763378D02*
Y2753378D01*
Y2763378D02*
X1059167D01*
X1054665Y2758616D02*
X1057435D01*
X1036378Y2777760D02*
X1060760D01*
X1048569Y2765569D02*
Y2789951D01*
X1054665Y2793856D02*
Y2783855D01*
Y2793856D02*
X1059167D01*
X1054665Y2789094D02*
X1057435D01*
X1036378Y2808237D02*
X1060760D01*
X1048569Y2796046D02*
Y2820428D01*
X1054665Y2824333D02*
Y2814333D01*
Y2824333D02*
X1059167D01*
X1054665Y2819571D02*
X1057435D01*
X1284770Y996351D02*
X1309152D01*
X1296961Y984160D02*
Y1008542D01*
X1308251Y1010066D02*
X1307905Y1011018D01*
X1307212Y1011971*
X1306520Y1012447*
X1305134*
X1304442Y1011971*
X1303749Y1011018*
X1303403Y1010066*
X1303056Y1008637*
Y1006256*
X1303403Y1004828*
X1303749Y1003875*
X1304442Y1002923*
X1305134Y1002447*
X1306520*
X1307212Y1002923*
X1307905Y1003875*
X1308251Y1004828*
Y1006256*
X1306520D02*
X1308251D01*
X1315247Y996351D02*
X1339629D01*
X1327438Y984160D02*
Y1008542D01*
X1338729Y1010066D02*
X1338382Y1011018D01*
X1337690Y1011971*
X1336997Y1012447*
X1335612*
X1334919Y1011971*
X1334226Y1011018*
X1333880Y1010066*
X1333534Y1008637*
Y1006256*
X1333880Y1004828*
X1334226Y1003875*
X1334919Y1002923*
X1335612Y1002447*
X1336997*
X1337690Y1002923*
X1338382Y1003875*
X1338729Y1004828*
Y1006256*
X1336997D02*
X1338729D01*
X1345725Y996351D02*
X1370107D01*
X1357916Y984160D02*
Y1008542D01*
X1369206Y1010066D02*
X1368860Y1011018D01*
X1368167Y1011971*
X1367475Y1012447*
X1366089*
X1365397Y1011971*
X1364704Y1011018*
X1364358Y1010066*
X1364011Y1008637*
Y1006256*
X1364358Y1004828*
X1364704Y1003875*
X1365397Y1002923*
X1366089Y1002447*
X1367475*
X1368167Y1002923*
X1368860Y1003875*
X1369206Y1004828*
Y1006256*
X1367475D02*
X1369206D01*
X1376202Y996351D02*
X1400584D01*
X1388393Y984160D02*
Y1008542D01*
X1399684Y1010066D02*
X1399337Y1011018D01*
X1398645Y1011971*
X1397952Y1012447*
X1396567*
X1395874Y1011971*
X1395181Y1011018*
X1394835Y1010066*
X1394489Y1008637*
Y1006256*
X1394835Y1004828*
X1395181Y1003875*
X1395874Y1002923*
X1396567Y1002447*
X1397952*
X1398645Y1002923*
X1399337Y1003875*
X1399684Y1004828*
Y1006256*
X1397952D02*
X1399684D01*
X1444776Y996351D02*
X1469158D01*
X1456967Y984160D02*
Y1008542D01*
X1468258Y1010066D02*
X1467912Y1011018D01*
X1467219Y1011971*
X1466526Y1012447*
X1465141*
X1464448Y1011971*
X1463756Y1011018*
X1463409Y1010066*
X1463063Y1008637*
Y1006256*
X1463409Y1004828*
X1463756Y1003875*
X1464448Y1002923*
X1465141Y1002447*
X1466526*
X1467219Y1002923*
X1467912Y1003875*
X1468258Y1004828*
Y1006256*
X1466526D02*
X1468258D01*
X1475254Y996351D02*
X1499636D01*
X1487445Y984160D02*
Y1008542D01*
X1498735Y1010066D02*
X1498389Y1011018D01*
X1497696Y1011971*
X1497004Y1012447*
X1495618*
X1494926Y1011971*
X1494233Y1011018*
X1493887Y1010066*
X1493540Y1008637*
Y1006256*
X1493887Y1004828*
X1494233Y1003875*
X1494926Y1002923*
X1495618Y1002447*
X1497004*
X1497696Y1002923*
X1498389Y1003875*
X1498735Y1004828*
Y1006256*
X1497004D02*
X1498735D01*
X1505731Y996351D02*
X1530113D01*
X1517922Y984160D02*
Y1008542D01*
X1529213Y1010066D02*
X1528867Y1011018D01*
X1528174Y1011971*
X1527481Y1012447*
X1526096*
X1525403Y1011971*
X1524711Y1011018*
X1524364Y1010066*
X1524018Y1008637*
Y1006256*
X1524364Y1004828*
X1524711Y1003875*
X1525403Y1002923*
X1526096Y1002447*
X1527481*
X1528174Y1002923*
X1528867Y1003875*
X1529213Y1004828*
Y1006256*
X1527481D02*
X1529213D01*
X1536209Y996351D02*
X1560591D01*
X1548400Y984160D02*
Y1008542D01*
X1559690Y1010066D02*
X1559344Y1011018D01*
X1558651Y1011971*
X1557959Y1012447*
X1556573*
X1555881Y1011971*
X1555188Y1011018*
X1554842Y1010066*
X1554495Y1008637*
Y1006256*
X1554842Y1004828*
X1555188Y1003875*
X1555881Y1002923*
X1556573Y1002447*
X1557959*
X1558651Y1002923*
X1559344Y1003875*
X1559690Y1004828*
Y1006256*
X1557959D02*
X1559690D01*
X1626118Y1261505D02*
X1650499D01*
X1638308Y1249314D02*
Y1273696D01*
X1649599Y1275220D02*
X1649253Y1276173D01*
X1648560Y1277125*
X1647867Y1277601*
X1646482*
X1645789Y1277125*
X1645097Y1276173*
X1644750Y1275220*
X1644404Y1273791*
Y1271410*
X1644750Y1269982*
X1645097Y1269029*
X1645789Y1268077*
X1646482Y1267601*
X1647867*
X1648560Y1268077*
X1649253Y1269029*
X1649599Y1269982*
Y1271410*
X1647867D02*
X1649599D01*
X1626118Y1291983D02*
X1650499D01*
X1638308Y1279792D02*
Y1304174D01*
X1649599Y1305698D02*
X1649253Y1306650D01*
X1648560Y1307602*
X1647867Y1308079*
X1646482*
X1645789Y1307602*
X1645097Y1306650*
X1644750Y1305698*
X1644404Y1304269*
Y1301888*
X1644750Y1300459*
X1645097Y1299507*
X1645789Y1298554*
X1646482Y1298078*
X1647867*
X1648560Y1298554*
X1649253Y1299507*
X1649599Y1300459*
Y1301888*
X1647867D02*
X1649599D01*
X1626118Y1322460D02*
X1650499D01*
X1638308Y1310269D02*
Y1334651D01*
X1649599Y1336175D02*
X1649253Y1337127D01*
X1649253D02*
X1648560Y1338080D01*
X1647867Y1338556*
X1646482*
X1645789Y1338080*
X1645097Y1337127*
X1645097D02*
X1644750Y1336175D01*
X1644404Y1334746*
Y1332365*
X1644750Y1330937*
X1645097Y1329984*
X1645789Y1329032*
X1646482Y1328556*
X1647867*
X1648560Y1329032*
X1649253Y1329984*
X1649599Y1330937*
Y1332365*
X1647867D02*
X1649599D01*
X1626118Y1352938D02*
X1650499D01*
X1638308Y1340747D02*
Y1365129D01*
X1649599Y1366653D02*
X1649253Y1367605D01*
X1648560Y1368557*
X1647867Y1369034*
X1646482*
X1645789Y1368557*
X1645097Y1367605*
X1644750Y1366653*
X1644404Y1365224*
Y1362843*
X1644750Y1361414*
X1645097Y1360462*
X1645789Y1359509*
X1646482Y1359033*
X1647867*
X1648560Y1359509*
X1649253Y1360462*
X1649599Y1361414*
Y1362843*
X1647867D02*
X1649599D01*
X1124763Y2655850D02*
X1149145D01*
X1136954Y2643659D02*
Y2668041D01*
X1143049Y2671946D02*
Y2661945D01*
Y2671946D02*
X1147552D01*
X1143049Y2667184D02*
X1145820D01*
X1124763Y2686327D02*
X1149145D01*
X1136954Y2674136D02*
Y2698518D01*
X1143049Y2702423D02*
Y2692423D01*
Y2702423D02*
X1147552D01*
X1143049Y2697661D02*
X1145820D01*
X1124763Y2716805D02*
X1149145D01*
X1136954Y2704614D02*
Y2728996D01*
X1143049Y2732901D02*
Y2722900D01*
Y2732901D02*
X1147552D01*
X1143049Y2728139D02*
X1145820D01*
X1124763Y2747282D02*
X1149145D01*
X1136954Y2735091D02*
Y2759473D01*
X1143049Y2763378D02*
Y2753378D01*
Y2763378D02*
X1147552D01*
X1143049Y2758616D02*
X1145820D01*
X1124763Y2777760D02*
X1149145D01*
X1136954Y2765569D02*
Y2789951D01*
X1143049Y2793856D02*
Y2783855D01*
Y2793856D02*
X1147552D01*
X1143049Y2789094D02*
X1145820D01*
X1124763Y2808237D02*
X1149145D01*
X1136954Y2796046D02*
Y2820428D01*
X1143049Y2824333D02*
Y2814333D01*
Y2824333D02*
X1147552D01*
X1143049Y2819571D02*
X1145820D01*
X1447824Y2655850D02*
X1472206D01*
X1460015Y2643659D02*
Y2668041D01*
X1466111Y2671946D02*
Y2661945D01*
Y2671946D02*
X1470613D01*
X1466111Y2667184D02*
X1468881D01*
X1447824Y2686327D02*
X1472206D01*
X1460015Y2674136D02*
Y2698518D01*
X1466111Y2702423D02*
Y2692423D01*
Y2702423D02*
X1470613D01*
X1466111Y2697661D02*
X1468881D01*
X1447824Y2716805D02*
X1472206D01*
X1460015Y2704614D02*
Y2728996D01*
X1466111Y2732901D02*
Y2722900D01*
Y2732901D02*
X1470613D01*
X1466111Y2728139D02*
X1468881D01*
X1447824Y2747282D02*
X1472206D01*
X1460015Y2735091D02*
Y2759473D01*
X1466111Y2763378D02*
Y2753378D01*
Y2763378D02*
X1470613D01*
X1466111Y2758616D02*
X1468881D01*
X1447824Y2777760D02*
X1472206D01*
X1460015Y2765569D02*
Y2789951D01*
X1466111Y2793856D02*
Y2783855D01*
Y2793856D02*
X1470613D01*
X1466111Y2789094D02*
X1468881D01*
X1447824Y2808237D02*
X1472206D01*
X1460015Y2796046D02*
Y2820428D01*
X1466111Y2824333D02*
Y2814333D01*
Y2824333D02*
X1470613D01*
X1466111Y2819571D02*
X1468881D01*
X1536209Y2655850D02*
X1560591D01*
X1548400Y2643659D02*
Y2668041D01*
X1554495Y2671946D02*
Y2661945D01*
Y2671946D02*
X1558998D01*
X1554495Y2667184D02*
X1557266D01*
X1536209Y2686327D02*
X1560591D01*
X1548400Y2674136D02*
Y2698518D01*
X1554495Y2702423D02*
Y2692423D01*
Y2702423D02*
X1558998D01*
X1554495Y2697661D02*
X1557266D01*
X1536209Y2716805D02*
X1560591D01*
X1548400Y2704614D02*
Y2728996D01*
X1554495Y2732901D02*
Y2722900D01*
Y2732901D02*
X1558998D01*
X1554495Y2728139D02*
X1557266D01*
X1536209Y2747282D02*
X1560591D01*
X1548400Y2735091D02*
Y2759473D01*
X1554495Y2763378D02*
Y2753378D01*
Y2763378D02*
X1558998D01*
X1554495Y2758616D02*
X1557266D01*
X1536209Y2777760D02*
X1560591D01*
X1548400Y2765569D02*
Y2789951D01*
X1554495Y2793856D02*
Y2783855D01*
Y2793856D02*
X1558998D01*
X1554495Y2789094D02*
X1557266D01*
X1536209Y2808237D02*
X1560591D01*
X1548400Y2796046D02*
Y2820428D01*
X1554495Y2824333D02*
Y2814333D01*
Y2824333D02*
X1558998D01*
X1554495Y2819571D02*
X1557266D01*
X1624594Y2655850D02*
X1648976D01*
X1636785Y2643659D02*
Y2668041D01*
X1642880Y2671946D02*
Y2661945D01*
Y2671946D02*
X1647382D01*
X1642880Y2667184D02*
X1645651D01*
X1624594Y2686327D02*
X1648976D01*
X1636785Y2674136D02*
Y2698518D01*
X1642880Y2702423D02*
Y2692423D01*
Y2702423D02*
X1647382D01*
X1642880Y2697661D02*
X1645651D01*
X1624594Y2716805D02*
X1648976D01*
X1636785Y2704614D02*
Y2728996D01*
X1642880Y2732901D02*
Y2722900D01*
Y2732901D02*
X1647382D01*
X1642880Y2728139D02*
X1645651D01*
X1624594Y2747282D02*
X1648976D01*
X1636785Y2735091D02*
Y2759473D01*
X1642880Y2763378D02*
Y2753378D01*
Y2763378D02*
X1647382D01*
X1642880Y2758616D02*
X1645651D01*
X1624594Y2777760D02*
X1648976D01*
X1636785Y2765569D02*
Y2789951D01*
X1642880Y2793856D02*
Y2783855D01*
Y2793856D02*
X1647382D01*
X1642880Y2789094D02*
X1645651D01*
X1624594Y2808237D02*
X1648976D01*
X1636785Y2796046D02*
Y2820428D01*
X1642880Y2824333D02*
Y2814333D01*
Y2824333D02*
X1647382D01*
X1642880Y2819571D02*
X1645651D01*
X1034854Y1352938D02*
X1059236D01*
X1047045Y1340747D02*
Y1365129D01*
X1058336Y1366653D02*
X1057990Y1367605D01*
X1057297Y1368557*
X1056604Y1369034*
X1055219*
X1054526Y1368557*
X1053834Y1367605*
X1053487Y1366653*
X1053141Y1365224*
Y1362843*
X1053487Y1361414*
X1053834Y1360462*
X1054526Y1359509*
X1055219Y1359033*
X1056604*
X1057297Y1359509*
X1057990Y1360462*
X1058336Y1361414*
Y1362843*
X1056604D02*
X1058336D01*
X1034854Y1322460D02*
X1059236D01*
X1047045Y1310269D02*
Y1334651D01*
X1058336Y1336175D02*
X1057990Y1337127D01*
X1057990D02*
X1057297Y1338080D01*
X1056604Y1338556*
X1055219*
X1054526Y1338080*
X1053834Y1337127*
X1053834D02*
X1053487Y1336175D01*
X1053141Y1334746*
Y1332365*
X1053487Y1330937*
X1053834Y1329984*
X1054526Y1329032*
X1055219Y1328556*
X1056604*
X1057297Y1329032*
X1057990Y1329984*
X1058336Y1330937*
Y1332365*
X1056604D02*
X1058336D01*
X1034854Y1291983D02*
X1059236D01*
X1047045Y1279792D02*
Y1304174D01*
X1058336Y1305698D02*
X1057990Y1306650D01*
X1057297Y1307602*
X1056604Y1308079*
X1055219*
X1054526Y1307602*
X1053834Y1306650*
X1053487Y1305698*
X1053141Y1304269*
Y1301888*
X1053487Y1300459*
X1053834Y1299507*
X1054526Y1298554*
X1055219Y1298078*
X1056604*
X1057297Y1298554*
X1057990Y1299507*
X1058336Y1300459*
Y1301888*
X1056604D02*
X1058336D01*
X1034854Y1261505D02*
X1059236D01*
X1047045Y1249314D02*
Y1273696D01*
X1058336Y1275220D02*
X1057990Y1276173D01*
X1057297Y1277125*
X1056604Y1277601*
X1055219*
X1054526Y1277125*
X1053834Y1276173*
X1053487Y1275220*
X1053141Y1273791*
Y1271410*
X1053487Y1269982*
X1053834Y1269029*
X1054526Y1268077*
X1055219Y1267601*
X1056604*
X1057297Y1268077*
X1057990Y1269029*
X1058336Y1269982*
Y1271410*
X1056604D02*
X1058336D01*
X1124763Y996351D02*
X1149145D01*
X1136954Y984160D02*
Y1008542D01*
X1148244Y1010066D02*
X1147898Y1011018D01*
X1147205Y1011971*
X1146513Y1012447*
X1145127*
X1144435Y1011971*
X1143742Y1011018*
X1143396Y1010066*
X1143049Y1008637*
Y1006256*
X1143396Y1004828*
X1143742Y1003875*
X1144435Y1002923*
X1145127Y1002447*
X1146513*
X1147205Y1002923*
X1147898Y1003875*
X1148244Y1004828*
Y1006256*
X1146513D02*
X1148244D01*
X1155240Y996351D02*
X1179622D01*
X1167431Y984160D02*
Y1008542D01*
X1178722Y1010066D02*
X1178376Y1011018D01*
X1177683Y1011971*
X1176990Y1012447*
X1175605*
X1174912Y1011971*
X1174220Y1011018*
X1173873Y1010066*
X1173527Y1008637*
Y1006256*
X1173873Y1004828*
X1174220Y1003875*
X1174912Y1002923*
X1175605Y1002447*
X1176990*
X1177683Y1002923*
X1178376Y1003875*
X1178722Y1004828*
Y1006256*
X1176990D02*
X1178722D01*
X1185718Y996351D02*
X1210100D01*
X1197909Y984160D02*
Y1008542D01*
X1209199Y1010066D02*
X1208853Y1011018D01*
X1208160Y1011971*
X1207468Y1012447*
X1206082*
X1205390Y1011971*
X1204697Y1011018*
X1204351Y1010066*
X1204004Y1008637*
Y1006256*
X1204351Y1004828*
X1204697Y1003875*
X1205390Y1002923*
X1206082Y1002447*
X1207468*
X1208160Y1002923*
X1208853Y1003875*
X1209199Y1004828*
Y1006256*
X1207468D02*
X1209199D01*
X1216195Y996351D02*
X1240577D01*
X1228386Y984160D02*
Y1008542D01*
X1239677Y1010066D02*
X1239331Y1011018D01*
X1238638Y1011971*
X1237945Y1012447*
X1236560*
X1235867Y1011971*
X1235175Y1011018*
X1234828Y1010066*
X1234482Y1008637*
Y1006256*
X1234828Y1004828*
X1235175Y1003875*
X1235867Y1002923*
X1236560Y1002447*
X1237945*
X1238638Y1002923*
X1239331Y1003875*
X1239677Y1004828*
Y1006256*
X1237945D02*
X1239677D01*
X1033331Y2579352D02*
X1057712D01*
X1045522Y2567161D02*
Y2591542D01*
X1051617Y2595447D02*
Y2585447D01*
X1056466Y2595447D02*
Y2585447D01*
X1051617Y2590685D02*
X1056466D01*
X1627641Y2579352D02*
X1652023D01*
X1639832Y2567161D02*
Y2591542D01*
X1645928Y2595447D02*
Y2585447D01*
X1650777Y2595447D02*
Y2585447D01*
X1645928Y2590685D02*
X1650777D01*
X1033331Y2876812D02*
X1057712D01*
X1045522Y2864621D02*
Y2889003D01*
X1051617Y2892908D02*
Y2882907D01*
X1056466Y2892908D02*
Y2882907D01*
X1051617Y2888146D02*
X1056466D01*
X1627641Y2876812D02*
X1652023D01*
X1639832Y2864621D02*
Y2889003D01*
X1645928Y2892908D02*
Y2882907D01*
X1650777Y2892908D02*
Y2882907D01*
X1645928Y2888146D02*
X1650777D01*
X1033331Y1451685D02*
X1057712D01*
X1045522Y1439494D02*
Y1463876D01*
X1051617Y1467781D02*
Y1457780D01*
X1056466Y1467781D02*
Y1457780D01*
X1051617Y1463019D02*
X1056466D01*
X1627641Y1451685D02*
X1652023D01*
X1639832Y1439494D02*
Y1463876D01*
X1645928Y1467781D02*
Y1457780D01*
X1650777Y1467781D02*
Y1457780D01*
X1645928Y1463019D02*
X1650777D01*
X1033331Y995742D02*
X1057712D01*
X1045522Y983551D02*
Y1007933D01*
X1051617Y1011838D02*
Y1001837D01*
X1056466Y1011838D02*
Y1001837D01*
X1051617Y1007075D02*
X1056466D01*
X1627641Y995742D02*
X1652023D01*
X1639832Y983551D02*
Y1007933D01*
X1645928Y1011838D02*
Y1001837D01*
X1650777Y1011838D02*
Y1001837D01*
X1645928Y1007075D02*
X1650777D01*
X1062284Y2367420D02*
X1086666D01*
X1074475Y2355229D02*
Y2379611D01*
X1080571Y2383516D02*
Y2373516D01*
X1062284Y2391418D02*
X1086666D01*
X1074475Y2379227D02*
Y2403609D01*
X1080571Y2407514D02*
Y2397514D01*
X1061370Y2451154D02*
X1085752D01*
X1073561Y2438963D02*
Y2463345D01*
X1079656Y2467250D02*
Y2457250D01*
X1061370Y2427156D02*
X1085752D01*
X1073561Y2414965D02*
Y2439347D01*
X1079656Y2443252D02*
Y2433252D01*
X1062284Y2488721D02*
X1086666D01*
X1074475Y2476530D02*
Y2500912D01*
X1080571Y2504817D02*
Y2494816D01*
X1062284Y2512719D02*
X1086666D01*
X1074475Y2500528D02*
Y2524910D01*
X1080571Y2528815D02*
Y2518814D01*
X1062284Y2331987D02*
X1086666D01*
X1074475Y2319796D02*
Y2344178D01*
X1080571Y2348083D02*
Y2338083D01*
X1062284Y2307989D02*
X1086666D01*
X1074475Y2295798D02*
Y2320180D01*
X1080571Y2324085D02*
Y2314085D01*
X1597773Y2342316D02*
X1622155D01*
X1609964Y2330125D02*
Y2354507D01*
X1616060Y2358412D02*
Y2348411D01*
X1597773Y2366314D02*
X1622155D01*
X1609964Y2354123D02*
Y2378505D01*
X1616060Y2382410D02*
Y2372409D01*
X1597773Y2390312D02*
X1622155D01*
X1609964Y2378121D02*
Y2402503D01*
X1616060Y2406408D02*
Y2396407D01*
X1597773Y2448987D02*
X1622155D01*
X1609964Y2436796D02*
Y2461178D01*
X1616060Y2465083D02*
Y2455083D01*
X1597773Y2472985D02*
X1622155D01*
X1609964Y2460794D02*
Y2485176D01*
X1616060Y2489081D02*
Y2479081D01*
X1597773Y2496983D02*
X1622155D01*
X1609964Y2484792D02*
Y2509174D01*
X1616060Y2513079D02*
Y2503079D01*
X1597773Y1534663D02*
X1622155D01*
X1609964Y1522472D02*
Y1546854D01*
X1616060Y1550759D02*
Y1540758D01*
X1597773Y1558661D02*
X1622155D01*
X1609964Y1546470D02*
Y1570852D01*
X1616060Y1574757D02*
Y1564756D01*
X1597773Y1582659D02*
X1622155D01*
X1609964Y1570468D02*
Y1594850D01*
X1616060Y1598755D02*
Y1588754D01*
X1597773Y1641334D02*
X1622155D01*
X1609964Y1629143D02*
Y1653525D01*
X1616060Y1657430D02*
Y1647429D01*
X1597773Y1665332D02*
X1622155D01*
X1609964Y1653141D02*
Y1677523D01*
X1616060Y1681428D02*
Y1671427D01*
X1597773Y1689330D02*
X1622155D01*
X1609964Y1677139D02*
Y1701521D01*
X1616060Y1705426D02*
Y1695425D01*
X1086971Y1674542D02*
X1111353D01*
X1086971Y1698924*
X1111353*
X1086971Y1674542*
Y1650544D02*
X1111353D01*
X1086971Y1674926*
X1111353*
X1086971Y1650544*
Y1626546D02*
X1111353D01*
X1086971Y1650928*
X1111353*
X1086971Y1626546*
Y1602548D02*
X1111353D01*
X1086971Y1626930*
X1111353*
X1086971Y1602548*
Y1578550D02*
X1111353D01*
X1086971Y1602932*
X1111353*
X1086971Y1578550*
Y1554552D02*
X1111353D01*
X1086971Y1578934*
X1111353*
X1086971Y1554552*
Y1530554D02*
X1111353D01*
X1086971Y1554936*
X1111353*
X1086971Y1530554*
X1349684Y2770148D02*
X1374066D01*
X1361875Y2757957D02*
Y2782339D01*
X1371434Y2786244D02*
Y2778624D01*
X1371088Y2777196*
X1370742Y2776719*
X1370049Y2776243*
X1369356*
X1368664Y2776719*
X1368317Y2777196*
X1367971Y2778624*
Y2779577*
X1300008Y2770148D02*
X1324390D01*
X1312199Y2757957D02*
Y2782339D01*
X1321758Y2786244D02*
Y2778624D01*
X1321412Y2777196*
X1321066Y2776719*
X1320373Y2776243*
X1319680*
X1318988Y2776719*
X1318641Y2777196*
X1318295Y2778624*
Y2779577*
X1250333Y2770148D02*
X1274715D01*
X1262524Y2757957D02*
Y2782339D01*
X1272082Y2786244D02*
Y2778624D01*
X1271736Y2777196*
X1271390Y2776719*
X1270697Y2776243*
X1270004*
X1269312Y2776719*
X1268965Y2777196*
X1268619Y2778624*
Y2779577*
X1300008Y2858220D02*
X1324390D01*
X1312199Y2846029D02*
Y2870411D01*
X1318295Y2874316D02*
Y2864316D01*
X1323144Y2874316D02*
X1318295Y2867649D01*
X1320027Y2870030D02*
X1323144Y2864316D01*
X1597164Y1052926D02*
X1621546D01*
X1609355Y1040735D02*
Y1065117D01*
X1615450Y1069022D02*
Y1059022D01*
X1597164Y1076925D02*
X1621546D01*
X1609355Y1064734D02*
Y1089115D01*
X1615450Y1093020D02*
Y1083020D01*
X1063808Y2281001D02*
X1088190D01*
X1075999Y2268810D02*
Y2293192D01*
X1082094Y2297097D02*
Y2287096D01*
X1086250*
X1063808Y1750645D02*
X1088190D01*
X1075999Y1738454D02*
Y1762836D01*
X1082094Y1766741D02*
Y1756740D01*
Y1766741D02*
X1084865Y1756740D01*
X1087636Y1766741D02*
X1084865Y1756740D01*
X1087636Y1766741D02*
Y1756740D01*
X1597164Y2281001D02*
X1621546D01*
X1609355Y2268810D02*
Y2293192D01*
X1615450Y2297097D02*
Y2287096D01*
Y2297097D02*
X1618221Y2287096D01*
X1620992Y2297097D02*
X1618221Y2287096D01*
X1620992Y2297097D02*
Y2287096D01*
X1597164Y1750645D02*
X1621546D01*
X1609355Y1738454D02*
Y1762836D01*
X1615450Y1766741D02*
Y1756740D01*
Y1766741D02*
X1618221Y1756740D01*
X1620992Y1766741D02*
X1618221Y1756740D01*
X1620992Y1766741D02*
Y1756740D01*
X1079656Y997570D02*
X1104038D01*
X1091847Y985379D02*
Y1009761D01*
X1097943Y1013666D02*
Y1003666D01*
Y1013666D02*
X1102791Y1003666D01*
Y1013666D02*
Y1003666D01*
X1090323Y1033229D02*
X1114705D01*
X1102514Y1021038D02*
Y1045420D01*
X1108610Y1049325D02*
Y1039324D01*
Y1049325D02*
X1113459Y1039324D01*
Y1049325D02*
Y1039324D01*
X1241796Y998180D02*
X1266178D01*
X1253987Y985989D02*
Y1010371D01*
X1260083Y1014276D02*
Y1004275D01*
Y1014276D02*
X1264932Y1004275D01*
Y1014276D02*
Y1004275D01*
X1252768Y1031705D02*
X1277150D01*
X1264959Y1019514D02*
Y1043896D01*
X1271055Y1047801D02*
Y1037801D01*
Y1047801D02*
X1275904Y1037801D01*
Y1047801D02*
Y1037801D01*
X1403937Y998485D02*
X1428319D01*
X1416128Y986294D02*
Y1010676D01*
X1422223Y1014581D02*
Y1004580D01*
Y1014581D02*
X1427072Y1004580D01*
Y1014581D02*
Y1004580D01*
X1414299Y1031400D02*
X1438681D01*
X1426490Y1019209D02*
Y1043591D01*
X1432586Y1047496D02*
Y1037496D01*
Y1047496D02*
X1437434Y1037496D01*
Y1047496D02*
Y1037496D01*
X1031502Y1114909D02*
X1055884D01*
X1043693Y1102718D02*
Y1127100D01*
X1049788Y1131004D02*
Y1121004D01*
Y1131004D02*
X1054637Y1121004D01*
Y1131004D02*
Y1121004D01*
X1050093Y1114909D02*
X1074475D01*
X1062284Y1102718D02*
Y1127100D01*
X1068380Y1131004D02*
Y1121004D01*
Y1131004D02*
X1073228Y1121004D01*
Y1131004D02*
Y1121004D01*
X1120496Y1141729D02*
X1144878D01*
X1132687Y1129538D02*
Y1153920D01*
X1138783Y1157825D02*
Y1147824D01*
Y1157825D02*
X1143631Y1147824D01*
Y1157825D02*
Y1147824D01*
X1142440Y1055477D02*
X1166822D01*
X1154631Y1043286D02*
Y1067668D01*
X1160726Y1071573D02*
Y1061573D01*
Y1071573D02*
X1165575Y1061573D01*
Y1071573D02*
Y1061573D01*
X1148840Y1112470D02*
X1173222D01*
X1161031Y1100279D02*
Y1124661D01*
X1167127Y1128566D02*
Y1118566D01*
Y1128566D02*
X1171975Y1118566D01*
Y1128566D02*
Y1118566D01*
X1135430Y1112166D02*
X1159812D01*
X1147621Y1099975D02*
Y1124357D01*
X1153717Y1128262D02*
Y1118261D01*
Y1128262D02*
X1158565Y1118261D01*
Y1128262D02*
Y1118261D01*
X1103429Y1153310D02*
X1127811D01*
X1115620Y1141119D02*
Y1165501D01*
X1121715Y1169406D02*
Y1159406D01*
Y1169406D02*
X1126564Y1159406D01*
Y1169406D02*
Y1159406D01*
X1148864Y1129209D02*
X1173246D01*
X1161055Y1117018D02*
Y1141400D01*
X1167151Y1145305D02*
Y1135305D01*
Y1145305D02*
X1171999Y1135305D01*
Y1145305D02*
Y1135305D01*
X1140611Y1128928D02*
X1164993D01*
X1152802Y1116737D02*
Y1141119D01*
X1158898Y1145024D02*
Y1135024D01*
Y1145024D02*
X1163746Y1135024D01*
Y1145024D02*
Y1135024D01*
X1071427Y1069497D02*
X1095809D01*
X1083618Y1057306D02*
Y1081688D01*
X1089714Y1085593D02*
Y1075593D01*
Y1085593D02*
X1094563Y1075593D01*
Y1085593D02*
Y1075593D01*
X1171393Y1141729D02*
X1195775D01*
X1183584Y1129538D02*
Y1153920D01*
X1189680Y1157825D02*
Y1147824D01*
Y1157825D02*
X1194529Y1147824D01*
Y1157825D02*
Y1147824D01*
X1222596Y1112166D02*
X1246978D01*
X1234787Y1099975D02*
Y1124357D01*
X1240882Y1128262D02*
Y1118261D01*
Y1128262D02*
X1245731Y1118261D01*
Y1128262D02*
Y1118261D01*
X1268007Y1153310D02*
X1292389D01*
X1280198Y1141119D02*
Y1165501D01*
X1286294Y1169406D02*
Y1159406D01*
Y1169406D02*
X1291142Y1159406D01*
Y1169406D02*
Y1159406D01*
X1260388Y1069497D02*
X1284770D01*
X1272579Y1057306D02*
Y1081688D01*
X1278674Y1085593D02*
Y1075593D01*
Y1085593D02*
X1283523Y1075593D01*
Y1085593D02*
Y1075593D01*
X1191509Y1148434D02*
X1215891D01*
X1203700Y1136243D02*
Y1160625D01*
X1209795Y1164530D02*
Y1154529D01*
Y1164530D02*
X1214644Y1154529D01*
Y1164530D02*
Y1154529D01*
X1335058Y1141729D02*
X1359440D01*
X1347249Y1129538D02*
Y1153920D01*
X1353344Y1157825D02*
Y1147824D01*
Y1157825D02*
X1358193Y1147824D01*
Y1157825D02*
Y1147824D01*
X1285989Y1142034D02*
X1310371D01*
X1298180Y1129843D02*
Y1154225D01*
X1304275Y1158129D02*
Y1148129D01*
Y1158129D02*
X1309124Y1148129D01*
Y1158129D02*
Y1148129D01*
X1386565Y1112166D02*
X1410946D01*
X1398756Y1099975D02*
Y1124357D01*
X1404851Y1128262D02*
Y1118261D01*
Y1128262D02*
X1409700Y1118261D01*
Y1128262D02*
Y1118261D01*
X1331400Y1054868D02*
X1355782D01*
X1343591Y1042677D02*
Y1067059D01*
X1349687Y1070964D02*
Y1060963D01*
Y1070964D02*
X1354535Y1060963D01*
Y1070964D02*
Y1060963D01*
X1313419Y1112470D02*
X1337801D01*
X1325610Y1100279D02*
Y1124661D01*
X1331705Y1128566D02*
Y1118566D01*
Y1128566D02*
X1336554Y1118566D01*
Y1128566D02*
Y1118566D01*
X1291780Y1127100D02*
X1316162D01*
X1303971Y1114909D02*
Y1139291D01*
X1310066Y1143195D02*
Y1133195D01*
Y1143195D02*
X1314915Y1133195D01*
Y1143195D02*
Y1133195D01*
X1313723Y1128928D02*
X1338105D01*
X1325914Y1116737D02*
Y1141119D01*
X1332010Y1145024D02*
Y1135024D01*
Y1145024D02*
X1336859Y1135024D01*
Y1145024D02*
Y1135024D01*
X1304580Y1127100D02*
X1328962D01*
X1316771Y1114909D02*
Y1139291D01*
X1322867Y1143195D02*
Y1133195D01*
Y1143195D02*
X1327715Y1133195D01*
Y1143195D02*
Y1133195D01*
X1356087Y1148434D02*
X1380469D01*
X1368278Y1136243D02*
Y1160625D01*
X1374374Y1164530D02*
Y1154529D01*
Y1164530D02*
X1379222Y1154529D01*
Y1164530D02*
Y1154529D01*
X1499941Y1141424D02*
X1524323D01*
X1512132Y1129233D02*
Y1153615D01*
X1518227Y1157520D02*
Y1147519D01*
Y1157520D02*
X1523076Y1147519D01*
Y1157520D02*
Y1147519D01*
X1451482Y1141424D02*
X1475864D01*
X1463673Y1129233D02*
Y1153615D01*
X1469768Y1157520D02*
Y1147519D01*
Y1157520D02*
X1474617Y1147519D01*
Y1157520D02*
Y1147519D01*
X1513046Y1055477D02*
X1537428D01*
X1525237Y1043286D02*
Y1067668D01*
X1531333Y1071573D02*
Y1061573D01*
Y1071573D02*
X1536181Y1061573D01*
Y1071573D02*
Y1061573D01*
X1478911Y1111861D02*
X1503293D01*
X1491102Y1099670D02*
Y1124052D01*
X1497198Y1127957D02*
Y1117956D01*
Y1127957D02*
X1502046Y1117956D01*
Y1127957D02*
Y1117956D01*
X1457272Y1127100D02*
X1481654D01*
X1469463Y1114909D02*
Y1139291D01*
X1475559Y1143195D02*
Y1133195D01*
Y1143195D02*
X1480407Y1133195D01*
Y1143195D02*
Y1133195D01*
X1421918Y1068888D02*
X1446300D01*
X1434109Y1056697D02*
Y1081079D01*
X1440205Y1084983D02*
Y1074983D01*
Y1084983D02*
X1445054Y1074983D01*
Y1084983D02*
Y1074983D01*
X1435633Y1153310D02*
X1460015D01*
X1447824Y1141119D02*
Y1165501D01*
X1453920Y1169406D02*
Y1159406D01*
Y1169406D02*
X1458768Y1159406D01*
Y1169406D02*
Y1159406D01*
X1521580Y1147824D02*
X1545962D01*
X1533771Y1135633D02*
Y1160015D01*
X1539866Y1163920D02*
Y1153920D01*
Y1163920D02*
X1544715Y1153920D01*
Y1163920D02*
Y1153920D01*
X1478935Y1128600D02*
X1503317D01*
X1491126Y1116409D02*
Y1140791D01*
X1497222Y1144695D02*
Y1134695D01*
Y1144695D02*
X1502070Y1134695D01*
Y1144695D02*
Y1134695D01*
X1469768Y1128319D02*
X1494150D01*
X1481959Y1116128D02*
Y1140510D01*
X1488055Y1144415D02*
Y1134414D01*
Y1144415D02*
X1492903Y1134414D01*
Y1144415D02*
Y1134414D01*
X1628860Y1089307D02*
X1653242D01*
X1641051Y1077116D02*
Y1101498D01*
X1647147Y1105403D02*
Y1095403D01*
Y1105403D02*
X1651996Y1095403D01*
Y1105403D02*
Y1095403D01*
X1552667Y1114299D02*
X1577049D01*
X1564858Y1102108D02*
Y1126490D01*
X1570953Y1130395D02*
Y1120395D01*
Y1130395D02*
X1575802Y1120395D01*
Y1130395D02*
Y1120395D01*
X1031807Y1218837D02*
X1056189D01*
X1043998Y1206646D02*
Y1231028D01*
X1050093Y1234933D02*
Y1224932D01*
Y1234933D02*
X1054942Y1224932D01*
Y1234933D02*
Y1224932D01*
X1155240Y1181045D02*
X1179622D01*
X1167431Y1168854D02*
Y1193236D01*
X1173527Y1197141D02*
Y1187140D01*
Y1197141D02*
X1178376Y1187140D01*
Y1197141D02*
Y1187140D01*
X1155240Y1162453D02*
X1179622D01*
X1167431Y1150262D02*
Y1174644D01*
X1173527Y1178549D02*
Y1168549D01*
Y1178549D02*
X1178376Y1168549D01*
Y1178549D02*
Y1168549D01*
X1136649Y1181045D02*
X1161031D01*
X1148840Y1168854D02*
Y1193236D01*
X1154936Y1197141D02*
Y1187140D01*
Y1197141D02*
X1159784Y1187140D01*
Y1197141D02*
Y1187140D01*
X1136649Y1162453D02*
X1161031D01*
X1148840Y1150262D02*
Y1174644D01*
X1154936Y1178549D02*
Y1168549D01*
Y1178549D02*
X1159784Y1168549D01*
Y1178549D02*
Y1168549D01*
X1109524Y1198722D02*
X1133906D01*
X1121715Y1186531D02*
Y1210913D01*
X1127811Y1214818D02*
Y1204817D01*
Y1214818D02*
X1132659Y1204817D01*
Y1214818D02*
Y1204817D01*
X1050093Y1194455D02*
X1074475D01*
X1062284Y1182264D02*
Y1206646D01*
X1068380Y1210551D02*
Y1200550D01*
Y1210551D02*
X1073228Y1200550D01*
Y1210551D02*
Y1200550D01*
X1093371Y1259372D02*
X1117753D01*
X1105562Y1247181D02*
Y1271563D01*
X1111658Y1275468D02*
Y1265467D01*
Y1275468D02*
X1116506Y1265467D01*
Y1275468D02*
Y1265467D01*
X1117448Y1200246D02*
X1141830D01*
X1129639Y1188055D02*
Y1212437D01*
X1135735Y1216341D02*
Y1206341D01*
Y1216341D02*
X1140584Y1206341D01*
Y1216341D02*
Y1206341D01*
X1103429Y1183788D02*
X1127811D01*
X1115620Y1171597D02*
Y1195979D01*
X1121715Y1199884D02*
Y1189883D01*
Y1199884D02*
X1126564Y1189883D01*
Y1199884D02*
Y1189883D01*
X1097638Y1172816D02*
X1122020D01*
X1109829Y1160625D02*
Y1185007D01*
X1115924Y1188912D02*
Y1178911D01*
Y1188912D02*
X1120773Y1178911D01*
Y1188912D02*
Y1178911D01*
X1155850Y1226761D02*
X1180232D01*
X1168041Y1214570D02*
Y1238952D01*
X1174136Y1242857D02*
Y1232856D01*
Y1242857D02*
X1178985Y1232856D01*
Y1242857D02*
Y1232856D01*
X1149145Y1231942D02*
X1173527D01*
X1161336Y1219751D02*
Y1244133D01*
X1167431Y1248038D02*
Y1238038D01*
Y1248038D02*
X1172280Y1238038D01*
Y1248038D02*
Y1238038D01*
X1140098Y1232456D02*
X1164480D01*
X1152289Y1220265D02*
Y1244647D01*
X1158384Y1248552D02*
Y1238551D01*
Y1248552D02*
X1163233Y1238551D01*
Y1248552D02*
Y1238551D01*
X1155240Y1218837D02*
X1179622D01*
X1167431Y1206646D02*
Y1231028D01*
X1173527Y1234933D02*
Y1224932D01*
Y1234933D02*
X1178376Y1224932D01*
Y1234933D02*
Y1224932D01*
X1125982Y1224018D02*
X1150364D01*
X1138173Y1211827D02*
Y1236209D01*
X1144269Y1240114D02*
Y1230113D01*
Y1240114D02*
X1149117Y1230113D01*
Y1240114D02*
Y1230113D01*
X1079047Y1165501D02*
X1103429D01*
X1091238Y1153310D02*
Y1177692D01*
X1097333Y1181597D02*
Y1171597D01*
Y1181597D02*
X1102182Y1171597D01*
Y1181597D02*
Y1171597D01*
X1237834Y1191407D02*
X1262216D01*
X1250025Y1179216D02*
Y1203598D01*
X1256121Y1207503D02*
Y1197503D01*
Y1207503D02*
X1260970Y1197503D01*
Y1207503D02*
Y1197503D01*
X1234787Y1278573D02*
X1259169D01*
X1246978Y1266382D02*
Y1290764D01*
X1253073Y1294669D02*
Y1284668D01*
Y1294669D02*
X1257922Y1284668D01*
Y1294669D02*
Y1284668D01*
X1272274Y1202074D02*
X1296656D01*
X1284465Y1189883D02*
Y1214265D01*
X1290560Y1218170D02*
Y1208170D01*
Y1218170D02*
X1295409Y1208170D01*
Y1218170D02*
Y1208170D01*
X1191813Y1192017D02*
X1216195D01*
X1204004Y1179826D02*
Y1204208D01*
X1210100Y1208113D02*
Y1198112D01*
Y1208113D02*
X1214949Y1198112D01*
Y1208113D02*
Y1198112D01*
X1165603Y1275220D02*
X1189985D01*
X1177794Y1263029D02*
Y1287411D01*
X1183889Y1291316D02*
Y1281316D01*
Y1291316D02*
X1188738Y1281316D01*
Y1291316D02*
Y1281316D01*
X1266178Y1188359D02*
X1290560D01*
X1278369Y1176168D02*
Y1200550D01*
X1284465Y1204455D02*
Y1194455D01*
Y1204455D02*
X1289314Y1194455D01*
Y1204455D02*
Y1194455D01*
X1268007Y1177692D02*
X1292389D01*
X1280198Y1165501D02*
Y1189883D01*
X1286294Y1193788D02*
Y1183788D01*
Y1193788D02*
X1291142Y1183788D01*
Y1193788D02*
Y1183788D01*
X1226863Y1274001D02*
X1251244D01*
X1239054Y1261810D02*
Y1286192D01*
X1245149Y1290097D02*
Y1280097D01*
Y1290097D02*
X1249998Y1280097D01*
Y1290097D02*
Y1280097D01*
X1190290Y1177692D02*
X1214672D01*
X1202481Y1165501D02*
Y1189883D01*
X1208576Y1193788D02*
Y1183788D01*
Y1193788D02*
X1213425Y1183788D01*
Y1193788D02*
Y1183788D01*
X1223815Y1164587D02*
X1248197D01*
X1236006Y1152396D02*
Y1176778D01*
X1242101Y1180683D02*
Y1170682D01*
Y1180683D02*
X1246950Y1170682D01*
Y1180683D02*
Y1170682D01*
X1199433Y1261505D02*
X1223815D01*
X1211624Y1249314D02*
Y1273696D01*
X1217719Y1277601D02*
Y1267601D01*
Y1277601D02*
X1222568Y1267601D01*
Y1277601D02*
Y1267601D01*
X1175965Y1216703D02*
X1200347D01*
X1188156Y1204512D02*
Y1228894D01*
X1194252Y1232799D02*
Y1222799D01*
Y1232799D02*
X1199100Y1222799D01*
Y1232799D02*
Y1222799D01*
X1169870Y1211217D02*
X1194252D01*
X1182061Y1199026D02*
Y1223408D01*
X1188156Y1227313D02*
Y1217313D01*
Y1227313D02*
X1193005Y1217313D01*
Y1227313D02*
Y1217313D01*
X1189375Y1159710D02*
X1213757D01*
X1201566Y1147519D02*
Y1171901D01*
X1207662Y1175806D02*
Y1165806D01*
Y1175806D02*
X1212510Y1165806D01*
Y1175806D02*
Y1165806D01*
X1191509Y1262115D02*
X1215891D01*
X1203700Y1249924D02*
Y1274306D01*
X1209795Y1278211D02*
Y1268210D01*
Y1278211D02*
X1214644Y1268210D01*
Y1278211D02*
Y1268210D01*
X1204004Y1275220D02*
X1228386D01*
X1216195Y1263029D02*
Y1287411D01*
X1222291Y1291316D02*
Y1281316D01*
Y1291316D02*
X1227140Y1281316D01*
Y1291316D02*
Y1281316D01*
X1268007Y1165501D02*
X1292389D01*
X1280198Y1153310D02*
Y1177692D01*
X1286294Y1181597D02*
Y1171597D01*
Y1181597D02*
X1291142Y1171597D01*
Y1181597D02*
Y1171597D01*
X1279893Y1267906D02*
X1304275D01*
X1292084Y1255715D02*
Y1280097D01*
X1298180Y1284001D02*
Y1274001D01*
Y1284001D02*
X1303029Y1274001D01*
Y1284001D02*
Y1274001D01*
X1319819Y1180740D02*
X1344201D01*
X1332010Y1168549D02*
Y1192931D01*
X1338105Y1196836D02*
Y1186835D01*
Y1196836D02*
X1342954Y1186835D01*
Y1196836D02*
Y1186835D01*
X1319819Y1162453D02*
X1344201D01*
X1332010Y1150262D02*
Y1174644D01*
X1338105Y1178549D02*
Y1168549D01*
Y1178549D02*
X1342954Y1168549D01*
Y1178549D02*
Y1168549D01*
X1301532Y1162453D02*
X1325914D01*
X1313723Y1150262D02*
Y1174644D01*
X1319819Y1178549D02*
Y1168549D01*
Y1178549D02*
X1324668Y1168549D01*
Y1178549D02*
Y1168549D01*
X1301532Y1180740D02*
X1325914D01*
X1313723Y1168549D02*
Y1192931D01*
X1319819Y1196836D02*
Y1186835D01*
Y1196836D02*
X1324668Y1186835D01*
Y1196836D02*
Y1186835D01*
X1366754Y1259372D02*
X1391136D01*
X1378945Y1247181D02*
Y1271563D01*
X1385041Y1275468D02*
Y1265467D01*
Y1275468D02*
X1389889Y1265467D01*
Y1275468D02*
Y1265467D01*
X1355173Y1159710D02*
X1379555D01*
X1367364Y1147519D02*
Y1171901D01*
X1373459Y1175806D02*
Y1165806D01*
Y1175806D02*
X1378308Y1165806D01*
Y1175806D02*
Y1165806D01*
X1355173Y1177387D02*
X1379555D01*
X1367364Y1165196D02*
Y1189578D01*
X1373459Y1193483D02*
Y1183483D01*
Y1193483D02*
X1378308Y1183483D01*
Y1193483D02*
Y1183483D01*
X1388393Y1165349D02*
X1412775D01*
X1400584Y1153158D02*
Y1177540D01*
X1406680Y1181445D02*
Y1171444D01*
Y1181445D02*
X1411528Y1171444D01*
Y1181445D02*
Y1171444D01*
X1357001Y1192017D02*
X1381383D01*
X1369192Y1179826D02*
Y1204208D01*
X1375288Y1208113D02*
Y1198112D01*
Y1208113D02*
X1380137Y1198112D01*
Y1208113D02*
Y1198112D01*
X1336581Y1216382D02*
X1360963D01*
X1348772Y1204191D02*
Y1228573D01*
X1354868Y1232478D02*
Y1222477D01*
Y1232478D02*
X1359717Y1222477D01*
Y1232478D02*
Y1222477D01*
X1327743Y1218114D02*
X1352125D01*
X1339934Y1205923D02*
Y1230305D01*
X1346029Y1234210D02*
Y1224210D01*
Y1234210D02*
X1350878Y1224210D01*
Y1234210D02*
Y1224210D01*
X1320332Y1224323D02*
X1344714D01*
X1332523Y1212132D02*
Y1236514D01*
X1338619Y1240419D02*
Y1230418D01*
Y1240419D02*
X1343468Y1230418D01*
Y1240419D02*
Y1230418D01*
X1314638Y1232247D02*
X1339020D01*
X1326829Y1220056D02*
Y1244438D01*
X1332924Y1248343D02*
Y1238342D01*
Y1248343D02*
X1337773Y1238342D01*
Y1248343D02*
Y1238342D01*
X1304580Y1235295D02*
X1328962D01*
X1316771Y1223104D02*
Y1247486D01*
X1322867Y1251391D02*
Y1241390D01*
Y1251391D02*
X1327715Y1241390D01*
Y1251391D02*
Y1241390D01*
X1288427Y1218227D02*
X1312809D01*
X1300618Y1206036D02*
Y1230418D01*
X1306714Y1234323D02*
Y1224323D01*
Y1234323D02*
X1311562Y1224323D01*
Y1234323D02*
Y1224323D01*
X1295742Y1224018D02*
X1320124D01*
X1307933Y1211827D02*
Y1236209D01*
X1314028Y1240114D02*
Y1230113D01*
Y1240114D02*
X1318877Y1230113D01*
Y1240114D02*
Y1230113D01*
X1476778Y1274001D02*
X1501160D01*
X1488969Y1261810D02*
Y1286192D01*
X1495064Y1290097D02*
Y1280097D01*
Y1290097D02*
X1499913Y1280097D01*
Y1290097D02*
Y1280097D01*
X1492017Y1275525D02*
X1516399D01*
X1504208Y1263334D02*
Y1287716D01*
X1510303Y1291621D02*
Y1281620D01*
Y1291621D02*
X1515152Y1281620D01*
Y1291621D02*
Y1281620D01*
X1401498Y1192017D02*
X1425880D01*
X1413689Y1179826D02*
Y1204208D01*
X1419785Y1208113D02*
Y1198112D01*
Y1208113D02*
X1424634Y1198112D01*
Y1208113D02*
Y1198112D01*
X1485616Y1180740D02*
X1509998D01*
X1497807Y1168549D02*
Y1192931D01*
X1503903Y1196836D02*
Y1186835D01*
Y1196836D02*
X1508751Y1186835D01*
Y1196836D02*
Y1186835D01*
X1485616Y1162453D02*
X1509998D01*
X1497807Y1150262D02*
Y1174644D01*
X1503903Y1178549D02*
Y1168549D01*
Y1178549D02*
X1508751Y1168549D01*
Y1178549D02*
Y1168549D01*
X1467635Y1162453D02*
X1492017D01*
X1479826Y1150262D02*
Y1174644D01*
X1485921Y1178549D02*
Y1168549D01*
Y1178549D02*
X1490770Y1168549D01*
Y1178549D02*
Y1168549D01*
X1467330Y1180740D02*
X1491712D01*
X1479521Y1168549D02*
Y1192931D01*
X1485616Y1196836D02*
Y1186835D01*
Y1196836D02*
X1490465Y1186835D01*
Y1196836D02*
Y1186835D01*
X1437462Y1203293D02*
X1461844D01*
X1449653Y1191102D02*
Y1215484D01*
X1455748Y1219389D02*
Y1209389D01*
Y1219389D02*
X1460597Y1209389D01*
Y1219389D02*
Y1209389D01*
X1460320Y1239866D02*
X1484702D01*
X1472511Y1227675D02*
Y1252057D01*
X1478607Y1255962D02*
Y1245962D01*
Y1255962D02*
X1483455Y1245962D01*
Y1255962D02*
Y1245962D01*
X1467330Y1231637D02*
X1491712D01*
X1479521Y1219446D02*
Y1243828D01*
X1485616Y1247733D02*
Y1237733D01*
Y1247733D02*
X1490465Y1237733D01*
Y1247733D02*
Y1237733D01*
X1453920Y1217618D02*
X1478302D01*
X1466111Y1205427D02*
Y1229809D01*
X1472206Y1233714D02*
Y1223713D01*
Y1233714D02*
X1477055Y1223713D01*
Y1233714D02*
Y1223713D01*
X1520361Y1159101D02*
X1544743D01*
X1532552Y1146910D02*
Y1171292D01*
X1538647Y1175197D02*
Y1165196D01*
Y1175197D02*
X1543496Y1165196D01*
Y1175197D02*
Y1165196D01*
X1432586Y1177083D02*
X1456967D01*
X1444776Y1164892D02*
Y1189274D01*
X1450872Y1193179D02*
Y1183178D01*
Y1193179D02*
X1455721Y1183178D01*
Y1193179D02*
Y1183178D01*
X1433500Y1186226D02*
X1457882D01*
X1445691Y1174035D02*
Y1198417D01*
X1451786Y1202322D02*
Y1192321D01*
Y1202322D02*
X1456635Y1192321D01*
Y1202322D02*
Y1192321D01*
X1488055Y1246876D02*
X1512437D01*
X1500246Y1234685D02*
Y1259067D01*
X1506341Y1262972D02*
Y1252972D01*
Y1262972D02*
X1511190Y1252972D01*
Y1262972D02*
Y1252972D01*
X1475559Y1248400D02*
X1499941D01*
X1487750Y1236209D02*
Y1260591D01*
X1493845Y1264496D02*
Y1254495D01*
Y1264496D02*
X1498694Y1254495D01*
Y1264496D02*
Y1254495D01*
X1521275Y1176473D02*
X1545657D01*
X1533466Y1164282D02*
Y1188664D01*
X1539561Y1192569D02*
Y1182569D01*
Y1192569D02*
X1544410Y1182569D01*
Y1192569D02*
Y1182569D01*
X1522189Y1191407D02*
X1546571D01*
X1534380Y1179216D02*
Y1203598D01*
X1540476Y1207503D02*
Y1197503D01*
Y1207503D02*
X1545324Y1197503D01*
Y1207503D02*
Y1197503D01*
X1502074Y1215772D02*
X1526456D01*
X1514265Y1203581D02*
Y1227963D01*
X1520361Y1231868D02*
Y1221868D01*
Y1231868D02*
X1525209Y1221868D01*
Y1231868D02*
Y1221868D01*
X1477387Y1260591D02*
X1501769D01*
X1489578Y1248400D02*
Y1272782D01*
X1495674Y1276687D02*
Y1266686D01*
Y1276687D02*
X1500523Y1266686D01*
Y1276687D02*
Y1266686D01*
X1464587Y1260591D02*
X1488969D01*
X1476778Y1248400D02*
Y1272782D01*
X1482873Y1276687D02*
Y1266686D01*
Y1276687D02*
X1487722Y1266686D01*
Y1276687D02*
Y1266686D01*
X1461234Y1223408D02*
X1485616D01*
X1473425Y1211217D02*
Y1235599D01*
X1479521Y1239504D02*
Y1229504D01*
Y1239504D02*
X1484370Y1229504D01*
Y1239504D02*
Y1229504D01*
X1464587Y1273696D02*
X1488969D01*
X1476778Y1261505D02*
Y1285887D01*
X1482873Y1289792D02*
Y1279792D01*
Y1289792D02*
X1487722Y1279792D01*
Y1289792D02*
Y1279792D01*
X1434109Y1165501D02*
X1458491D01*
X1446300Y1153310D02*
Y1177692D01*
X1452396Y1181597D02*
Y1171597D01*
Y1181597D02*
X1457245Y1171597D01*
Y1181597D02*
Y1171597D01*
X1566686Y1192017D02*
X1591068D01*
X1578877Y1179826D02*
Y1204208D01*
X1584973Y1208113D02*
Y1198112D01*
Y1208113D02*
X1589822Y1198112D01*
Y1208113D02*
Y1198112D01*
X1553581Y1163673D02*
X1577963D01*
X1565772Y1151482D02*
Y1175864D01*
X1571868Y1179768D02*
Y1169768D01*
Y1179768D02*
X1576716Y1169768D01*
Y1179768D02*
Y1169768D01*
X1031807Y1395911D02*
X1056189D01*
X1043998Y1383720D02*
Y1408102D01*
X1050093Y1412007D02*
Y1402006D01*
Y1412007D02*
X1054942Y1402006D01*
Y1412007D02*
Y1402006D01*
X1050093Y1396216D02*
X1074475D01*
X1062284Y1384025D02*
Y1408407D01*
X1068380Y1412312D02*
Y1402311D01*
Y1412312D02*
X1073228Y1402311D01*
Y1412312D02*
Y1402311D01*
X1141526Y1325813D02*
X1165908D01*
X1153717Y1313622D02*
Y1338004D01*
X1159812Y1341909D02*
Y1331908D01*
Y1341909D02*
X1164661Y1331908D01*
Y1341909D02*
Y1331908D01*
X1156764Y1298078D02*
X1181146D01*
X1168955Y1285887D02*
Y1310269D01*
X1175051Y1314174D02*
Y1304174D01*
Y1314174D02*
X1179899Y1304174D01*
Y1314174D02*
Y1304174D01*
X1155240Y1310269D02*
X1179622D01*
X1167431Y1298078D02*
Y1322460D01*
X1173527Y1326365D02*
Y1316365D01*
Y1326365D02*
X1178376Y1316365D01*
Y1326365D02*
Y1316365D01*
X1241187Y1334346D02*
X1265569D01*
X1253378Y1322155D02*
Y1346537D01*
X1259473Y1350442D02*
Y1340442D01*
Y1350442D02*
X1264322Y1340442D01*
Y1350442D02*
Y1340442D01*
X1172308Y1287106D02*
X1196690D01*
X1184499Y1274915D02*
Y1299297D01*
X1190594Y1303202D02*
Y1293202D01*
Y1303202D02*
X1195443Y1293202D01*
Y1303202D02*
Y1293202D01*
X1188461Y1308136D02*
X1212843D01*
X1200652Y1295945D02*
Y1320327D01*
X1206747Y1324232D02*
Y1314231D01*
Y1324232D02*
X1211596Y1314231D01*
Y1324232D02*
Y1314231D01*
X1188461Y1325813D02*
X1212843D01*
X1200652Y1313622D02*
Y1338004D01*
X1206747Y1341909D02*
Y1331908D01*
Y1341909D02*
X1211596Y1331908D01*
Y1341909D02*
Y1331908D01*
X1206747Y1325813D02*
X1231129D01*
X1218938Y1313622D02*
Y1338004D01*
X1225034Y1341909D02*
Y1331908D01*
Y1341909D02*
X1229883Y1331908D01*
Y1341909D02*
Y1331908D01*
X1206747Y1308136D02*
X1231129D01*
X1218938Y1295945D02*
Y1320327D01*
X1225034Y1324232D02*
Y1314231D01*
Y1324232D02*
X1229883Y1314231D01*
Y1324232D02*
Y1314231D01*
X1164993Y1341356D02*
X1189375D01*
X1177184Y1329165D02*
Y1353547D01*
X1183280Y1357452D02*
Y1347452D01*
Y1357452D02*
X1188128Y1347452D01*
Y1357452D02*
Y1347452D01*
X1240882Y1306002D02*
X1265264D01*
X1253073Y1293811D02*
Y1318193D01*
X1259169Y1322098D02*
Y1312098D01*
Y1322098D02*
X1264017Y1312098D01*
Y1322098D02*
Y1312098D01*
X1223815Y1361150D02*
X1248197D01*
X1236006Y1348959D02*
Y1373341D01*
X1242101Y1377246D02*
Y1367245D01*
Y1377246D02*
X1246950Y1367245D01*
Y1377246D02*
Y1367245D01*
X1207566Y1369091D02*
X1231948D01*
X1219757Y1356900D02*
Y1381282D01*
X1225852Y1385187D02*
Y1375186D01*
Y1385187D02*
X1230701Y1375186D01*
Y1385187D02*
Y1375186D01*
X1200652Y1376710D02*
X1225034D01*
X1212843Y1364519D02*
Y1388901D01*
X1218938Y1392806D02*
Y1382806D01*
Y1392806D02*
X1223787Y1382806D01*
Y1392806D02*
Y1382806D01*
X1191909Y1377224D02*
X1216291D01*
X1204100Y1365033D02*
Y1389415D01*
X1210196Y1393320D02*
Y1383319D01*
Y1393320D02*
X1215045Y1383319D01*
Y1393320D02*
Y1383319D01*
X1176879Y1362995D02*
X1201261D01*
X1189070Y1350804D02*
Y1375186D01*
X1195166Y1379091D02*
Y1369091D01*
Y1379091D02*
X1200015Y1369091D01*
Y1379091D02*
Y1369091D01*
X1246063Y1327641D02*
X1270445D01*
X1258254Y1315450D02*
Y1339832D01*
X1264350Y1343737D02*
Y1333737D01*
Y1343737D02*
X1269198Y1333737D01*
Y1343737D02*
Y1333737D01*
X1276541Y1316365D02*
X1300923D01*
X1288732Y1304174D02*
Y1328556D01*
X1294827Y1332461D02*
Y1322460D01*
Y1332461D02*
X1299676Y1322460D01*
Y1332461D02*
Y1322460D01*
X1182975Y1368786D02*
X1207357D01*
X1195166Y1356595D02*
Y1380977D01*
X1201261Y1384882D02*
Y1374881D01*
Y1384882D02*
X1206110Y1374881D01*
Y1384882D02*
Y1374881D01*
X1239054Y1298078D02*
X1263435D01*
X1251244Y1285887D02*
Y1310269D01*
X1257340Y1314174D02*
Y1304174D01*
Y1314174D02*
X1262189Y1304174D01*
Y1314174D02*
Y1304174D01*
X1214062Y1363300D02*
X1238444D01*
X1226253Y1351109D02*
Y1375491D01*
X1232348Y1379396D02*
Y1369396D01*
Y1379396D02*
X1237197Y1369396D01*
Y1379396D02*
Y1369396D01*
X1287817Y1344709D02*
X1312199D01*
X1300008Y1332518D02*
Y1356900D01*
X1306104Y1360805D02*
Y1350804D01*
Y1360805D02*
X1310953Y1350804D01*
Y1360805D02*
Y1350804D01*
X1359440Y1327032D02*
X1383822D01*
X1371631Y1314841D02*
Y1339223D01*
X1377726Y1343128D02*
Y1333127D01*
Y1343128D02*
X1382575Y1333127D01*
Y1343128D02*
Y1333127D01*
X1429538Y1297757D02*
X1453920D01*
X1441729Y1285566D02*
Y1309948D01*
X1447824Y1313853D02*
Y1303852D01*
Y1313853D02*
X1452673Y1303852D01*
Y1313853D02*
Y1303852D01*
X1445386Y1290459D02*
X1469768D01*
X1457577Y1278268D02*
Y1302650D01*
X1463673Y1306555D02*
Y1296554D01*
Y1306555D02*
X1468521Y1296554D01*
Y1306555D02*
Y1296554D01*
X1479826Y1324594D02*
X1504208D01*
X1492017Y1312403D02*
Y1336785D01*
X1498112Y1340690D02*
Y1330689D01*
Y1340690D02*
X1502961Y1330689D01*
Y1340690D02*
Y1330689D01*
X1461844Y1324594D02*
X1486226D01*
X1474035Y1312403D02*
Y1336785D01*
X1480130Y1340690D02*
Y1330689D01*
Y1340690D02*
X1484979Y1330689D01*
Y1340690D02*
Y1330689D01*
X1479826Y1306917D02*
X1504208D01*
X1492017Y1294726D02*
Y1319108D01*
X1498112Y1323013D02*
Y1313012D01*
Y1323013D02*
X1502961Y1313012D01*
Y1323013D02*
Y1313012D01*
X1461844Y1306612D02*
X1486226D01*
X1474035Y1294421D02*
Y1318803D01*
X1480130Y1322708D02*
Y1312707D01*
Y1322708D02*
X1484979Y1312707D01*
Y1322708D02*
Y1312707D01*
X1441424Y1343794D02*
X1465806D01*
X1453615Y1331603D02*
Y1355985D01*
X1459710Y1359890D02*
Y1349890D01*
Y1359890D02*
X1464559Y1349890D01*
Y1359890D02*
Y1349890D01*
X1438681Y1285887D02*
X1463063D01*
X1450872Y1273696D02*
Y1298078D01*
X1456967Y1301983D02*
Y1291983D01*
Y1301983D02*
X1461816Y1291983D01*
Y1301983D02*
Y1291983D01*
X1474644Y1376101D02*
X1499026D01*
X1486835Y1363910D02*
Y1388292D01*
X1492931Y1392196D02*
Y1382196D01*
Y1392196D02*
X1497780Y1382196D01*
Y1392196D02*
Y1382196D01*
X1464988Y1376614D02*
X1489370D01*
X1477179Y1364423D02*
Y1388805D01*
X1483274Y1392710D02*
Y1382710D01*
Y1392710D02*
X1488123Y1382710D01*
Y1392710D02*
Y1382710D01*
X1429538Y1310269D02*
X1453920D01*
X1441729Y1298078D02*
Y1322460D01*
X1447824Y1326365D02*
Y1316365D01*
Y1326365D02*
X1452673Y1316365D01*
Y1326365D02*
Y1316365D01*
X1519142Y1327032D02*
X1543524D01*
X1531333Y1314841D02*
Y1339223D01*
X1537428Y1343128D02*
Y1333127D01*
Y1343128D02*
X1542277Y1333127D01*
Y1343128D02*
Y1333127D01*
X1496893Y1360557D02*
X1521275D01*
X1509084Y1348366D02*
Y1372748D01*
X1515179Y1376653D02*
Y1366653D01*
Y1376653D02*
X1520028Y1366653D01*
Y1376653D02*
Y1366653D01*
X1456053Y1368176D02*
X1480435D01*
X1468244Y1355985D02*
Y1380367D01*
X1474340Y1384272D02*
Y1374272D01*
Y1384272D02*
X1479188Y1374272D01*
Y1384272D02*
Y1374272D01*
X1513046Y1338004D02*
X1537428D01*
X1525237Y1325813D02*
Y1350195D01*
X1531333Y1354100D02*
Y1344099D01*
Y1354100D02*
X1536181Y1344099D01*
Y1354100D02*
Y1344099D01*
X1488055Y1362386D02*
X1512437D01*
X1500246Y1350195D02*
Y1374577D01*
X1506341Y1378482D02*
Y1368481D01*
Y1378482D02*
X1511190Y1368481D01*
Y1378482D02*
Y1368481D01*
X1517008Y1308441D02*
X1541390D01*
X1529199Y1296250D02*
Y1320632D01*
X1535295Y1324536D02*
Y1314536D01*
Y1324536D02*
X1540143Y1314536D01*
Y1324536D02*
Y1314536D01*
X1480644Y1368481D02*
X1505026D01*
X1492835Y1356290D02*
Y1380672D01*
X1498930Y1384577D02*
Y1374577D01*
Y1384577D02*
X1503779Y1374577D01*
Y1384577D02*
Y1374577D01*
X1448739Y1362386D02*
X1473121D01*
X1460930Y1350195D02*
Y1374577D01*
X1467025Y1378482D02*
Y1368481D01*
Y1378482D02*
X1471874Y1368481D01*
Y1378482D02*
Y1368481D01*
X1514265Y1299297D02*
X1538647D01*
X1526456Y1287106D02*
Y1311488D01*
X1532552Y1315393D02*
Y1305393D01*
Y1315393D02*
X1537400Y1305393D01*
Y1315393D02*
Y1305393D01*
X1427404Y1331107D02*
X1451786D01*
X1439595Y1318916D02*
Y1343298D01*
X1445691Y1347203D02*
Y1337202D01*
Y1347203D02*
X1450540Y1337202D01*
Y1347203D02*
Y1337202D01*
X1563029Y1344709D02*
X1587411D01*
X1575220Y1332518D02*
Y1356900D01*
X1581316Y1360805D02*
Y1350804D01*
Y1360805D02*
X1586164Y1350804D01*
Y1360805D02*
Y1350804D01*
X1577049Y1293507D02*
X1601431D01*
X1589240Y1281316D02*
Y1305698D01*
X1595335Y1309603D02*
Y1299602D01*
Y1309603D02*
X1600184Y1299602D01*
Y1309603D02*
Y1299602D01*
X1629470Y1395606D02*
X1653852D01*
X1641661Y1383415D02*
Y1407797D01*
X1647757Y1411702D02*
Y1401702D01*
Y1411702D02*
X1652605Y1401702D01*
Y1411702D02*
Y1401702D01*
X1549619Y1315755D02*
X1574001D01*
X1561810Y1303564D02*
Y1327946D01*
X1567906Y1331851D02*
Y1321851D01*
Y1331851D02*
X1572754Y1321851D01*
Y1331851D02*
Y1321851D01*
X1610574Y1395911D02*
X1634956D01*
X1622765Y1383720D02*
Y1408102D01*
X1628860Y1412007D02*
Y1402006D01*
Y1412007D02*
X1633709Y1402006D01*
Y1412007D02*
Y1402006D01*
X1024187Y1412369D02*
X1048569D01*
X1036378Y1400178D02*
Y1424560D01*
X1042474Y1428465D02*
Y1418464D01*
Y1428465D02*
X1047322Y1418464D01*
Y1428465D02*
Y1418464D01*
X1072951Y1426084D02*
X1097333D01*
X1085142Y1413893D02*
Y1438275D01*
X1091238Y1442180D02*
Y1432179D01*
Y1442180D02*
X1096086Y1432179D01*
Y1442180D02*
Y1432179D01*
X1031502Y1590662D02*
X1055884D01*
X1043693Y1578471D02*
Y1602853D01*
X1049788Y1606758D02*
Y1596758D01*
Y1606758D02*
X1054637Y1596758D01*
Y1606758D02*
Y1596758D01*
X1019616Y1529707D02*
X1043998D01*
X1031807Y1517516D02*
Y1541898D01*
X1037902Y1545803D02*
Y1535803D01*
Y1545803D02*
X1042751Y1535803D01*
Y1545803D02*
Y1535803D01*
X1031807Y1639426D02*
X1056189D01*
X1043998Y1627235D02*
Y1651617D01*
X1050093Y1655522D02*
Y1645522D01*
Y1655522D02*
X1054942Y1645522D01*
Y1655522D02*
Y1645522D01*
X1031807Y1615044D02*
X1056189D01*
X1043998Y1602853D02*
Y1627235D01*
X1050093Y1631140D02*
Y1621140D01*
Y1631140D02*
X1054942Y1621140D01*
Y1631140D02*
Y1621140D01*
X1031807Y1566280D02*
X1056189D01*
X1043998Y1554089D02*
Y1578471D01*
X1050093Y1582376D02*
Y1572376D01*
Y1582376D02*
X1054942Y1572376D01*
Y1582376D02*
Y1572376D01*
X1031807Y1543422D02*
X1056189D01*
X1043998Y1531231D02*
Y1555613D01*
X1050093Y1559518D02*
Y1549517D01*
Y1559518D02*
X1054942Y1549517D01*
Y1559518D02*
Y1549517D01*
X1141526Y1596758D02*
X1165908D01*
X1153717Y1584567D02*
Y1608949D01*
X1159812Y1612853D02*
Y1602853D01*
Y1612853D02*
X1164661Y1602853D01*
Y1612853D02*
Y1602853D01*
X1141526Y1609863D02*
X1165908D01*
X1153717Y1597672D02*
Y1622054D01*
X1159812Y1625959D02*
Y1615958D01*
Y1625959D02*
X1164661Y1615958D01*
Y1625959D02*
Y1615958D01*
X1115620Y1551041D02*
X1140002D01*
X1127811Y1538850D02*
Y1563232D01*
X1133906Y1567137D02*
Y1557137D01*
Y1567137D02*
X1138755Y1557137D01*
Y1567137D02*
Y1557137D01*
X1141526Y1544336D02*
X1165908D01*
X1153717Y1532145D02*
Y1556527D01*
X1159812Y1560432D02*
Y1550432D01*
Y1560432D02*
X1164661Y1550432D01*
Y1560432D02*
Y1550432D01*
X1261637Y1596758D02*
X1286019D01*
X1273828Y1584567D02*
Y1608949D01*
X1279924Y1612853D02*
Y1602853D01*
Y1612853D02*
X1284772Y1602853D01*
Y1612853D02*
Y1602853D01*
X1175965Y1596758D02*
X1200347D01*
X1188156Y1584567D02*
Y1608949D01*
X1194252Y1612853D02*
Y1602853D01*
Y1612853D02*
X1199100Y1602853D01*
Y1612853D02*
Y1602853D01*
X1227320Y1596758D02*
X1251702D01*
X1239511Y1584567D02*
Y1608949D01*
X1245606Y1612853D02*
Y1602853D01*
Y1612853D02*
X1250455Y1602853D01*
Y1612853D02*
Y1602853D01*
X1157374Y1596758D02*
X1181756D01*
X1169565Y1584567D02*
Y1608949D01*
X1175660Y1612853D02*
Y1602853D01*
Y1612853D02*
X1180509Y1602853D01*
Y1612853D02*
Y1602853D01*
X1244478Y1596758D02*
X1268860D01*
X1256669Y1584567D02*
Y1608949D01*
X1262765Y1612853D02*
Y1602853D01*
Y1612853D02*
X1267614Y1602853D01*
Y1612853D02*
Y1602853D01*
X1261637Y1544336D02*
X1286019D01*
X1273828Y1532145D02*
Y1556527D01*
X1279924Y1560432D02*
Y1550432D01*
Y1560432D02*
X1284772Y1550432D01*
Y1560432D02*
Y1550432D01*
X1244478Y1544336D02*
X1268860D01*
X1256669Y1532145D02*
Y1556527D01*
X1262765Y1560432D02*
Y1550432D01*
Y1560432D02*
X1267614Y1550432D01*
Y1560432D02*
Y1550432D01*
X1244478Y1609863D02*
X1268860D01*
X1256669Y1597672D02*
Y1622054D01*
X1262765Y1625959D02*
Y1615958D01*
Y1625959D02*
X1267614Y1615958D01*
Y1625959D02*
Y1615958D01*
X1227320Y1544336D02*
X1251702D01*
X1239511Y1532145D02*
Y1556527D01*
X1245606Y1560432D02*
Y1550432D01*
Y1560432D02*
X1250455Y1550432D01*
Y1560432D02*
Y1550432D01*
X1227320Y1609863D02*
X1251702D01*
X1239511Y1597672D02*
Y1622054D01*
X1245606Y1625959D02*
Y1615958D01*
Y1625959D02*
X1250455Y1615958D01*
Y1625959D02*
Y1615958D01*
X1175843Y1609863D02*
X1200225D01*
X1188034Y1597672D02*
Y1622054D01*
X1194130Y1625959D02*
Y1615958D01*
Y1625959D02*
X1198978Y1615958D01*
Y1625959D02*
Y1615958D01*
X1162250Y1544336D02*
X1186632D01*
X1174441Y1532145D02*
Y1556527D01*
X1180537Y1560432D02*
Y1550432D01*
Y1560432D02*
X1185385Y1550432D01*
Y1560432D02*
Y1550432D01*
X1158684Y1609863D02*
X1183066D01*
X1170875Y1597672D02*
Y1622054D01*
X1176971Y1625959D02*
Y1615958D01*
Y1625959D02*
X1181820Y1615958D01*
Y1625959D02*
Y1615958D01*
X1175843Y1544336D02*
X1200225D01*
X1188034Y1532145D02*
Y1556527D01*
X1194130Y1560432D02*
Y1550432D01*
Y1560432D02*
X1198978Y1550432D01*
Y1560432D02*
Y1550432D01*
X1261637Y1609863D02*
X1286019D01*
X1273828Y1597672D02*
Y1622054D01*
X1279924Y1625959D02*
Y1615958D01*
Y1625959D02*
X1284772Y1615958D01*
Y1625959D02*
Y1615958D01*
X1329876Y1596758D02*
X1354258D01*
X1342067Y1584567D02*
Y1608949D01*
X1348163Y1612853D02*
Y1602853D01*
Y1612853D02*
X1353012Y1602853D01*
Y1612853D02*
Y1602853D01*
X1313114Y1596758D02*
X1337496D01*
X1325305Y1584567D02*
Y1608949D01*
X1331400Y1612853D02*
Y1602853D01*
Y1612853D02*
X1336249Y1602853D01*
Y1612853D02*
Y1602853D01*
X1347431Y1596758D02*
X1371813D01*
X1359622Y1584567D02*
Y1608949D01*
X1365718Y1612853D02*
Y1602853D01*
Y1612853D02*
X1370567Y1602853D01*
Y1612853D02*
Y1602853D01*
X1398908Y1596758D02*
X1423290D01*
X1411099Y1584567D02*
Y1608949D01*
X1417194Y1612853D02*
Y1602853D01*
Y1612853D02*
X1422043Y1602853D01*
Y1612853D02*
Y1602853D01*
X1398908Y1544336D02*
X1423290D01*
X1411099Y1532145D02*
Y1556527D01*
X1417194Y1560432D02*
Y1550432D01*
Y1560432D02*
X1422043Y1550432D01*
Y1560432D02*
Y1550432D01*
X1398908Y1609863D02*
X1423290D01*
X1411099Y1597672D02*
Y1622054D01*
X1417194Y1625959D02*
Y1615958D01*
Y1625959D02*
X1422043Y1615958D01*
Y1625959D02*
Y1615958D01*
X1347431Y1609863D02*
X1371813D01*
X1359622Y1597672D02*
Y1622054D01*
X1365718Y1625959D02*
Y1615958D01*
Y1625959D02*
X1370567Y1615958D01*
Y1625959D02*
Y1615958D01*
X1347431Y1544336D02*
X1371813D01*
X1359622Y1532145D02*
Y1556527D01*
X1365718Y1560432D02*
Y1550432D01*
Y1560432D02*
X1370567Y1550432D01*
Y1560432D02*
Y1550432D01*
X1330181Y1609863D02*
X1354563D01*
X1342372Y1597672D02*
Y1622054D01*
X1348468Y1625959D02*
Y1615958D01*
Y1625959D02*
X1353316Y1615958D01*
Y1625959D02*
Y1615958D01*
X1329876Y1544336D02*
X1354258D01*
X1342067Y1532145D02*
Y1556527D01*
X1348163Y1560432D02*
Y1550432D01*
Y1560432D02*
X1353012Y1550432D01*
Y1560432D02*
Y1550432D01*
X1313114Y1609863D02*
X1337496D01*
X1325305Y1597672D02*
Y1622054D01*
X1331400Y1625959D02*
Y1615958D01*
Y1625959D02*
X1336249Y1615958D01*
Y1625959D02*
Y1615958D01*
X1313114Y1544336D02*
X1337496D01*
X1325305Y1532145D02*
Y1556527D01*
X1331400Y1560432D02*
Y1550432D01*
Y1560432D02*
X1336249Y1550432D01*
Y1560432D02*
Y1550432D01*
X1484702Y1596758D02*
X1509084D01*
X1496893Y1584567D02*
Y1608949D01*
X1502988Y1612853D02*
Y1602853D01*
Y1612853D02*
X1507837Y1602853D01*
Y1612853D02*
Y1602853D01*
X1519020Y1596758D02*
X1543402D01*
X1531211Y1584567D02*
Y1608949D01*
X1537306Y1612853D02*
Y1602853D01*
Y1612853D02*
X1542155Y1602853D01*
Y1612853D02*
Y1602853D01*
X1433226Y1596758D02*
X1457608D01*
X1445417Y1584567D02*
Y1608949D01*
X1451512Y1612853D02*
Y1602853D01*
Y1612853D02*
X1456361Y1602853D01*
Y1612853D02*
Y1602853D01*
X1501861Y1596758D02*
X1526243D01*
X1514052Y1584567D02*
Y1608949D01*
X1520147Y1612853D02*
Y1602853D01*
Y1612853D02*
X1524996Y1602853D01*
Y1612853D02*
Y1602853D01*
X1416067Y1596758D02*
X1440449D01*
X1428258Y1584567D02*
Y1608949D01*
X1434353Y1612853D02*
Y1602853D01*
Y1612853D02*
X1439202Y1602853D01*
Y1612853D02*
Y1602853D01*
X1416067Y1609863D02*
X1440449D01*
X1428258Y1597672D02*
Y1622054D01*
X1434353Y1625959D02*
Y1615958D01*
Y1625959D02*
X1439202Y1615958D01*
Y1625959D02*
Y1615958D01*
X1433226Y1544336D02*
X1457608D01*
X1445417Y1532145D02*
Y1556527D01*
X1451512Y1560432D02*
Y1550432D01*
Y1560432D02*
X1456361Y1550432D01*
Y1560432D02*
Y1550432D01*
X1501861Y1609863D02*
X1526243D01*
X1514052Y1597672D02*
Y1622054D01*
X1520147Y1625959D02*
Y1615958D01*
Y1625959D02*
X1524996Y1615958D01*
Y1625959D02*
Y1615958D01*
X1484702Y1544336D02*
X1509084D01*
X1496893Y1532145D02*
Y1556527D01*
X1502988Y1560432D02*
Y1550432D01*
Y1560432D02*
X1507837Y1550432D01*
Y1560432D02*
Y1550432D01*
X1433226Y1609863D02*
X1457608D01*
X1445417Y1597672D02*
Y1622054D01*
X1451512Y1625959D02*
Y1615958D01*
Y1625959D02*
X1456361Y1615958D01*
Y1625959D02*
Y1615958D01*
X1416067Y1544336D02*
X1440449D01*
X1428258Y1532145D02*
Y1556527D01*
X1434353Y1560432D02*
Y1550432D01*
Y1560432D02*
X1439202Y1550432D01*
Y1560432D02*
Y1550432D01*
X1519020Y1609863D02*
X1543402D01*
X1531211Y1597672D02*
Y1622054D01*
X1537306Y1625959D02*
Y1615958D01*
Y1625959D02*
X1542155Y1615958D01*
Y1625959D02*
Y1615958D01*
X1519020Y1544336D02*
X1543402D01*
X1531211Y1532145D02*
Y1556527D01*
X1537306Y1560432D02*
Y1550432D01*
Y1560432D02*
X1542155Y1550432D01*
Y1560432D02*
Y1550432D01*
X1501861Y1544336D02*
X1526243D01*
X1514052Y1532145D02*
Y1556527D01*
X1520147Y1560432D02*
Y1550432D01*
Y1560432D02*
X1524996Y1550432D01*
Y1560432D02*
Y1550432D01*
X1484702Y1613520D02*
X1509084D01*
X1496893Y1601329D02*
Y1625711D01*
X1502988Y1629616D02*
Y1619616D01*
Y1629616D02*
X1507837Y1619616D01*
Y1629616D02*
Y1619616D01*
X1554191Y1551346D02*
X1578573D01*
X1566382Y1539155D02*
Y1563537D01*
X1572477Y1567442D02*
Y1557442D01*
Y1567442D02*
X1577326Y1557442D01*
Y1567442D02*
Y1557442D01*
X1022663Y1764384D02*
X1047045D01*
X1034854Y1752193D02*
Y1776575D01*
X1040950Y1780480D02*
Y1770479D01*
Y1780480D02*
X1045799Y1770479D01*
Y1780480D02*
Y1770479D01*
X1031807Y1662284D02*
X1056189D01*
X1043998Y1650093D02*
Y1674475D01*
X1050093Y1678380D02*
Y1668380D01*
Y1678380D02*
X1054942Y1668380D01*
Y1678380D02*
Y1668380D01*
X1064113Y1724458D02*
X1088495D01*
X1076304Y1712267D02*
Y1736649D01*
X1082399Y1740554D02*
Y1730554D01*
Y1740554D02*
X1087248Y1730554D01*
Y1740554D02*
Y1730554D01*
X1061675Y1766212D02*
X1086057D01*
X1073866Y1754021D02*
Y1778403D01*
X1079961Y1782308D02*
Y1772308D01*
Y1782308D02*
X1084810Y1772308D01*
Y1782308D02*
Y1772308D01*
X1141526Y1662284D02*
X1165908D01*
X1153717Y1650093D02*
Y1674475D01*
X1159812Y1678380D02*
Y1668380D01*
Y1678380D02*
X1164661Y1668380D01*
Y1678380D02*
Y1668380D01*
X1244478Y1662284D02*
X1268860D01*
X1256669Y1650093D02*
Y1674475D01*
X1262765Y1678380D02*
Y1668380D01*
Y1678380D02*
X1267614Y1668380D01*
Y1678380D02*
Y1668380D01*
X1227320Y1662284D02*
X1251702D01*
X1239511Y1650093D02*
Y1674475D01*
X1245606Y1678380D02*
Y1668380D01*
Y1678380D02*
X1250455Y1668380D01*
Y1678380D02*
Y1668380D01*
X1261637Y1662284D02*
X1286019D01*
X1273828Y1650093D02*
Y1674475D01*
X1279924Y1678380D02*
Y1668380D01*
Y1678380D02*
X1284772Y1668380D01*
Y1678380D02*
Y1668380D01*
X1176575Y1662284D02*
X1200957D01*
X1188766Y1650093D02*
Y1674475D01*
X1194861Y1678380D02*
Y1668380D01*
Y1678380D02*
X1199710Y1668380D01*
Y1678380D02*
Y1668380D01*
X1158684Y1662284D02*
X1183066D01*
X1170875Y1650093D02*
Y1674475D01*
X1176971Y1678380D02*
Y1668380D01*
Y1678380D02*
X1181820Y1668380D01*
Y1678380D02*
Y1668380D01*
X1347431Y1662284D02*
X1371813D01*
X1359622Y1650093D02*
Y1674475D01*
X1365718Y1678380D02*
Y1668380D01*
Y1678380D02*
X1370567Y1668380D01*
Y1678380D02*
Y1668380D01*
X1398908Y1662284D02*
X1423290D01*
X1411099Y1650093D02*
Y1674475D01*
X1417194Y1678380D02*
Y1668380D01*
Y1678380D02*
X1422043Y1668380D01*
Y1678380D02*
Y1668380D01*
X1330181Y1662284D02*
X1354563D01*
X1342372Y1650093D02*
Y1674475D01*
X1348468Y1678380D02*
Y1668380D01*
Y1678380D02*
X1353316Y1668380D01*
Y1678380D02*
Y1668380D01*
X1313114Y1662284D02*
X1337496D01*
X1325305Y1650093D02*
Y1674475D01*
X1331400Y1678380D02*
Y1668380D01*
Y1678380D02*
X1336249Y1668380D01*
Y1678380D02*
Y1668380D01*
X1501861Y1662284D02*
X1526243D01*
X1514052Y1650093D02*
Y1674475D01*
X1520147Y1678380D02*
Y1668380D01*
Y1678380D02*
X1524996Y1668380D01*
Y1678380D02*
Y1668380D01*
X1519020Y1662284D02*
X1543402D01*
X1531211Y1650093D02*
Y1674475D01*
X1537306Y1678380D02*
Y1668380D01*
Y1678380D02*
X1542155Y1668380D01*
Y1678380D02*
Y1668380D01*
X1484702Y1662284D02*
X1509084D01*
X1496893Y1650093D02*
Y1674475D01*
X1502988Y1678380D02*
Y1668380D01*
Y1678380D02*
X1507837Y1668380D01*
Y1678380D02*
Y1668380D01*
X1433226Y1662284D02*
X1457608D01*
X1445417Y1650093D02*
Y1674475D01*
X1451512Y1678380D02*
Y1668380D01*
Y1678380D02*
X1456361Y1668380D01*
Y1678380D02*
Y1668380D01*
X1415518Y1662284D02*
X1439900D01*
X1427709Y1650093D02*
Y1674475D01*
X1433805Y1678380D02*
Y1668380D01*
Y1678380D02*
X1438653Y1668380D01*
Y1678380D02*
Y1668380D01*
X1415823Y1721715D02*
X1440205D01*
X1428014Y1709524D02*
Y1733906D01*
X1434109Y1737811D02*
Y1727811D01*
Y1737811D02*
X1438958Y1727811D01*
Y1737811D02*
Y1727811D01*
X1543219Y1680266D02*
X1567601D01*
X1555410Y1668075D02*
Y1692457D01*
X1561505Y1696362D02*
Y1686361D01*
Y1696362D02*
X1566354Y1686361D01*
Y1696362D02*
Y1686361D01*
X1554191Y1691847D02*
X1578573D01*
X1566382Y1679656D02*
Y1704038D01*
X1572477Y1707943D02*
Y1697943D01*
Y1707943D02*
X1577326Y1697943D01*
Y1707943D02*
Y1697943D01*
X1061675Y1775356D02*
X1086057D01*
X1073866Y1763165D02*
Y1787547D01*
X1079961Y1791451D02*
Y1781451D01*
Y1791451D02*
X1084810Y1781451D01*
Y1791451D02*
Y1781451D01*
X1054665Y1799433D02*
X1079047D01*
X1066856Y1787242D02*
Y1811624D01*
X1072951Y1815529D02*
Y1805528D01*
Y1815529D02*
X1077800Y1805528D01*
Y1815529D02*
Y1805528D01*
X1072951Y1857340D02*
X1097333D01*
X1085142Y1845149D02*
Y1869531D01*
X1091238Y1873436D02*
Y1863435D01*
Y1873436D02*
X1096086Y1863435D01*
Y1873436D02*
Y1863435D01*
X1072951Y1886294D02*
X1097333D01*
X1085142Y1874103D02*
Y1898485D01*
X1091238Y1902390D02*
Y1892389D01*
Y1902390D02*
X1096086Y1892389D01*
Y1902390D02*
Y1892389D01*
X1072951Y1828386D02*
X1097333D01*
X1085142Y1816195D02*
Y1840577D01*
X1091238Y1844482D02*
Y1834482D01*
Y1844482D02*
X1096086Y1834482D01*
Y1844482D02*
Y1834482D01*
X1131773Y1832653D02*
X1156155D01*
X1143964Y1820462D02*
Y1844844D01*
X1150059Y1848749D02*
Y1838749D01*
Y1848749D02*
X1154908Y1838749D01*
Y1848749D02*
Y1838749D01*
X1054665Y1886294D02*
X1079047D01*
X1066856Y1874103D02*
Y1898485D01*
X1072951Y1902390D02*
Y1892389D01*
Y1902390D02*
X1077800Y1892389D01*
Y1902390D02*
Y1892389D01*
X1054665Y1866483D02*
X1079047D01*
X1066856Y1854292D02*
Y1878674D01*
X1072951Y1882579D02*
Y1872579D01*
Y1882579D02*
X1077800Y1872579D01*
Y1882579D02*
Y1872579D01*
X1054665Y1857340D02*
X1079047D01*
X1066856Y1845149D02*
Y1869531D01*
X1072951Y1873436D02*
Y1863435D01*
Y1873436D02*
X1077800Y1863435D01*
Y1873436D02*
Y1863435D01*
X1054665Y1837530D02*
X1079047D01*
X1066856Y1825339D02*
Y1849721D01*
X1072951Y1853626D02*
Y1843625D01*
Y1853626D02*
X1077800Y1843625D01*
Y1853626D02*
Y1843625D01*
X1054665Y1828386D02*
X1079047D01*
X1066856Y1816195D02*
Y1840577D01*
X1072951Y1844482D02*
Y1834482D01*
Y1844482D02*
X1077800Y1834482D01*
Y1844482D02*
Y1834482D01*
X1054665Y1819243D02*
X1079047D01*
X1066856Y1807052D02*
Y1831434D01*
X1072951Y1835339D02*
Y1825339D01*
Y1835339D02*
X1077800Y1825339D01*
Y1835339D02*
Y1825339D01*
X1072951Y1837530D02*
X1097333D01*
X1085142Y1825339D02*
Y1849721D01*
X1091238Y1853626D02*
Y1843625D01*
Y1853626D02*
X1096086Y1843625D01*
Y1853626D02*
Y1843625D01*
X1072951Y1866483D02*
X1097333D01*
X1085142Y1854292D02*
Y1878674D01*
X1091238Y1882579D02*
Y1872579D01*
Y1882579D02*
X1096086Y1872579D01*
Y1882579D02*
Y1872579D01*
X1072951Y1819243D02*
X1097333D01*
X1085142Y1807052D02*
Y1831434D01*
X1091238Y1835339D02*
Y1825339D01*
Y1835339D02*
X1096086Y1825339D01*
Y1835339D02*
Y1825339D01*
X1322867Y1846673D02*
X1347249D01*
X1335058Y1834482D02*
Y1858864D01*
X1341153Y1862769D02*
Y1852768D01*
Y1862769D02*
X1346002Y1852768D01*
Y1862769D02*
Y1852768D01*
X1316771Y1875626D02*
X1341153D01*
X1328962Y1863435D02*
Y1887817D01*
X1335058Y1891722D02*
Y1881722D01*
Y1891722D02*
X1339906Y1881722D01*
Y1891722D02*
Y1881722D01*
X1286294Y1866483D02*
X1310676D01*
X1298485Y1854292D02*
Y1878674D01*
X1304580Y1882579D02*
Y1872579D01*
Y1882579D02*
X1309429Y1872579D01*
Y1882579D02*
Y1872579D01*
X1506036Y1791813D02*
X1530418D01*
X1518227Y1779622D02*
Y1804004D01*
X1524323Y1807909D02*
Y1797909D01*
Y1807909D02*
X1529171Y1797909D01*
Y1807909D02*
Y1797909D01*
X1409727Y1866483D02*
X1434109D01*
X1421918Y1854292D02*
Y1878674D01*
X1428014Y1882579D02*
Y1872579D01*
Y1882579D02*
X1432863Y1872579D01*
Y1882579D02*
Y1872579D01*
X1446300Y1880198D02*
X1470682D01*
X1458491Y1868007D02*
Y1892389D01*
X1464587Y1896294D02*
Y1886294D01*
Y1896294D02*
X1469436Y1886294D01*
Y1896294D02*
Y1886294D01*
X1482873Y1860388D02*
X1507255D01*
X1495064Y1848197D02*
Y1872579D01*
X1501160Y1876484D02*
Y1866483D01*
Y1876484D02*
X1506009Y1866483D01*
Y1876484D02*
Y1866483D01*
X1550229Y1848197D02*
X1574611D01*
X1562420Y1836006D02*
Y1860388D01*
X1568515Y1864293D02*
Y1854292D01*
Y1864293D02*
X1573364Y1854292D01*
Y1864293D02*
Y1854292D01*
X1641661Y1818938D02*
X1666043D01*
X1653852Y1806747D02*
Y1831129D01*
X1659948Y1835034D02*
Y1825034D01*
Y1835034D02*
X1664796Y1825034D01*
Y1835034D02*
Y1825034D01*
X1588021Y1828386D02*
X1612403D01*
X1600212Y1816195D02*
Y1840577D01*
X1606307Y1844482D02*
Y1834482D01*
Y1844482D02*
X1611156Y1834482D01*
Y1844482D02*
Y1834482D01*
X1641356Y1857340D02*
X1665738D01*
X1653547Y1845149D02*
Y1869531D01*
X1659643Y1873436D02*
Y1863435D01*
Y1873436D02*
X1664491Y1863435D01*
Y1873436D02*
Y1863435D01*
X1616060Y1885989D02*
X1640442D01*
X1628251Y1873798D02*
Y1898180D01*
X1634346Y1902085D02*
Y1892084D01*
Y1902085D02*
X1639195Y1892084D01*
Y1902085D02*
Y1892084D01*
X1641356Y1867093D02*
X1665738D01*
X1653547Y1854902D02*
Y1879284D01*
X1659643Y1883189D02*
Y1873188D01*
Y1883189D02*
X1664491Y1873188D01*
Y1883189D02*
Y1873188D01*
X1533161Y1878674D02*
X1557543D01*
X1545352Y1866483D02*
Y1890865D01*
X1551448Y1894770D02*
Y1884770D01*
Y1894770D02*
X1556296Y1884770D01*
Y1894770D02*
Y1884770D01*
X1054665Y1944201D02*
X1079047D01*
X1066856Y1932010D02*
Y1956392D01*
X1072951Y1960297D02*
Y1950296D01*
Y1960297D02*
X1077800Y1950296D01*
Y1960297D02*
Y1950296D01*
X1054665Y1953344D02*
X1079047D01*
X1066856Y1941153D02*
Y1965535D01*
X1072951Y1969440D02*
Y1959440D01*
Y1969440D02*
X1077800Y1959440D01*
Y1969440D02*
Y1959440D01*
X1054665Y1973154D02*
X1079047D01*
X1066856Y1960963D02*
Y1985345D01*
X1072951Y1989250D02*
Y1979250D01*
Y1989250D02*
X1077800Y1979250D01*
Y1989250D02*
Y1979250D01*
X1054665Y1982298D02*
X1079047D01*
X1066856Y1970107D02*
Y1994489D01*
X1072951Y1998394D02*
Y1988393D01*
Y1998394D02*
X1077800Y1988393D01*
Y1998394D02*
Y1988393D01*
X1072951Y1915247D02*
X1097333D01*
X1085142Y1903056D02*
Y1927438D01*
X1091238Y1931343D02*
Y1921343D01*
Y1931343D02*
X1096086Y1921343D01*
Y1931343D02*
Y1921343D01*
X1072951Y1944201D02*
X1097333D01*
X1085142Y1932010D02*
Y1956392D01*
X1091238Y1960297D02*
Y1950296D01*
Y1960297D02*
X1096086Y1950296D01*
Y1960297D02*
Y1950296D01*
X1054665Y1915247D02*
X1079047D01*
X1066856Y1903056D02*
Y1927438D01*
X1072951Y1931343D02*
Y1921343D01*
Y1931343D02*
X1077800Y1921343D01*
Y1931343D02*
Y1921343D01*
X1054665Y1924390D02*
X1079047D01*
X1066856Y1912199D02*
Y1936581D01*
X1072951Y1940486D02*
Y1930486D01*
Y1940486D02*
X1077800Y1930486D01*
Y1940486D02*
Y1930486D01*
X1141526Y1985345D02*
X1165908D01*
X1153717Y1973154D02*
Y1997536D01*
X1159812Y2001441D02*
Y1991441D01*
Y2001441D02*
X1164661Y1991441D01*
Y2001441D02*
Y1991441D01*
X1054665Y2002108D02*
X1079047D01*
X1066856Y1989917D02*
Y2014299D01*
X1072951Y2018204D02*
Y2008204D01*
Y2018204D02*
X1077800Y2008204D01*
Y2018204D02*
Y2008204D01*
X1072951Y1973154D02*
X1097333D01*
X1085142Y1960963D02*
Y1985345D01*
X1091238Y1989250D02*
Y1979250D01*
Y1989250D02*
X1096086Y1979250D01*
Y1989250D02*
Y1979250D01*
X1072951Y1982298D02*
X1097333D01*
X1085142Y1970107D02*
Y1994489D01*
X1091238Y1998394D02*
Y1988393D01*
Y1998394D02*
X1096086Y1988393D01*
Y1998394D02*
Y1988393D01*
X1072951Y2002108D02*
X1097333D01*
X1085142Y1989917D02*
Y2014299D01*
X1091238Y2018204D02*
Y2008204D01*
Y2018204D02*
X1096086Y2008204D01*
Y2018204D02*
Y2008204D01*
X1072951Y1924390D02*
X1097333D01*
X1085142Y1912199D02*
Y1936581D01*
X1091238Y1940486D02*
Y1930486D01*
Y1940486D02*
X1096086Y1930486D01*
Y1940486D02*
Y1930486D01*
X1072951Y1953344D02*
X1097333D01*
X1085142Y1941153D02*
Y1965535D01*
X1091238Y1969440D02*
Y1959440D01*
Y1969440D02*
X1096086Y1959440D01*
Y1969440D02*
Y1959440D01*
X1072951Y1895437D02*
X1097333D01*
X1085142Y1883246D02*
Y1907628D01*
X1091238Y1911533D02*
Y1901532D01*
Y1911533D02*
X1096086Y1901532D01*
Y1911533D02*
Y1901532D01*
X1223815Y2009727D02*
X1248197D01*
X1236006Y1997536D02*
Y2021918D01*
X1242101Y2025823D02*
Y2015823D01*
Y2025823D02*
X1246950Y2015823D01*
Y2025823D02*
Y2015823D01*
X1359440Y1956392D02*
X1383822D01*
X1371631Y1944201D02*
Y1968583D01*
X1377726Y1972488D02*
Y1962487D01*
Y1972488D02*
X1382575Y1962487D01*
Y1972488D02*
Y1962487D01*
X1426185Y1995098D02*
X1450567D01*
X1438376Y1982907D02*
Y2007289D01*
X1444472Y2011194D02*
Y2001194D01*
Y2011194D02*
X1449320Y2001194D01*
Y2011194D02*
Y2001194D01*
X1410946Y1982602D02*
X1435328D01*
X1423137Y1970411D02*
Y1994793D01*
X1429233Y1998698D02*
Y1988698D01*
Y1998698D02*
X1434082Y1988698D01*
Y1998698D02*
Y1988698D01*
X1420395Y1944201D02*
X1444776D01*
X1432586Y1932010D02*
Y1956392D01*
X1438681Y1960297D02*
Y1950296D01*
Y1960297D02*
X1443530Y1950296D01*
Y1960297D02*
Y1950296D01*
X1421918Y1965535D02*
X1446300D01*
X1434109Y1953344D02*
Y1977726D01*
X1440205Y1981631D02*
Y1971631D01*
Y1981631D02*
X1445054Y1971631D01*
Y1981631D02*
Y1971631D01*
X1522494Y1994489D02*
X1546876D01*
X1534685Y1982298D02*
Y2006680D01*
X1540781Y2010585D02*
Y2000584D01*
Y2010585D02*
X1545629Y2000584D01*
Y2010585D02*
Y2000584D01*
X1446300Y1938105D02*
X1470682D01*
X1458491Y1925914D02*
Y1950296D01*
X1464587Y1954201D02*
Y1944201D01*
Y1954201D02*
X1469436Y1944201D01*
Y1954201D02*
Y1944201D01*
X1409727Y1895437D02*
X1434109D01*
X1421918Y1883246D02*
Y1907628D01*
X1428014Y1911533D02*
Y1901532D01*
Y1911533D02*
X1432863Y1901532D01*
Y1911533D02*
Y1901532D01*
X1409727Y1924390D02*
X1434109D01*
X1421918Y1912199D02*
Y1936581D01*
X1428014Y1940486D02*
Y1930486D01*
Y1940486D02*
X1432863Y1930486D01*
Y1940486D02*
Y1930486D01*
X1435633Y1909152D02*
X1460015D01*
X1447824Y1896961D02*
Y1921343D01*
X1453920Y1925248D02*
Y1915247D01*
Y1925248D02*
X1458768Y1915247D01*
Y1925248D02*
Y1915247D01*
X1443557Y1907628D02*
X1467939D01*
X1455748Y1895437D02*
Y1919819D01*
X1461844Y1923724D02*
Y1913723D01*
Y1923724D02*
X1466693Y1913723D01*
Y1923724D02*
Y1913723D01*
X1469158Y1889341D02*
X1493540D01*
X1481349Y1877150D02*
Y1901532D01*
X1487445Y1905437D02*
Y1895437D01*
Y1905437D02*
X1492294Y1895437D01*
Y1905437D02*
Y1895437D01*
X1482873Y1974678D02*
X1507255D01*
X1495064Y1962487D02*
Y1986869D01*
X1501160Y1990774D02*
Y1980774D01*
Y1990774D02*
X1506009Y1980774D01*
Y1990774D02*
Y1980774D01*
X1641356Y1971631D02*
X1665738D01*
X1653547Y1959440D02*
Y1983822D01*
X1659643Y1987726D02*
Y1977726D01*
Y1987726D02*
X1664491Y1977726D01*
Y1987726D02*
Y1977726D01*
X1641356Y2000584D02*
X1665738D01*
X1653547Y1988393D02*
Y2012775D01*
X1659643Y2016680D02*
Y2006680D01*
Y2016680D02*
X1664491Y2006680D01*
Y2016680D02*
Y2006680D01*
X1641356Y1889341D02*
X1665738D01*
X1653547Y1877150D02*
Y1901532D01*
X1659643Y1905437D02*
Y1895437D01*
Y1905437D02*
X1664491Y1895437D01*
Y1905437D02*
Y1895437D01*
X1603259Y1933534D02*
X1627641D01*
X1615450Y1921343D02*
Y1945725D01*
X1621546Y1949630D02*
Y1939629D01*
Y1949630D02*
X1626395Y1939629D01*
Y1949630D02*
Y1939629D01*
X1588021Y1909152D02*
X1612403D01*
X1600212Y1896961D02*
Y1921343D01*
X1606307Y1925248D02*
Y1915247D01*
Y1925248D02*
X1611156Y1915247D01*
Y1925248D02*
Y1915247D01*
X1641356Y1982298D02*
X1665738D01*
X1653547Y1970107D02*
Y1994489D01*
X1659643Y1998394D02*
Y1988393D01*
Y1998394D02*
X1664491Y1988393D01*
Y1998394D02*
Y1988393D01*
X1533161Y1907628D02*
X1557543D01*
X1545352Y1895437D02*
Y1919819D01*
X1551448Y1923724D02*
Y1913723D01*
Y1923724D02*
X1556296Y1913723D01*
Y1923724D02*
Y1913723D01*
X1641356Y1897265D02*
X1665738D01*
X1653547Y1885074D02*
Y1909456D01*
X1659643Y1913361D02*
Y1903361D01*
Y1913361D02*
X1664491Y1903361D01*
Y1913361D02*
Y1903361D01*
X1641356Y1915247D02*
X1665738D01*
X1653547Y1903056D02*
Y1927438D01*
X1659643Y1931343D02*
Y1921343D01*
Y1931343D02*
X1664491Y1921343D01*
Y1931343D02*
Y1921343D01*
X1533161Y1994489D02*
X1557543D01*
X1545352Y1982298D02*
Y2006680D01*
X1551448Y2010585D02*
Y2000584D01*
Y2010585D02*
X1556296Y2000584D01*
Y2010585D02*
Y2000584D01*
X1064113Y2058491D02*
X1088495D01*
X1076304Y2046300D02*
Y2070682D01*
X1082399Y2074587D02*
Y2064587D01*
Y2074587D02*
X1087248Y2064587D01*
Y2074587D02*
Y2064587D01*
X1111353Y2049424D02*
X1135735D01*
X1123544Y2037233D02*
Y2061615D01*
X1129639Y2065520D02*
Y2055520D01*
Y2065520D02*
X1134488Y2055520D01*
Y2065520D02*
Y2055520D01*
X1054665Y2029538D02*
X1079047D01*
X1066856Y2017347D02*
Y2041729D01*
X1072951Y2045634D02*
Y2035633D01*
Y2045634D02*
X1077800Y2035633D01*
Y2045634D02*
Y2035633D01*
X1054665Y2040205D02*
X1079047D01*
X1066856Y2028014D02*
Y2052396D01*
X1072951Y2056301D02*
Y2046300D01*
Y2056301D02*
X1077800Y2046300D01*
Y2056301D02*
Y2046300D01*
X1072951Y2029538D02*
X1097333D01*
X1085142Y2017347D02*
Y2041729D01*
X1091238Y2045634D02*
Y2035633D01*
Y2045634D02*
X1096086Y2035633D01*
Y2045634D02*
Y2035633D01*
X1068075Y2107255D02*
X1092457D01*
X1080266Y2095064D02*
Y2119446D01*
X1086361Y2123351D02*
Y2113351D01*
Y2123351D02*
X1091210Y2113351D01*
Y2123351D02*
Y2113351D01*
X1058322Y2081959D02*
X1082704D01*
X1070513Y2069768D02*
Y2094150D01*
X1076609Y2098055D02*
Y2088055D01*
Y2098055D02*
X1081457Y2088055D01*
Y2098055D02*
Y2088055D01*
X1054665Y2011251D02*
X1079047D01*
X1066856Y1999060D02*
Y2023442D01*
X1072951Y2027347D02*
Y2017347D01*
Y2027347D02*
X1077800Y2017347D01*
Y2027347D02*
Y2017347D01*
X1054665Y2069158D02*
X1079047D01*
X1066856Y2056967D02*
Y2081349D01*
X1072951Y2085254D02*
Y2075254D01*
Y2085254D02*
X1077800Y2075254D01*
Y2085254D02*
Y2075254D01*
X1054360Y2094760D02*
X1078742D01*
X1066551Y2082569D02*
Y2106951D01*
X1072646Y2110855D02*
Y2100855D01*
Y2110855D02*
X1077495Y2100855D01*
Y2110855D02*
Y2100855D01*
X1054665Y2107255D02*
X1079047D01*
X1066856Y2095064D02*
Y2119446D01*
X1072951Y2123351D02*
Y2113351D01*
Y2123351D02*
X1077800Y2113351D01*
Y2123351D02*
Y2113351D01*
X1054665Y2125542D02*
X1079047D01*
X1066856Y2113351D02*
Y2137733D01*
X1072951Y2141638D02*
Y2131637D01*
Y2141638D02*
X1077800Y2131637D01*
Y2141638D02*
Y2131637D01*
X1072951Y2011251D02*
X1097333D01*
X1085142Y1999060D02*
Y2023442D01*
X1091238Y2027347D02*
Y2017347D01*
Y2027347D02*
X1096086Y2017347D01*
Y2027347D02*
Y2017347D01*
X1072951Y2040205D02*
X1097333D01*
X1085142Y2028014D02*
Y2052396D01*
X1091238Y2056301D02*
Y2046300D01*
Y2056301D02*
X1096086Y2046300D01*
Y2056301D02*
Y2046300D01*
X1072951Y2069158D02*
X1097333D01*
X1085142Y2056967D02*
Y2081349D01*
X1091238Y2085254D02*
Y2075254D01*
Y2085254D02*
X1096086Y2075254D01*
Y2085254D02*
Y2075254D01*
X1072951Y2078302D02*
X1097333D01*
X1085142Y2066111D02*
Y2090493D01*
X1091238Y2094398D02*
Y2084397D01*
Y2094398D02*
X1096086Y2084397D01*
Y2094398D02*
Y2084397D01*
X1067161Y2099331D02*
X1091542D01*
X1079352Y2087140D02*
Y2111522D01*
X1085447Y2115427D02*
Y2105427D01*
Y2115427D02*
X1090296Y2105427D01*
Y2115427D02*
Y2105427D01*
X1072951Y2125542D02*
X1097333D01*
X1085142Y2113351D02*
Y2137733D01*
X1091238Y2141638D02*
Y2131637D01*
Y2141638D02*
X1096086Y2131637D01*
Y2141638D02*
Y2131637D01*
X1278674Y2029538D02*
X1303056D01*
X1290865Y2017347D02*
Y2041729D01*
X1296961Y2045634D02*
Y2035633D01*
Y2045634D02*
X1301809Y2035633D01*
Y2045634D02*
Y2035633D01*
X1319209Y2064892D02*
X1343591D01*
X1331400Y2052701D02*
Y2077083D01*
X1337496Y2080988D02*
Y2070987D01*
Y2080988D02*
X1342344Y2070987D01*
Y2080988D02*
Y2070987D01*
X1346334Y2064892D02*
X1370716D01*
X1358525Y2052701D02*
Y2077083D01*
X1364621Y2080988D02*
Y2070987D01*
Y2080988D02*
X1369469Y2070987D01*
Y2080988D02*
Y2070987D01*
X1353344Y2034109D02*
X1377726D01*
X1365535Y2021918D02*
Y2046300D01*
X1371631Y2050205D02*
Y2040205D01*
Y2050205D02*
X1376479Y2040205D01*
Y2050205D02*
Y2040205D01*
X1397841Y2049424D02*
X1422223D01*
X1410032Y2037233D02*
Y2061615D01*
X1416128Y2065520D02*
Y2055520D01*
Y2065520D02*
X1420976Y2055520D01*
Y2065520D02*
Y2055520D01*
X1409727Y2107255D02*
X1434109D01*
X1421918Y2095064D02*
Y2119446D01*
X1428014Y2123351D02*
Y2113351D01*
Y2123351D02*
X1432863Y2113351D01*
Y2123351D02*
Y2113351D01*
X1418871Y2119446D02*
X1443253D01*
X1431062Y2107255D02*
Y2131637D01*
X1437157Y2135542D02*
Y2125542D01*
Y2135542D02*
X1442006Y2125542D01*
Y2135542D02*
Y2125542D01*
X1522494Y2119446D02*
X1546876D01*
X1534685Y2107255D02*
Y2131637D01*
X1540781Y2135542D02*
Y2125542D01*
Y2135542D02*
X1545629Y2125542D01*
Y2135542D02*
Y2125542D01*
X1409727Y2011251D02*
X1434109D01*
X1421918Y1999060D02*
Y2023442D01*
X1428014Y2027347D02*
Y2017347D01*
Y2027347D02*
X1432863Y2017347D01*
Y2027347D02*
Y2017347D01*
X1512741Y2078302D02*
X1537123D01*
X1524932Y2066111D02*
Y2090493D01*
X1531028Y2094398D02*
Y2084397D01*
Y2094398D02*
X1535876Y2084397D01*
Y2094398D02*
Y2084397D01*
X1409727Y2040205D02*
X1434109D01*
X1421918Y2028014D02*
Y2052396D01*
X1428014Y2056301D02*
Y2046300D01*
Y2056301D02*
X1432863Y2046300D01*
Y2056301D02*
Y2046300D01*
X1443253Y2052396D02*
X1467635D01*
X1455444Y2040205D02*
Y2064587D01*
X1461539Y2068492D02*
Y2058491D01*
Y2068492D02*
X1466388Y2058491D01*
Y2068492D02*
Y2058491D01*
X1446300Y2023442D02*
X1470682D01*
X1458491Y2011251D02*
Y2035633D01*
X1464587Y2039538D02*
Y2029538D01*
Y2039538D02*
X1469436Y2029538D01*
Y2039538D02*
Y2029538D01*
X1482873Y2099636D02*
X1507255D01*
X1495064Y2087445D02*
Y2111827D01*
X1501160Y2115732D02*
Y2105731D01*
Y2115732D02*
X1506009Y2105731D01*
Y2115732D02*
Y2105731D01*
X1549314Y2086531D02*
X1573696D01*
X1561505Y2074340D02*
Y2098722D01*
X1567601Y2102627D02*
Y2092626D01*
Y2102627D02*
X1572449Y2092626D01*
Y2102627D02*
Y2092626D01*
X1540781Y2054529D02*
X1565163D01*
X1552972Y2042338D02*
Y2066720D01*
X1559067Y2070625D02*
Y2060625D01*
Y2070625D02*
X1563916Y2060625D01*
Y2070625D02*
Y2060625D01*
X1531637Y2054529D02*
X1556019D01*
X1543828Y2042338D02*
Y2066720D01*
X1549924Y2070625D02*
Y2060625D01*
Y2070625D02*
X1554772Y2060625D01*
Y2070625D02*
Y2060625D01*
X1641356Y2011251D02*
X1665738D01*
X1653547Y1999060D02*
Y2023442D01*
X1659643Y2027347D02*
Y2017347D01*
Y2027347D02*
X1664491Y2017347D01*
Y2027347D02*
Y2017347D01*
X1534685Y2119446D02*
X1559067D01*
X1546876Y2107255D02*
Y2131637D01*
X1552972Y2135542D02*
Y2125542D01*
Y2135542D02*
X1557820Y2125542D01*
Y2135542D02*
Y2125542D01*
X1533161Y2023442D02*
X1557543D01*
X1545352Y2011251D02*
Y2035633D01*
X1551448Y2039538D02*
Y2029538D01*
Y2039538D02*
X1556296Y2029538D01*
Y2039538D02*
Y2029538D01*
X1641356Y2125847D02*
X1665738D01*
X1653547Y2113656D02*
Y2138038D01*
X1659643Y2141943D02*
Y2131942D01*
Y2141943D02*
X1664491Y2131942D01*
Y2141943D02*
Y2131942D01*
X1641356Y2096893D02*
X1665738D01*
X1653547Y2084702D02*
Y2109084D01*
X1659643Y2112989D02*
Y2102988D01*
Y2112989D02*
X1664491Y2102988D01*
Y2112989D02*
Y2102988D01*
X1641356Y2107255D02*
X1665738D01*
X1653547Y2095064D02*
Y2119446D01*
X1659643Y2123351D02*
Y2113351D01*
Y2123351D02*
X1664491Y2113351D01*
Y2123351D02*
Y2113351D01*
X1111353Y2145352D02*
X1135735D01*
X1123544Y2133161D02*
Y2157543D01*
X1129639Y2161448D02*
Y2151448D01*
Y2161448D02*
X1134488Y2151448D01*
Y2161448D02*
Y2151448D01*
X1062589Y2154800D02*
X1086971D01*
X1074780Y2142609D02*
Y2166991D01*
X1080875Y2170896D02*
Y2160896D01*
Y2170896D02*
X1085724Y2160896D01*
Y2170896D02*
Y2160896D01*
X1054665Y2174306D02*
X1079047D01*
X1066856Y2162115D02*
Y2186497D01*
X1072951Y2190402D02*
Y2180401D01*
Y2190402D02*
X1077800Y2180401D01*
Y2190402D02*
Y2180401D01*
X1054665Y2203259D02*
X1079047D01*
X1066856Y2191068D02*
Y2215450D01*
X1072951Y2219355D02*
Y2209355D01*
Y2219355D02*
X1077800Y2209355D01*
Y2219355D02*
Y2209355D01*
X1054665Y2194116D02*
X1079047D01*
X1066856Y2181925D02*
Y2206307D01*
X1072951Y2210212D02*
Y2200212D01*
Y2210212D02*
X1077800Y2200212D01*
Y2210212D02*
Y2200212D01*
X1072951Y2174306D02*
X1097333D01*
X1085142Y2162115D02*
Y2186497D01*
X1091238Y2190402D02*
Y2180401D01*
Y2190402D02*
X1096086Y2180401D01*
Y2190402D02*
Y2180401D01*
X1072951Y2165163D02*
X1097333D01*
X1085142Y2152972D02*
Y2177354D01*
X1091238Y2181258D02*
Y2171258D01*
Y2181258D02*
X1096086Y2171258D01*
Y2181258D02*
Y2171258D01*
X1071732Y2250499D02*
X1096114D01*
X1083923Y2238308D02*
Y2262690D01*
X1090019Y2266595D02*
Y2256595D01*
Y2266595D02*
X1094867Y2256595D01*
Y2266595D02*
Y2256595D01*
X1071732Y2241356D02*
X1096114D01*
X1083923Y2229165D02*
Y2253547D01*
X1090019Y2257452D02*
Y2247452D01*
Y2257452D02*
X1094867Y2247452D01*
Y2257452D02*
Y2247452D01*
X1112572Y2186497D02*
X1136954D01*
X1124763Y2174306D02*
Y2198688D01*
X1130858Y2202593D02*
Y2192592D01*
Y2202593D02*
X1135707Y2192592D01*
Y2202593D02*
Y2192592D01*
X1072951Y2203259D02*
X1097333D01*
X1085142Y2191068D02*
Y2215450D01*
X1091238Y2219355D02*
Y2209355D01*
Y2219355D02*
X1096086Y2209355D01*
Y2219355D02*
Y2209355D01*
X1071732Y2212403D02*
X1096114D01*
X1083923Y2200212D02*
Y2224594D01*
X1090019Y2228499D02*
Y2218498D01*
Y2228499D02*
X1094867Y2218498D01*
Y2228499D02*
Y2218498D01*
X1071732Y2221546D02*
X1096114D01*
X1083923Y2209355D02*
Y2233737D01*
X1090019Y2237642D02*
Y2227641D01*
Y2237642D02*
X1094867Y2227641D01*
Y2237642D02*
Y2227641D01*
X1054665Y2136209D02*
X1079047D01*
X1066856Y2124018D02*
Y2148400D01*
X1072951Y2152305D02*
Y2142304D01*
Y2152305D02*
X1077800Y2142304D01*
Y2152305D02*
Y2142304D01*
X1054665Y2165163D02*
X1079047D01*
X1066856Y2152972D02*
Y2177354D01*
X1072951Y2181258D02*
Y2171258D01*
Y2181258D02*
X1077800Y2171258D01*
Y2181258D02*
Y2171258D01*
X1331705Y2210269D02*
X1356087D01*
X1343896Y2198078D02*
Y2222460D01*
X1349992Y2226365D02*
Y2216365D01*
Y2226365D02*
X1354840Y2216365D01*
Y2226365D02*
Y2216365D01*
X1335667Y2191373D02*
X1360049D01*
X1347858Y2179182D02*
Y2203564D01*
X1353954Y2207469D02*
Y2197469D01*
Y2207469D02*
X1358802Y2197469D01*
Y2207469D02*
Y2197469D01*
X1339629Y2174306D02*
X1364011D01*
X1351820Y2162115D02*
Y2186497D01*
X1357916Y2190402D02*
Y2180401D01*
Y2190402D02*
X1362764Y2180401D01*
Y2190402D02*
Y2180401D01*
X1388393Y2149924D02*
X1412775D01*
X1400584Y2137733D02*
Y2162115D01*
X1406680Y2166020D02*
Y2156019D01*
Y2166020D02*
X1411528Y2156019D01*
Y2166020D02*
Y2156019D01*
X1409727Y2136209D02*
X1434109D01*
X1421918Y2124018D02*
Y2148400D01*
X1428014Y2152305D02*
Y2142304D01*
Y2152305D02*
X1432863Y2142304D01*
Y2152305D02*
Y2142304D01*
X1418871Y2148400D02*
X1443253D01*
X1431062Y2136209D02*
Y2160591D01*
X1437157Y2164496D02*
Y2154495D01*
Y2164496D02*
X1442006Y2154495D01*
Y2164496D02*
Y2154495D01*
X1641356Y2154800D02*
X1665738D01*
X1653547Y2142609D02*
Y2166991D01*
X1659643Y2170896D02*
Y2160896D01*
Y2170896D02*
X1664491Y2160896D01*
Y2170896D02*
Y2160896D01*
X1602040Y2241966D02*
X1626422D01*
X1614231Y2229775D02*
Y2254157D01*
X1620327Y2258062D02*
Y2248061D01*
Y2258062D02*
X1625175Y2248061D01*
Y2258062D02*
Y2248061D01*
X1600212Y2206307D02*
X1624594D01*
X1612403Y2194116D02*
Y2218498D01*
X1618498Y2222403D02*
Y2212403D01*
Y2222403D02*
X1623347Y2212403D01*
Y2222403D02*
Y2212403D01*
X1552972Y2183449D02*
X1577354D01*
X1565163Y2171258D02*
Y2195640D01*
X1571258Y2199545D02*
Y2189545D01*
Y2199545D02*
X1576107Y2189545D01*
Y2199545D02*
Y2189545D01*
X1591068Y2169734D02*
X1615450D01*
X1603259Y2157543D02*
Y2181925D01*
X1609355Y2185830D02*
Y2175830D01*
Y2185830D02*
X1614204Y2175830D01*
Y2185830D02*
Y2175830D01*
X1534685Y2148400D02*
X1559067D01*
X1546876Y2136209D02*
Y2160591D01*
X1552972Y2164496D02*
Y2154495D01*
Y2164496D02*
X1557820Y2154495D01*
Y2164496D02*
Y2154495D01*
X1641356Y2136209D02*
X1665738D01*
X1653547Y2124018D02*
Y2148400D01*
X1659643Y2152305D02*
Y2142304D01*
Y2152305D02*
X1664491Y2142304D01*
Y2152305D02*
Y2142304D01*
X1115315Y2367228D02*
X1139697D01*
X1127506Y2355037D02*
Y2379419D01*
X1133601Y2383324D02*
Y2373324D01*
Y2383324D02*
X1138450Y2373324D01*
Y2383324D02*
Y2373324D01*
X1115620Y2308407D02*
X1140002D01*
X1127811Y2296216D02*
Y2320598D01*
X1133906Y2324503D02*
Y2314502D01*
Y2324503D02*
X1138755Y2314502D01*
Y2324503D02*
Y2314502D01*
X1115620Y2332789D02*
X1140002D01*
X1127811Y2320598D02*
Y2344980D01*
X1133906Y2348885D02*
Y2338884D01*
Y2348885D02*
X1138755Y2338884D01*
Y2348885D02*
Y2338884D01*
X1146097Y2291644D02*
X1170479D01*
X1158288Y2279453D02*
Y2303835D01*
X1164384Y2307740D02*
Y2297740D01*
Y2307740D02*
X1169232Y2297740D01*
Y2307740D02*
Y2297740D01*
X1206747Y2310540D02*
X1231129D01*
X1218938Y2298349D02*
Y2322731D01*
X1225034Y2326636D02*
Y2316636D01*
Y2326636D02*
X1229883Y2316636D01*
Y2326636D02*
Y2316636D01*
X1166212Y2359609D02*
X1190594D01*
X1178403Y2347418D02*
Y2371800D01*
X1184499Y2375705D02*
Y2365704D01*
Y2375705D02*
X1189347Y2365704D01*
Y2375705D02*
Y2365704D01*
X1271969Y2311150D02*
X1296351D01*
X1284160Y2298959D02*
Y2323341D01*
X1290256Y2327246D02*
Y2317245D01*
Y2327246D02*
X1295104Y2317245D01*
Y2327246D02*
Y2317245D01*
X1249111Y2319074D02*
X1273493D01*
X1261302Y2306883D02*
Y2331265D01*
X1267398Y2335170D02*
Y2325169D01*
Y2335170D02*
X1272246Y2325169D01*
Y2335170D02*
Y2325169D01*
X1249416Y2296825D02*
X1273798D01*
X1261607Y2284634D02*
Y2309016D01*
X1267702Y2312921D02*
Y2302921D01*
Y2312921D02*
X1272551Y2302921D01*
Y2312921D02*
Y2302921D01*
X1292389Y2310540D02*
X1316771D01*
X1304580Y2298349D02*
Y2322731D01*
X1310676Y2326636D02*
Y2316636D01*
Y2326636D02*
X1315524Y2316636D01*
Y2326636D02*
Y2316636D01*
X1433805Y2310540D02*
X1458187D01*
X1445996Y2298349D02*
Y2322731D01*
X1452091Y2326636D02*
Y2316636D01*
Y2326636D02*
X1456940Y2316636D01*
Y2326636D02*
Y2316636D01*
X1450872Y2256595D02*
X1475254D01*
X1463063Y2244404D02*
Y2268786D01*
X1469158Y2272691D02*
Y2262690D01*
Y2272691D02*
X1474007Y2262690D01*
Y2272691D02*
Y2262690D01*
X1520970Y2369362D02*
X1545352D01*
X1533161Y2357171D02*
Y2381553D01*
X1539257Y2385458D02*
Y2375457D01*
Y2385458D02*
X1544105Y2375457D01*
Y2385458D02*
Y2375457D01*
X1467635Y2320598D02*
X1492017D01*
X1479826Y2308407D02*
Y2332789D01*
X1485921Y2336694D02*
Y2326693D01*
Y2336694D02*
X1490770Y2326693D01*
Y2336694D02*
Y2326693D01*
X1144573Y2385515D02*
X1168955D01*
X1156764Y2373324D02*
Y2397706D01*
X1162860Y2401611D02*
Y2391610D01*
Y2401611D02*
X1167708Y2391610D01*
Y2401611D02*
Y2391610D01*
X1115620Y2391305D02*
X1140002D01*
X1127811Y2379114D02*
Y2403496D01*
X1133906Y2407401D02*
Y2397401D01*
Y2407401D02*
X1138755Y2397401D01*
Y2407401D02*
Y2397401D01*
X1115620Y2451651D02*
X1140002D01*
X1127811Y2439460D02*
Y2463842D01*
X1133906Y2467747D02*
Y2457746D01*
Y2467747D02*
X1138755Y2457746D01*
Y2467747D02*
Y2457746D01*
X1115620Y2427269D02*
X1140002D01*
X1127811Y2415078D02*
Y2439460D01*
X1133906Y2443365D02*
Y2433364D01*
Y2443365D02*
X1138755Y2433364D01*
Y2443365D02*
Y2433364D01*
X1115620Y2488224D02*
X1140002D01*
X1127811Y2476033D02*
Y2500415D01*
X1133906Y2504320D02*
Y2494319D01*
Y2504320D02*
X1138755Y2494319D01*
Y2504320D02*
Y2494319D01*
X1143049Y2413554D02*
X1167431D01*
X1155240Y2401363D02*
Y2425745D01*
X1161336Y2429650D02*
Y2419650D01*
Y2429650D02*
X1166185Y2419650D01*
Y2429650D02*
Y2419650D01*
X1220157Y2481519D02*
X1244539D01*
X1232348Y2469328D02*
Y2493710D01*
X1238444Y2497615D02*
Y2487614D01*
Y2497615D02*
X1243293Y2487614D01*
Y2497615D02*
Y2487614D01*
X1166212Y2377895D02*
X1190594D01*
X1178403Y2365704D02*
Y2390086D01*
X1184499Y2393991D02*
Y2383991D01*
Y2393991D02*
X1189347Y2383991D01*
Y2393991D02*
Y2383991D01*
X1249721Y2459270D02*
X1274103D01*
X1261912Y2447079D02*
Y2471461D01*
X1268007Y2475366D02*
Y2465366D01*
Y2475366D02*
X1272856Y2465366D01*
Y2475366D02*
Y2465366D01*
X1279284Y2481519D02*
X1303666D01*
X1291475Y2469328D02*
Y2493710D01*
X1297570Y2497615D02*
Y2487614D01*
Y2497615D02*
X1302419Y2487614D01*
Y2497615D02*
Y2487614D01*
X1300313Y2479690D02*
X1324695D01*
X1312504Y2467499D02*
Y2491881D01*
X1318600Y2495786D02*
Y2485786D01*
Y2495786D02*
X1323448Y2485786D01*
Y2495786D02*
Y2485786D01*
X1464282Y2482128D02*
X1488664D01*
X1476473Y2469937D02*
Y2494319D01*
X1482569Y2498224D02*
Y2488224D01*
Y2498224D02*
X1487417Y2488224D01*
Y2498224D02*
Y2488224D01*
X1404241Y2481214D02*
X1428623D01*
X1416432Y2469023D02*
Y2493405D01*
X1422528Y2497310D02*
Y2487310D01*
Y2497310D02*
X1427377Y2487310D01*
Y2497310D02*
Y2487310D01*
X1491712Y2477557D02*
X1516094D01*
X1503903Y2465366D02*
Y2489748D01*
X1509998Y2493653D02*
Y2483652D01*
Y2493653D02*
X1514847Y2483652D01*
Y2493653D02*
Y2483652D01*
X1433805Y2457442D02*
X1458187D01*
X1445996Y2445251D02*
Y2469633D01*
X1452091Y2473537D02*
Y2463537D01*
Y2473537D02*
X1456940Y2463537D01*
Y2473537D02*
Y2463537D01*
X1607526Y2434583D02*
X1631908D01*
X1619717Y2422392D02*
Y2446774D01*
X1625813Y2450679D02*
Y2440679D01*
Y2450679D02*
X1630661Y2440679D01*
Y2450679D02*
Y2440679D01*
X1081790Y2590628D02*
X1106172D01*
X1093981Y2578437D02*
Y2602819D01*
X1100076Y2606724D02*
Y2596724D01*
Y2606724D02*
X1104925Y2596724D01*
Y2606724D02*
Y2596724D01*
X1115620Y2512606D02*
X1140002D01*
X1127811Y2500415D02*
Y2524797D01*
X1133906Y2528702D02*
Y2518701D01*
Y2528702D02*
X1138755Y2518701D01*
Y2528702D02*
Y2518701D01*
X1175965Y2601600D02*
X1200347D01*
X1188156Y2589409D02*
Y2613791D01*
X1194252Y2617696D02*
Y2607696D01*
Y2617696D02*
X1199100Y2607696D01*
Y2617696D02*
Y2607696D01*
X1199738Y2600991D02*
X1224120D01*
X1211929Y2588800D02*
Y2613182D01*
X1218024Y2617086D02*
Y2607086D01*
Y2617086D02*
X1222873Y2607086D01*
Y2617086D02*
Y2607086D01*
X1252768Y2522968D02*
X1277150D01*
X1264959Y2510777D02*
Y2535159D01*
X1271055Y2539064D02*
Y2529064D01*
Y2539064D02*
X1275904Y2529064D01*
Y2539064D02*
Y2529064D01*
X1204309Y2558627D02*
X1228691D01*
X1216500Y2546436D02*
Y2570818D01*
X1222596Y2574723D02*
Y2564722D01*
Y2574723D02*
X1227444Y2564722D01*
Y2574723D02*
Y2564722D01*
X1203090Y2513520D02*
X1227472D01*
X1215281Y2501329D02*
Y2525711D01*
X1221377Y2529616D02*
Y2519616D01*
Y2529616D02*
X1226225Y2519616D01*
Y2529616D02*
Y2519616D01*
X1259473Y2536073D02*
X1283855D01*
X1271664Y2523882D02*
Y2548264D01*
X1277760Y2552169D02*
Y2542169D01*
Y2552169D02*
X1282609Y2542169D01*
Y2552169D02*
Y2542169D01*
X1278674Y2532721D02*
X1303056D01*
X1290865Y2520530D02*
Y2544912D01*
X1296961Y2548817D02*
Y2538816D01*
Y2548817D02*
X1301809Y2538816D01*
Y2548817D02*
Y2538816D01*
X1253073Y2530892D02*
X1277455D01*
X1265264Y2518701D02*
Y2543083D01*
X1271360Y2546988D02*
Y2536988D01*
Y2546988D02*
X1276208Y2536988D01*
Y2546988D02*
Y2536988D01*
X1251549Y2571123D02*
X1275931D01*
X1263740Y2558932D02*
Y2583314D01*
X1269836Y2587219D02*
Y2577218D01*
Y2587219D02*
X1274684Y2577218D01*
Y2587219D02*
Y2577218D01*
X1248806Y2543693D02*
X1273188D01*
X1260997Y2531502D02*
Y2555884D01*
X1267093Y2559789D02*
Y2549788D01*
Y2559789D02*
X1271941Y2549788D01*
Y2559789D02*
Y2549788D01*
X1206747Y2527845D02*
X1231129D01*
X1218938Y2515654D02*
Y2540036D01*
X1225034Y2543940D02*
Y2533940D01*
Y2543940D02*
X1229883Y2533940D01*
Y2543940D02*
Y2533940D01*
X1385955Y2512911D02*
X1410337D01*
X1398146Y2500720D02*
Y2525102D01*
X1404241Y2529007D02*
Y2519006D01*
Y2529007D02*
X1409090Y2519006D01*
Y2529007D02*
Y2519006D01*
X1386260Y2558322D02*
X1410642D01*
X1398451Y2546131D02*
Y2570513D01*
X1404546Y2574418D02*
Y2564418D01*
Y2574418D02*
X1409395Y2564418D01*
Y2574418D02*
Y2564418D01*
X1288732Y2513825D02*
X1313114D01*
X1300923Y2501634D02*
Y2526016D01*
X1307018Y2529921D02*
Y2519920D01*
Y2529921D02*
X1311867Y2519920D01*
Y2529921D02*
Y2519920D01*
X1336277Y2534550D02*
X1360659D01*
X1348468Y2522359D02*
Y2546741D01*
X1354563Y2550646D02*
Y2540645D01*
Y2550646D02*
X1359412Y2540645D01*
Y2550646D02*
Y2540645D01*
X1390831Y2527845D02*
X1415213D01*
X1403022Y2515654D02*
Y2540036D01*
X1409118Y2543940D02*
Y2533940D01*
Y2543940D02*
X1413967Y2533940D01*
Y2543940D02*
Y2533940D01*
X1300313Y2567465D02*
X1324695D01*
X1312504Y2555274D02*
Y2579656D01*
X1318600Y2583561D02*
Y2573561D01*
Y2583561D02*
X1323448Y2573561D01*
Y2583561D02*
Y2573561D01*
X1479521Y2513215D02*
X1503903D01*
X1491712Y2501024D02*
Y2525406D01*
X1497807Y2529311D02*
Y2519311D01*
Y2529311D02*
X1502656Y2519311D01*
Y2529311D02*
Y2519311D01*
X1436852Y2522968D02*
X1461234D01*
X1449043Y2510777D02*
Y2535159D01*
X1455139Y2539064D02*
Y2529064D01*
Y2539064D02*
X1459988Y2529064D01*
Y2539064D02*
Y2529064D01*
X1444776Y2536378D02*
X1469158D01*
X1456967Y2524187D02*
Y2548569D01*
X1463063Y2552474D02*
Y2542474D01*
Y2552474D02*
X1467912Y2542474D01*
Y2552474D02*
Y2542474D01*
X1476168Y2526321D02*
X1500550D01*
X1488359Y2514130D02*
Y2538512D01*
X1494455Y2542417D02*
Y2532416D01*
Y2542417D02*
X1499303Y2532416D01*
Y2542417D02*
Y2532416D01*
X1433195Y2543998D02*
X1457577D01*
X1445386Y2531807D02*
Y2556189D01*
X1451482Y2560094D02*
Y2550093D01*
Y2560094D02*
X1456330Y2550093D01*
Y2560094D02*
Y2550093D01*
X1436852Y2530892D02*
X1461234D01*
X1449043Y2518701D02*
Y2543083D01*
X1455139Y2546988D02*
Y2536988D01*
Y2546988D02*
X1459988Y2536988D01*
Y2546988D02*
Y2536988D01*
X1435024Y2571427D02*
X1459406D01*
X1447215Y2559236D02*
Y2583618D01*
X1453310Y2587523D02*
Y2577523D01*
Y2587523D02*
X1458159Y2577523D01*
Y2587523D02*
Y2577523D01*
X1523104Y2512911D02*
X1547486D01*
X1535295Y2500720D02*
Y2525102D01*
X1541390Y2529007D02*
Y2519006D01*
Y2529007D02*
X1546239Y2519006D01*
Y2529007D02*
Y2519006D01*
X1411251Y2672613D02*
X1435633D01*
X1423442Y2660422D02*
Y2684804D01*
X1429538Y2688709D02*
Y2678708D01*
Y2688709D02*
X1434386Y2678708D01*
Y2688709D02*
Y2678708D01*
X1426490Y2640611D02*
X1450872D01*
X1438681Y2628420D02*
Y2652802D01*
X1444776Y2656707D02*
Y2646707D01*
Y2656707D02*
X1449625Y2646707D01*
Y2656707D02*
Y2646707D01*
X1417347Y2643659D02*
X1441729D01*
X1429538Y2631468D02*
Y2655850D01*
X1435633Y2659755D02*
Y2649754D01*
Y2659755D02*
X1440482Y2649754D01*
Y2659755D02*
Y2649754D01*
X999805Y3209016D02*
X1285393D01*
X999805D02*
X1030283Y3216636D01*
Y3201397*
X999805Y3209016*
X1685549D02*
X1399961D01*
X1685549D02*
X1655071Y3201397D01*
Y3216636*
X1685549Y3209016*
X999805Y2945386D02*
Y3224255D01*
X1685549Y2945386D02*
Y3224255D01*
X1295229Y3212826D02*
Y3213778D01*
X1295922Y3215683*
X1296614Y3216636*
X1298000Y3217588*
X1300770*
X1302156Y3216636*
X1302848Y3215683*
X1303541Y3213778*
Y3211874*
X1302848Y3209969*
X1301463Y3207111*
X1294536Y3197587*
X1304234*
X1311160Y3212826D02*
Y3213778D01*
X1311853Y3215683*
X1312546Y3216636*
X1313931Y3217588*
X1316702*
X1318087Y3216636*
X1318780Y3215683*
X1319472Y3213778*
Y3211874*
X1318780Y3209969*
X1317394Y3207111*
X1310468Y3197587*
X1320165*
X1335404Y3217588D02*
X1328477D01*
X1327785Y3209016*
X1328477Y3209969*
X1330555Y3210921*
X1332633*
X1334711Y3209969*
X1336097Y3208064*
X1336789Y3205207*
X1336097Y3203302*
X1335404Y3200444*
X1334019Y3198540*
X1331941Y3197587*
X1329863*
X1327785Y3198540*
X1327092Y3199492*
X1326399Y3201397*
X1347179Y3217588D02*
X1345101Y3216636D01*
X1343716Y3213778*
X1343023Y3209016*
Y3206159*
X1343716Y3201397*
X1345101Y3198540*
X1347179Y3197587*
X1348565*
X1350643Y3198540*
X1352028Y3201397*
X1352721Y3206159*
Y3209016*
X1352028Y3213778*
X1350643Y3216636*
X1348565Y3217588*
X1347179*
X1358955Y3210921D02*
Y3197587D01*
Y3207111D02*
X1361033Y3209969D01*
X1362418Y3210921*
X1364496*
X1365881Y3209969*
X1366574Y3207111*
Y3197587*
Y3207111D02*
X1368652Y3209969D01*
X1370037Y3210921*
X1372115*
X1373501Y3209969*
X1374193Y3207111*
Y3197587*
X1380427Y3217588D02*
X1381120Y3216636D01*
X1381813Y3217588*
X1381120Y3218540*
X1380427Y3217588*
X1381120Y3210921D02*
Y3197587D01*
X1388047Y3217588D02*
Y3197587D01*
X697469Y949111D02*
Y1919057D01*
Y949111D02*
X689849Y979589D01*
X705088*
X697469Y949111*
Y2930147D02*
Y1960201D01*
Y2930147D02*
X705088Y2899670D01*
X689849*
X697469Y2930147*
X984567Y949111D02*
X682230D01*
X984567Y2930147D02*
X682230D01*
X657986Y1945344D02*
X657294Y1947249D01*
X655216Y1948201*
X653830*
X651752Y1947249*
X650367Y1944391*
X649674Y1939629*
Y1934867*
X650367Y1931057*
X651752Y1929153*
X653830Y1928200*
X654523*
X656601Y1929153*
X657986Y1931057*
X658679Y1933915*
Y1934867*
X657986Y1937724*
X656601Y1939629*
X654523Y1940582*
X653830*
X651752Y1939629*
X650367Y1937724*
X649674Y1934867*
X673918Y1948201D02*
X666991D01*
X666299Y1939629*
X666991Y1940582*
X669069Y1941534*
X671147*
X673225Y1940582*
X674611Y1938677*
X675303Y1935820*
X674611Y1933915*
X673918Y1931057*
X672533Y1929153*
X670455Y1928200*
X668377*
X666299Y1929153*
X665606Y1930105*
X664913Y1932010*
X685693Y1948201D02*
X683615Y1947249D01*
X682230Y1944391*
X681537Y1939629*
Y1936772*
X682230Y1932010*
X683615Y1929153*
X685693Y1928200*
X687079*
X689157Y1929153*
X690542Y1932010*
X691235Y1936772*
Y1939629*
X690542Y1944391*
X689157Y1947249*
X687079Y1948201*
X685693*
X701625D02*
X699547Y1947249D01*
X698161Y1944391*
X697469Y1939629*
Y1936772*
X698161Y1932010*
X699547Y1929153*
X701625Y1928200*
X703010*
X705088Y1929153*
X706473Y1932010*
X707166Y1936772*
Y1939629*
X706473Y1944391*
X705088Y1947249*
X703010Y1948201*
X701625*
X713400Y1941534D02*
Y1928200D01*
Y1937724D02*
X715478Y1940582D01*
X716863Y1941534*
X718941*
X720327Y1940582*
X721019Y1937724*
Y1928200*
Y1937724D02*
X723097Y1940582D01*
X724483Y1941534*
X726561*
X727946Y1940582*
X728639Y1937724*
Y1928200*
X734873Y1948201D02*
X735566Y1947249D01*
X736258Y1948201*
X735566Y1949153*
X734873Y1948201*
X735566Y1941534D02*
Y1928200D01*
X742492Y1948201D02*
Y1928200D01*
X512166Y976541D02*
X1426490D01*
X512166Y903395D02*
X1426490D01*
X512166Y830249D02*
X1426490D01*
X512166Y757103D02*
X1426490D01*
X512166Y683957D02*
X1426490D01*
X512166Y610811D02*
X1426490D01*
X512166Y537665D02*
X1426490D01*
X512166Y464519D02*
X1426490D01*
X512166Y391373D02*
X1426490D01*
X512166Y318227D02*
X1426490D01*
X512166Y245081D02*
X1426490D01*
X512166Y171935D02*
X1426490D01*
X512166Y976541D02*
Y171935D01*
X768176Y976541D02*
Y171935D01*
X877895Y976541D02*
Y171935D01*
X987614Y976541D02*
Y171935D01*
X1152193Y976541D02*
Y171935D01*
X1426490Y976541D02*
Y171935D01*
X620361Y942254D02*
X618698Y944539D01*
X616205Y945682*
X612880*
X610386Y944539*
X608724Y942254*
Y939968*
X609555Y937682*
X610386Y936539*
X612049Y935396*
X617036Y933110*
X618698Y931967*
X619529Y930825*
X620361Y928539*
Y925110*
X618698Y922824*
X616205Y921681*
X612880*
X610386Y922824*
X608724Y925110*
X627841Y945682D02*
Y921681D01*
X646959Y945682D02*
X635322Y921681D01*
Y945682D02*
X646959D01*
X635322Y921681D02*
X646959D01*
X654440Y945682D02*
Y921681D01*
Y945682D02*
X665246D01*
X654440Y934253D02*
X661090D01*
X654440Y921681D02*
X665246D01*
X798238Y945682D02*
X796576Y944539D01*
X794914Y942254*
X794914D02*
X794082Y939968D01*
X793251Y936539*
Y930825*
X794082Y927396*
X794914Y925110*
X794914D02*
X796576Y922824D01*
X798238Y921681*
X801563*
X803226Y922824*
X804888Y925110*
X805719Y927396*
X806550Y930825*
Y936539*
X805719Y939968*
X804888Y942254*
X803226Y944539*
X801563Y945682*
X798238*
X800732Y926253D02*
X805719Y919396D01*
X819850Y945682D02*
Y921681D01*
X814031Y945682D02*
X825668D01*
X833149D02*
X839799Y934253D01*
Y921681*
X846448Y945682D02*
X839799Y934253D01*
X914607Y942254D02*
X912944Y944539D01*
X910451Y945682*
X907126*
X904632Y944539*
X902970Y942254*
Y939968*
X903801Y937682*
X904632Y936539*
X906295Y935396*
X911282Y933110*
X912944Y931967*
X913776Y930825*
X914607Y928539*
Y925110*
X912944Y922824*
X910451Y921681*
X907126*
X904632Y922824*
X902970Y925110*
X922088Y945682D02*
X928737Y934253D01*
Y921681*
X935387Y945682D02*
X928737Y934253D01*
X942868Y945682D02*
Y921681D01*
Y945682D02*
X949517Y921681D01*
X956167Y945682D02*
X949517Y921681D01*
X956167Y945682D02*
Y921681D01*
X1022663Y945682D02*
Y921681D01*
Y945682D02*
X1030144D01*
X1032638Y944539*
X1033469Y943397*
X1034300Y941111*
Y937682*
X1033469Y935396*
X1032638Y934253*
X1030144Y933110*
X1022663*
X1041781Y945682D02*
Y921681D01*
X1051756*
X1065886Y945682D02*
X1059236Y921681D01*
X1065886Y945682D02*
X1072536Y921681D01*
X1061730Y929682D02*
X1070042D01*
X1085835Y945682D02*
Y921681D01*
X1080016Y945682D02*
X1091653D01*
X1099134D02*
Y921681D01*
Y945682D02*
X1109940D01*
X1099134Y934253D02*
X1105784D01*
X1099134Y921681D02*
X1109940D01*
X1117421Y945682D02*
Y921681D01*
Y945682D02*
X1123239D01*
X1125733Y944539*
X1127395Y942254*
X1128226Y939968*
X1129058Y936539*
Y930825*
X1128226Y927396*
X1127395Y925110*
X1125733Y922824*
X1123239Y921681*
X1117421*
X1267037Y945682D02*
Y921681D01*
X1261219Y945682D02*
X1272856D01*
X1285324D02*
X1283661Y944539D01*
X1281999Y942254*
X1281168Y939968*
X1280337Y936539*
Y930825*
X1281168Y927396*
X1281999Y925110*
X1283661Y922824*
X1285324Y921681*
X1288649*
X1290311Y922824*
X1291973Y925110*
X1292805Y927396*
X1293636Y930825*
Y936539*
X1292805Y939968*
X1291973Y942254*
X1290311Y944539*
X1288649Y945682*
X1285324*
X1301117D02*
Y921681D01*
X1311091*
X532114Y872536D02*
X541258D01*
X536271Y863393*
X538764*
X540427Y862250*
X541258Y861107*
X542089Y857679*
Y855393*
X541258Y851964*
X539595Y849678*
X537102Y848535*
X534608*
X532114Y849678*
X531283Y850821*
X530452Y853107*
X560375Y872536D02*
X552063D01*
X551232Y862250*
X552063Y863393*
X554557Y864536*
X557051*
X559544Y863393*
X561207Y861107*
X562038Y857679*
X561207Y855393*
X560375Y851964*
X558713Y849678*
X556219Y848535*
X553726*
X551232Y849678*
X550401Y850821*
X549570Y853107*
X825668Y872536D02*
X817356Y848535D01*
X814031Y872536D02*
X825668D01*
X914468Y848535D02*
X951041D01*
X914468Y885108*
X951041*
X914468Y848535*
X1013936Y872536D02*
X1020585Y861107D01*
Y848535*
X1027235Y872536D02*
X1020585Y861107D01*
X1034716Y872536D02*
Y848535D01*
Y872536D02*
X1045522D01*
X1034716Y861107D02*
X1041365D01*
X1034716Y848535D02*
X1045522D01*
X1064639Y869108D02*
X1062977Y871393D01*
X1062977D02*
X1060483Y872536D01*
X1057158*
X1054665Y871393*
X1054665D02*
X1053002Y869108D01*
Y866822*
X1053834Y864536*
X1054665Y863393*
X1056327Y862250*
X1061314Y859964*
X1062977Y858822*
X1063808Y857679*
X1064639Y855393*
Y851964*
X1062977Y849678*
X1060483Y848535*
X1057158*
X1054665Y849678*
X1053002Y851964*
X1220906Y869108D02*
Y848535D01*
X1213425Y858822D02*
X1228386D01*
X1250829Y877108D02*
X1235867Y840535D01*
X1258310Y858822D02*
X1273271D01*
X1285739Y872536D02*
X1283246Y871393D01*
X1283246D02*
X1281583Y867965D01*
X1280752Y862250*
Y858822*
X1281583Y853107*
X1283246Y849678*
X1285739Y848535*
X1287402*
X1289895Y849678*
X1291558Y853107*
X1292389Y858822*
Y862250*
X1291558Y867965*
X1289895Y871393*
X1289895D02*
X1287402Y872536D01*
X1285739*
X1300701Y850821D02*
X1299870Y849678D01*
X1300701Y848535*
X1301532Y849678*
X1300701Y850821*
X1314000Y872536D02*
X1311507Y871393D01*
X1311507D02*
X1309844Y867965D01*
X1309013Y862250*
Y858822*
X1309844Y853107*
X1311507Y849678*
X1314000Y848535*
X1315663*
X1318156Y849678*
X1319819Y853107*
X1320650Y858822*
Y862250*
X1319819Y867965*
X1318156Y871393*
X1318156D02*
X1315663Y872536D01*
X1314000*
X1333118D02*
X1330624Y871393D01*
X1330624D02*
X1328962Y867965D01*
X1328131Y862250*
Y858822*
X1328962Y853107*
X1330624Y849678*
X1333118Y848535*
X1334781*
X1334781D02*
X1337274Y849678D01*
X1338937Y853107*
X1339768Y858822*
Y862250*
X1338937Y867965*
X1337274Y871393*
X1337274D02*
X1334781Y872536D01*
X1334781D02*
X1333118D01*
X1348911D02*
X1358054D01*
X1353067Y863393*
X1355561*
X1357223Y862250*
X1358054Y861107*
X1358885Y857679*
Y855393*
X1358054Y851964*
X1356392Y849678*
X1353898Y848535*
X1351405*
X1348911Y849678*
X1348080Y850821*
X1347249Y853107*
X532114Y799390D02*
X541258D01*
X536271Y790247*
X538764*
X540427Y789104*
X541258Y787961*
X542089Y784533*
Y782247*
X541258Y778818*
X539595Y776532*
X537102Y775389*
X534608*
X532114Y776532*
X531283Y777675*
X530452Y779961*
X553726Y799390D02*
X551232Y798248D01*
X550401Y795962*
Y793676*
X551232Y791390*
X552895Y790247*
X556219Y789104*
X558713Y787961*
X560375Y785676*
X561207Y783390*
Y779961*
X560375Y777675*
X559544Y776532*
X557051Y775389*
X553726*
X551232Y776532*
X550401Y777675*
X549570Y779961*
Y783390*
X550401Y785676*
X552063Y787961*
X554557Y789104*
X557882Y790247*
X559544Y791390*
X560375Y793676*
Y795962*
X559544Y798248*
X557051Y799390*
X553726*
X806135D02*
X815278D01*
X810291Y790247*
X812784*
X814447Y789104*
X815278Y787961*
X816109Y784533*
Y782247*
X815278Y778818*
X813616Y776532*
X811122Y775389*
X808628*
X806135Y776532*
X805304Y777675*
X804472Y779961*
X828577Y799390D02*
X826084Y798248D01*
X824421Y794819*
X823590Y789104*
Y785676*
X824421Y779961*
X826084Y776532*
X828577Y775389*
X830240*
X832733Y776532*
X834396Y779961*
X835227Y785676*
Y789104*
X834396Y794819*
X832733Y798248*
X830240Y799390*
X828577*
X914468Y793676D02*
X951041D01*
X932755Y775389D02*
Y811962D01*
X941898Y822020D02*
Y802819D01*
Y822020D02*
X950543D01*
X941898Y812877D02*
X947218D01*
X1013936Y799390D02*
X1020585Y787961D01*
Y775389*
X1027235Y799390D02*
X1020585Y787961D01*
X1034716Y799390D02*
Y775389D01*
Y799390D02*
X1045522D01*
X1034716Y787961D02*
X1041365D01*
X1034716Y775389D02*
X1045522D01*
X1064639Y795962D02*
X1062977Y798248D01*
X1060483Y799390*
X1057158*
X1054665Y798248*
X1053002Y795962*
Y793676*
X1053834Y791390*
X1054665Y790247*
X1056327Y789104*
X1061314Y786818*
X1062977Y785676*
X1063808Y784533*
X1064639Y782247*
Y778818*
X1062977Y776532*
X1060483Y775389*
X1057158*
X1054665Y776532*
X1053002Y778818*
X1220906Y795962D02*
Y775389D01*
X1213425Y785676D02*
X1228386D01*
X1250829Y803962D02*
X1235867Y767389D01*
X1258310Y785676D02*
X1273271D01*
X1285739Y799390D02*
X1283246Y798248D01*
X1281583Y794819*
X1280752Y789104*
Y785676*
X1281583Y779961*
X1283246Y776532*
X1285739Y775389*
X1287402*
X1289895Y776532*
X1291558Y779961*
X1292389Y785676*
Y789104*
X1291558Y794819*
X1289895Y798248*
X1287402Y799390*
X1285739*
X1300701Y777675D02*
X1299870Y776532D01*
X1300701Y775389*
X1301532Y776532*
X1300701Y777675*
X1314000Y799390D02*
X1311507Y798248D01*
X1309844Y794819*
X1309013Y789104*
Y785676*
X1309844Y779961*
X1311507Y776532*
X1314000Y775389*
X1315663*
X1318156Y776532*
X1319819Y779961*
X1320650Y785676*
Y789104*
X1319819Y794819*
X1318156Y798248*
X1315663Y799390*
X1314000*
X1333118D02*
X1330624Y798248D01*
X1328962Y794819*
X1328131Y789104*
Y785676*
X1328962Y779961*
X1330624Y776532*
X1333118Y775389*
X1334781*
X1334781D02*
X1337274Y776532D01*
X1338937Y779961*
X1339768Y785676*
Y789104*
X1338937Y794819*
X1337274Y798248*
X1334781Y799390*
X1334781D02*
X1333118D01*
X1348911D02*
X1358054D01*
X1353067Y790247*
X1355561*
X1357223Y789104*
X1358054Y787961*
X1358885Y784533*
Y782247*
X1358054Y778818*
X1356392Y776532*
X1353898Y775389*
X1351405*
X1348911Y776532*
X1348080Y777675*
X1347249Y779961*
X538764Y726244D02*
X530452Y710244D01*
X542920*
X538764Y726244D02*
Y702243D01*
X562038Y726244D02*
X553726Y702243D01*
X550401Y726244D02*
X562038D01*
X570350Y704529D02*
X569519Y703386D01*
X570350Y702243*
X571181Y703386*
X570350Y704529*
X579493Y720530D02*
Y721673D01*
X580324Y723959*
X581156Y725102*
X582818Y726244*
X582818D02*
X586143D01*
X586143D02*
X587805Y725102D01*
X588636Y723959*
X589468Y721673*
Y719387*
X588636Y717101*
X586974Y713673*
X578662Y702243*
X590299*
X606092Y726244D02*
X597780Y710244D01*
X610248*
X606092Y726244D02*
Y702243D01*
X805304Y720530D02*
Y721673D01*
X806135Y723959*
X806966Y725102*
X808628Y726244*
X808628D02*
X811953D01*
X811953D02*
X813616Y725102D01*
X814447Y723959*
X815278Y721673*
Y719387*
X814447Y717101*
X812784Y713673*
X804472Y702243*
X816109*
X828577Y726244D02*
X826084Y725102D01*
X824421Y721673*
X823590Y715958*
Y712530*
X824421Y706815*
X826084Y703386*
X828577Y702243*
X830240*
X832733Y703386*
X834396Y706815*
X835227Y712530*
Y715958*
X834396Y721673*
X832733Y725102*
X830240Y726244*
X830240D02*
X828577D01*
X914468Y720530D02*
X951041D01*
X932755Y702243D02*
Y738816D01*
X951873Y744302D02*
X951208Y746131D01*
X949878Y747960*
X948548Y748874*
X945888*
X944558Y747960*
X943228Y746131*
X942563Y744302*
X941898Y741559*
Y736988*
X942563Y734245*
X943228Y732416*
X944558Y730588*
X945888Y729673*
X948548*
X949878Y730588*
X951208Y732416*
X951873Y734245*
Y736988*
X948548D02*
X951873D01*
X1013936Y726244D02*
X1020585Y714815D01*
Y702243*
X1027235Y726244D02*
X1020585Y714815D01*
X1034716Y726244D02*
Y702243D01*
Y726244D02*
X1045522D01*
X1034716Y714815D02*
X1041365D01*
X1034716Y702243D02*
X1045522D01*
X1064639Y722816D02*
X1062977Y725102D01*
X1060483Y726244*
X1060483D02*
X1057158D01*
X1057158D02*
X1054665Y725102D01*
X1053002Y722816*
Y720530*
X1053834Y718244*
X1054665Y717101*
X1056327Y715958*
X1061314Y713673*
X1062977Y712530*
X1063808Y711387*
X1064639Y709101*
Y705672*
X1062977Y703386*
X1060483Y702243*
X1057158*
X1054665Y703386*
X1053002Y705672*
X1220906Y722816D02*
Y702243D01*
X1213425Y712530D02*
X1228386D01*
X1250829Y730816D02*
X1235867Y694243D01*
X1258310Y712530D02*
X1273271D01*
X1285739Y726244D02*
X1283246Y725102D01*
X1281583Y721673*
X1280752Y715958*
Y712530*
X1281583Y706815*
X1283246Y703386*
X1285739Y702243*
X1287402*
X1289895Y703386*
X1291558Y706815*
X1292389Y712530*
Y715958*
X1291558Y721673*
X1289895Y725102*
X1287402Y726244*
X1287402D02*
X1285739D01*
X1300701Y704529D02*
X1299870Y703386D01*
X1300701Y702243*
X1301532Y703386*
X1300701Y704529*
X1314000Y726244D02*
X1311507Y725102D01*
X1309844Y721673*
X1309013Y715958*
Y712530*
X1309844Y706815*
X1311507Y703386*
X1314000Y702243*
X1315663*
X1318156Y703386*
X1319819Y706815*
X1320650Y712530*
Y715958*
X1319819Y721673*
X1318156Y725102*
X1315663Y726244*
X1315663D02*
X1314000D01*
X1333118D02*
X1330624Y725102D01*
X1328962Y721673*
X1328131Y715958*
Y712530*
X1328962Y706815*
X1330624Y703386*
X1333118Y702243*
X1334781*
X1334781D02*
X1337274Y703386D01*
X1338937Y706815*
X1339768Y712530*
Y715958*
X1338937Y721673*
X1337274Y725102*
X1334781Y726244*
X1334781D02*
X1333118D01*
X1348911D02*
X1358054D01*
X1358054D02*
X1353067Y717101D01*
X1355561*
X1357223Y715958*
X1358054Y714815*
X1358885Y711387*
Y709101*
X1358054Y705672*
X1356392Y703386*
X1353898Y702243*
X1351405*
X1348911Y703386*
X1348080Y704529*
X1347249Y706815*
X530452Y648527D02*
X532114Y649670D01*
X534608Y653099*
Y629098*
X542920Y647384D02*
Y648527D01*
X543751Y650813*
X544583Y651956*
X546245Y653099*
X549570*
X551232Y651956*
X552063Y650813*
X552895Y648527*
Y646241*
X552063Y643955*
X550401Y640527*
X542089Y629098*
X553726*
X572012Y653099D02*
X563700D01*
X562869Y642812*
X563700Y643955*
X566194Y645098*
X568687*
X571181Y643955*
X572843Y641669*
X573675Y638241*
X572843Y635955*
X572012Y632526*
X570350Y630240*
X567856Y629098*
X565363*
X562869Y630240*
X562038Y631383*
X561207Y633669*
X818187Y653099D02*
X815694Y651956D01*
X814862Y649670*
Y647384*
X815694Y645098*
X817356Y643955*
X820681Y642812*
X823174Y641669*
X824837Y639384*
X825668Y637098*
Y633669*
X824837Y631383*
X824006Y630240*
X821512Y629098*
X818187*
X815694Y630240*
X814862Y631383*
X814031Y633669*
Y637098*
X814862Y639384*
X816525Y641669*
X819018Y642812*
X822343Y643955*
X824006Y645098*
X824837Y647384*
Y649670*
X824006Y651956*
X821512Y653099*
X818187*
X914468Y647384D02*
X951041D01*
X932755Y629098D02*
Y665671D01*
X941898Y675728D02*
Y656527D01*
X951208Y675728D02*
Y656527D01*
X941898Y666585D02*
X951208D01*
X1013936Y653099D02*
X1020585Y641669D01*
Y629098*
X1027235Y653099D02*
X1020585Y641669D01*
X1034716Y653099D02*
Y629098D01*
Y653099D02*
X1045522D01*
X1034716Y641669D02*
X1041365D01*
X1034716Y629098D02*
X1045522D01*
X1064639Y649670D02*
X1062977Y651956D01*
X1060483Y653099*
X1057158*
X1054665Y651956*
X1053002Y649670*
Y647384*
X1053834Y645098*
X1054665Y643955*
X1056327Y642812*
X1061314Y640527*
X1062977Y639384*
X1063808Y638241*
X1064639Y635955*
Y632526*
X1062977Y630240*
X1060483Y629098*
X1057158*
X1054665Y630240*
X1053002Y632526*
X1220906Y649670D02*
Y629098D01*
X1213425Y639384D02*
X1228386D01*
X1250829Y657670D02*
X1235867Y621097D01*
X1258310Y639384D02*
X1273271D01*
X1285739Y653099D02*
X1283246Y651956D01*
X1281583Y648527*
X1280752Y642812*
Y639384*
X1281583Y633669*
X1283246Y630240*
X1285739Y629098*
X1287402*
X1289895Y630240*
X1291558Y633669*
X1292389Y639384*
Y642812*
X1291558Y648527*
X1289895Y651956*
X1287402Y653099*
X1285739*
X1300701Y631383D02*
X1299870Y630240D01*
X1300701Y629098*
X1301532Y630240*
X1300701Y631383*
X1314000Y653099D02*
X1311507Y651956D01*
X1309844Y648527*
X1309013Y642812*
Y639384*
X1309844Y633669*
X1311507Y630240*
X1314000Y629098*
X1315663*
X1318156Y630240*
X1319819Y633669*
X1320650Y639384*
Y642812*
X1319819Y648527*
X1318156Y651956*
X1315663Y653099*
X1314000*
X1333118D02*
X1330624Y651956D01*
X1328962Y648527*
X1328131Y642812*
Y639384*
X1328962Y633669*
X1330624Y630240*
X1333118Y629098*
X1334781*
X1334781D02*
X1337274Y630240D01*
X1338937Y633669*
X1339768Y639384*
Y642812*
X1338937Y648527*
X1337274Y651956*
X1334781Y653099*
X1334781D02*
X1333118D01*
X1348911D02*
X1358054D01*
X1353067Y643955*
X1355561*
X1357223Y642812*
X1358054Y641669*
X1358885Y638241*
Y635955*
X1358054Y632526*
X1356392Y630240*
X1353898Y629098*
X1351405*
X1348911Y630240*
X1348080Y631383*
X1347249Y633669*
X532114Y579953D02*
X541258D01*
X536271Y570809*
X538764*
X540427Y569666*
X541258Y568524*
X542089Y565095*
Y562809*
X541258Y559380*
X539595Y557094*
X537102Y555952*
X534608*
X532114Y557094*
X531283Y558237*
X530452Y560523*
X551232Y579953D02*
X560375D01*
X555388Y570809*
X557882*
X559544Y569666*
X560375Y568524*
X561207Y565095*
Y562809*
X560375Y559380*
X558713Y557094*
X556219Y555952*
X553726*
X551232Y557094*
X550401Y558237*
X549570Y560523*
X569519Y558237D02*
X568687Y557094D01*
X569519Y555952*
X570350Y557094*
X569519Y558237*
X586143Y579953D02*
X577831Y563952D01*
X590299*
X586143Y579953D02*
Y555952D01*
X607754Y576524D02*
X606923Y578810D01*
X604429Y579953*
X602767*
X600273Y578810*
X598611Y575381*
X597780Y569666*
Y563952*
X598611Y559380*
X600273Y557094*
X602767Y555952*
X603598*
X606092Y557094*
X607754Y559380*
X608585Y562809*
Y563952*
X607754Y567381*
X606092Y569666*
X603598Y570809*
X602767*
X600273Y569666*
X598611Y567381*
X597780Y563952*
X805304Y574238D02*
Y575381D01*
X806135Y577667*
X806966Y578810*
X808628Y579953*
X811953*
X813616Y578810*
X814447Y577667*
X815278Y575381*
Y573095*
X814447Y570809*
X812784Y567381*
X804472Y555952*
X816109*
X824421Y574238D02*
Y575381D01*
X825252Y577667*
X826084Y578810*
X827746Y579953*
X831071*
X832733Y578810*
X833564Y577667*
X834396Y575381*
Y573095*
X833564Y570809*
X831902Y567381*
X823590Y555952*
X835227*
X914468Y574238D02*
X951041D01*
X932755Y555952D02*
Y592525D01*
X941898Y602582D02*
Y583381D01*
X1013936Y579953D02*
X1020585Y568524D01*
Y555952*
X1027235Y579953D02*
X1020585Y568524D01*
X1034716Y579953D02*
Y555952D01*
Y579953D02*
X1045522D01*
X1034716Y568524D02*
X1041365D01*
X1034716Y555952D02*
X1045522D01*
X1064639Y576524D02*
X1062977Y578810D01*
X1060483Y579953*
X1057158*
X1054665Y578810*
X1053002Y576524*
Y574238*
X1053834Y571952*
X1054665Y570809*
X1056327Y569666*
X1061314Y567381*
X1062977Y566238*
X1063808Y565095*
X1064639Y562809*
Y559380*
X1062977Y557094*
X1060483Y555952*
X1057158*
X1054665Y557094*
X1053002Y559380*
X1220906Y576524D02*
Y555952D01*
X1213425Y566238D02*
X1228386D01*
X1250829Y584524D02*
X1235867Y547951D01*
X1258310Y566238D02*
X1273271D01*
X1285739Y579953D02*
X1283246Y578810D01*
X1281583Y575381*
X1280752Y569666*
Y566238*
X1281583Y560523*
X1283246Y557094*
X1285739Y555952*
X1287402*
X1289895Y557094*
X1291558Y560523*
X1292389Y566238*
Y569666*
X1291558Y575381*
X1289895Y578810*
X1287402Y579953*
X1285739*
X1300701Y558237D02*
X1299870Y557094D01*
X1300701Y555952*
X1301532Y557094*
X1300701Y558237*
X1314000Y579953D02*
X1311507Y578810D01*
X1309844Y575381*
X1309013Y569666*
Y566238*
X1309844Y560523*
X1311507Y557094*
X1314000Y555952*
X1315663*
X1318156Y557094*
X1319819Y560523*
X1320650Y566238*
Y569666*
X1319819Y575381*
X1318156Y578810*
X1315663Y579953*
X1314000*
X1333118D02*
X1330624Y578810D01*
X1328962Y575381*
X1328131Y569666*
Y566238*
X1328962Y560523*
X1330624Y557094*
X1333118Y555952*
X1334781*
X1334781D02*
X1337274Y557094D01*
X1338937Y560523*
X1339768Y566238*
Y569666*
X1338937Y575381*
X1337274Y578810*
X1334781Y579953*
X1334781D02*
X1333118D01*
X1348911D02*
X1358054D01*
X1353067Y570809*
X1355561*
X1357223Y569666*
X1358054Y568524*
X1358885Y565095*
Y562809*
X1358054Y559380*
X1356392Y557094*
X1353898Y555952*
X1351405*
X1348911Y557094*
X1348080Y558237*
X1347249Y560523*
X541258Y506807D02*
X532946D01*
X532114Y496520*
X532946Y497663*
X535439Y498806*
X537933*
X540427Y497663*
X542089Y495378*
X542920Y491949*
X542089Y489663*
X541258Y486234*
X539595Y483949*
X537102Y482806*
X534608*
X532114Y483949*
X531283Y485091*
X530452Y487377*
X561207Y506807D02*
X552895D01*
X552063Y496520*
X552895Y497663*
X555388Y498806*
X557882*
X560375Y497663*
X562038Y495378*
X562869Y491949*
X562038Y489663*
X561207Y486234*
X559544Y483949*
X557051Y482806*
X554557*
X552063Y483949*
X551232Y485091*
X550401Y487377*
X571181Y485091D02*
X570350Y483949D01*
X571181Y482806*
X572012Y483949*
X571181Y485091*
X579493Y502235D02*
X581156Y503378D01*
X583649Y506807*
Y482806*
X591961Y501092D02*
Y502235D01*
X592792Y504521*
X593624Y505664*
X595286Y506807*
X598611*
X600273Y505664*
X601104Y504521*
X601936Y502235*
Y499949*
X601104Y497663*
X599442Y494235*
X591130Y482806*
X602767*
X815694Y506807D02*
X824837D01*
X819850Y497663*
X822343*
X824006Y496520*
X824837Y495378*
X825668Y491949*
Y489663*
X824837Y486234*
X823174Y483949*
X820681Y482806*
X818187*
X815694Y483949*
X814862Y485091*
X814031Y487377*
X914468Y501092D02*
X951041D01*
X932755Y482806D02*
Y519379D01*
X948548Y529436D02*
Y514807D01*
X947883Y512064*
X947218Y511150*
X945888Y510235*
X944558*
X943228Y511150*
X942563Y512064*
X941898Y514807*
Y516636*
X1013936Y506807D02*
X1020585Y495378D01*
Y482806*
X1027235Y506807D02*
X1020585Y495378D01*
X1034716Y506807D02*
Y482806D01*
Y506807D02*
X1045522D01*
X1034716Y495378D02*
X1041365D01*
X1034716Y482806D02*
X1045522D01*
X1064639Y503378D02*
X1062977Y505664D01*
X1060483Y506807*
X1057158*
X1054665Y505664*
X1053002Y503378*
Y501092*
X1053834Y498806*
X1054665Y497663*
X1056327Y496520*
X1061314Y494235*
X1062977Y493092*
X1063808Y491949*
X1064639Y489663*
Y486234*
X1062977Y483949*
X1060483Y482806*
X1057158*
X1054665Y483949*
X1053002Y486234*
X1220906Y503378D02*
Y482806D01*
X1213425Y493092D02*
X1228386D01*
X1250829Y511378D02*
X1235867Y474805D01*
X1258310Y493092D02*
X1273271D01*
X1285739Y506807D02*
X1283246Y505664D01*
X1281583Y502235*
X1280752Y496520*
Y493092*
X1281583Y487377*
X1283246Y483949*
X1285739Y482806*
X1287402*
X1289895Y483949*
X1291558Y487377*
X1292389Y493092*
Y496520*
X1291558Y502235*
X1289895Y505664*
X1287402Y506807*
X1285739*
X1300701Y485091D02*
X1299870Y483949D01*
X1300701Y482806*
X1301532Y483949*
X1300701Y485091*
X1314000Y506807D02*
X1311507Y505664D01*
X1309844Y502235*
X1309013Y496520*
Y493092*
X1309844Y487377*
X1311507Y483949*
X1314000Y482806*
X1315663*
X1318156Y483949*
X1319819Y487377*
X1320650Y493092*
Y496520*
X1319819Y502235*
X1318156Y505664*
X1315663Y506807*
X1314000*
X1333118D02*
X1330624Y505664D01*
X1328962Y502235*
X1328131Y496520*
Y493092*
X1328962Y487377*
X1330624Y483949*
X1333118Y482806*
X1334781*
X1334781D02*
X1337274Y483949D01*
X1338937Y487377*
X1339768Y493092*
Y496520*
X1338937Y502235*
X1337274Y505664*
X1334781Y506807*
X1334781D02*
X1333118D01*
X1348911D02*
X1358054D01*
X1353067Y497663*
X1355561*
X1357223Y496520*
X1358054Y495378*
X1358885Y491949*
Y489663*
X1358054Y486234*
X1356392Y483949*
X1353898Y482806*
X1351405*
X1348911Y483949*
X1348080Y485091*
X1347249Y487377*
X530452Y429089D02*
X532114Y430232D01*
X534608Y433661*
Y409660*
X552895Y433661D02*
X544583D01*
X543751Y423375*
X544583Y424517*
X547076Y425660*
X549570*
X552063Y424517*
X553726Y422232*
X554557Y418803*
X553726Y416517*
X552895Y413088*
X551232Y410803*
X548739Y409660*
X546245*
X543751Y410803*
X542920Y411945*
X542089Y414231*
X562038Y429089D02*
X563700Y430232D01*
X566194Y433661*
Y409660*
X574506Y411945D02*
X573675Y410803D01*
X574506Y409660*
X575337Y410803*
X574506Y411945*
X593624Y425660D02*
X592792Y422232D01*
X591130Y419946*
X588636Y418803*
X587805*
X585312Y419946*
X583649Y422232*
X582818Y425660*
Y426803*
X583649Y430232*
X585312Y432518*
X587805Y433661*
X588636*
X591130Y432518*
X592792Y430232*
X593624Y425660*
Y419946*
X592792Y414231*
X591130Y410803*
X588636Y409660*
X586974*
X584480Y410803*
X583649Y413088*
X612741Y433661D02*
X604429Y409660D01*
X601104Y433661D02*
X612741D01*
X817772Y429089D02*
X819434Y430232D01*
X821928Y433661*
Y409660*
X914468Y427946D02*
X951041D01*
X932755Y409660D02*
Y446233D01*
X941898Y456290D02*
Y437089D01*
X951208Y456290D02*
X941898Y443490D01*
X945223Y448061D02*
X951208Y437089D01*
X1023079Y433661D02*
Y409660D01*
Y433661D02*
X1034716Y409660D01*
Y433661D02*
Y409660D01*
X1047184Y433661D02*
X1045522Y432518D01*
X1043859Y430232*
X1043028Y427946*
X1042197Y424517*
Y418803*
X1043028Y415374*
X1043859Y413088*
X1045522Y410803*
X1047184Y409660*
X1050509*
X1052171Y410803*
X1053834Y413088*
X1054665Y415374*
X1055496Y418803*
Y424517*
X1054665Y427946*
X1053834Y430232*
X1052171Y432518*
X1050509Y433661*
X1047184*
X1220906Y430232D02*
Y409660D01*
X1213425Y419946D02*
X1228386D01*
X1250829Y438232D02*
X1235867Y401659D01*
X1258310Y419946D02*
X1273271D01*
X1285739Y433661D02*
X1283246Y432518D01*
X1281583Y429089*
X1280752Y423375*
Y419946*
X1281583Y414231*
X1283246Y410803*
X1285739Y409660*
X1287402*
X1289895Y410803*
X1291558Y414231*
X1292389Y419946*
Y423375*
X1291558Y429089*
X1289895Y432518*
X1287402Y433661*
X1285739*
X1300701Y411945D02*
X1299870Y410803D01*
X1300701Y409660*
X1301532Y410803*
X1300701Y411945*
X1314000Y433661D02*
X1311507Y432518D01*
X1309844Y429089*
X1309013Y423375*
Y419946*
X1309844Y414231*
X1311507Y410803*
X1314000Y409660*
X1315663*
X1318156Y410803*
X1319819Y414231*
X1320650Y419946*
Y423375*
X1319819Y429089*
X1318156Y432518*
X1315663Y433661*
X1314000*
X1333118D02*
X1330624Y432518D01*
X1328962Y429089*
X1328131Y423375*
Y419946*
X1328962Y414231*
X1330624Y410803*
X1333118Y409660*
X1334781*
X1334781D02*
X1337274Y410803D01*
X1338937Y414231*
X1339768Y419946*
Y423375*
X1338937Y429089*
X1337274Y432518*
X1334781Y433661*
X1334781D02*
X1333118D01*
X1348911D02*
X1358054D01*
X1353067Y424517*
X1355561*
X1357223Y423375*
X1358054Y422232*
X1358885Y418803*
Y416517*
X1358054Y413088*
X1356392Y410803*
X1353898Y409660*
X1351405*
X1348911Y410803*
X1348080Y411945*
X1347249Y414231*
X531283Y354800D02*
Y355943D01*
X532114Y358229*
X532946Y359372*
X534608Y360515*
X537933*
X539595Y359372*
X540427Y358229*
X541258Y355943*
Y353657*
X540427Y351371*
X538764Y347943*
X530452Y336514*
X542089*
X560375Y352514D02*
X559544Y349086D01*
X557882Y346800*
X555388Y345657*
X554557*
X552063Y346800*
X550401Y349086*
X549570Y352514*
Y353657*
X550401Y357086*
X552063Y359372*
X554557Y360515*
X555388*
X557882Y359372*
X559544Y357086*
X560375Y352514*
Y346800*
X559544Y341085*
X557882Y337657*
X555388Y336514*
X553726*
X551232Y337657*
X550401Y339942*
X568687Y338800D02*
X567856Y337657D01*
X568687Y336514*
X569519Y337657*
X568687Y338800*
X587805Y360515D02*
X579493D01*
X578662Y350229*
X579493Y351371*
X581987Y352514*
X584480*
X586974Y351371*
X588636Y349086*
X589468Y345657*
X588636Y343371*
X587805Y339942*
X586143Y337657*
X583649Y336514*
X581156*
X578662Y337657*
X577831Y338800*
X577000Y341085*
X598611Y360515D02*
X607754D01*
X602767Y351371*
X605260*
X606923Y350229*
X607754Y349086*
X608585Y345657*
Y343371*
X607754Y339942*
X606092Y337657*
X603598Y336514*
X601104*
X598611Y337657*
X597780Y338800*
X596948Y341085*
X817772Y355943D02*
X819434Y357086D01*
X821928Y360515*
Y336514*
X914468Y354800D02*
X951041D01*
X932755Y336514D02*
Y373087D01*
X941898Y383144D02*
Y363943D01*
X949878*
X1023079Y360515D02*
Y336514D01*
Y360515D02*
X1034716Y336514D01*
Y360515D02*
Y336514D01*
X1047184Y360515D02*
X1045522Y359372D01*
X1043859Y357086*
X1043028Y354800*
X1042197Y351371*
Y345657*
X1043028Y342228*
X1043859Y339942*
X1045522Y337657*
X1047184Y336514*
X1050509*
X1052171Y337657*
X1053834Y339942*
X1054665Y342228*
X1055496Y345657*
Y351371*
X1054665Y354800*
X1053834Y357086*
X1052171Y359372*
X1050509Y360515*
X1047184*
X1220906Y357086D02*
Y336514D01*
X1213425Y346800D02*
X1228386D01*
X1250829Y365086D02*
X1235867Y328513D01*
X1258310Y346800D02*
X1273271D01*
X1285739Y360515D02*
X1283246Y359372D01*
X1281583Y355943*
X1280752Y350229*
Y346800*
X1281583Y341085*
X1283246Y337657*
X1285739Y336514*
X1287402*
X1289895Y337657*
X1291558Y341085*
X1292389Y346800*
Y350229*
X1291558Y355943*
X1289895Y359372*
X1287402Y360515*
X1285739*
X1300701Y338800D02*
X1299870Y337657D01*
X1300701Y336514*
X1301532Y337657*
X1300701Y338800*
X1314000Y360515D02*
X1311507Y359372D01*
X1309844Y355943*
X1309013Y350229*
Y346800*
X1309844Y341085*
X1311507Y337657*
X1314000Y336514*
X1315663*
X1318156Y337657*
X1319819Y341085*
X1320650Y346800*
Y350229*
X1319819Y355943*
X1318156Y359372*
X1315663Y360515*
X1314000*
X1333118D02*
X1330624Y359372D01*
X1328962Y355943*
X1328131Y350229*
Y346800*
X1328962Y341085*
X1330624Y337657*
X1333118Y336514*
X1334781*
X1334781D02*
X1337274Y337657D01*
X1338937Y341085*
X1339768Y346800*
Y350229*
X1338937Y355943*
X1337274Y359372*
X1334781Y360515*
X1334781D02*
X1333118D01*
X1348911D02*
X1358054D01*
X1353067Y351371*
X1355561*
X1357223Y350229*
X1358054Y349086*
X1358885Y345657*
Y343371*
X1358054Y339942*
X1356392Y337657*
X1353898Y336514*
X1351405*
X1348911Y337657*
X1348080Y338800*
X1347249Y341085*
X538764Y287369D02*
X530452Y271368D01*
X542920*
X538764Y287369D02*
Y263368D01*
X561207Y287369D02*
X552895D01*
X552063Y277083*
X552895Y278226*
X555388Y279368*
X557882*
X560375Y278226*
X562038Y275940*
X562869Y272511*
X562038Y270225*
X561207Y266796*
X559544Y264511*
X557051Y263368*
X554557*
X552063Y264511*
X551232Y265654*
X550401Y267939*
X571181Y265654D02*
X570350Y264511D01*
X571181Y263368*
X572012Y264511*
X571181Y265654*
X580324Y281654D02*
Y282797D01*
X581156Y285083*
X581987Y286226*
X583649Y287369*
X586974*
X588636Y286226*
X589468Y285083*
X590299Y282797*
Y280511*
X589468Y278226*
X587805Y274797*
X579493Y263368*
X591130*
X602767Y287369D02*
X600273Y286226D01*
X599442Y283940*
Y281654*
X600273Y279368*
X601936Y278226*
X605260Y277083*
X607754Y275940*
X609416Y273654*
X610248Y271368*
Y267939*
X609416Y265654*
X608585Y264511*
X606092Y263368*
X602767*
X600273Y264511*
X599442Y265654*
X598611Y267939*
Y271368*
X599442Y273654*
X601104Y275940*
X603598Y277083*
X606923Y278226*
X608585Y279368*
X609416Y281654*
Y283940*
X608585Y286226*
X606092Y287369*
X602767*
X815694D02*
X824837D01*
X819850Y278226*
X822343*
X824006Y277083*
X824837Y275940*
X825668Y272511*
Y270225*
X824837Y266796*
X823174Y264511*
X820681Y263368*
X818187*
X815694Y264511*
X814862Y265654*
X814031Y267939*
X914468Y281654D02*
X951041D01*
X932755Y263368D02*
Y299941D01*
X941898Y309998D02*
Y290797D01*
Y309998D02*
X947218Y290797D01*
X952537Y309998D02*
X947218Y290797D01*
X952537Y309998D02*
Y290797D01*
X1023079Y287369D02*
Y263368D01*
Y287369D02*
X1034716Y263368D01*
Y287369D02*
Y263368D01*
X1047184Y287369D02*
X1045522Y286226D01*
X1043859Y283940*
X1043028Y281654*
X1042197Y278226*
Y272511*
X1043028Y269082*
X1043859Y266796*
X1045522Y264511*
X1047184Y263368*
X1050509*
X1052171Y264511*
X1053834Y266796*
X1054665Y269082*
X1055496Y272511*
Y278226*
X1054665Y281654*
X1053834Y283940*
X1052171Y286226*
X1050509Y287369*
X1047184*
X1220906Y283940D02*
Y263368D01*
X1213425Y273654D02*
X1228386D01*
X1250829Y291940D02*
X1235867Y255367D01*
X1258310Y273654D02*
X1273271D01*
X1285739Y287369D02*
X1283246Y286226D01*
X1281583Y282797*
X1280752Y277083*
Y273654*
X1281583Y267939*
X1283246Y264511*
X1285739Y263368*
X1287402*
X1289895Y264511*
X1291558Y267939*
X1292389Y273654*
Y277083*
X1291558Y282797*
X1289895Y286226*
X1287402Y287369*
X1285739*
X1300701Y265654D02*
X1299870Y264511D01*
X1300701Y263368*
X1301532Y264511*
X1300701Y265654*
X1314000Y287369D02*
X1311507Y286226D01*
X1309844Y282797*
X1309013Y277083*
Y273654*
X1309844Y267939*
X1311507Y264511*
X1314000Y263368*
X1315663*
X1318156Y264511*
X1319819Y267939*
X1320650Y273654*
Y277083*
X1319819Y282797*
X1318156Y286226*
X1315663Y287369*
X1314000*
X1333118D02*
X1330624Y286226D01*
X1328962Y282797*
X1328131Y277083*
Y273654*
X1328962Y267939*
X1330624Y264511*
X1333118Y263368*
X1334781*
X1334781D02*
X1337274Y264511D01*
X1338937Y267939*
X1339768Y273654*
Y277083*
X1338937Y282797*
X1337274Y286226*
X1334781Y287369*
X1334781D02*
X1333118D01*
X1348911D02*
X1358054D01*
X1353067Y278226*
X1355561*
X1357223Y277083*
X1358054Y275940*
X1358885Y272511*
Y270225*
X1358054Y266796*
X1356392Y264511*
X1353898Y263368*
X1351405*
X1348911Y264511*
X1348080Y265654*
X1347249Y267939*
X530452Y209651D02*
X532114Y210794D01*
X534608Y214223*
Y190222*
X547076Y214223D02*
X544583Y213080D01*
X542920Y209651*
X542089Y203937*
Y200508*
X542920Y194793*
X544583Y191365*
X547076Y190222*
X548739*
X551232Y191365*
X552895Y194793*
X553726Y200508*
Y203937*
X552895Y209651*
X551232Y213080*
X548739Y214223*
X547076*
X801979D02*
X793667Y198222D01*
X806135*
X801979Y214223D02*
Y190222D01*
X821928Y214223D02*
X813616Y198222D01*
X826084*
X821928Y214223D02*
Y190222D01*
X844370Y214223D02*
X836058D01*
X835227Y203937*
X836058Y205080*
X838552Y206222*
X841045*
X843539Y205080*
X845201Y202794*
X846033Y199365*
X845201Y197079*
X844370Y193651*
X842708Y191365*
X840214Y190222*
X837721*
X835227Y191365*
X834396Y192508*
X833564Y194793*
X914468Y208508D02*
X951041D01*
X932755Y190222D02*
Y226795D01*
X941898Y236852D02*
Y217652D01*
Y236852D02*
X951208Y217652D01*
Y236852D02*
Y217652D01*
X1013936Y214223D02*
X1020585Y202794D01*
Y190222*
X1027235Y214223D02*
X1020585Y202794D01*
X1034716Y214223D02*
Y190222D01*
Y214223D02*
X1045522D01*
X1034716Y202794D02*
X1041365D01*
X1034716Y190222D02*
X1045522D01*
X1064639Y210794D02*
X1062977Y213080D01*
X1060483Y214223*
X1057158*
X1054665Y213080*
X1053002Y210794*
Y208508*
X1053834Y206222*
X1054665Y205080*
X1056327Y203937*
X1061314Y201651*
X1062977Y200508*
X1063808Y199365*
X1064639Y197079*
Y193651*
X1062977Y191365*
X1060483Y190222*
X1057158*
X1054665Y191365*
X1053002Y193651*
X1220906Y210794D02*
Y190222D01*
X1213425Y200508D02*
X1228386D01*
X1250829Y218794D02*
X1235867Y182221D01*
X1258310Y200508D02*
X1273271D01*
X1285739Y214223D02*
X1283246Y213080D01*
X1281583Y209651*
X1280752Y203937*
Y200508*
X1281583Y194793*
X1283246Y191365*
X1285739Y190222*
X1287402*
X1289895Y191365*
X1291558Y194793*
X1292389Y200508*
Y203937*
X1291558Y209651*
X1289895Y213080*
X1287402Y214223*
X1285739*
X1300701Y192508D02*
X1299870Y191365D01*
X1300701Y190222*
X1301532Y191365*
X1300701Y192508*
X1314000Y214223D02*
X1311507Y213080D01*
X1309844Y209651*
X1309013Y203937*
Y200508*
X1309844Y194793*
X1311507Y191365*
X1314000Y190222*
X1315663*
X1318156Y191365*
X1319819Y194793*
X1320650Y200508*
Y203937*
X1319819Y209651*
X1318156Y213080*
X1315663Y214223*
X1314000*
X1333118D02*
X1330624Y213080D01*
X1328962Y209651*
X1328131Y203937*
Y200508*
X1328962Y194793*
X1330624Y191365*
X1333118Y190222*
X1334781*
X1334781D02*
X1337274Y191365D01*
X1338937Y194793*
X1339768Y200508*
Y203937*
X1338937Y209651*
X1337274Y213080*
X1334781Y214223*
X1334781D02*
X1333118D01*
X1348911D02*
X1358054D01*
X1353067Y205080*
X1355561*
X1357223Y203937*
X1358054Y202794*
X1358885Y199365*
Y197079*
X1358054Y193651*
X1356392Y191365*
X1353898Y190222*
X1351405*
X1348911Y191365*
X1348080Y192508*
X1347249Y194793*
G54D192*
X999805Y2930147D02*
X1685549D01*
Y949111*
X999805*
Y2930147*
G54D193*
X999813D01*
X1685549D02*
X1685557D01*
X999805Y949111D02*
X999813D01*
X999805Y2930147D02*
X999813D01*
X0Y0D02*
M02*
