*
*
G04 PADS Layout (Build Number 2007.45.1) generated Gerber (RS-274-X) file*
G04 PC Version=2.1*
*
%IN "09051-00121-A.pcb"*%
*
%MOIN*%
*
%FSLAX35Y35*%
*
*
*
*
G04 PC Standard Apertures*
*
*
G04 Thermal Relief Aperture macro.*
%AMTER*
1,1,$1,0,0*
1,0,$1-$2,0,0*
21,0,$3,$4,0,0,45*
21,0,$3,$4,0,0,135*
%
*
*
G04 Annular Aperture macro.*
%AMANN*
1,1,$1,0,0*
1,0,$2,0,0*
%
*
*
G04 Odd Aperture macro.*
%AMODD*
1,1,$1,0,0*
1,0,$1-0.005,0,0*
%
*
*
G04 PC Custom Aperture Macros*
*
*
*
*
*
*
G04 PC Aperture Table*
*
%ADD034R,0.039X0.039*%
%ADD035R,0.063X0.063*%
%ADD038R,0.051X0.051*%
%ADD078R,0.031X0.031*%
%ADD104R,0.01181X0.01181*%
%ADD106R,0.01969X0.01969*%
%ADD109R,0.072X0.072*%
%ADD146R,0.1063X0.1063*%
%ADD148R,0.06299X0.06299*%
%ADD149R,0.07874X0.07874*%
%ADD150R,0.12402X0.12402*%
%ADD151R,0.00984X0.00984*%
%ADD152R,0.00866X0.00866*%
%ADD153R,0.1063X0.1063*%
*
*
*
*
G04 PC Copper Outlines (0)*
G04 Layer Name 09051-00121-A.pcb - dark (0)*
%LPD*%
*
*
G04 PC Area=Custom_Thermal*
*
G04 PC Custom Flashes*
G04 Layer Name 09051-00121-A.pcb - flashes*
%LPD*%
*
*
G04 PC Circuitry*
G04 Layer Name 09051-00121-A.pcb - circuitry*
%LPD*%
*
G54D34*
G01X1142576Y1704956D02*
X1142176D01*
X1149376D02*
X1148976D01*
X1154576Y1700756D02*
X1154176D01*
X1161376D02*
X1160976D01*
X1130576D02*
X1130176D01*
X1137376D02*
X1136976D01*
X1154576Y1710156D02*
X1154176D01*
X1161376D02*
X1160976D01*
X1154576Y1719656D02*
X1154176D01*
X1161376D02*
X1160976D01*
X1154576Y1738556D02*
X1154176D01*
X1161376D02*
X1160976D01*
X1154576Y1748006D02*
X1154176D01*
X1161376D02*
X1160976D01*
X1154576Y1757456D02*
X1154176D01*
X1161376D02*
X1160976D01*
X1142576Y1761656D02*
X1142176D01*
X1149376D02*
X1148976D01*
X1130576Y1757456D02*
X1130176D01*
X1137376D02*
X1136976D01*
X1130576Y1748006D02*
X1130176D01*
X1137376D02*
X1136976D01*
X1142576Y1752206D02*
X1142176D01*
X1149376D02*
X1148976D01*
X1142576Y1723856D02*
X1142176D01*
X1149376D02*
X1148976D01*
X1130576Y1719656D02*
X1130176D01*
X1137376D02*
X1136976D01*
X1142576Y1714356D02*
X1142176D01*
X1149376D02*
X1148976D01*
X1130576Y1710156D02*
X1130176D01*
X1137376D02*
X1136976D01*
X1118776Y1903856D02*
Y1904256D01*
Y1897056D02*
Y1897456D01*
X1158676Y1912556D02*
Y1912956D01*
Y1905756D02*
Y1906156D01*
X1139776Y1924956D02*
Y1924556D01*
Y1931756D02*
Y1931356D01*
X1058476Y1903956D02*
Y1904356D01*
Y1897156D02*
Y1897556D01*
X1096776Y1919556D02*
Y1919956D01*
Y1912756D02*
Y1913156D01*
X1079276Y1924356D02*
Y1923956D01*
Y1931156D02*
Y1930756D01*
X1153176Y1906156D02*
Y1905756D01*
Y1912956D02*
Y1912556D01*
X1090276Y1906356D02*
Y1905956D01*
Y1913156D02*
Y1912756D01*
X1154576Y1779556D02*
X1154176D01*
X1161376D02*
X1160976D01*
X1154576Y1788956D02*
X1154176D01*
X1161376D02*
X1160976D01*
X1012976Y1610056D02*
X1013376D01*
X1006176D02*
X1006576D01*
X1012976Y1617956D02*
X1013376D01*
X1006176D02*
X1006576D01*
X1012976Y1625856D02*
X1013376D01*
X1006176D02*
X1006576D01*
X1012976Y1633756D02*
X1013376D01*
X1006176D02*
X1006576D01*
X1130576Y1779556D02*
X1130176D01*
X1137376D02*
X1136976D01*
X1130576Y1788956D02*
X1130176D01*
X1137376D02*
X1136976D01*
X1142576Y1783756D02*
X1142176D01*
X1149376D02*
X1148976D01*
X1142576Y1793156D02*
X1142176D01*
X1149376D02*
X1148976D01*
X1012976Y1594356D02*
X1013376D01*
X1006176D02*
X1006576D01*
X1012976Y1602156D02*
X1013376D01*
X1006176D02*
X1006576D01*
X1025476Y1892356D02*
X1025876D01*
X1018676D02*
X1019076D01*
X1025476Y1884556D02*
X1025876D01*
X1018676D02*
X1019076D01*
X1025476Y1853306D02*
X1025876D01*
X1018676D02*
X1019076D01*
X1025476Y1845456D02*
X1025876D01*
X1018676D02*
X1019076D01*
X1130576Y1738556D02*
X1130176D01*
X1137376D02*
X1136976D01*
X1142576Y1742756D02*
X1142176D01*
X1149376D02*
X1148976D01*
X1198276Y1440356D02*
Y1440756D01*
Y1433556D02*
Y1433956D01*
G54D35*
X1152376Y1892356D02*
X1153176D01*
X1152376Y1881356D02*
X1153176D01*
X1099876Y1901656D02*
X1100676D01*
X1099876Y1890656D02*
X1100676D01*
G54D38*
X1002176Y1641156D02*
Y1641956D01*
X1009776Y1641156D02*
Y1641956D01*
G54D78*
X1008226Y1542556D03*
X1002326D03*
X1021576Y1421506D03*
Y1415606D03*
X1074776Y1421606D03*
Y1415706D03*
X1127776Y1421706D03*
Y1415806D03*
X1192326Y1542556D03*
X1198226D03*
X1008226Y1449456D03*
X1002326D03*
X1008226Y1484556D03*
X1002326D03*
G54D104*
X1068095Y1514150D02*
X1064984D01*
X1068095Y1516119D02*
X1064984D01*
X1068095Y1518087D02*
X1064984D01*
X1068095Y1520056D02*
X1064984D01*
X1068095Y1522025D02*
X1064984D01*
X1068095Y1523993D02*
X1064984D01*
X1068095Y1525962D02*
X1064984D01*
X1062681Y1531375D02*
Y1528265D01*
X1060713Y1531375D02*
Y1528265D01*
X1058744Y1531375D02*
Y1528265D01*
X1056776Y1531375D02*
Y1528265D01*
X1054807Y1531375D02*
Y1528265D01*
X1052839Y1531375D02*
Y1528265D01*
X1050870Y1531375D02*
Y1528265D01*
X1048567Y1525962D02*
X1045457D01*
X1048567Y1523993D02*
X1045457D01*
X1048567Y1522025D02*
X1045457D01*
X1048567Y1520056D02*
X1045457D01*
X1048567Y1518087D02*
X1045457D01*
X1048567Y1516119D02*
X1045457D01*
X1048567Y1514150D02*
X1045457D01*
X1050870Y1511847D02*
Y1508737D01*
X1052839Y1511847D02*
Y1508737D01*
X1054807Y1511847D02*
Y1508737D01*
X1056776Y1511847D02*
Y1508737D01*
X1058744Y1511847D02*
Y1508737D01*
X1060713Y1511847D02*
Y1508737D01*
X1062681Y1511847D02*
Y1508737D01*
X1051095Y1466650D02*
X1047984D01*
X1051095Y1468619D02*
X1047984D01*
X1051095Y1470587D02*
X1047984D01*
X1051095Y1472556D02*
X1047984D01*
X1051095Y1474525D02*
X1047984D01*
X1051095Y1476493D02*
X1047984D01*
X1051095Y1478462D02*
X1047984D01*
X1045681Y1483875D02*
Y1480765D01*
X1043713Y1483875D02*
Y1480765D01*
X1041744Y1483875D02*
Y1480765D01*
X1039776Y1483875D02*
Y1480765D01*
X1037807Y1483875D02*
Y1480765D01*
X1035839Y1483875D02*
Y1480765D01*
X1033870Y1483875D02*
Y1480765D01*
X1031567Y1478462D02*
X1028457D01*
X1031567Y1476493D02*
X1028457D01*
X1031567Y1474525D02*
X1028457D01*
X1031567Y1472556D02*
X1028457D01*
X1031567Y1470587D02*
X1028457D01*
X1031567Y1468619D02*
X1028457D01*
X1031567Y1466650D02*
X1028457D01*
X1033870Y1464347D02*
Y1461237D01*
X1035839Y1464347D02*
Y1461237D01*
X1037807Y1464347D02*
Y1461237D01*
X1039776Y1464347D02*
Y1461237D01*
X1041744Y1464347D02*
Y1461237D01*
X1043713Y1464347D02*
Y1461237D01*
X1045681Y1464347D02*
Y1461237D01*
X1105095Y1466650D02*
X1101984D01*
X1105095Y1468619D02*
X1101984D01*
X1105095Y1470587D02*
X1101984D01*
X1105095Y1472556D02*
X1101984D01*
X1105095Y1474525D02*
X1101984D01*
X1105095Y1476493D02*
X1101984D01*
X1105095Y1478462D02*
X1101984D01*
X1099681Y1483875D02*
Y1480765D01*
X1097713Y1483875D02*
Y1480765D01*
X1095744Y1483875D02*
Y1480765D01*
X1093776Y1483875D02*
Y1480765D01*
X1091807Y1483875D02*
Y1480765D01*
X1089839Y1483875D02*
Y1480765D01*
X1087870Y1483875D02*
Y1480765D01*
X1085567Y1478462D02*
X1082457D01*
X1085567Y1476493D02*
X1082457D01*
X1085567Y1474525D02*
X1082457D01*
X1085567Y1472556D02*
X1082457D01*
X1085567Y1470587D02*
X1082457D01*
X1085567Y1468619D02*
X1082457D01*
X1085567Y1466650D02*
X1082457D01*
X1087870Y1464347D02*
Y1461237D01*
X1089839Y1464347D02*
Y1461237D01*
X1091807Y1464347D02*
Y1461237D01*
X1093776Y1464347D02*
Y1461237D01*
X1095744Y1464347D02*
Y1461237D01*
X1097713Y1464347D02*
Y1461237D01*
X1099681Y1464347D02*
Y1461237D01*
X1159395Y1466450D02*
X1156284D01*
X1159395Y1468419D02*
X1156284D01*
X1159395Y1470387D02*
X1156284D01*
X1159395Y1472356D02*
X1156284D01*
X1159395Y1474325D02*
X1156284D01*
X1159395Y1476293D02*
X1156284D01*
X1159395Y1478262D02*
X1156284D01*
X1153981Y1483675D02*
Y1480565D01*
X1152013Y1483675D02*
Y1480565D01*
X1150044Y1483675D02*
Y1480565D01*
X1148076Y1483675D02*
Y1480565D01*
X1146107Y1483675D02*
Y1480565D01*
X1144139Y1483675D02*
Y1480565D01*
X1142170Y1483675D02*
Y1480565D01*
X1139867Y1478262D02*
X1136757D01*
X1139867Y1476293D02*
X1136757D01*
X1139867Y1474325D02*
X1136757D01*
X1139867Y1472356D02*
X1136757D01*
X1139867Y1470387D02*
X1136757D01*
X1139867Y1468419D02*
X1136757D01*
X1139867Y1466450D02*
X1136757D01*
X1142170Y1464147D02*
Y1461037D01*
X1144139Y1464147D02*
Y1461037D01*
X1146107Y1464147D02*
Y1461037D01*
X1148076Y1464147D02*
Y1461037D01*
X1150044Y1464147D02*
Y1461037D01*
X1152013Y1464147D02*
Y1461037D01*
X1153981Y1464147D02*
Y1461037D01*
X1157695Y1513950D02*
X1154584D01*
X1157695Y1515919D02*
X1154584D01*
X1157695Y1517887D02*
X1154584D01*
X1157695Y1519856D02*
X1154584D01*
X1157695Y1521825D02*
X1154584D01*
X1157695Y1523793D02*
X1154584D01*
X1157695Y1525762D02*
X1154584D01*
X1152281Y1531175D02*
Y1528065D01*
X1150313Y1531175D02*
Y1528065D01*
X1148344Y1531175D02*
Y1528065D01*
X1146376Y1531175D02*
Y1528065D01*
X1144407Y1531175D02*
Y1528065D01*
X1142439Y1531175D02*
Y1528065D01*
X1140470Y1531175D02*
Y1528065D01*
X1138167Y1525762D02*
X1135057D01*
X1138167Y1523793D02*
X1135057D01*
X1138167Y1521825D02*
X1135057D01*
X1138167Y1519856D02*
X1135057D01*
X1138167Y1517887D02*
X1135057D01*
X1138167Y1515919D02*
X1135057D01*
X1138167Y1513950D02*
X1135057D01*
X1140470Y1511647D02*
Y1508537D01*
X1142439Y1511647D02*
Y1508537D01*
X1144407Y1511647D02*
Y1508537D01*
X1146376Y1511647D02*
Y1508537D01*
X1148344Y1511647D02*
Y1508537D01*
X1150313Y1511647D02*
Y1508537D01*
X1152281Y1511647D02*
Y1508537D01*
G54D106*
X1007067Y1672392D02*
X1001162D01*
X1024390D02*
X1018484D01*
X1007067Y1675542D02*
X1001162D01*
X1024390D02*
X1018484D01*
X1007067Y1678691D02*
X1001162D01*
X1024390D02*
X1018484D01*
X1007067Y1681841D02*
X1001162D01*
X1024390D02*
X1018484D01*
X1007067Y1684990D02*
X1001162D01*
X1024390D02*
X1018484D01*
X1007067Y1688140D02*
X1001162D01*
X1024390D02*
X1018484D01*
X1007067Y1691290D02*
X1001162D01*
X1024390D02*
X1018484D01*
X1007067Y1694439D02*
X1001162D01*
X1024390D02*
X1018484D01*
X1007067Y1697589D02*
X1001162D01*
X1024390D02*
X1018484D01*
X1007067Y1700738D02*
X1001162D01*
X1024390D02*
X1018484D01*
X1007067Y1703888D02*
X1001162D01*
X1024390D02*
X1018484D01*
X1007067Y1707038D02*
X1001162D01*
X1024390D02*
X1018484D01*
X1007067Y1710187D02*
X1001162D01*
X1024390D02*
X1018484D01*
X1007067Y1713337D02*
X1001162D01*
X1024390D02*
X1018484D01*
X1007067Y1716486D02*
X1001162D01*
X1024390D02*
X1018484D01*
X1007067Y1719636D02*
X1001162D01*
X1024390D02*
X1018484D01*
X1007067Y1722786D02*
X1001162D01*
X1024390D02*
X1018484D01*
X1007067Y1725935D02*
X1001162D01*
X1024390D02*
X1018484D01*
X1007067Y1729085D02*
X1001162D01*
X1024390D02*
X1018484D01*
X1007067Y1732234D02*
X1001162D01*
X1024390D02*
X1018484D01*
X1007067Y1735384D02*
X1001162D01*
X1024390D02*
X1018484D01*
X1007067Y1738534D02*
X1001162D01*
X1024390D02*
X1018484D01*
X1007067Y1741683D02*
X1001162D01*
X1024390D02*
X1018484D01*
X1007067Y1744833D02*
X1001162D01*
X1024390D02*
X1018484D01*
X1007067Y1747983D02*
X1001162D01*
X1024390D02*
X1018484D01*
X1007067Y1751132D02*
X1001162D01*
X1024390D02*
X1018484D01*
X1007067Y1754282D02*
X1001162D01*
X1024390D02*
X1018484D01*
X1007067Y1757431D02*
X1001162D01*
X1024390D02*
X1018484D01*
X1007067Y1760581D02*
X1001162D01*
X1024390D02*
X1018484D01*
X1007067Y1763731D02*
X1001162D01*
X1024390D02*
X1018484D01*
X1007067Y1766880D02*
X1001162D01*
X1024390D02*
X1018484D01*
X1007067Y1770030D02*
X1001162D01*
X1024390D02*
X1018484D01*
X1007067Y1773179D02*
X1001162D01*
X1024390D02*
X1018484D01*
X1007067Y1776329D02*
X1001162D01*
X1024390D02*
X1018484D01*
X1007067Y1779479D02*
X1001162D01*
X1024390D02*
X1018484D01*
X1007067Y1782628D02*
X1001162D01*
X1024390D02*
X1018484D01*
X1007067Y1785778D02*
X1001162D01*
X1024390D02*
X1018484D01*
X1007067Y1788927D02*
X1001162D01*
X1024390D02*
X1018484D01*
X1007067Y1792077D02*
X1001162D01*
X1024390D02*
X1018484D01*
X1007067Y1795227D02*
X1001162D01*
X1024390D02*
X1018484D01*
X1007067Y1798376D02*
X1001162D01*
X1024390D02*
X1018484D01*
X1007067Y1801526D02*
X1001162D01*
X1024390D02*
X1018484D01*
X1007067Y1804675D02*
X1001162D01*
X1024390D02*
X1018484D01*
X1007067Y1807825D02*
X1001162D01*
X1024390D02*
X1018484D01*
X1007067Y1810975D02*
X1001162D01*
X1024390D02*
X1018484D01*
X1007067Y1814124D02*
X1001162D01*
X1024390D02*
X1018484D01*
X1007067Y1817274D02*
X1001162D01*
X1024390D02*
X1018484D01*
X1007067Y1820423D02*
X1001162D01*
X1024390D02*
X1018484D01*
X1007067Y1823573D02*
X1001162D01*
X1024390D02*
X1018484D01*
X1007067Y1826723D02*
X1001162D01*
X1024390D02*
X1018484D01*
X1182067Y1672392D02*
X1176162D01*
X1199390D02*
X1193484D01*
X1182067Y1675542D02*
X1176162D01*
X1199390D02*
X1193484D01*
X1182067Y1678691D02*
X1176162D01*
X1199390D02*
X1193484D01*
X1182067Y1681841D02*
X1176162D01*
X1199390D02*
X1193484D01*
X1182067Y1684990D02*
X1176162D01*
X1199390D02*
X1193484D01*
X1182067Y1688140D02*
X1176162D01*
X1199390D02*
X1193484D01*
X1182067Y1691290D02*
X1176162D01*
X1199390D02*
X1193484D01*
X1182067Y1694439D02*
X1176162D01*
X1199390D02*
X1193484D01*
X1182067Y1697589D02*
X1176162D01*
X1199390D02*
X1193484D01*
X1182067Y1700738D02*
X1176162D01*
X1199390D02*
X1193484D01*
X1182067Y1703888D02*
X1176162D01*
X1199390D02*
X1193484D01*
X1182067Y1707038D02*
X1176162D01*
X1199390D02*
X1193484D01*
X1182067Y1710187D02*
X1176162D01*
X1199390D02*
X1193484D01*
X1182067Y1713337D02*
X1176162D01*
X1199390D02*
X1193484D01*
X1182067Y1716486D02*
X1176162D01*
X1199390D02*
X1193484D01*
X1182067Y1719636D02*
X1176162D01*
X1199390D02*
X1193484D01*
X1182067Y1722786D02*
X1176162D01*
X1199390D02*
X1193484D01*
X1182067Y1725935D02*
X1176162D01*
X1199390D02*
X1193484D01*
X1182067Y1729085D02*
X1176162D01*
X1199390D02*
X1193484D01*
X1182067Y1732234D02*
X1176162D01*
X1199390D02*
X1193484D01*
X1182067Y1735384D02*
X1176162D01*
X1199390D02*
X1193484D01*
X1182067Y1738534D02*
X1176162D01*
X1199390D02*
X1193484D01*
X1182067Y1741683D02*
X1176162D01*
X1199390D02*
X1193484D01*
X1182067Y1744833D02*
X1176162D01*
X1199390D02*
X1193484D01*
X1182067Y1747983D02*
X1176162D01*
X1199390D02*
X1193484D01*
X1182067Y1751132D02*
X1176162D01*
X1199390D02*
X1193484D01*
X1182067Y1754282D02*
X1176162D01*
X1199390D02*
X1193484D01*
X1182067Y1757431D02*
X1176162D01*
X1199390D02*
X1193484D01*
X1182067Y1760581D02*
X1176162D01*
X1199390D02*
X1193484D01*
X1182067Y1763731D02*
X1176162D01*
X1199390D02*
X1193484D01*
X1182067Y1766880D02*
X1176162D01*
X1199390D02*
X1193484D01*
X1182067Y1770030D02*
X1176162D01*
X1199390D02*
X1193484D01*
X1182067Y1773179D02*
X1176162D01*
X1199390D02*
X1193484D01*
X1182067Y1776329D02*
X1176162D01*
X1199390D02*
X1193484D01*
X1182067Y1779479D02*
X1176162D01*
X1199390D02*
X1193484D01*
X1182067Y1782628D02*
X1176162D01*
X1199390D02*
X1193484D01*
X1182067Y1785778D02*
X1176162D01*
X1199390D02*
X1193484D01*
X1182067Y1788927D02*
X1176162D01*
X1199390D02*
X1193484D01*
X1182067Y1792077D02*
X1176162D01*
X1199390D02*
X1193484D01*
X1182067Y1795227D02*
X1176162D01*
X1199390D02*
X1193484D01*
X1182067Y1798376D02*
X1176162D01*
X1199390D02*
X1193484D01*
X1182067Y1801526D02*
X1176162D01*
X1199390D02*
X1193484D01*
X1182067Y1804675D02*
X1176162D01*
X1199390D02*
X1193484D01*
X1182067Y1807825D02*
X1176162D01*
X1199390D02*
X1193484D01*
X1182067Y1810975D02*
X1176162D01*
X1199390D02*
X1193484D01*
X1182067Y1814124D02*
X1176162D01*
X1199390D02*
X1193484D01*
X1182067Y1817274D02*
X1176162D01*
X1199390D02*
X1193484D01*
X1182067Y1820423D02*
X1176162D01*
X1199390D02*
X1193484D01*
X1182067Y1823573D02*
X1176162D01*
X1199390D02*
X1193484D01*
X1182067Y1826723D02*
X1176162D01*
X1199390D02*
X1193484D01*
G54D109*
X1131026Y1887607D02*
X1137326D01*
X1131026Y1856505D02*
X1137326D01*
X1070626Y1887607D02*
X1076926D01*
X1070626Y1856505D02*
X1076926D01*
G54D146*
X1084366Y1512556D02*
X1083185D01*
X1084366Y1538556D02*
X1083185D01*
X1065366Y1461556D02*
X1064185D01*
X1065366Y1487556D02*
X1064185D01*
X1119366Y1461556D02*
X1118185D01*
X1119366Y1487556D02*
X1118185D01*
X1173666Y1461356D02*
X1172485D01*
X1173666Y1487356D02*
X1172485D01*
X1173366Y1512556D02*
X1172185D01*
X1173366Y1538556D02*
X1172185D01*
X1112473Y1861556D02*
X1112079D01*
X1112473Y1882556D02*
X1112079D01*
X1046573Y1878356D02*
X1046179D01*
X1046573Y1899356D02*
X1046179D01*
G54D148*
X1022550Y1506458D02*
Y1508032D01*
X1031802Y1506458D02*
Y1508032D01*
X1045274Y1434430D02*
X1043699D01*
X1045274Y1443682D02*
X1043699D01*
X1107674Y1434430D02*
X1106099D01*
X1107674Y1443682D02*
X1106099D01*
X1167074Y1434430D02*
X1165499D01*
X1167074Y1443682D02*
X1165499D01*
X1112150Y1506458D02*
Y1508032D01*
X1121402Y1506458D02*
Y1508032D01*
G54D149*
X1027176Y1530867D03*
X1020865Y1439056D03*
X1083265D03*
X1142665D03*
X1116776Y1530867D03*
G54D150*
X1056776Y1520056D03*
X1039776Y1472556D03*
X1093776D03*
X1148076Y1472356D03*
X1146376Y1519856D03*
G54D151*
X1131235Y1896669D02*
Y1898440D01*
X1133203Y1896669D02*
Y1898440D01*
X1135172Y1896669D02*
Y1898440D01*
X1137140Y1896669D02*
Y1898440D01*
X1138814Y1900113D02*
X1140585D01*
X1138814Y1904050D02*
X1140585D01*
X1138814Y1906019D02*
X1140585D01*
X1138814Y1907987D02*
X1140585D01*
X1138814Y1909956D02*
X1140585D01*
X1137140Y1911629D02*
Y1913401D01*
X1135172Y1911629D02*
Y1913401D01*
X1133203Y1911629D02*
Y1913401D01*
X1131235Y1911629D02*
Y1913401D01*
X1127790Y1909956D02*
X1129562D01*
X1127790Y1907987D02*
X1129562D01*
X1127790Y1906019D02*
X1129562D01*
X1127790Y1904050D02*
X1129562D01*
X1127790Y1900113D02*
X1129562D01*
X1070835Y1896669D02*
Y1898440D01*
X1072803Y1896669D02*
Y1898440D01*
X1074772Y1896669D02*
Y1898440D01*
X1076740Y1896669D02*
Y1898440D01*
X1078414Y1900113D02*
X1080185D01*
X1078414Y1904050D02*
X1080185D01*
X1078414Y1906019D02*
X1080185D01*
X1078414Y1907987D02*
X1080185D01*
X1078414Y1909956D02*
X1080185D01*
X1076740Y1911629D02*
Y1913401D01*
X1074772Y1911629D02*
Y1913401D01*
X1072803Y1911629D02*
Y1913401D01*
X1070835Y1911629D02*
Y1913401D01*
X1067390Y1909956D02*
X1069162D01*
X1067390Y1907987D02*
X1069162D01*
X1067390Y1906019D02*
X1069162D01*
X1067390Y1904050D02*
X1069162D01*
X1067390Y1900113D02*
X1069162D01*
G54D152*
X1134188Y1900665D02*
Y1901373D01*
Y1903696D02*
Y1904405D01*
X1073788Y1900665D02*
Y1901373D01*
Y1903696D02*
Y1904405D01*
G54D153*
X1067366Y1952283D02*
X1066185D01*
X1067366Y1980629D02*
X1066185D01*
X0Y0D02*
M02*
