*
*
G04 PADS Layout (Build Number 2007.45.1) generated Gerber (RS-274-X) file*
G04 PC Version=2.1*
*
%IN "09051-00121-A.pcb"*%
*
%MOIN*%
*
%FSLAX35Y35*%
*
*
*
*
G04 PC Standard Apertures*
*
*
G04 Thermal Relief Aperture macro.*
%AMTER*
1,1,$1,0,0*
1,0,$1-$2,0,0*
21,0,$3,$4,0,0,45*
21,0,$3,$4,0,0,135*
%
*
*
G04 Annular Aperture macro.*
%AMANN*
1,1,$1,0,0*
1,0,$2,0,0*
%
*
*
G04 Odd Aperture macro.*
%AMODD*
1,1,$1,0,0*
1,0,$1-0.005,0,0*
%
*
*
G04 PC Custom Aperture Macros*
*
*
*
*
*
*
G04 PC Aperture Table*
*
%ADD010C,0.01*%
%ADD016C,0.02*%
%ADD017C,0.012*%
%ADD019C,0.025*%
%ADD033C,0.06*%
%ADD049C,0.18*%
%ADD101C,0.062*%
%ADD147C,0.08268*%
%ADD155C,0.05512*%
%ADD157C,0.09449*%
%ADD158C,0.15197*%
%ADD194C,0.02953*%
%ADD195C,0.04528*%
*
*
*
*
G04 PC Copper Outlines (0)*
G04 Layer Name 09051-00121-A.pcb - dark (0)*
%LPD*%
*
*
G04 PC Area=Custom_Thermal*
*
G04 PC Custom Flashes*
G04 Layer Name 09051-00121-A.pcb - flashes*
%LPD*%
*
*
G04 PC Circuitry*
G04 Layer Name 09051-00121-A.pcb - circuitry*
%LPD*%
*
G54D10*
G01X1117659Y2003500D02*
Y2003719D01*
X1117818Y2004156*
X1117977Y2004375*
X1118295Y2004594*
X1118932*
X1119250Y2004375*
X1119409Y2004156*
X1119568Y2003719*
Y2003281*
X1119409Y2002844*
X1119091Y2002188*
X1119091D02*
X1117500Y2000000D01*
X1119727*
X1105000Y1447200D02*
X1108100Y1444100D01*
X1162300Y1443900D02*
Y1446200D01*
X1165000Y1448900*
X1123500Y1471400D02*
X1127131Y1467700D01*
X1144900*
X1127100Y1463100D02*
X1140500D01*
X1121900Y1485300D02*
X1136800Y1470400D01*
X1142600*
X1109500Y1499000D02*
X1127000D01*
X1132500Y1493500*
X1135500Y1485500D02*
X1141700Y1479300D01*
X1149070*
X1165000Y1463370*
Y1448900*
X1147300Y1515100D02*
X1147902Y1515702D01*
X1148172*
X1147300Y1515100D02*
X1147902Y1515702D01*
X1148172*
X1131800Y1500337D02*
Y1502870D01*
X1136330Y1507400*
X1177700*
X1191900Y1521600*
X998000Y1565500D02*
X1095000D01*
X1099800Y1570300*
X1029500Y1572500D02*
X1123500D01*
X1125700Y1570300*
X1128080*
X1034800Y1664900D02*
X1144200D01*
X1157600Y1651500*
X1015500Y1676000D02*
X1085500D01*
X1009500Y1701500D02*
X1012100D01*
X1014200Y1699400*
X1070800*
X1072900Y1701500*
X1129500*
X1009500Y1714000D02*
X1015000Y1708500D01*
X1130000*
X1015500Y1701500D02*
X1019500Y1705500D01*
X1109500*
X1009500Y1692000D02*
X1013600Y1687900D01*
X1135500*
X1137100Y1689500*
X1009500Y1720500D02*
X1012800Y1717200D01*
X1024500*
X1026700Y1715000*
X1038000*
X1126000Y1685500D02*
X1136300D01*
X1136900Y1686100*
X1202000*
X1134500Y1690000D02*
X1136600Y1692100D01*
X1192600*
X1192700Y1692000*
X1202000*
X1189500Y1698000D02*
X1198970D01*
X1204100Y1692870*
X1184500Y1690000D02*
X1193800D01*
X1193900Y1689900*
X1202870*
X1204100Y1691130*
Y1692870*
X1015500Y1729500D02*
X1083000D01*
X1010700Y1746700D02*
X1012700Y1748700D01*
X1088800*
X1096300Y1741200*
Y1741100*
X1009500Y1723500D02*
X1012100D01*
X1014200Y1725600*
X1024100*
X1026700Y1723000*
X1065000*
X1009500Y1777000D02*
X1014600Y1771900D01*
X1097900*
X1103000Y1777000*
X1090100Y1877200D02*
Y1906000D01*
X1003500Y1945000D02*
X1017100D01*
X1021600Y1940500*
X1126500*
X1131500Y1930000D02*
X1148900D01*
X1153900Y1935000*
X1167500*
X1115500Y2007000D02*
X1121000D01*
Y1997500*
X1115500*
Y2007000*
G54D16*
X1003000Y1477500D02*
X1014000D01*
X1017300Y1474200*
X1057377*
X1061500Y1478323*
Y1481000*
X1070000Y1489500*
X1144000Y1481500D02*
X1147200Y1484700D01*
X1174600*
X1181800Y1477500*
X1197000*
X1003000Y1487500D02*
X1018803Y1487697D01*
X1027100Y1479400*
X1049700*
X1052300Y1482000*
X1058500*
X1003000Y1497500D02*
X1020665Y1497303D01*
X1028469Y1489500*
X1043000*
X1132500Y1489394D02*
X1134106Y1491000D01*
X1138700*
X1140200Y1489500*
X1147250*
X1149450Y1487300*
X1172150*
X1182153Y1497303*
X1197000Y1497500*
X1017700Y1390900D03*
X1021200Y1402600D03*
X1070900Y1391100D03*
X1074500Y1402100D03*
X1124100Y1391200D03*
X1127500Y1402000D03*
X1001900Y1429400D03*
X1008000D03*
X1031100Y1438200D03*
X1038300Y1409900D03*
X1040400Y1428600D03*
X1036000Y1428500D03*
X1025500Y1442000D03*
X1040408Y1434092D03*
X1037700Y1434000D03*
X1015000Y1414500D03*
X1047800Y1438200D03*
X1064600Y1428500D03*
X1079500Y1442000D03*
X1077000Y1414500D03*
X1054400Y1440400D03*
X1101500Y1438200D03*
X1085400Y1438300D03*
X1118400Y1428500D03*
X1100300Y1409700D03*
X1094400Y1428600D03*
X1087300Y1433400D03*
X1094500Y1434000D03*
X1091500Y1433400D03*
X1108400Y1440400D03*
X1155600Y1438100D03*
X1139700D03*
X1159900Y1409900D03*
X1148700Y1428400D03*
X1141600Y1433400D03*
X1130000Y1414300D03*
X1134500Y1442000D03*
X1162700Y1440200D03*
X1148708Y1433892D03*
X1145700Y1433800D03*
X1197900Y1421000D03*
X1172900Y1429200D03*
X1002000Y1463500D03*
X1042500Y1451100D03*
Y1445000D03*
X1036400Y1451100D03*
Y1445000D03*
X1027500Y1456900D03*
X1008000Y1455500D03*
X1022200Y1476800D03*
X1030100Y1457400D03*
X1025500Y1452000D03*
X1023600Y1448400D03*
X1042700Y1466100D03*
X1040500Y1467800D03*
X1037531Y1467969D03*
X1042500Y1463500D03*
X1032900Y1465200D03*
X1017500Y1446000D03*
X1069600Y1454500D03*
X1068600Y1483100D03*
X1080900Y1458000D03*
X1054500Y1454700D03*
X1045900Y1482000D03*
X1078900Y1453500D03*
X1079500Y1450000D03*
X1066000Y1481600D03*
X1054000Y1450000D03*
X1065000Y1445700D03*
X1057000Y1477500D03*
X1049300Y1462800D03*
X1047300Y1461000D03*
X1053700Y1444100D03*
X1054400Y1477700D03*
X1058500Y1482000D03*
X1079500Y1446000D03*
X1083400Y1479600D03*
X1096500Y1451000D03*
Y1445000D03*
X1090500D03*
Y1451000D03*
X1111900Y1476800D03*
X1108100Y1444100D03*
Y1449900D03*
X1119000Y1445950D03*
X1108700Y1454700D03*
X1102000Y1462694D03*
X1099100Y1463263D03*
X1096669Y1465300D03*
X1094800Y1467900D03*
X1091500Y1468900D03*
X1086200Y1463300D03*
X1088600Y1465200D03*
X1148000Y1481600D03*
X1153000Y1482100D03*
X1123300Y1454700D03*
X1150900Y1451000D03*
Y1445000D03*
X1145000D03*
X1144900Y1451000D03*
X1135100Y1458400D03*
X1142600Y1470400D03*
X1144900Y1467700D03*
X1140500Y1463100D03*
X1162300Y1443900D03*
X1133500Y1449800D03*
X1133800Y1452800D03*
X1151700Y1472700D03*
X1147600Y1473200D03*
X1162600Y1449600D03*
X1162900Y1454500D03*
X1156300Y1462494D03*
X1148200Y1477200D03*
X1144000D03*
X1142900Y1465000D03*
X1144000Y1481500D03*
X1134000Y1446000D03*
X1177500Y1454700D03*
X1173200Y1445400D03*
X1002000Y1521600D03*
X1008000Y1521700D03*
X1038000Y1498600D03*
X1043000Y1489500D03*
X1042500Y1493500D03*
X1070700Y1501400D03*
X1048100Y1485900D03*
X1053400Y1492800D03*
Y1498600D03*
X1059400D03*
Y1492800D03*
X1045700Y1503700D03*
X1070600Y1492100D03*
X1065000Y1510194D03*
X1059669Y1512800D03*
X1057400Y1515300D03*
X1054531Y1515469D03*
X1049600Y1510800D03*
X1072300Y1499200D03*
X1082300Y1495500D03*
X1051600Y1512700D03*
X1070000Y1489500D03*
X1061800Y1510900D03*
X1086000Y1504800D03*
X1109500Y1499000D03*
X1132500Y1489394D03*
X1137700Y1487000D03*
X1149000Y1498200D03*
X1143100D03*
X1149000Y1492400D03*
X1143100Y1492300D03*
X1136400Y1504500D03*
X1135500Y1485500D03*
X1147300Y1515100D03*
X1144131Y1515269D03*
X1132500Y1493500D03*
X1161900Y1499000D03*
X1154600Y1510000D03*
X1141200Y1512500D03*
X1159900Y1502600D03*
X1151700Y1510600D03*
X1161200Y1492900D03*
X1149269Y1512600D03*
X1138800Y1510600D03*
X1160300Y1489900D03*
X1131800Y1500337D03*
X1176300Y1504800D03*
X1180900Y1488000D03*
X1198100Y1521500D03*
X1171900Y1495300D03*
X1191900Y1521600D03*
X999500Y1527000D03*
X1015500Y1531500D03*
X1001900Y1585500D03*
X998000Y1565500D03*
X1002000Y1601500D03*
Y1593500D03*
Y1577500D03*
Y1570000D03*
X1038000Y1587500D03*
Y1591800D03*
X1029500Y1572500D03*
X1038000Y1570300D03*
X1077410Y1587500D03*
X1049300D03*
X1066150D03*
X1043200D03*
X1071780D03*
X1077410Y1570300D03*
X1071780D03*
Y1591800D03*
X1066150Y1570300D03*
Y1591800D03*
X1049260D03*
X1044800Y1570300D03*
X1043630Y1591800D03*
X1049260Y1570300D03*
X1077410Y1591800D03*
X1099800Y1587500D03*
X1094300D03*
X1105560D03*
X1122450D03*
Y1570300D03*
Y1591800D03*
X1105560D03*
Y1570300D03*
X1099900Y1591800D03*
X1099800Y1570300D03*
X1094300Y1591800D03*
Y1570300D03*
X1150600Y1587500D03*
X1161860D03*
X1133710D03*
X1156230D03*
X1128080D03*
Y1591800D03*
X1133710Y1570300D03*
X1156230Y1591800D03*
X1150600Y1570300D03*
X1133710Y1591800D03*
X1128080Y1570300D03*
X1161860Y1591800D03*
Y1570300D03*
X1156230D03*
X1150600Y1593000D03*
X1173400Y1572600D03*
X999000Y1642500D03*
X1002000Y1609000D03*
X1012600Y1629400D03*
X1011800Y1643100D03*
X1038000Y1609000D03*
X1071780D03*
X1066150D03*
X1077410D03*
X1049500D03*
X1043630D03*
X1105560D03*
X1122450D03*
X1099900D03*
X1094300D03*
X1156230D03*
X1161860D03*
X1150600D03*
X1133710D03*
X1127900D03*
X1128000Y1628500D03*
X1169800Y1614900D03*
X1173400Y1618700D03*
X1011800Y1646100D03*
X1009500Y1654000D03*
X1015500Y1673000D03*
Y1682500D03*
Y1663500D03*
X1034800Y1664900D03*
X1009500Y1682500D03*
Y1676000D03*
Y1673000D03*
Y1666500D03*
Y1663500D03*
Y1660500D03*
X1015500Y1666500D03*
Y1676000D03*
Y1660500D03*
X1097500Y1669500D03*
X1095500Y1679000D03*
X1085500Y1676000D03*
X1157600Y1651500D03*
X1126000Y1676000D03*
X1138000Y1680500D03*
X1150000Y1674000D03*
X1172100Y1670000D03*
X1202100Y1660400D03*
X1184500Y1663500D03*
X1202000Y1673000D03*
X1193700Y1682400D03*
X1202000Y1676200D03*
X1166500Y1680000D03*
X1009500Y1701500D03*
Y1704500D03*
Y1711000D03*
Y1714000D03*
X1015500Y1692000D03*
Y1701500D03*
X1009500Y1692000D03*
Y1695000D03*
X1038000Y1715000D03*
X1009500Y1720500D03*
X1015500Y1711000D03*
Y1714000D03*
Y1720500D03*
Y1695000D03*
Y1704500D03*
Y1685500D03*
X1065000Y1723000D03*
X1109500Y1705500D03*
X1131400Y1718200D03*
X1126400Y1714100D03*
X1129500Y1701500D03*
X1130000Y1708500D03*
X1163000Y1718000D03*
X1138000Y1699500D03*
X1126000Y1685500D03*
Y1695000D03*
X1134500Y1690000D03*
X1137100Y1689500D03*
X1145500Y1683500D03*
X1150000Y1711500D03*
X1202000Y1710500D03*
Y1720000D03*
Y1683500D03*
X1189500Y1698000D03*
X1184500Y1690000D03*
X1202000Y1714000D03*
X1166500Y1689500D03*
X1202000Y1686100D03*
Y1692000D03*
X1166500Y1718000D03*
X1012600Y1739000D03*
X1028100Y1736025D03*
X1009500Y1729500D03*
Y1733000D03*
X1015500Y1729500D03*
X1013900Y1755000D03*
X1010700Y1746700D03*
X1009500Y1723500D03*
Y1742500D03*
X1009400Y1750900D03*
X1009500Y1755000D03*
Y1761000D03*
X1015500Y1723500D03*
Y1733000D03*
Y1742500D03*
Y1745500D03*
X1013600Y1752400D03*
X1015500Y1761000D03*
X1083000Y1729500D03*
X1096300Y1741100D03*
X1105200D03*
X1107500Y1731000D03*
X1122100Y1736025D03*
X1126000Y1755000D03*
X1129000Y1759000D03*
X1163000D03*
X1126000Y1723500D03*
X1159800Y1745500D03*
X1126000Y1733000D03*
X1137000Y1737000D03*
X1138000Y1727500D03*
X1150000Y1752500D03*
X1171800Y1748200D03*
X1169000Y1737700D03*
X1166000D03*
X1202000Y1723500D03*
X1167000Y1759000D03*
X1166500Y1727500D03*
X1202000Y1761100D03*
Y1751600D03*
Y1755000D03*
X1028100Y1767500D03*
X1012100Y1770600D03*
X1009500Y1777000D03*
Y1786500D03*
Y1783500D03*
X1015500Y1777000D03*
Y1774000D03*
X1015100Y1802000D03*
Y1799000D03*
X1028500Y1781000D03*
X1015500Y1786500D03*
X1015100Y1789500D03*
Y1792500D03*
X1009500Y1764500D03*
Y1774000D03*
X1100400Y1788800D03*
X1101700Y1782600D03*
X1103000Y1777000D03*
X1119000Y1769000D03*
X1126000Y1764500D03*
X1129000Y1768500D03*
X1202000Y1770600D03*
X1189100Y1799200D03*
X1188500Y1787500D03*
X1173000Y1780000D03*
X1185500Y1775500D03*
X1167000Y1768500D03*
X1202000Y1764500D03*
X1029400Y1840300D03*
X1029500Y1821000D03*
Y1829000D03*
X1039500Y1815500D03*
X1059400Y1821700D03*
X1046100Y1837800D03*
X1080800Y1821900D03*
X1073300Y1824500D03*
X1073400Y1817200D03*
X1087500Y1821700D03*
X1133900D03*
X1139500Y1804000D03*
X1162500Y1841000D03*
X1145000Y1825000D03*
X1039000Y1846300D03*
X1029500Y1848200D03*
Y1868000D03*
Y1860000D03*
Y1880000D03*
X1038500Y1855500D03*
X1063800Y1877800D03*
X1046100Y1843800D03*
X1073500Y1870500D03*
X1083200Y1877800D03*
X1090100Y1877200D03*
X1143900Y1878000D03*
X1124200Y1877700D03*
X1152900Y1876500D03*
X1133900Y1869900D03*
X1190900Y1862400D03*
X1018400Y1913600D03*
X1029500Y1888000D03*
X1049300Y1917200D03*
X1057100Y1917000D03*
X1074500Y1891400D03*
X1058600Y1903100D03*
X1058200Y1888300D03*
X1076700Y1895700D03*
X1083000Y1894600D03*
X1074600Y1894000D03*
X1074100Y1907200D03*
X1073200Y1898200D03*
X1059400Y1893000D03*
X1118200Y1888100D03*
X1118300Y1903000D03*
X1086300Y1888400D03*
X1101900Y1895200D03*
X1119800Y1893000D03*
X1090100Y1906000D03*
X1148900Y1888200D03*
X1134900Y1891400D03*
X1137500Y1895800D03*
X1147800Y1892500D03*
X1133700Y1898300D03*
X1134900Y1894000D03*
X1134300Y1907300D03*
X1163200Y1888100D03*
X1126500Y1940500D03*
X1131500Y1930000D03*
X1128500Y1931000D03*
G54D17*
X1071900Y1876500D02*
Y1872200D01*
X1073500Y1870600*
Y1870500*
X1071900Y1876500D02*
Y1893000D01*
X1072900Y1894000*
X1074600*
X1132400Y1871000D02*
X1132800D01*
X1133900Y1869900*
X1132400Y1871000D02*
Y1892800D01*
X1133400Y1894000*
X1134900*
G54D19*
X987500Y2025000D02*
X1212500D01*
Y1375000*
X987500*
Y2025000*
G54D33*
X1028100Y1736025D02*
X1122100D01*
G54D49*
X1002500Y1909900D03*
X1197500D03*
X1002500Y2007500D03*
X1197500D03*
X1002500Y1539900D03*
X1197500D03*
X1002500Y1390300D03*
X1197500D03*
G54D101*
X1003500Y1935000D03*
Y1945000D03*
Y1955000D03*
Y1965000D03*
Y1975000D03*
Y1985000D03*
X1032500Y1935000D03*
Y1945000D03*
Y1955000D03*
Y1965000D03*
Y1975000D03*
Y1985000D03*
X1138500Y1935000D03*
Y1945000D03*
Y1955000D03*
Y1965000D03*
Y1975000D03*
Y1985000D03*
X1167500Y1935000D03*
Y1945000D03*
Y1955000D03*
Y1965000D03*
Y1975000D03*
Y1985000D03*
X1196500Y1935000D03*
Y1945000D03*
Y1955000D03*
Y1965000D03*
Y1975000D03*
Y1985000D03*
X1020100Y1617022D03*
Y1609148D03*
Y1601274D03*
Y1593400D03*
Y1585526D03*
Y1577652D03*
Y1569778D03*
G54D147*
X1085000Y1390500D03*
X1095000D03*
X1105000D03*
X1115000D03*
X1137500D03*
X1147500D03*
X1157500D03*
X1167500D03*
X1197000Y1477500D03*
Y1487500D03*
Y1497500D03*
Y1507500D03*
X1003000D03*
Y1497500D03*
Y1487500D03*
Y1477500D03*
X1032500Y1390500D03*
X1042500D03*
X1052500D03*
X1062500D03*
G54D155*
X1012000Y1840363D03*
Y1848237D03*
X1011700Y1867837D03*
Y1859963D03*
X1012000Y1880163D03*
Y1888037D03*
Y1828737D03*
Y1820863D03*
X1187700Y1832126D03*
Y1840000D03*
Y1847874D03*
Y1867126D03*
Y1875000D03*
Y1882874D03*
Y1567126D03*
Y1575000D03*
Y1582874D03*
Y1602126D03*
Y1610000D03*
Y1617874D03*
X1187500Y1409063D03*
Y1416937D03*
G54D157*
X1106299Y1972502D03*
X1090000D03*
X1073701D03*
G54D158*
X1090000Y2001400D03*
G54D194*
X1012500Y1812008D03*
G54D195*
Y1637992D03*
X1187500Y1812008D03*
Y1637992D03*
X0Y0D02*
M02*
