%
T1C.01F095S3
X01302Y01159
X01337Y01276
X01275Y01395
X01205Y01544
X01144Y01544
X013Y0171
X01205Y01805
X01145Y01885
X01347Y02018
X01145Y02466
X01205Y02467
X0112Y0252
X0128Y02565
X01105Y02905
X01145Y0295
X01145Y03025
X01144Y03105
X01145Y03185
X01145Y03265
X01145Y0334
X01251Y03544
X01115Y03675
X01243Y03681
X01243Y03711
X0122Y0379
X0122Y03855
X0128Y03855
X0128Y03885
X0122Y03885
X0122Y03915
X0128Y03915
X0128Y0398
X0122Y0398
X0122Y0401
X0128Y0401
X0122Y04075
X0128Y04075
X0128Y04105
X0128Y0417
X0122Y0417
X0122Y042
X0128Y042
X0128Y04265
X0122Y04265
X0122Y04295
X0128Y04295
X0128Y0436
X0122Y0436
X0122Y0439
X0128Y0439
X0122Y04455
X0128Y04455
X0122Y04485
X0128Y04485
X0128Y04545
X0122Y04545
X0122Y0458
X0128Y0458
X01251Y0464
X0122Y04675
X0128Y04675
X0128Y04705
X01232Y04717
X01219Y04759
X01261Y04774
X01264Y048
X0122Y048
X0122Y0486
X0128Y0486
X0122Y04895
X01246Y04956
X0128Y0499
X0122Y0499
X0128Y0502
X0122Y0502
X0122Y05085
X0128Y05115
X0122Y05115
X01276Y05145
X01276Y05175
X01276Y0524
X01276Y0527
X01309Y06386
X0142Y0613
X0142Y0605
X0142Y0593
X0142Y0585
X0151Y05805
X0142Y05732
X01515Y05713
X01586Y05688
X01419Y05653
X01586Y05628
X0142Y0554
X0142Y0546
X0152Y05405
X0141Y0506
X01406Y04925
X01406Y046102
X01505Y044
X01473Y03899
X01505Y0334
X015613Y0334
X015613Y03168
X01505Y03168
X01557Y03125
X01505Y03125
X0142Y02975
X01505Y02953
X01573Y02953
X01582Y02287
X01505Y02236
X0155Y02185
X01555Y02145
X01584Y0207
X015003Y019297
X0153Y01928
X01552Y01911
X01454Y01902
X0155Y01885
X01598Y0186
X01426Y01824
X014Y01819
X0138Y0177
X0155Y01761
X01489Y01761
X01361Y01734
X01489Y017
X0155Y017
X0138Y0167
X01436Y01632
X01603Y01632
X015291Y015909
X01502Y0159
X01529Y01536
X01485Y01535
X01508Y01349
X01834Y01161
X01771Y01535
X01669Y01654
X01662Y01691
X01775Y01707
X01665Y0175
X01821Y01795
X0167Y01797
X01618Y01878
X01695Y02025
X01669Y02027
X01785Y02066
X0171Y0207
X01811Y02081
X01606Y02109
X01825Y02145
X01831Y02171
X01659Y02178
X01719Y02178
X01659Y02236
X01719Y02236
X01848Y02242
X01832Y02264
X01775Y023519
X01621Y02358
X01743Y02359
X01641Y02377
X017217Y02378
X01699Y02403
X016703Y024047
X016176Y02953
X018428Y02953
X017865Y02953
X017865Y03125
X018428Y03125
X01618Y03125
X016176Y03168
X017865Y03168
X018428Y03168
X0162Y0334
X017865Y0334
X018428Y0334
X01775Y0448
X01719Y05467
X01763Y06028
X01707Y06133
X01719Y0618
X01711Y06281
X01696Y0642
X01618Y06422
X01866Y06322
X02026Y0631
X01857Y06232
X01892Y06207
X01955Y06196
X01871Y0619
X0187Y06164
X01988Y06134
X01957Y06028
X02026Y06022
X0186Y05955
X01858Y05495
X01933Y05469
X02Y05467
X01859Y05422
X02088Y04661
X01955Y04545
X0208Y0404
X0198Y0401
X021Y03945
X02068Y0334
X018991Y0334
X02068Y03168
X018991Y03168
X018991Y03125
X02068Y03125
X02068Y02953
X018991Y02953
X01985Y02298
X01948Y02205
X01959Y02046
X0204Y01939
X02073Y01929
X020917Y01903
X02011Y01902
X01987Y01883
X01934Y0183
X01914Y01785
X0209Y0176
X0203Y0176
X0192Y0175
X0192Y0171
X0203Y017
X0209Y017
X0192Y0167
X01979Y01633
X0207Y0159
X01998Y01584
X0204Y01584
X02069Y01536
X01895Y01395
X0187Y01271
X02128Y01347
X02309Y01535
X0214Y01632
X02209Y01654
X02206Y01691
X02315Y017095
X02206Y01749
X02212Y01797
X02145Y018769
X02116Y018826
X02244Y02018
X0222Y0224
X02123Y02953
X023495Y02953
X021806Y02953
X02123Y03125
X021806Y03125
X023495Y03125
X023495Y03168
X021806Y03168
X02124Y03168
X021806Y0334
X023495Y0334
X02124Y0334
X0222Y04305
X022Y0456
X02346Y046102
X02177Y04661
X02315Y0494
X02155Y0502
X02142Y05076
X02129Y05138
X02307Y06131
X02323Y0618
X02144Y06202
X02308Y0628
X0239Y06655
X0241Y0656
X0244Y0655
X02468Y06323
X02462Y06233
X025Y06208
X02474Y0619
X02603Y06175
X02474Y06164
X02564Y0603
X02367Y06027
X02464Y05949
X02575Y055
X02464Y05467
X0252Y0529
X02415Y04935
X02385Y04895
X02415Y0484
X02385Y048
X02495Y0462
X02385Y0458
X02505Y04525
X02385Y04485
X02439Y04432
X02389Y04391
X02425Y04335
X0242Y04265
X02505Y04245
X02385Y042
X0247Y0415
X02496Y04145
X02385Y04105
X0258Y04085
X02505Y04055
X02385Y0401
X02405Y03535
X024621Y0334
X02404Y0334
X024621Y03168
X024058Y03168
X024621Y03125
X024058Y03125
X024621Y02953
X024058Y02953
X025663Y024027
X02598Y02401
X02537Y02375
X02513Y02356
X02489Y02295
X02443Y022534
X02556Y02232
X0245Y02185
X02556Y02173
X0245Y021439
X02502Y0212
X0248Y02105
X02565Y02065
X02565Y02022
X02601Y01982
X02551Y01954
X02574Y01927
X02554Y019
X0253Y01881
X02476Y01834
X02358Y01797
X02463Y01778
X02574Y0176
X0246Y01748
X02465Y0171
X02575Y017
X0247Y0167
X02522Y01631
X02582Y01588
X02541Y01584
X02425Y01393
X024Y0127
X02366Y01162
X02724Y01349
X02612Y01534
X02854Y01542
X026121Y015889
X02681Y01631
X02752Y01652
X02748Y01689
X02634Y017
X02751Y01746
X02634Y0176
X02754Y01795
X02688Y018749
X02642Y01977
X02607Y02022
X02605Y02066
X02655Y02071
X02728Y02149
X02615Y02174
X02737Y02179
X02844Y02203
X02615Y02232
X02744Y0224
X02724Y02276
X02671Y0235
X02642Y02356
X026177Y02376
X026873Y02953
X02631Y02953
X027436Y02953
X027436Y03125
X02631Y03125
X026873Y03125
X027436Y03168
X026873Y03168
X02631Y0318
X02631Y0334
X027436Y0334
X026873Y0334
X02823Y03399
X02701Y03765
X02846Y0395
X02625Y0399
X0279Y0405
X0279Y04145
X02625Y04365
X02755Y0443
X0279Y0443
X0279Y04525
X02815Y04627
X02785Y04627
X02723Y04705
X02843Y04732
X02625Y04775
X02755Y0484
X02795Y0484
X02795Y04935
X0275Y0566
X02654Y06015
X02757Y06131
X02614Y06132
X03034Y05874
X03016Y05242
X0301Y05125
X02855Y0505
X0298Y05005
X03145Y04956
X03145Y04895
X03145Y04861
X03145Y048
X03145Y04766
X03145Y04485
X03145Y0445
X03145Y0439
X03145Y04355
X0302Y0423
X03145Y0417
X0297Y0415
X03145Y04111
X03145Y04085
X03062Y04074
X03145Y04012
X03145Y0398
X0297Y03885
X03146Y03854
X02859Y03437
X02859Y02976
X03044Y02466
X03106Y02465
X02888Y02298
X02934Y0213
X029Y01797
X02857Y01704
X03104Y0146
T2C.02953F197S55
X0125Y053701
T3C.03346F197S55
X01245Y054586
X01245Y055374
X01245Y056536
X01245Y057324
X01242Y058496
X01242Y059284
X01245Y060516
X01245Y061304
X03002Y060787
X03002Y06
X03002Y059213
X03002Y057287
X03002Y0565
X03002Y055713
X03002Y034287
X03002Y0335
X03002Y032713
X03002Y030787
X03002Y03
X03002Y029213
X03Y014194
X03Y013406
T4C.035F197S55
X01326Y029478
X01326Y030265
X01326Y031053
X01326Y03184
X01326Y032627
X01326Y033415
X01326Y034202
T5C.038F197S55
X0116Y066
X0145Y066
X0116Y067
X0145Y067
X0116Y068
X0145Y068
X0116Y069
X0145Y069
X0116Y07
X0145Y07
X0116Y071
X0145Y071
X0251Y071
X028Y071
X0251Y07
X028Y07
X028Y069
X0251Y069
X028Y068
X0251Y068
X028Y067
X0251Y067
X0251Y066
X028Y066
X0309Y066
X0309Y067
X0309Y068
X0309Y069
X0309Y07
X0309Y071
T6C.04528F139S55
X0125Y036299
X03Y036299
X03Y053701
T7C.04724F139S55
X0145Y01155
X0155Y01155
X0165Y01155
X0175Y01155
X01975Y01155
X02075Y01155
X01155Y02025
X01155Y02125
X01155Y02225
X01155Y02325
X03095Y02325
X03095Y02225
X03095Y02125
X03095Y02025
X027Y01155
X028Y01155
X026Y01155
X025Y01155
X02275Y01155
X02175Y01155
T8C.05512F107S55
X02025Y06975
X01862Y06975
X02188Y06975
T9C.125F035S794
X0115Y01153
X0115Y02649
X0115Y06349
X0115Y07325
X031Y07325
X031Y06349
X031Y02649
X031Y01153
T10C.15197F035S9
X02025Y07264
M30
