*
*
G04 PADS Layout (Build Number 2007.45.1) generated Gerber (RS-274-X) file*
G04 PC Version=2.1*
*
%IN "09051-00121-A.pcb"*%
*
%MOIN*%
*
%FSLAX35Y35*%
*
*
*
*
G04 PC Standard Apertures*
*
*
G04 Thermal Relief Aperture macro.*
%AMTER*
1,1,$1,0,0*
1,0,$1-$2,0,0*
21,0,$3,$4,0,0,45*
21,0,$3,$4,0,0,135*
%
*
*
G04 Annular Aperture macro.*
%AMANN*
1,1,$1,0,0*
1,0,$2,0,0*
%
*
*
G04 Odd Aperture macro.*
%AMODD*
1,1,$1,0,0*
1,0,$1-0.005,0,0*
%
*
*
G04 PC Custom Aperture Macros*
*
*
*
*
*
*
G04 PC Aperture Table*
*
%ADD010C,0.01*%
%ADD011C,0.004*%
%ADD014C,0.008*%
%ADD015C,0.05*%
%ADD019C,0.025*%
%ADD117C,0.00984*%
%ADD134C,0.00591*%
%ADD187C,0.00787*%
%ADD188C,0.00984*%
%ADD189C,0.01181*%
%ADD190C,0.01575*%
*
*
*
*
G04 PC Copper Outlines (0)*
G04 Layer Name 09051-00121-A.pcb - dark (0)*
%LPD*%
*
*
G04 PC Area=Custom_Thermal*
*
G04 PC Copper Outlines (1)*
G04 Layer Name 09051-00121-A.pcb - dark (1)*
%LPD*%
*
*
G04 PC Area=System Text*
G75*
G36*
G01*
X1022049Y1538023D02*
X1021934Y1538600D01*
X1022049Y1539062D01*
X1022280Y1539523D01*
X1022857Y1539869D01*
X1023434Y1540331D01*
X1025165Y1540908D01*
X1026895Y1541138D01*
X1027819Y1541023D01*
X1028626Y1540677D01*
X1029088Y1540215D01*
X1029203Y1539754D01*
X1029088Y1539062D01*
X1028742Y1538600D01*
X1028280Y1538023D01*
X1027472Y1537446D01*
X1028395Y1537100D01*
X1029088Y1536638D01*
X1029549Y1536062D01*
X1029665Y1535369D01*
X1029549Y1534792D01*
X1029319Y1534100D01*
X1028857Y1533638D01*
X1028165Y1533062D01*
X1027472Y1532715D01*
X1026549Y1532369D01*
X1025626Y1532138D01*
X1024011D01*
X1023434Y1532369D01*
X1023203Y1532715D01*
X1023088Y1533062D01*
Y1533523D01*
X1023203Y1534215D01*
X1024011Y1538254D01*
X1024126Y1538600D01*
Y1538831D01*
X1024011Y1539292D01*
X1024588Y1539408D01*
X1024934Y1539523D01*
X1025165Y1539408D01*
X1025280Y1539177D01*
Y1538831D01*
X1025049Y1538138D01*
X1024357Y1534331D01*
X1024242Y1533869D01*
Y1533523D01*
X1024357Y1533177D01*
X1024588Y1532946D01*
X1025049Y1532831D01*
X1025626D01*
X1026665Y1532946D01*
X1027588Y1533523D01*
X1028165Y1534215D01*
X1028395Y1535023D01*
X1028280Y1535715D01*
X1027934Y1536177D01*
X1027357Y1536523D01*
X1026434Y1536754D01*
X1025626Y1536638D01*
X1025165D01*
X1025395Y1537215D01*
X1025626Y1537446D01*
X1025972Y1537562D01*
X1026434Y1537677D01*
X1026780D01*
X1027357Y1538138D01*
X1027703Y1538485D01*
X1027934Y1538946D01*
X1028049Y1539408D01*
X1027934Y1539869D01*
X1027703Y1540215D01*
X1027242Y1540331D01*
X1026549Y1540446D01*
X1025280Y1540331D01*
X1024126Y1539869D01*
X1023088Y1539062D01*
X1022049Y1538023D01*
G37*
G74*
*
G75*
G36*
G01*
X1033711Y1523385D02*
X1033480Y1522808D01*
X1033249Y1522462D01*
X1032788Y1522231D01*
X1031980Y1522000D01*
X1029788Y1521769D01*
X1029095Y1521885D01*
X1028519Y1522115D01*
X1028172Y1522462D01*
X1028057Y1523038D01*
Y1523500D01*
X1028288Y1524308D01*
X1029326Y1529846D01*
X1029442Y1530308D01*
Y1530769D01*
X1029211Y1530885D01*
X1029788Y1531115D01*
X1030249Y1531231D01*
X1030480Y1531115D01*
X1030595Y1530769D01*
Y1530538D01*
X1030365Y1529846D01*
X1029442Y1524885D01*
X1029211Y1523962D01*
Y1523385D01*
X1029326Y1523038D01*
X1029557Y1522808D01*
X1030134Y1522692D01*
X1030826D01*
X1032211Y1522808D01*
X1033711Y1523385D01*
G37*
G74*
*
G75*
G36*
G01*
X1037280Y1536869D02*
Y1536638D01*
X1037165Y1535831D01*
X1037049Y1535138D01*
X1036703Y1534446D01*
X1036126Y1533754D01*
X1035549Y1533292D01*
X1034972Y1532946D01*
X1034280Y1532715D01*
X1033588Y1532600D01*
X1032434Y1532715D01*
X1031626Y1533292D01*
X1031165Y1534100D01*
X1030934Y1535138D01*
X1031049Y1535831D01*
X1031165Y1536408D01*
X1031511Y1536869D01*
X1031857Y1537446D01*
X1032088Y1537585D01*
Y1535023D01*
X1032203Y1534215D01*
X1032549Y1533638D01*
X1033126Y1533292D01*
X1033703Y1533177D01*
X1034165D01*
X1034626Y1533408D01*
X1035088Y1533754D01*
X1035434Y1534100D01*
X1035895Y1535254D01*
X1036126Y1536523D01*
X1036011Y1537331D01*
X1035088Y1537792D01*
X1034626D01*
X1033703Y1537562D01*
X1032895Y1536869D01*
X1032319Y1536062D01*
X1032088Y1535023D01*
Y1537585D01*
X1032434Y1537792D01*
X1032895Y1538138D01*
X1033472Y1538254D01*
X1034165Y1538369D01*
X1034511Y1538254D01*
X1034395Y1538715D01*
X1034626Y1539292D01*
X1035203Y1539177D01*
X1035895Y1538831D01*
X1036357Y1538369D01*
X1036819Y1537792D01*
X1037857Y1537446D01*
X1038780Y1537331D01*
X1039472Y1537446D01*
X1040280Y1537677D01*
X1040511Y1537331D01*
X1039588Y1536754D01*
X1038665Y1536638D01*
X1037972D01*
X1037280Y1536869D01*
G37*
G74*
*
G75*
G36*
G01*
X1039480Y1525462D02*
X1038672Y1524192D01*
X1037749Y1523038D01*
X1037288Y1522577D01*
X1036826Y1522231D01*
X1035903Y1522000D01*
X1035442Y1522115D01*
X1034980Y1522462D01*
X1034749Y1523154D01*
X1034634Y1523846D01*
X1034749Y1524769D01*
X1034865Y1525462D01*
X1035211Y1526269D01*
X1035672Y1526962D01*
X1035788Y1527077D01*
Y1523615D01*
X1036019Y1523269D01*
X1036480Y1523038D01*
X1037057Y1523269D01*
X1037634Y1523846D01*
X1038557Y1525000D01*
X1039595Y1526500D01*
Y1526615D01*
X1039826Y1526846D01*
X1038672Y1527308D01*
X1037865Y1527538D01*
X1037403Y1527423D01*
X1037057Y1527308D01*
X1036711Y1526962D01*
X1036365Y1526500D01*
X1035903Y1525462D01*
X1035788Y1524192D01*
Y1527077D01*
X1036249Y1527538D01*
X1036826Y1527885D01*
X1037519Y1528115D01*
X1038095Y1528231D01*
X1039019Y1528115D01*
X1039942Y1527654D01*
X1040288Y1528115D01*
X1041211Y1528231D01*
X1041326D01*
X1041095Y1527654D01*
X1040865Y1526962D01*
X1040749Y1526500D01*
X1040634Y1525577D01*
Y1524192D01*
X1040749Y1523731D01*
X1041211Y1523500D01*
X1041557D01*
X1041903Y1523731D01*
X1042826Y1524423D01*
X1043865Y1525577D01*
X1044903Y1526962D01*
X1045365Y1526615D01*
X1044211Y1525000D01*
X1042942Y1523615D01*
X1041788Y1522692D01*
X1041211Y1522577D01*
X1040749Y1522462D01*
X1040172Y1522577D01*
X1039826Y1522923D01*
X1039595Y1523500D01*
X1039480Y1524423D01*
Y1525462D01*
G37*
G74*
*
G75*
G36*
G01*
X1043049Y1534908D02*
X1043280Y1534446D01*
X1043165Y1534215D01*
X1043049Y1533869D01*
X1042703Y1533523D01*
X1042357Y1533292D01*
X1041434Y1532715D01*
X1040626Y1532600D01*
X1040049Y1532715D01*
X1039588Y1533177D01*
X1039242Y1533869D01*
X1039126Y1534677D01*
X1039242Y1535946D01*
X1039703Y1537677D01*
X1039934Y1538600D01*
X1038549D01*
X1038088Y1538485D01*
X1038434Y1538831D01*
X1038665Y1539177D01*
X1038895Y1539292D01*
X1040165D01*
X1040511Y1540331D01*
X1040857Y1540792D01*
X1041319Y1541023D01*
X1042011Y1541138D01*
X1042242D01*
X1041780Y1540331D01*
X1041319Y1539292D01*
X1045011D01*
X1045472Y1539523D01*
X1045357Y1539062D01*
X1045126Y1538715D01*
X1044780Y1538600D01*
X1041088D01*
X1040972Y1538369D01*
X1040626Y1537215D01*
X1040511Y1536292D01*
X1040280Y1535600D01*
Y1534908D01*
X1040395Y1534331D01*
X1040511Y1533985D01*
X1040857Y1533754D01*
X1041203Y1533638D01*
X1041780Y1533754D01*
X1042242Y1533985D01*
X1042819Y1534446D01*
X1043049Y1534908D01*
G37*
G74*
*
G75*
G36*
G01*
X1050088Y1536869D02*
Y1536638D01*
X1049972Y1535831D01*
X1049857Y1535138D01*
X1049511Y1534446D01*
X1048934Y1533754D01*
X1048357Y1533292D01*
X1047780Y1532946D01*
X1047088Y1532715D01*
X1046395Y1532600D01*
X1045242Y1532715D01*
X1044434Y1533292D01*
X1043972Y1534100D01*
X1043742Y1535138D01*
X1043857Y1535831D01*
X1043972Y1536408D01*
X1044319Y1536869D01*
X1044665Y1537446D01*
X1044895Y1537585D01*
Y1535023D01*
X1045011Y1534215D01*
X1045357Y1533638D01*
X1045934Y1533292D01*
X1046511Y1533177D01*
X1046972D01*
X1047434Y1533408D01*
X1047895Y1533754D01*
X1048242Y1534100D01*
X1048703Y1535254D01*
X1048934Y1536523D01*
X1048819Y1537331D01*
X1047895Y1537792D01*
X1047434D01*
X1046511Y1537562D01*
X1045703Y1536869D01*
X1045126Y1536062D01*
X1044895Y1535023D01*
Y1537585D01*
X1045242Y1537792D01*
X1045703Y1538138D01*
X1046280Y1538254D01*
X1046972Y1538369D01*
X1047319Y1538254D01*
X1047203Y1538715D01*
X1047434Y1539292D01*
X1048011Y1539177D01*
X1048703Y1538831D01*
X1049165Y1538369D01*
X1049626Y1537792D01*
X1050665Y1537446D01*
X1051588Y1537331D01*
X1052280Y1537446D01*
X1053088Y1537677D01*
X1053319Y1537331D01*
X1052395Y1536754D01*
X1051472Y1536638D01*
X1050780D01*
X1050088Y1536869D01*
G37*
G74*
*
G75*
G36*
G01*
X1049749Y1526038D02*
X1049865Y1525462D01*
X1049749Y1524769D01*
X1049634Y1524192D01*
X1049288Y1523615D01*
X1048826Y1523038D01*
X1048365Y1522577D01*
X1047788Y1522231D01*
X1047095Y1522115D01*
X1046519Y1522000D01*
X1045595Y1522115D01*
X1044788Y1522577D01*
X1044326Y1523269D01*
X1044211Y1524077D01*
X1044326Y1524885D01*
X1044442Y1525923D01*
X1045480Y1530654D01*
X1045019D01*
X1044442Y1530769D01*
X1044095Y1531000D01*
X1043865Y1531346D01*
X1043749Y1531923D01*
X1044211Y1531692D01*
X1044903Y1531577D01*
X1045711Y1531692D01*
X1046749Y1531923D01*
X1045480Y1525346D01*
X1045365Y1524077D01*
X1045480Y1523500D01*
X1045711Y1523038D01*
X1046172Y1522692D01*
X1046634Y1522577D01*
X1047442Y1522808D01*
X1048134Y1523385D01*
X1048595Y1524308D01*
X1048711Y1525346D01*
X1048480Y1526385D01*
X1047903Y1526731D01*
X1047442Y1526962D01*
X1047095Y1527423D01*
X1046980Y1527769D01*
X1047095Y1528231D01*
X1047903Y1528115D01*
X1048480Y1527885D01*
X1049057Y1527423D01*
X1049519Y1526962D01*
X1050211Y1526731D01*
X1051019Y1526615D01*
X1051826Y1526731D01*
X1052749Y1527077D01*
X1052980Y1526615D01*
X1051942Y1526154D01*
X1050788Y1525923D01*
X1049749Y1526038D01*
G37*
G74*
*
G75*
G36*
G01*
X1054826Y1523962D02*
X1055057Y1523154D01*
X1054826Y1522346D01*
X1054365Y1521654D01*
X1053557Y1521192D01*
X1052634Y1521077D01*
X1052057Y1521192D01*
X1051711Y1521308D01*
X1051365Y1521654D01*
X1051249Y1522115D01*
X1051365Y1522462D01*
X1051826Y1522923D01*
X1052172Y1523154D01*
Y1522115D01*
X1052288Y1521769D01*
X1052865Y1521654D01*
X1053211Y1521769D01*
X1053557Y1522000D01*
X1053788Y1522346D01*
X1053903Y1522808D01*
Y1523500D01*
X1053095Y1523038D01*
X1052634Y1522692D01*
X1052288Y1522346D01*
X1052172Y1522115D01*
Y1523154D01*
X1052519Y1523385D01*
X1053557Y1523962D01*
X1053095Y1524769D01*
X1052519Y1525923D01*
X1052288Y1526846D01*
X1052403Y1527308D01*
X1052634Y1527769D01*
X1052980Y1528231D01*
X1053557Y1528577D01*
X1054134Y1528231D01*
X1054365Y1527769D01*
Y1527538D01*
X1053903Y1526846D01*
X1053442Y1526615D01*
X1054019Y1525462D01*
X1054595Y1524538D01*
X1055519Y1525115D01*
X1056095Y1525577D01*
X1056788Y1526154D01*
X1057480Y1527077D01*
X1057942Y1526731D01*
X1056557Y1525231D01*
X1054826Y1523962D01*
G37*
G74*
*
G75*
G36*
G01*
X1053665Y1534677D02*
X1054126Y1535715D01*
X1054588Y1536523D01*
X1055049Y1537215D01*
X1055511Y1537792D01*
X1056319Y1538600D01*
X1056780Y1538715D01*
X1057126Y1538831D01*
X1057472Y1538715D01*
X1057703Y1538600D01*
X1057819Y1538254D01*
Y1537562D01*
X1057703Y1537215D01*
Y1536638D01*
X1057588Y1536062D01*
X1057242Y1534446D01*
X1058280Y1536177D01*
X1059319Y1537562D01*
X1059780Y1538138D01*
X1060242Y1538485D01*
X1060703Y1538715D01*
X1061165Y1538831D01*
X1061511Y1538715D01*
X1061742Y1538600D01*
X1061972Y1538254D01*
Y1537331D01*
X1061742Y1536292D01*
X1061511Y1535369D01*
X1061395Y1534792D01*
Y1534331D01*
X1061511Y1533754D01*
X1061857Y1533638D01*
X1062203D01*
X1062434Y1533869D01*
X1062895Y1534215D01*
X1063242Y1534562D01*
X1063703Y1535138D01*
X1064165Y1535831D01*
X1064626Y1536638D01*
X1065203Y1537562D01*
X1065665Y1537331D01*
X1065088Y1536177D01*
Y1534215D01*
X1065319Y1533869D01*
X1065780Y1533638D01*
X1066357Y1533869D01*
X1066934Y1534446D01*
X1067857Y1535600D01*
X1068895Y1537100D01*
Y1537215D01*
X1069126Y1537446D01*
X1067972Y1537908D01*
X1067165Y1538138D01*
X1066703Y1538023D01*
X1066357Y1537908D01*
X1066011Y1537562D01*
X1065665Y1537100D01*
X1065203Y1536062D01*
X1065088Y1534792D01*
Y1536177D01*
X1064511Y1535254D01*
X1063934Y1534446D01*
X1063357Y1533754D01*
X1062895Y1533292D01*
X1062319Y1532946D01*
X1061857Y1532715D01*
X1061395Y1532600D01*
X1060934Y1532715D01*
X1060588Y1532946D01*
X1060357Y1533408D01*
X1060242Y1534100D01*
X1060357Y1534792D01*
X1060472Y1535715D01*
X1060703Y1536408D01*
X1060819Y1537100D01*
Y1537562D01*
X1060588Y1537677D01*
X1060242Y1537562D01*
X1059780Y1537100D01*
X1059088Y1536292D01*
X1058395Y1535254D01*
X1057819Y1534331D01*
X1057357Y1533638D01*
X1057126Y1533062D01*
X1057011Y1532831D01*
Y1532715D01*
X1056780Y1532485D01*
X1056434D01*
X1055972Y1532600D01*
X1055857Y1532946D01*
Y1533292D01*
X1056088Y1533869D01*
X1056203Y1534562D01*
X1056549Y1536292D01*
Y1536754D01*
X1056665Y1537100D01*
Y1537331D01*
X1056549Y1537562D01*
X1056434Y1537677D01*
X1056088Y1537562D01*
X1055626Y1537100D01*
X1055165Y1536408D01*
X1054242Y1534562D01*
X1053780Y1533754D01*
X1053665Y1533292D01*
X1053549Y1532946D01*
X1053665Y1532715D01*
X1052972Y1532600D01*
X1052511Y1532715D01*
X1052395Y1533177D01*
Y1533638D01*
X1052511Y1534100D01*
Y1534792D01*
X1052626Y1536062D01*
X1052742Y1537215D01*
X1052511Y1538138D01*
X1053088Y1538254D01*
X1053434Y1538369D01*
X1053780Y1538254D01*
X1053895Y1537792D01*
Y1536869D01*
X1053780Y1536292D01*
X1053665Y1534677D01*
G37*
G74*
*
G75*
G36*
G01*
X1068780Y1536062D02*
X1067972Y1534792D01*
X1067049Y1533638D01*
X1066588Y1533177D01*
X1066126Y1532831D01*
X1065203Y1532600D01*
X1064742Y1532715D01*
X1064280Y1533062D01*
X1064049Y1533754D01*
X1063934Y1534446D01*
X1064049Y1535369D01*
X1064165Y1536062D01*
X1064511Y1536869D01*
X1064972Y1537562D01*
X1065549Y1538138D01*
X1066126Y1538485D01*
X1066819Y1538715D01*
X1067395Y1538831D01*
X1068319Y1538715D01*
X1069242Y1538254D01*
X1069588Y1538715D01*
X1070511Y1538831D01*
X1070626D01*
X1070395Y1538254D01*
X1070165Y1537562D01*
X1070049Y1537100D01*
X1069934Y1536177D01*
Y1534792D01*
X1070049Y1534331D01*
X1070511Y1534100D01*
X1070857D01*
X1071203Y1534331D01*
X1072126Y1535023D01*
X1073165Y1536177D01*
X1074203Y1537562D01*
X1074665Y1537215D01*
X1073511Y1535600D01*
X1072242Y1534215D01*
X1071088Y1533292D01*
X1070511Y1533177D01*
X1070049Y1533062D01*
X1069472Y1533177D01*
X1069126Y1533523D01*
X1068895Y1534100D01*
X1068780Y1535023D01*
Y1536062D01*
G37*
G74*
*
G75*
G36*
G01*
X1077319Y1534908D02*
X1077549Y1534446D01*
X1077434Y1534215D01*
X1077319Y1533869D01*
X1076972Y1533523D01*
X1076626Y1533292D01*
X1075703Y1532715D01*
X1074895Y1532600D01*
X1074319Y1532715D01*
X1073857Y1533177D01*
X1073511Y1533869D01*
X1073395Y1534677D01*
X1073511Y1535946D01*
X1073972Y1537677D01*
X1074203Y1538600D01*
X1072819D01*
X1072357Y1538485D01*
X1072703Y1538831D01*
X1072934Y1539177D01*
X1073165Y1539292D01*
X1074434D01*
X1074780Y1540331D01*
X1075126Y1540792D01*
X1075588Y1541023D01*
X1076280Y1541138D01*
X1076511D01*
X1076049Y1540331D01*
X1075588Y1539292D01*
X1079280D01*
X1079742Y1539523D01*
X1079626Y1539062D01*
X1079395Y1538715D01*
X1079049Y1538600D01*
X1075357D01*
X1075242Y1538369D01*
X1074895Y1537215D01*
X1074780Y1536292D01*
X1074549Y1535600D01*
Y1534908D01*
X1074665Y1534331D01*
X1074780Y1533985D01*
X1075126Y1533754D01*
X1075472Y1533638D01*
X1076049Y1533754D01*
X1076511Y1533985D01*
X1077088Y1534446D01*
X1077319Y1534908D01*
G37*
G74*
*
G75*
G36*
G01*
X1084357Y1536869D02*
Y1536638D01*
X1084242Y1535831D01*
X1084126Y1535138D01*
X1083780Y1534446D01*
X1083203Y1533754D01*
X1082626Y1533292D01*
X1082049Y1532946D01*
X1081357Y1532715D01*
X1080665Y1532600D01*
X1079511Y1532715D01*
X1078703Y1533292D01*
X1078242Y1534100D01*
X1078011Y1535138D01*
X1078126Y1535831D01*
X1078242Y1536408D01*
X1078588Y1536869D01*
X1078934Y1537446D01*
X1079165Y1537585D01*
Y1535023D01*
X1079280Y1534215D01*
X1079626Y1533638D01*
X1080203Y1533292D01*
X1080780Y1533177D01*
X1081242D01*
X1081703Y1533408D01*
X1082165Y1533754D01*
X1082511Y1534100D01*
X1082972Y1535254D01*
X1083203Y1536523D01*
X1083088Y1537331D01*
X1082165Y1537792D01*
X1081703D01*
X1080780Y1537562D01*
X1079972Y1536869D01*
X1079395Y1536062D01*
X1079165Y1535023D01*
Y1537585D01*
X1079511Y1537792D01*
X1079972Y1538138D01*
X1080549Y1538254D01*
X1081242Y1538369D01*
X1081588Y1538254D01*
X1081472Y1538715D01*
X1081703Y1539292D01*
X1082280Y1539177D01*
X1082972Y1538831D01*
X1083434Y1538369D01*
X1083895Y1537792D01*
X1084934Y1537446D01*
X1085857Y1537331D01*
X1086549Y1537446D01*
X1087357Y1537677D01*
X1087588Y1537331D01*
X1086665Y1536754D01*
X1085742Y1536638D01*
X1085049D01*
X1084357Y1536869D01*
G37*
G74*
*
G75*
G36*
G01*
X1087934Y1534677D02*
X1088395Y1535600D01*
X1088972Y1536408D01*
X1089434Y1537215D01*
X1089895Y1537792D01*
X1090242Y1538254D01*
X1090703Y1538600D01*
X1091165Y1538715D01*
X1091511Y1538831D01*
X1092088Y1538715D01*
X1092434Y1538254D01*
X1092665Y1537446D01*
X1092780Y1536408D01*
Y1534677D01*
X1092895Y1534100D01*
X1093126Y1533754D01*
X1093357Y1533638D01*
X1093819Y1533869D01*
X1094511Y1534331D01*
X1094857Y1534908D01*
X1095319Y1535485D01*
X1095780Y1536408D01*
X1096472Y1537446D01*
X1096934Y1537100D01*
X1096357Y1536062D01*
X1095780Y1535138D01*
X1095203Y1534331D01*
X1094742Y1533754D01*
X1093819Y1532831D01*
X1092895Y1532600D01*
X1092319Y1532715D01*
X1091972Y1533292D01*
X1091742Y1533638D01*
Y1534215D01*
X1091626Y1534908D01*
Y1536869D01*
X1091511Y1537446D01*
X1091395Y1537677D01*
X1091165Y1537792D01*
X1090703Y1537562D01*
X1090126Y1537100D01*
X1089549Y1536177D01*
X1088742Y1534908D01*
X1087934Y1533292D01*
X1087819Y1532831D01*
X1087934Y1532600D01*
X1087242D01*
X1086780Y1532715D01*
X1086665Y1533177D01*
Y1533638D01*
X1086780Y1534100D01*
Y1534792D01*
X1086895Y1535946D01*
X1087011Y1536638D01*
Y1537100D01*
X1086895Y1537677D01*
X1086780Y1538023D01*
X1087126Y1538254D01*
X1087703Y1538369D01*
X1088049Y1538254D01*
X1088165Y1537677D01*
Y1537215D01*
X1088049Y1536523D01*
Y1536177D01*
X1087934Y1534677D01*
G37*
G74*
*
*
G04 PC Custom Flashes*
G04 Layer Name 09051-00121-A.pcb - flashes*
%LPD*%
*
*
G04 PC Circuitry*
G04 Layer Name 09051-00121-A.pcb - circuitry*
%LPD*%
*
G54D10*
G01X1013211Y1909900D02*
G75*
G03X1013211I-10000J0D01*
G01X1208211D02*
G03X1208211I-10000J0D01*
G01X1013211Y2007500D02*
G03X1013211I-10000J0D01*
G01X1208211D02*
G03X1208211I-10000J0D01*
G01X1013211Y1539900D02*
G03X1013211I-10000J0D01*
G01X1208211D02*
G03X1208211I-10000J0D01*
G01X1013211Y1390300D02*
G03X1013211I-10000J0D01*
G01X1208211D02*
G03X1208211I-10000J0D01*
G01X1123111Y1408581D02*
Y1405300D01*
X1124474*
X1125497Y1408581D02*
Y1405300D01*
Y1408581D02*
X1126974D01*
X1125497Y1407019D02*
X1126406D01*
X1125497Y1405300D02*
X1126974D01*
X1127997Y1408581D02*
Y1405300D01*
Y1408581D02*
X1128793D01*
X1129134Y1408425*
X1129361Y1408113*
X1129361D02*
X1129474Y1407800D01*
X1129588Y1407331*
Y1406550*
X1129474Y1406081*
X1129361Y1405769*
X1129134Y1405456*
X1128793Y1405300*
X1127997*
X1131747Y1408581D02*
X1130611Y1406394D01*
X1132315*
X1131747Y1408581D02*
Y1405300D01*
X1023411Y1515381D02*
Y1512100D01*
Y1515381D02*
X1024434D01*
X1024774Y1515225*
X1024888Y1515069*
X1025002Y1514756*
Y1514444*
X1024888Y1514131*
X1024774Y1513975*
X1024434Y1513819*
X1023411*
X1024206D02*
X1025002Y1512100D01*
X1026252Y1515381D02*
X1027502D01*
X1026820Y1514131*
X1027161*
X1027388Y1513975*
X1027502Y1513819*
X1027615Y1513350*
Y1513038*
X1027615D02*
X1027502Y1512569D01*
X1027274Y1512256*
X1026934Y1512100*
X1026593*
X1026252Y1512256*
X1026138Y1512413*
X1026138D02*
X1026024Y1512725D01*
X1028638Y1514756D02*
X1028865Y1514913D01*
X1028865D02*
X1029206Y1515381D01*
Y1512100*
X1065802Y1515781D02*
X1064211Y1512500D01*
Y1515781D02*
X1065802D01*
X1064211Y1512500D02*
X1065802D01*
X1066824Y1515156D02*
X1067052Y1515313D01*
X1067052D02*
X1067393Y1515781D01*
Y1512500*
X1130111Y1995938D02*
Y1992000D01*
Y1995938D02*
X1131338D01*
X1131338D02*
X1131747Y1995750D01*
X1131884Y1995563*
X1131884D02*
X1132020Y1995188D01*
X1132020D02*
Y1994625D01*
X1131884Y1994250*
X1131747Y1994063*
X1131747D02*
X1131338Y1993875D01*
X1130111*
X1133247Y1995938D02*
Y1992000D01*
X1134474Y1995938D02*
X1135565Y1992000D01*
X1136656Y1995938D02*
X1135565Y1992000D01*
X1138702Y1995938D02*
X1138429Y1995750D01*
X1138156Y1995375*
X1138020Y1995000*
X1137884Y1994438*
X1137884D02*
Y1993500D01*
X1138020Y1992938*
X1138020D02*
X1138156Y1992563D01*
X1138156D02*
X1138429Y1992188D01*
X1138429D02*
X1138702Y1992000D01*
X1139247*
X1139520Y1992188*
X1139520D02*
X1139793Y1992563D01*
X1139793D02*
X1139929Y1992938D01*
X1139929D02*
X1140065Y1993500D01*
Y1994438*
X1140065D02*
X1139929Y1995000D01*
X1139793Y1995375*
X1139520Y1995750*
X1139247Y1995938*
X1139247D02*
X1138702D01*
X1142247D02*
Y1992000D01*
X1141293Y1995938D02*
X1143202D01*
X1157511D02*
Y1992000D01*
Y1995938D02*
X1158738D01*
X1158738D02*
X1159147Y1995750D01*
X1159284Y1995563*
X1159284D02*
X1159420Y1995188D01*
X1159420D02*
Y1994813D01*
X1159420D02*
X1159284Y1994438D01*
X1159284D02*
X1159147Y1994250D01*
X1158738Y1994063*
X1158738D02*
X1157511D01*
X1158465D02*
X1159420Y1992000D01*
X1161465Y1995938D02*
X1161193Y1995750D01*
X1160920Y1995375*
X1160784Y1995000*
X1160647Y1994438*
X1160647D02*
Y1993500D01*
X1160784Y1992938*
X1160784D02*
X1160920Y1992563D01*
X1160920D02*
X1161193Y1992188D01*
X1161193D02*
X1161465Y1992000D01*
X1162011*
X1162284Y1992188*
X1162284D02*
X1162556Y1992563D01*
X1162556D02*
X1162693Y1992938D01*
X1162693D02*
X1162829Y1993500D01*
Y1994438*
X1162829D02*
X1162693Y1995000D01*
X1162556Y1995375*
X1162284Y1995750*
X1162011Y1995938*
X1162011D02*
X1161465D01*
X1165011D02*
Y1992000D01*
X1164056Y1995938D02*
X1165965D01*
X1168284D02*
X1167193Y1992000D01*
X1168284Y1995938D02*
X1169374Y1992000D01*
X1167602Y1993313D02*
X1168965D01*
X1171556Y1995938D02*
Y1992000D01*
X1170602Y1995938D02*
X1172511D01*
X1173738D02*
Y1992000D01*
Y1995938D02*
X1175511D01*
X1173738Y1994063D02*
X1174829D01*
X1173738Y1992000D02*
X1175511D01*
X1191911Y1995938D02*
Y1992000D01*
Y1995938D02*
X1193684D01*
X1191911Y1994063D02*
X1193002D01*
X1191911Y1992000D02*
X1193684D01*
X1194911Y1995938D02*
Y1992000D01*
Y1995938D02*
X1196820Y1992000D01*
Y1995938D02*
Y1992000D01*
X1198047Y1995938D02*
Y1992000D01*
Y1995938D02*
X1199002D01*
X1199002D02*
X1199411Y1995750D01*
X1199684Y1995375*
X1199820Y1995000*
X1199956Y1994438*
X1199956D02*
Y1993500D01*
X1199820Y1992938*
X1199820D02*
X1199684Y1992563D01*
X1199684D02*
X1199411Y1992188D01*
X1199411D02*
X1199002Y1992000D01*
X1198047*
X1027002Y1995938D02*
X1025911Y1992000D01*
X1027002Y1995938D02*
X1028093Y1992000D01*
X1026320Y1993313D02*
X1027684D01*
X1029320Y1995938D02*
Y1992000D01*
Y1995938D02*
X1031229Y1992000D01*
Y1995938D02*
Y1992000D01*
X1034502Y1995000D02*
X1034365Y1995375D01*
X1034093Y1995750*
X1033820Y1995938*
X1033820D02*
X1033274D01*
X1033274D02*
X1033002Y1995750D01*
X1032729Y1995375*
X1032593Y1995000*
X1032456Y1994438*
X1032456D02*
Y1993500D01*
X1032593Y1992938*
X1032593D02*
X1032729Y1992563D01*
X1032729D02*
X1033002Y1992188D01*
X1033002D02*
X1033274Y1992000D01*
X1033820*
X1034093Y1992188*
X1034093D02*
X1034365Y1992563D01*
X1034365D02*
X1034502Y1992938D01*
X1034502D02*
Y1993500D01*
X1033820D02*
X1034502D01*
X1035729Y1995938D02*
Y1992000D01*
X1037365*
X1038593Y1995938D02*
Y1992000D01*
Y1995938D02*
X1040365D01*
X1038593Y1994063D02*
X1039684D01*
X1038593Y1992000D02*
X1040365D01*
X997411Y1995938D02*
Y1992000D01*
Y1995938D02*
X998638D01*
X998638D02*
X999047Y1995750D01*
X999184Y1995563*
X999184D02*
X999320Y1995188D01*
X999320D02*
Y1994813D01*
X999320D02*
X999184Y1994438D01*
X999184D02*
X999047Y1994250D01*
X998638Y1994063*
X997411D02*
X998638D01*
X998638D02*
X999047Y1993875D01*
X999184Y1993688*
X999184D02*
X999320Y1993313D01*
X999320D02*
Y1992750D01*
X999184Y1992375*
X999047Y1992188*
X999047D02*
X998638Y1992000D01*
X997411*
X1001638Y1995938D02*
X1000547Y1992000D01*
X1001638Y1995938D02*
X1002729Y1992000D01*
X1000956Y1993313D02*
X1002320D01*
X1005865Y1995375D02*
X1005593Y1995750D01*
X1005184Y1995938*
X1005184D02*
X1004638D01*
X1004638D02*
X1004229Y1995750D01*
X1003956Y1995375*
Y1995000*
X1004093Y1994625*
X1004229Y1994438*
X1004229D02*
X1004502Y1994250D01*
X1005320Y1993875*
X1005593Y1993688*
X1005593D02*
X1005729Y1993500D01*
X1005865Y1993125*
Y1992563*
X1005865D02*
X1005593Y1992188D01*
X1005593D02*
X1005184Y1992000D01*
X1004638*
X1004229Y1992188*
X1004229D02*
X1003956Y1992563D01*
X1007093Y1995938D02*
Y1992000D01*
Y1995938D02*
X1008865D01*
X1007093Y1994063D02*
X1008184D01*
X1007093Y1992000D02*
X1008865D01*
X1035056Y1810906D02*
Y1806406D01*
X1034852Y1805563*
X1034852D02*
X1034647Y1805281D01*
X1034238Y1805000*
X1033829*
X1033420Y1805281*
X1033215Y1805563*
X1033215D02*
X1033011Y1806406D01*
Y1806969*
X1036897Y1810906D02*
X1039761Y1805000D01*
Y1810906D02*
X1036897Y1805000D01*
X1041602Y1809781D02*
X1042011Y1810063D01*
X1042011D02*
X1042624Y1810906D01*
Y1805000*
X1124311Y2015763D02*
Y2009200D01*
Y2015763D02*
X1126129Y2009200D01*
X1127947Y2015763D02*
X1126129Y2009200D01*
X1127947Y2015763D02*
Y2009200D01*
X1131811Y2015763D02*
X1129993Y2009200D01*
X1131811Y2015763D02*
X1133629Y2009200D01*
X1130674Y2011388D02*
X1132947D01*
X1135674Y2015763D02*
Y2009200D01*
X1137720Y2015763D02*
Y2009200D01*
Y2015763D02*
X1140902Y2009200D01*
Y2015763D02*
Y2009200D01*
X1148174Y2015763D02*
Y2009200D01*
Y2015763D02*
X1150220D01*
X1150220D02*
X1150902Y2015450D01*
X1151129Y2015138*
X1151129D02*
X1151356Y2014513D01*
X1151356D02*
Y2013575D01*
X1151129Y2012950*
X1150902Y2012638*
X1150902D02*
X1150220Y2012325D01*
X1148174*
X1154765Y2015763D02*
X1154311Y2015450D01*
X1153856Y2014825*
X1153629Y2014200*
X1153402Y2013263*
X1153402D02*
Y2011700D01*
X1153629Y2010763*
X1153629D02*
X1153856Y2010138D01*
X1153856D02*
X1154311Y2009513D01*
X1154311D02*
X1154765Y2009200D01*
X1155674*
X1156129Y2009513*
X1156129D02*
X1156584Y2010138D01*
X1156584D02*
X1156811Y2010763D01*
X1156811D02*
X1157038Y2011700D01*
Y2013263*
X1157038D02*
X1156811Y2014200D01*
X1156584Y2014825*
X1156129Y2015450*
X1155674Y2015763*
X1155674D02*
X1154765D01*
X1159084D02*
X1160220Y2009200D01*
X1161356Y2015763D02*
X1160220Y2009200D01*
X1161356Y2015763D02*
X1162493Y2009200D01*
X1163629Y2015763D02*
X1162493Y2009200D01*
X1165674Y2015763D02*
Y2009200D01*
Y2015763D02*
X1168629D01*
X1165674Y2012638D02*
X1167493D01*
X1165674Y2009200D02*
X1168629D01*
X1170674Y2015763D02*
Y2009200D01*
Y2015763D02*
X1172720D01*
X1172720D02*
X1173402Y2015450D01*
X1173629Y2015138*
X1173629D02*
X1173856Y2014513D01*
X1173856D02*
Y2013888D01*
X1173856D02*
X1173629Y2013263D01*
X1173629D02*
X1173402Y2012950D01*
X1172720Y2012638*
X1172720D02*
X1170674D01*
X1172265D02*
X1173856Y2009200D01*
X1159356Y1810906D02*
Y1806406D01*
X1159152Y1805563*
X1159152D02*
X1158947Y1805281D01*
X1158538Y1805000*
X1158129*
X1157720Y1805281*
X1157515Y1805563*
X1157515D02*
X1157311Y1806406D01*
Y1806969*
X1161197Y1810906D02*
X1164061Y1805000D01*
Y1810906D02*
X1161197Y1805000D01*
X1166106Y1809500D02*
Y1809781D01*
X1166311Y1810344*
X1166515Y1810625*
X1166924Y1810906*
X1167743*
X1168152Y1810625*
X1168356Y1810344*
X1168561Y1809781*
Y1809219*
X1168356Y1808656*
X1167947Y1807813*
X1167947D02*
X1165902Y1805000D01*
X1168765*
X1019574Y1551063D02*
X1018893Y1550750D01*
X1018438Y1549813*
X1018438D02*
X1018211Y1548250D01*
Y1547313*
X1018211D02*
X1018438Y1545750D01*
X1018893Y1544813*
X1018893D02*
X1019574Y1544500D01*
X1020029*
X1020711Y1544813*
X1020711D02*
X1021165Y1545750D01*
X1021393Y1547313*
X1021393D02*
Y1548250D01*
X1021165Y1549813*
X1021165D02*
X1020711Y1550750D01*
X1020029Y1551063*
X1020029D02*
X1019574D01*
X1024802D02*
X1024120Y1550750D01*
X1023665Y1549813*
X1023665D02*
X1023438Y1548250D01*
Y1547313*
X1023438D02*
X1023665Y1545750D01*
X1024120Y1544813*
X1024120D02*
X1024802Y1544500D01*
X1025256*
X1025938Y1544813*
X1025938D02*
X1026393Y1545750D01*
X1026620Y1547313*
X1026620D02*
Y1548250D01*
X1026393Y1549813*
X1026393D02*
X1025938Y1550750D01*
X1025256Y1551063*
X1025256D02*
X1024802D01*
X1030029D02*
X1029347Y1550750D01*
X1028893Y1549813*
X1028893D02*
X1028665Y1548250D01*
Y1547313*
X1028665D02*
X1028893Y1545750D01*
X1029347Y1544813*
X1029347D02*
X1030029Y1544500D01*
X1030484*
X1031165Y1544813*
X1031165D02*
X1031620Y1545750D01*
X1031847Y1547313*
X1031847D02*
Y1548250D01*
X1031620Y1549813*
X1031620D02*
X1031165Y1550750D01*
X1030484Y1551063*
X1030484D02*
X1030029D01*
X1035256D02*
X1034574Y1550750D01*
X1034120Y1549813*
X1034120D02*
X1033893Y1548250D01*
Y1547313*
X1033893D02*
X1034120Y1545750D01*
X1034574Y1544813*
X1034574D02*
X1035256Y1544500D01*
X1035711*
X1036393Y1544813*
X1036393D02*
X1036847Y1545750D01*
X1037074Y1547313*
X1037074D02*
Y1548250D01*
X1036847Y1549813*
X1036847D02*
X1036393Y1550750D01*
X1035711Y1551063*
X1035711D02*
X1035256D01*
X1039120Y1549813D02*
X1039574Y1550125D01*
X1040256Y1551063*
X1040256D02*
Y1544500D01*
X1042302Y1547313D02*
X1046393D01*
X1049802Y1551063D02*
X1049120Y1550750D01*
X1048665Y1549813*
X1048665D02*
X1048438Y1548250D01*
Y1547313*
X1048438D02*
X1048665Y1545750D01*
X1049120Y1544813*
X1049120D02*
X1049802Y1544500D01*
X1050256*
X1050938Y1544813*
X1050938D02*
X1051393Y1545750D01*
X1051620Y1547313*
X1051620D02*
Y1548250D01*
X1051393Y1549813*
X1051393D02*
X1050938Y1550750D01*
X1050256Y1551063*
X1050256D02*
X1049802D01*
X1055029D02*
X1054347Y1550750D01*
X1053893Y1549813*
X1053893D02*
X1053665Y1548250D01*
Y1547313*
X1053665D02*
X1053893Y1545750D01*
X1054347Y1544813*
X1054347D02*
X1055029Y1544500D01*
X1055484*
X1056165Y1544813*
X1056165D02*
X1056620Y1545750D01*
X1056847Y1547313*
X1056847D02*
Y1548250D01*
X1056620Y1549813*
X1056620D02*
X1056165Y1550750D01*
X1055484Y1551063*
X1055484D02*
X1055029D01*
X1058893Y1549813D02*
X1059347Y1550125D01*
X1060029Y1551063*
X1060029D02*
Y1544500D01*
X1065256Y1551063D02*
X1062984Y1544500D01*
X1062074Y1551063D02*
X1065256D01*
X1067529Y1549500D02*
Y1549813D01*
X1067529D02*
X1067756Y1550438D01*
X1067756D02*
X1067984Y1550750D01*
X1068438Y1551063*
X1068438D02*
X1069347D01*
X1069347D02*
X1069802Y1550750D01*
X1070029Y1550438*
X1070029D02*
X1070256Y1549813D01*
X1070256D02*
Y1549188D01*
X1070256D02*
X1070029Y1548563D01*
X1070029D02*
X1069574Y1547625D01*
X1067302Y1544500*
X1070484*
X1072529Y1547313D02*
X1076620D01*
X1080484Y1551063D02*
X1078665Y1544500D01*
X1080484Y1551063D02*
X1082302Y1544500D01*
X1079347Y1546688D02*
X1081620D01*
X1091556Y1549500D02*
X1091193Y1550000D01*
X1090647Y1550250*
X1089920*
X1089374Y1550000*
X1089011Y1549500*
Y1549000*
X1089193Y1548500*
X1089374Y1548250*
X1089738Y1548000*
X1090829Y1547500*
X1091193Y1547250*
X1091374Y1547000*
X1091556Y1546500*
Y1545750*
X1091193Y1545250*
X1090647Y1545000*
X1089920*
X1089374Y1545250*
X1089011Y1545750*
X1093193Y1550250D02*
Y1545000D01*
Y1550250D02*
X1095738Y1545000D01*
Y1550250D02*
Y1545000D01*
G54D11*
X1012227Y1644293D02*
Y1805710D01*
X1014195*
Y1644293*
X1012227*
X1187227D02*
Y1805710D01*
X1189195*
Y1644293*
X1187227*
G54D14*
X1076266Y1934026D02*
Y1924156D01*
X1073510Y1921400*
X1060912*
X1058156Y1924156*
Y1934026*
X1076266Y1949774D02*
Y1962400D01*
X1058156*
Y1949774*
X1019404Y1834064D02*
Y1856898D01*
X985939*
Y1834064*
X1019404*
Y1873864D02*
Y1896698D01*
X985939*
Y1873864*
X1019404*
X1081915Y1478000D02*
X1081802Y1478313D01*
X1081802D02*
X1081574Y1478625D01*
X1081347Y1478781*
X1080893*
X1080665Y1478625*
X1080438Y1478313*
X1080438D02*
X1080324Y1478000D01*
X1080211Y1477531*
Y1476750*
X1080324Y1476281*
X1080438Y1475969*
X1080665Y1475656*
X1080893Y1475500*
X1081347*
X1081574Y1475656*
X1081802Y1475969*
X1081915Y1476281*
X1083052Y1478000D02*
Y1478156D01*
X1083165Y1478469*
X1083279Y1478625*
X1083506Y1478781*
X1083961*
X1084188Y1478625*
X1084302Y1478469*
X1084415Y1478156*
Y1477844*
X1084302Y1477531*
X1084074Y1477063*
X1084074D02*
X1082938Y1475500D01*
X1084529*
X1086915Y1478313D02*
X1086802Y1478625D01*
X1086461Y1478781*
X1086234*
X1085893Y1478625*
X1085665Y1478156*
X1085552Y1477375*
Y1476594*
X1085665Y1475969*
X1085893Y1475656*
X1086234Y1475500*
X1086347*
X1086688Y1475656*
X1086915Y1475969*
X1087029Y1476438*
X1087029D02*
Y1476594D01*
X1086915Y1477063*
X1086915D02*
X1086688Y1477375D01*
X1086347Y1477531*
X1086234*
X1085893Y1477375*
X1085665Y1477063*
X1085665D02*
X1085552Y1476594D01*
X1062915Y1427000D02*
X1062802Y1427313D01*
X1062802D02*
X1062574Y1427625D01*
X1062347Y1427781*
X1061893*
X1061665Y1427625*
X1061438Y1427313*
X1061438D02*
X1061324Y1427000D01*
X1061211Y1426531*
Y1425750*
X1061324Y1425281*
X1061438Y1424969*
X1061665Y1424656*
X1061893Y1424500*
X1062347*
X1062574Y1424656*
X1062802Y1424969*
X1062915Y1425281*
X1064165Y1427781D02*
X1065415D01*
X1064734Y1426531*
X1065074*
X1065302Y1426375*
X1065415Y1426219*
X1065529Y1425750*
Y1425438*
X1065529D02*
X1065415Y1424969D01*
X1065188Y1424656*
X1064847Y1424500*
X1064506*
X1064165Y1424656*
X1064052Y1424813*
X1064052D02*
X1063938Y1425125D01*
X1066552Y1427156D02*
X1066779Y1427313D01*
X1066779D02*
X1067120Y1427781D01*
Y1424500*
X1116915Y1427000D02*
X1116802Y1427313D01*
X1116802D02*
X1116574Y1427625D01*
X1116347Y1427781*
X1115893*
X1115665Y1427625*
X1115438Y1427313*
X1115438D02*
X1115324Y1427000D01*
X1115211Y1426531*
Y1425750*
X1115324Y1425281*
X1115438Y1424969*
X1115665Y1424656*
X1115893Y1424500*
X1116347*
X1116574Y1424656*
X1116802Y1424969*
X1116915Y1425281*
X1118165Y1427781D02*
X1119415D01*
X1118734Y1426531*
X1119074*
X1119302Y1426375*
X1119415Y1426219*
X1119529Y1425750*
Y1425438*
X1119529D02*
X1119415Y1424969D01*
X1119188Y1424656*
X1118847Y1424500*
X1118506*
X1118165Y1424656*
X1118052Y1424813*
X1118052D02*
X1117938Y1425125D01*
X1121915Y1427313D02*
X1121802Y1427625D01*
X1121461Y1427781*
X1121234*
X1120893Y1427625*
X1120665Y1427156*
X1120552Y1426375*
Y1425594*
X1120665Y1424969*
X1120893Y1424656*
X1121234Y1424500*
X1121347*
X1121688Y1424656*
X1121915Y1424969*
X1122029Y1425438*
X1122029D02*
Y1425594D01*
X1121915Y1426063*
X1121915D02*
X1121688Y1426375D01*
X1121347Y1426531*
X1121234*
X1120893Y1426375*
X1120665Y1426063*
X1120665D02*
X1120552Y1425594D01*
X1171215Y1426800D02*
X1171102Y1427113D01*
X1171102D02*
X1170874Y1427425D01*
X1170647Y1427581*
X1170193*
X1169965Y1427425*
X1169738Y1427113*
X1169738D02*
X1169624Y1426800D01*
X1169511Y1426331*
Y1425550*
X1169624Y1425081*
X1169738Y1424769*
X1169965Y1424456*
X1170193Y1424300*
X1170647*
X1170874Y1424456*
X1171102Y1424769*
X1171215Y1425081*
X1173374Y1427581D02*
X1172238Y1425394D01*
X1173943*
X1173374Y1427581D02*
Y1424300D01*
X1174965Y1426956D02*
X1175193Y1427113D01*
X1175193D02*
X1175534Y1427581D01*
Y1424300*
X1170915Y1478000D02*
X1170802Y1478313D01*
X1170802D02*
X1170574Y1478625D01*
X1170347Y1478781*
X1169893*
X1169665Y1478625*
X1169438Y1478313*
X1169438D02*
X1169324Y1478000D01*
X1169211Y1477531*
Y1476750*
X1169324Y1476281*
X1169438Y1475969*
X1169665Y1475656*
X1169893Y1475500*
X1170347*
X1170574Y1475656*
X1170802Y1475969*
X1170915Y1476281*
X1173074Y1478781D02*
X1171938Y1476594D01*
X1173643*
X1173074Y1478781D02*
Y1475500D01*
X1176029Y1478313D02*
X1175915Y1478625D01*
X1175574Y1478781*
X1175347*
X1175006Y1478625*
X1174779Y1478156*
X1174665Y1477375*
Y1476594*
X1174779Y1475969*
X1175006Y1475656*
X1175347Y1475500*
X1175461*
X1175802Y1475656*
X1176029Y1475969*
X1176143Y1476438*
X1176143D02*
Y1476594D01*
X1176029Y1477063*
X1176029D02*
X1175802Y1477375D01*
X1175461Y1477531*
X1175347*
X1175006Y1477375*
X1174779Y1477063*
X1174779D02*
X1174665Y1476594D01*
X993029Y1928250D02*
Y1924250D01*
X992847Y1923500*
X992665Y1923250*
X992302Y1923000*
X991938*
X991574Y1923250*
X991393Y1923500*
X991211Y1924250*
Y1924750*
X994665Y1927250D02*
X995029Y1927500D01*
X995574Y1928250*
Y1923000*
X1073102Y1384094D02*
Y1380594D01*
X1072943Y1379938*
X1072943D02*
X1072784Y1379719D01*
X1072465Y1379500*
X1072147*
X1071829Y1379719*
X1071670Y1379938*
X1071670D02*
X1071511Y1380594D01*
Y1381031*
X1074534Y1383219D02*
X1074852Y1383438D01*
X1074852D02*
X1075329Y1384094D01*
Y1379500*
X1077715Y1384094D02*
X1077238Y1383875D01*
X1076920Y1383219*
X1076761Y1382125*
Y1381469*
X1076920Y1380375*
X1077238Y1379719*
X1077715Y1379500*
X1078034*
X1078511Y1379719*
X1078829Y1380375*
X1078988Y1381469*
Y1382125*
X1078829Y1383219*
X1078511Y1383875*
X1078034Y1384094*
X1077715*
X1125902Y1383494D02*
Y1379994D01*
X1125743Y1379338*
X1125743D02*
X1125584Y1379119D01*
X1125265Y1378900*
X1124947*
X1124629Y1379119*
X1124470Y1379338*
X1124470D02*
X1124311Y1379994D01*
Y1380431*
X1127334Y1382619D02*
X1127652Y1382838D01*
X1127652D02*
X1128129Y1383494D01*
Y1378900*
X1129561Y1382619D02*
X1129879Y1382838D01*
X1129879D02*
X1130356Y1383494D01*
Y1378900*
X1203517Y1463691D02*
X1207017D01*
X1207673Y1463532*
X1207892Y1463373*
X1208111Y1463055*
Y1462736*
X1207892Y1462418*
X1207673Y1462259*
X1207017Y1462100*
X1206580*
X1204392Y1465123D02*
X1204173Y1465441D01*
X1203517Y1465918*
X1208111*
X1204611Y1467509D02*
X1204392D01*
X1203955Y1467668*
X1203736Y1467827*
X1203517Y1468145*
Y1468782*
X1203736Y1469100*
X1203955Y1469259*
X1204392Y1469418*
X1204830*
X1205267Y1469259*
X1205923Y1468941*
X1208111Y1467350*
Y1469577*
X1022029Y1928250D02*
Y1924250D01*
X1021847Y1923500*
X1021665Y1923250*
X1021302Y1923000*
X1020938*
X1020574Y1923250*
X1020393Y1923500*
X1020211Y1924250*
Y1924750*
X1023847Y1927000D02*
Y1927250D01*
X1024029Y1927750*
X1024211Y1928000*
X1024574Y1928250*
X1025302*
X1025665Y1928000*
X1025847Y1927750*
X1026029Y1927250*
Y1926750*
X1025847Y1926250*
X1025484Y1925500*
X1023665Y1923000*
X1026211*
X1128529Y1928250D02*
Y1924250D01*
X1128347Y1923500*
X1128165Y1923250*
X1127802Y1923000*
X1127438*
X1127074Y1923250*
X1126893Y1923500*
X1126711Y1924250*
Y1924750*
X1131984Y1928250D02*
X1130165Y1924750D01*
X1132893*
X1131984Y1928250D02*
Y1923000D01*
X1157629Y1928250D02*
Y1924250D01*
X1157447Y1923500*
X1157265Y1923250*
X1156902Y1923000*
X1156538*
X1156174Y1923250*
X1155993Y1923500*
X1155811Y1924250*
Y1924750*
X1161629Y1928250D02*
X1159811D01*
X1159629Y1926000*
X1159811Y1926250*
X1160356Y1926500*
X1160902*
X1161447Y1926250*
X1161811Y1925750*
X1161993Y1925000*
X1161811Y1924500*
X1161629Y1923750*
X1161265Y1923250*
X1160720Y1923000*
X1160174*
X1159629Y1923250*
X1159447Y1923500*
X1159265Y1924000*
X1186629Y1928250D02*
Y1924250D01*
X1186447Y1923500*
X1186265Y1923250*
X1185902Y1923000*
X1185538*
X1185174Y1923250*
X1184993Y1923500*
X1184811Y1924250*
Y1924750*
X1190447Y1927500D02*
X1190265Y1928000D01*
X1189720Y1928250*
X1189356*
X1188811Y1928000*
X1188447Y1927250*
X1188265Y1926000*
Y1924750*
X1188447Y1923750*
X1188811Y1923250*
X1189356Y1923000*
X1189538*
X1190084Y1923250*
X1190447Y1923750*
X1190629Y1924500*
Y1924750*
X1190447Y1925500*
X1190084Y1926000*
X1189538Y1926250*
X1189356*
X1188811Y1926000*
X1188447Y1925500*
X1188265Y1924750*
X996505Y1467609D02*
X993005D01*
X992348Y1467768*
X992130Y1467927*
X991911Y1468245*
Y1468564*
X992130Y1468882*
X992348Y1469041*
X993005Y1469200*
X993442*
X996505Y1465382D02*
X996286Y1465859D01*
X995848Y1466018*
X995411*
X994973Y1465859*
X994755Y1465541*
X994536Y1464905*
X994317Y1464427*
X993880Y1464109*
X993442Y1463950*
X992786*
X992348Y1464109*
X992130Y1464268*
X991911Y1464745*
Y1465382*
X992130Y1465859*
X992348Y1466018*
X992786Y1466177*
X993442*
X993880Y1466018*
X994317Y1465700*
X994536Y1465223*
X994755Y1464586*
X994973Y1464268*
X995411Y1464109*
X995848*
X996286Y1464268*
X996505Y1464745*
Y1465382*
X1021802Y1384094D02*
Y1380594D01*
X1021643Y1379938*
X1021643D02*
X1021484Y1379719D01*
X1021165Y1379500*
X1020847*
X1020529Y1379719*
X1020370Y1379938*
X1020370D02*
X1020211Y1380594D01*
Y1381031*
X1025302Y1382563D02*
X1025143Y1381906D01*
X1024824Y1381469*
X1024347Y1381250*
X1024188*
X1023711Y1381469*
X1023393Y1381906*
X1023234Y1382563*
X1023234D02*
Y1382781D01*
X1023393Y1383438*
X1023393D02*
X1023711Y1383875D01*
X1024188Y1384094*
X1024347*
X1024824Y1383875*
X1025143Y1383438*
X1025143D02*
X1025302Y1382563D01*
X1025302D02*
Y1381469D01*
X1025143Y1380375*
X1024824Y1379719*
X1024347Y1379500*
X1024029*
X1023552Y1379719*
X1023393Y1380156*
X1000711Y1526281D02*
Y1523000D01*
X1002074*
X1003097Y1526281D02*
Y1523000D01*
Y1526281D02*
X1004574D01*
X1003097Y1524719D02*
X1004006D01*
X1003097Y1523000D02*
X1004574D01*
X1005597Y1526281D02*
Y1523000D01*
Y1526281D02*
X1006393D01*
X1006734Y1526125*
X1006961Y1525812*
X1006961D02*
X1007074Y1525500D01*
X1007188Y1525031*
Y1524250*
X1007074Y1523781*
X1006961Y1523469*
X1006734Y1523156*
X1006393Y1523000*
X1005597*
X1008211Y1525656D02*
X1008438Y1525812D01*
X1008438D02*
X1008779Y1526281D01*
Y1523000*
X1014611Y1404581D02*
Y1401300D01*
X1015974*
X1016997Y1404581D02*
Y1401300D01*
Y1404581D02*
X1018474D01*
X1016997Y1403019D02*
X1017906D01*
X1016997Y1401300D02*
X1018474D01*
X1019497Y1404581D02*
Y1401300D01*
Y1404581D02*
X1020293D01*
X1020634Y1404425*
X1020861Y1404112*
X1020861D02*
X1020974Y1403800D01*
X1021088Y1403331*
Y1402550*
X1020974Y1402081*
X1020861Y1401769*
X1020634Y1401456*
X1020293Y1401300*
X1019497*
X1022224Y1403800D02*
Y1403956D01*
X1022338Y1404269*
X1022452Y1404425*
X1022679Y1404581*
X1023134*
X1023361Y1404425*
X1023474Y1404269*
X1023588Y1403956*
Y1403644*
X1023474Y1403331*
X1023247Y1402862*
X1023247D02*
X1022111Y1401300D01*
X1023702*
X1069511Y1407981D02*
Y1404700D01*
X1070874*
X1071897Y1407981D02*
Y1404700D01*
Y1407981D02*
X1073374D01*
X1071897Y1406419D02*
X1072806D01*
X1071897Y1404700D02*
X1073374D01*
X1074397Y1407981D02*
Y1404700D01*
Y1407981D02*
X1075193D01*
X1075534Y1407825*
X1075761Y1407512*
X1075761D02*
X1075874Y1407200D01*
X1075988Y1406731*
Y1405950*
X1075874Y1405481*
X1075761Y1405169*
X1075534Y1404856*
X1075193Y1404700*
X1074397*
X1077238Y1407981D02*
X1078488D01*
X1077806Y1406731*
X1078147*
X1078374Y1406575*
X1078488Y1406419*
X1078602Y1405950*
Y1405637*
X1078602D02*
X1078488Y1405169D01*
X1078261Y1404856*
X1077920Y1404700*
X1077579*
X1077238Y1404856*
X1077124Y1405012*
X1077124D02*
X1077011Y1405325D01*
X1185130Y1515200D02*
X1188411D01*
Y1516564*
X1185130Y1517586D02*
X1188411D01*
X1185130D02*
Y1519064D01*
X1186692Y1517586D02*
Y1518495D01*
X1188411Y1517586D02*
Y1519064D01*
X1185130Y1520086D02*
X1188411D01*
X1185130D02*
Y1520882D01*
X1185286Y1521223*
X1185598Y1521450*
X1185911Y1521564*
X1186380Y1521677*
X1187161*
X1187630Y1521564*
X1187942Y1521450*
X1188255Y1521223*
X1188411Y1520882*
Y1520086*
X1185130Y1524177D02*
Y1523041D01*
X1186536Y1522927*
X1186380Y1523041*
X1186223Y1523382*
Y1523723*
X1186380Y1524064*
X1186692Y1524291*
X1187161Y1524405*
X1187473Y1524291*
X1187942Y1524177*
X1188255Y1523950*
X1188411Y1523609*
Y1523268*
X1188255Y1522927*
X1188098Y1522814*
X1187786Y1522700*
X1029111Y1429281D02*
Y1426000D01*
Y1429281D02*
X1030134D01*
X1030474Y1429125*
X1030588Y1428969*
X1030702Y1428656*
Y1428344*
X1030588Y1428031*
X1030474Y1427875*
X1030134Y1427719*
X1029111*
X1029906D02*
X1030702Y1426000D01*
X1032861Y1429281D02*
X1031724Y1427094D01*
X1033429*
X1032861Y1429281D02*
Y1426000D01*
X1034565Y1428500D02*
Y1428656D01*
X1034679Y1428969*
X1034793Y1429125*
X1035020Y1429281*
X1035474*
X1035702Y1429125*
X1035815Y1428969*
X1035929Y1428656*
Y1428344*
X1035815Y1428031*
X1035588Y1427563*
X1035588D02*
X1034452Y1426000D01*
X1036043*
X1091511Y1429281D02*
Y1426000D01*
Y1429281D02*
X1092534D01*
X1092874Y1429125*
X1092988Y1428969*
X1093102Y1428656*
Y1428344*
X1092988Y1428031*
X1092874Y1427875*
X1092534Y1427719*
X1091511*
X1092306D02*
X1093102Y1426000D01*
X1095602Y1429281D02*
X1094465D01*
X1094352Y1427875*
X1094465Y1428031*
X1094806Y1428188*
X1094806D02*
X1095147D01*
X1095147D02*
X1095488Y1428031D01*
X1095715Y1427719*
X1095829Y1427250*
X1095715Y1426938*
X1095715D02*
X1095602Y1426469D01*
X1095374Y1426156*
X1095034Y1426000*
X1094693*
X1094352Y1426156*
X1094238Y1426313*
X1094238D02*
X1094124Y1426625D01*
X1097079Y1429281D02*
X1098329D01*
X1097647Y1428031*
X1097988*
X1098215Y1427875*
X1098329Y1427719*
X1098443Y1427250*
Y1426938*
X1098443D02*
X1098329Y1426469D01*
X1098102Y1426156*
X1097761Y1426000*
X1097420*
X1097079Y1426156*
X1096965Y1426313*
X1096965D02*
X1096852Y1426625D01*
X1150911Y1429281D02*
Y1426000D01*
Y1429281D02*
X1151934D01*
X1152274Y1429125*
X1152388Y1428969*
X1152502Y1428656*
Y1428344*
X1152388Y1428031*
X1152274Y1427875*
X1151934Y1427719*
X1150911*
X1151706D02*
X1152502Y1426000D01*
X1154888Y1428813D02*
X1154774Y1429125D01*
X1154434Y1429281*
X1154206*
X1153865Y1429125*
X1153638Y1428656*
X1153524Y1427875*
Y1427094*
X1153638Y1426469*
X1153865Y1426156*
X1154206Y1426000*
X1154320*
X1154661Y1426156*
X1154888Y1426469*
X1155002Y1426938*
X1155002D02*
Y1427094D01*
X1154888Y1427563*
X1154888D02*
X1154661Y1427875D01*
X1154320Y1428031*
X1154206*
X1153865Y1427875*
X1153638Y1427563*
X1153638D02*
X1153524Y1427094D01*
X1157161Y1429281D02*
X1156024Y1427094D01*
X1157729*
X1157161Y1429281D02*
Y1426000D01*
X1113011Y1515381D02*
Y1512100D01*
Y1515381D02*
X1114034D01*
X1114374Y1515225*
X1114488Y1515069*
X1114602Y1514756*
Y1514444*
X1114488Y1514131*
X1114374Y1513975*
X1114034Y1513819*
X1113011*
X1113806D02*
X1114602Y1512100D01*
X1117215Y1515381D02*
X1116079Y1512100D01*
X1115624Y1515381D02*
X1117215D01*
X1119715D02*
X1118579D01*
X1118465Y1513975*
X1118579Y1514131*
X1118920Y1514288*
X1118920D02*
X1119261D01*
X1119261D02*
X1119602Y1514131D01*
X1119829Y1513819*
X1119943Y1513350*
X1119829Y1513038*
X1119829D02*
X1119715Y1512569D01*
X1119488Y1512256*
X1119147Y1512100*
X1118806*
X1118465Y1512256*
X1118352Y1512413*
X1118352D02*
X1118238Y1512725D01*
X1048802Y1468281D02*
X1047211Y1465000D01*
Y1468281D02*
X1048802D01*
X1047211Y1465000D02*
X1048802D01*
X1049938Y1467500D02*
Y1467656D01*
X1050052Y1467969*
X1050165Y1468125*
X1050393Y1468281*
X1050847*
X1051074Y1468125*
X1051188Y1467969*
X1051302Y1467656*
Y1467344*
X1051188Y1467031*
X1050961Y1466563*
X1050961D02*
X1049824Y1465000D01*
X1051415*
X1102802Y1468281D02*
X1101211Y1465000D01*
Y1468281D02*
X1102802D01*
X1101211Y1465000D02*
X1102802D01*
X1104052Y1468281D02*
X1105302D01*
X1104620Y1467031*
X1104961*
X1105188Y1466875*
X1105302Y1466719*
X1105415Y1466250*
Y1465938*
X1105415D02*
X1105302Y1465469D01*
X1105074Y1465156*
X1104734Y1465000*
X1104393*
X1104052Y1465156*
X1103938Y1465313*
X1103938D02*
X1103824Y1465625D01*
X1157102Y1468081D02*
X1155511Y1464800D01*
Y1468081D02*
X1157102D01*
X1155511Y1464800D02*
X1157102D01*
X1159261Y1468081D02*
X1158124Y1465894D01*
X1159829*
X1159261Y1468081D02*
Y1464800D01*
X1155402Y1515581D02*
X1153811Y1512300D01*
Y1515581D02*
X1155402D01*
X1153811Y1512300D02*
X1155402D01*
X1157902Y1515581D02*
X1156765D01*
X1156652Y1514175*
X1156765Y1514331*
X1157106Y1514488*
X1157106D02*
X1157447D01*
X1157447D02*
X1157788Y1514331D01*
X1158015Y1514019*
X1158129Y1513550*
X1158015Y1513238*
X1158015D02*
X1157902Y1512769D01*
X1157674Y1512456*
X1157334Y1512300*
X1156993*
X1156652Y1512456*
X1156538Y1512613*
X1156538D02*
X1156424Y1512925D01*
X1129320Y1895038D02*
X1127411Y1891100D01*
Y1895038D02*
X1129320D01*
X1127411Y1891100D02*
X1129320D01*
X1132184Y1894475D02*
X1132047Y1894850D01*
X1131638Y1895038*
X1131638D02*
X1131365D01*
X1131365D02*
X1130956Y1894850D01*
X1130684Y1894288*
X1130684D02*
X1130547Y1893350D01*
Y1892413*
X1130547D02*
X1130684Y1891663D01*
X1130684D02*
X1130956Y1891288D01*
X1130956D02*
X1131365Y1891100D01*
X1131502*
X1131911Y1891288*
X1131911D02*
X1132184Y1891663D01*
X1132184D02*
X1132320Y1892225D01*
Y1892413*
X1132320D02*
X1132184Y1892975D01*
X1131911Y1893350*
X1131502Y1893538*
X1131502D02*
X1131365D01*
X1131365D02*
X1130956Y1893350D01*
X1130684Y1892975*
X1130547Y1892413*
X1067520Y1895738D02*
X1065611Y1891800D01*
Y1895738D02*
X1067520D01*
X1065611Y1891800D02*
X1067520D01*
X1070656Y1895738D02*
X1069293Y1891800D01*
X1068747Y1895738D02*
X1070656D01*
X1144611Y1686556D02*
Y1683800D01*
Y1686556D02*
X1145634D01*
X1145974Y1686425*
X1146088Y1686294*
X1146202Y1686031*
Y1685769*
X1146088Y1685506*
X1145974Y1685375*
X1145634Y1685244*
X1144611*
X1145406D02*
X1146202Y1683800D01*
X1147338Y1685900D02*
Y1686031D01*
X1147452Y1686294*
X1147565Y1686425*
X1147793Y1686556*
X1148247*
X1148474Y1686425*
X1148588Y1686294*
X1148702Y1686031*
Y1685769*
X1148588Y1685506*
X1148361Y1685113*
X1148361D02*
X1147224Y1683800D01*
X1148815*
X1157315Y1681700D02*
X1157202Y1681963D01*
X1157202D02*
X1156974Y1682225D01*
X1156747Y1682356*
X1156293*
X1156065Y1682225*
X1155838Y1681963*
X1155838D02*
X1155724Y1681700D01*
X1155611Y1681306*
Y1680650*
X1155724Y1680256*
X1155838Y1679994*
X1156065Y1679731*
X1156293Y1679600*
X1156747*
X1156974Y1679731*
X1157202Y1679994*
X1157315Y1680256*
X1158452Y1681700D02*
Y1681831D01*
X1158565Y1682094*
X1158679Y1682225*
X1158906Y1682356*
X1159361*
X1159588Y1682225*
X1159702Y1682094*
X1159815Y1681831*
Y1681569*
X1159702Y1681306*
X1159474Y1680913*
X1159474D02*
X1158338Y1679600D01*
X1159929*
X1132611Y1682356D02*
Y1679600D01*
Y1682356D02*
X1133634D01*
X1133974Y1682225*
X1134088Y1682094*
X1134202Y1681831*
Y1681569*
X1134088Y1681306*
X1133974Y1681175*
X1133634Y1681044*
X1132611*
X1133406D02*
X1134202Y1679600D01*
X1135224Y1681831D02*
X1135452Y1681963D01*
X1135452D02*
X1135793Y1682356D01*
Y1679600*
X1157315Y1691100D02*
X1157202Y1691363D01*
X1157202D02*
X1156974Y1691625D01*
X1156747Y1691756*
X1156293*
X1156065Y1691625*
X1155838Y1691363*
X1155838D02*
X1155724Y1691100D01*
X1155611Y1690706*
Y1690050*
X1155724Y1689656*
X1155838Y1689394*
X1156065Y1689131*
X1156293Y1689000*
X1156747*
X1156974Y1689131*
X1157202Y1689394*
X1157315Y1689656*
X1158338Y1691231D02*
X1158565Y1691363D01*
X1158565D02*
X1158906Y1691756D01*
Y1689000*
X1160497Y1691756D02*
X1160156Y1691625D01*
X1160043Y1691363*
X1160043D02*
Y1691100D01*
X1160156Y1690838*
X1160156D02*
X1160384Y1690706D01*
X1160838Y1690575*
X1161179Y1690444*
X1161406Y1690181*
X1161520Y1689919*
Y1689525*
X1161406Y1689263*
X1161406D02*
X1161293Y1689131D01*
X1160952Y1689000*
X1160497*
X1160156Y1689131*
X1160043Y1689263*
X1160043D02*
X1159929Y1689525D01*
Y1689919*
X1160043Y1690181*
X1160270Y1690444*
X1160611Y1690575*
X1161065Y1690706*
X1161293Y1690838*
X1161293D02*
X1161406Y1691100D01*
Y1691363*
X1161406D02*
X1161293Y1691625D01*
X1160952Y1691756*
X1160497*
X1157315Y1700600D02*
X1157202Y1700863D01*
X1157202D02*
X1156974Y1701125D01*
X1156747Y1701256*
X1156293*
X1156065Y1701125*
X1155838Y1700863*
X1155838D02*
X1155724Y1700600D01*
X1155611Y1700206*
Y1699550*
X1155724Y1699156*
X1155838Y1698894*
X1156065Y1698631*
X1156293Y1698500*
X1156747*
X1156974Y1698631*
X1157202Y1698894*
X1157315Y1699156*
X1158338Y1700731D02*
X1158565Y1700863D01*
X1158565D02*
X1158906Y1701256D01*
Y1698500*
X1159929Y1700731D02*
X1160156Y1700863D01*
X1160156D02*
X1160497Y1701256D01*
Y1698500*
X1157315Y1719500D02*
X1157202Y1719763D01*
X1157202D02*
X1156974Y1720025D01*
X1156747Y1720156*
X1156293*
X1156065Y1720025*
X1155838Y1719763*
X1155838D02*
X1155724Y1719500D01*
X1155611Y1719106*
Y1718450*
X1155724Y1718056*
X1155838Y1717794*
X1156065Y1717531*
X1156293Y1717400*
X1156747*
X1156974Y1717531*
X1157202Y1717794*
X1157315Y1718056*
X1158565Y1720156D02*
X1159815D01*
X1159134Y1719106*
X1159474*
X1159702Y1718975*
X1159815Y1718844*
X1159929Y1718450*
Y1718188*
X1159929D02*
X1159815Y1717794D01*
X1159588Y1717531*
X1159247Y1717400*
X1158906*
X1158565Y1717531*
X1158452Y1717663*
X1158452D02*
X1158338Y1717925D01*
X1157315Y1728950D02*
X1157202Y1729213D01*
X1157202D02*
X1156974Y1729475D01*
X1156747Y1729606*
X1156293*
X1156065Y1729475*
X1155838Y1729213*
X1155838D02*
X1155724Y1728950D01*
X1155611Y1728556*
Y1727900*
X1155724Y1727506*
X1155838Y1727244*
X1156065Y1726981*
X1156293Y1726850*
X1156747*
X1156974Y1726981*
X1157202Y1727244*
X1157315Y1727506*
X1158452Y1728950D02*
Y1729081D01*
X1158565Y1729344*
X1158679Y1729475*
X1158906Y1729606*
X1159361*
X1159588Y1729475*
X1159702Y1729344*
X1159815Y1729081*
Y1728819*
X1159702Y1728556*
X1159474Y1728163*
X1159474D02*
X1158338Y1726850D01*
X1159929*
X1161634Y1729606D02*
X1161293Y1729475D01*
X1161065Y1729081*
X1160952Y1728425*
Y1728031*
X1161065Y1727375*
X1161293Y1726981*
X1161634Y1726850*
X1161861*
X1162202Y1726981*
X1162429Y1727375*
X1162543Y1728031*
Y1728425*
X1162429Y1729081*
X1162202Y1729475*
X1161861Y1729606*
X1161634*
X1157315Y1738400D02*
X1157202Y1738663D01*
X1157202D02*
X1156974Y1738925D01*
X1156747Y1739056*
X1156293*
X1156065Y1738925*
X1155838Y1738663*
X1155838D02*
X1155724Y1738400D01*
X1155611Y1738006*
Y1737350*
X1155724Y1736956*
X1155838Y1736694*
X1156065Y1736431*
X1156293Y1736300*
X1156747*
X1156974Y1736431*
X1157202Y1736694*
X1157315Y1736956*
X1158338Y1738531D02*
X1158565Y1738663D01*
X1158565D02*
X1158906Y1739056D01*
Y1736300*
X1161065Y1739056D02*
X1159929Y1737219D01*
X1161634*
X1161065Y1739056D02*
Y1736300D01*
X1144611Y1743256D02*
Y1740500D01*
Y1743256D02*
X1145634D01*
X1145974Y1743125*
X1146088Y1742994*
X1146202Y1742731*
Y1742469*
X1146088Y1742206*
X1145974Y1742075*
X1145634Y1741944*
X1144611*
X1145406D02*
X1146202Y1740500D01*
X1147224Y1742731D02*
X1147452Y1742863D01*
X1147452D02*
X1147793Y1743256D01*
Y1740500*
X1150179Y1742863D02*
X1150065Y1743125D01*
X1149724Y1743256*
X1149497*
X1149156Y1743125*
X1148929Y1742731*
X1148815Y1742075*
Y1741419*
X1148929Y1740894*
X1149156Y1740631*
X1149497Y1740500*
X1149611*
X1149952Y1740631*
X1150179Y1740894*
X1150293Y1741288*
X1150293D02*
Y1741419D01*
X1150179Y1741813*
X1150179D02*
X1149952Y1742075D01*
X1149611Y1742206*
X1149497*
X1149156Y1742075*
X1148929Y1741813*
X1148929D02*
X1148815Y1741419D01*
X1132611Y1739056D02*
Y1736300D01*
Y1739056D02*
X1133634D01*
X1133974Y1738925*
X1134088Y1738794*
X1134202Y1738531*
Y1738269*
X1134088Y1738006*
X1133974Y1737875*
X1133634Y1737744*
X1132611*
X1133406D02*
X1134202Y1736300D01*
X1135224Y1738531D02*
X1135452Y1738663D01*
X1135452D02*
X1135793Y1739056D01*
Y1736300*
X1138293Y1739056D02*
X1137156D01*
X1137043Y1737875*
X1137156Y1738006*
X1137497Y1738138*
X1137497D02*
X1137838D01*
X1137838D02*
X1138179Y1738006D01*
X1138406Y1737744*
X1138520Y1737350*
X1138406Y1737088*
X1138406D02*
X1138293Y1736694D01*
X1138065Y1736431*
X1137724Y1736300*
X1137384*
X1137043Y1736431*
X1136929Y1736563*
X1136929D02*
X1136815Y1736825D01*
X1132611Y1729606D02*
Y1726850D01*
Y1729606D02*
X1133634D01*
X1133974Y1729475*
X1134088Y1729344*
X1134202Y1729081*
Y1728819*
X1134088Y1728556*
X1133974Y1728425*
X1133634Y1728294*
X1132611*
X1133406D02*
X1134202Y1726850D01*
X1135224Y1729081D02*
X1135452Y1729213D01*
X1135452D02*
X1135793Y1729606D01*
Y1726850*
X1138293Y1728688D02*
X1138179Y1728294D01*
X1137952Y1728031*
X1137611Y1727900*
X1137497*
X1137156Y1728031*
X1136929Y1728294*
X1136815Y1728688*
X1136815D02*
Y1728819D01*
X1136929Y1729213*
X1136929D02*
X1137156Y1729475D01*
X1137497Y1729606*
X1137611*
X1137952Y1729475*
X1138179Y1729213*
X1138179D02*
X1138293Y1728688D01*
X1138293D02*
Y1728031D01*
X1138179Y1727375*
X1137952Y1726981*
X1137611Y1726850*
X1137384*
X1137043Y1726981*
X1136929Y1727244*
X1144611Y1733806D02*
Y1731050D01*
Y1733806D02*
X1145634D01*
X1145974Y1733675*
X1146088Y1733544*
X1146202Y1733281*
Y1733019*
X1146088Y1732756*
X1145974Y1732625*
X1145634Y1732494*
X1144611*
X1145406D02*
X1146202Y1731050D01*
X1147338Y1733150D02*
Y1733281D01*
X1147452Y1733544*
X1147565Y1733675*
X1147793Y1733806*
X1148247*
X1148474Y1733675*
X1148588Y1733544*
X1148702Y1733281*
Y1733019*
X1148588Y1732756*
X1148361Y1732363*
X1148361D02*
X1147224Y1731050D01*
X1148815*
X1150520Y1733806D02*
X1150179Y1733675D01*
X1149952Y1733281*
X1149838Y1732625*
Y1732231*
X1149952Y1731575*
X1150179Y1731181*
X1150520Y1731050*
X1150747*
X1151088Y1731181*
X1151315Y1731575*
X1151429Y1732231*
Y1732625*
X1151315Y1733281*
X1151088Y1733675*
X1150747Y1733806*
X1150520*
X1144611Y1705456D02*
Y1702700D01*
Y1705456D02*
X1145634D01*
X1145974Y1705325*
X1146088Y1705194*
X1146202Y1704931*
Y1704669*
X1146088Y1704406*
X1145974Y1704275*
X1145634Y1704144*
X1144611*
X1145406D02*
X1146202Y1702700D01*
X1147224Y1704931D02*
X1147452Y1705063D01*
X1147452D02*
X1147793Y1705456D01*
Y1702700*
X1149952Y1705456D02*
X1148815Y1703619D01*
X1150520*
X1149952Y1705456D02*
Y1702700D01*
X1132611Y1701256D02*
Y1698500D01*
Y1701256D02*
X1133634D01*
X1133974Y1701125*
X1134088Y1700994*
X1134202Y1700731*
Y1700469*
X1134088Y1700206*
X1133974Y1700075*
X1133634Y1699944*
X1132611*
X1133406D02*
X1134202Y1698500D01*
X1135224Y1700731D02*
X1135452Y1700863D01*
X1135452D02*
X1135793Y1701256D01*
Y1698500*
X1136929Y1700600D02*
Y1700731D01*
X1137043Y1700994*
X1137156Y1701125*
X1137384Y1701256*
X1137838*
X1138065Y1701125*
X1138179Y1700994*
X1138293Y1700731*
Y1700469*
X1138179Y1700206*
X1137952Y1699813*
X1137952D02*
X1136815Y1698500D01*
X1138406*
X1144611Y1695956D02*
Y1693200D01*
Y1695956D02*
X1145634D01*
X1145974Y1695825*
X1146088Y1695694*
X1146202Y1695431*
Y1695169*
X1146088Y1694906*
X1145974Y1694775*
X1145634Y1694644*
X1144611*
X1145406D02*
X1146202Y1693200D01*
X1147224Y1695431D02*
X1147452Y1695563D01*
X1147452D02*
X1147793Y1695956D01*
Y1693200*
X1149384Y1695956D02*
X1149043Y1695825D01*
X1148929Y1695563*
X1148929D02*
Y1695300D01*
X1149043Y1695038*
X1149043D02*
X1149270Y1694906D01*
X1149724Y1694775*
X1150065Y1694644*
X1150293Y1694381*
X1150406Y1694119*
Y1693725*
X1150293Y1693463*
X1150293D02*
X1150179Y1693331D01*
X1149838Y1693200*
X1149384*
X1149043Y1693331*
X1148929Y1693463*
X1148929D02*
X1148815Y1693725D01*
Y1694119*
X1148929Y1694381*
X1149156Y1694644*
X1149497Y1694775*
X1149952Y1694906*
X1150179Y1695038*
X1150179D02*
X1150293Y1695300D01*
Y1695563*
X1150293D02*
X1150179Y1695825D01*
X1149838Y1695956*
X1149384*
X1132611Y1691756D02*
Y1689000D01*
Y1691756D02*
X1133634D01*
X1133974Y1691625*
X1134088Y1691494*
X1134202Y1691231*
Y1690969*
X1134088Y1690706*
X1133974Y1690575*
X1133634Y1690444*
X1132611*
X1133406D02*
X1134202Y1689000D01*
X1135224Y1691231D02*
X1135452Y1691363D01*
X1135452D02*
X1135793Y1691756D01*
Y1689000*
X1138406Y1691756D02*
X1137270Y1689000D01*
X1136815Y1691756D02*
X1138406D01*
X1082956Y1958800D02*
X1082820Y1959125D01*
X1082547Y1959450*
X1082274Y1959613*
X1082274D02*
X1081729D01*
X1081729D02*
X1081456Y1959450D01*
X1081184Y1959125*
X1081047Y1958800*
X1080911Y1958313*
X1080911D02*
Y1957500D01*
X1081047Y1957013*
X1081047D02*
X1081184Y1956688D01*
X1081184D02*
X1081456Y1956363D01*
X1081456D02*
X1081729Y1956200D01*
X1082274*
X1082547Y1956363*
X1082547D02*
X1082820Y1956688D01*
X1082820D02*
X1082956Y1957013D01*
X1085820Y1959125D02*
X1085684Y1959450D01*
X1085274Y1959613*
X1085274D02*
X1085002D01*
X1085002D02*
X1084593Y1959450D01*
X1084320Y1958963*
X1084320D02*
X1084184Y1958150D01*
Y1957338*
X1084184D02*
X1084320Y1956688D01*
X1084320D02*
X1084593Y1956363D01*
X1084593D02*
X1085002Y1956200D01*
X1085138*
X1085547Y1956363*
X1085547D02*
X1085820Y1956688D01*
X1085820D02*
X1085956Y1957175D01*
Y1957338*
X1085956D02*
X1085820Y1957825D01*
X1085547Y1958150*
X1085138Y1958313*
X1085138D02*
X1085002D01*
X1085002D02*
X1084593Y1958150D01*
X1084320Y1957825*
X1084184Y1957338*
X1088002Y1959613D02*
X1087593Y1959450D01*
X1087320Y1958963*
X1087320D02*
X1087184Y1958150D01*
Y1957663*
X1087184D02*
X1087320Y1956850D01*
X1087593Y1956363*
X1087593D02*
X1088002Y1956200D01*
X1088274*
X1088684Y1956363*
X1088684D02*
X1088956Y1956850D01*
X1089093Y1957663*
X1089093D02*
Y1958150D01*
X1088956Y1958963*
X1088956D02*
X1088684Y1959450D01*
X1088274Y1959613*
X1088274D02*
X1088002D01*
X1151356Y1851400D02*
X1151220Y1851775D01*
X1150947Y1852150*
X1150674Y1852338*
X1150674D02*
X1150129D01*
X1150129D02*
X1149856Y1852150D01*
X1149584Y1851775*
X1149447Y1851400*
X1149311Y1850838*
X1149311D02*
Y1849900D01*
X1149447Y1849338*
X1149447D02*
X1149584Y1848963D01*
X1149584D02*
X1149856Y1848588D01*
X1149856D02*
X1150129Y1848400D01*
X1150674*
X1150947Y1848588*
X1150947D02*
X1151220Y1848963D01*
X1151220D02*
X1151356Y1849338D01*
X1154356Y1852338D02*
X1152993D01*
X1152993D02*
X1152856Y1850650D01*
X1152993Y1850838*
X1152993D02*
X1153402Y1851025D01*
X1153811*
X1154220Y1850838*
X1154220D02*
X1154493Y1850463D01*
X1154493D02*
X1154629Y1849900D01*
X1154493Y1849525*
X1154356Y1848963*
X1154356D02*
X1154084Y1848588D01*
X1154084D02*
X1153674Y1848400D01*
X1153265*
X1152856Y1848588*
X1152856D02*
X1152720Y1848775D01*
X1152584Y1849150*
X1157220Y1852338D02*
X1155856Y1849713D01*
X1155856D02*
X1157902D01*
X1157220Y1852338D02*
Y1848400D01*
X1097256Y1859400D02*
X1097120Y1859775D01*
X1096847Y1860150*
X1096574Y1860338*
X1096574D02*
X1096029D01*
X1096029D02*
X1095756Y1860150D01*
X1095484Y1859775*
X1095347Y1859400*
X1095211Y1858838*
X1095211D02*
Y1857900D01*
X1095347Y1857338*
X1095347D02*
X1095484Y1856963D01*
X1095484D02*
X1095756Y1856588D01*
X1095756D02*
X1096029Y1856400D01*
X1096574*
X1096847Y1856588*
X1096847D02*
X1097120Y1856963D01*
X1097120D02*
X1097256Y1857338D01*
X1100120Y1859775D02*
X1099984Y1860150D01*
X1099574Y1860338*
X1099574D02*
X1099302D01*
X1099302D02*
X1098893Y1860150D01*
X1098620Y1859588*
X1098620D02*
X1098484Y1858650D01*
Y1857713*
X1098484D02*
X1098620Y1856963D01*
X1098620D02*
X1098893Y1856588D01*
X1098893D02*
X1099302Y1856400D01*
X1099438*
X1099847Y1856588*
X1099847D02*
X1100120Y1856963D01*
X1100120D02*
X1100256Y1857525D01*
Y1857713*
X1100256D02*
X1100120Y1858275D01*
X1099847Y1858650*
X1099438Y1858838*
X1099438D02*
X1099302D01*
X1099302D02*
X1098893Y1858650D01*
X1098620Y1858275*
X1098484Y1857713*
X1102847Y1860338D02*
X1101484Y1857713D01*
X1101484D02*
X1103529D01*
X1102847Y1860338D02*
Y1856400D01*
X1006711Y1433781D02*
Y1430500D01*
X1008074*
X1009097Y1433781D02*
Y1430500D01*
Y1433781D02*
X1010574D01*
X1009097Y1432219D02*
X1010006D01*
X1009097Y1430500D02*
X1010574D01*
X1011597Y1433781D02*
Y1430500D01*
Y1433781D02*
X1012393D01*
X1012734Y1433625*
X1012961Y1433313*
X1012961D02*
X1013074Y1433000D01*
X1013188Y1432531*
Y1431750*
X1013074Y1431281*
X1012961Y1430969*
X1012734Y1430656*
X1012393Y1430500*
X1011597*
X1015574Y1433313D02*
X1015461Y1433625D01*
X1015120Y1433781*
X1014893*
X1014552Y1433625*
X1014324Y1433156*
X1014211Y1432375*
Y1431594*
X1014324Y1430969*
X1014552Y1430656*
X1014893Y1430500*
X1015006*
X1015347Y1430656*
X1015574Y1430969*
X1015688Y1431438*
X1015688D02*
Y1431594D01*
X1015574Y1432063*
X1015574D02*
X1015347Y1432375D01*
X1015006Y1432531*
X1014893*
X1014552Y1432375*
X1014324Y1432063*
X1014324D02*
X1014211Y1431594D01*
X1006111Y1467781D02*
Y1464500D01*
X1007474*
X1008497Y1467781D02*
Y1464500D01*
Y1467781D02*
X1009974D01*
X1008497Y1466219D02*
X1009406D01*
X1008497Y1464500D02*
X1009974D01*
X1010997Y1467781D02*
Y1464500D01*
Y1467781D02*
X1011793D01*
X1012134Y1467625*
X1012361Y1467313*
X1012361D02*
X1012474Y1467000D01*
X1012588Y1466531*
Y1465750*
X1012474Y1465281*
X1012361Y1464969*
X1012134Y1464656*
X1011793Y1464500*
X1010997*
X1015202Y1467781D02*
X1014065Y1464500D01*
X1013611Y1467781D02*
X1015202D01*
X1111656Y1827500D02*
X1111520Y1827825D01*
X1111247Y1828150*
X1110974Y1828313*
X1110974D02*
X1110429D01*
X1110429D02*
X1110156Y1828150D01*
X1109884Y1827825*
X1109747Y1827500*
X1109611Y1827013*
X1109611D02*
Y1826200D01*
X1109747Y1825713*
X1109747D02*
X1109884Y1825388D01*
X1109884D02*
X1110156Y1825063D01*
X1110156D02*
X1110429Y1824900D01*
X1110974*
X1111247Y1825063*
X1111247D02*
X1111520Y1825388D01*
X1111520D02*
X1111656Y1825713D01*
X1114656Y1828313D02*
X1113293D01*
X1113293D02*
X1113156Y1826850D01*
X1113293Y1827013*
X1113293D02*
X1113702Y1827175D01*
X1114111*
X1114520Y1827013*
X1114520D02*
X1114793Y1826688D01*
X1114793D02*
X1114929Y1826200D01*
X1114793Y1825875*
X1114656Y1825388*
X1114656D02*
X1114384Y1825063D01*
X1114384D02*
X1113974Y1824900D01*
X1113565*
X1113156Y1825063*
X1113156D02*
X1113020Y1825225D01*
X1112884Y1825550*
X1117929Y1828313D02*
X1116565D01*
X1116565D02*
X1116429Y1826850D01*
X1116565Y1827013*
X1116565D02*
X1116974Y1827175D01*
X1117384*
X1117793Y1827013*
X1117793D02*
X1118065Y1826688D01*
X1118065D02*
X1118202Y1826200D01*
X1118065Y1825875*
X1117929Y1825388*
X1117929D02*
X1117656Y1825063D01*
X1117656D02*
X1117247Y1824900D01*
X1116838*
X1116429Y1825063*
X1116429D02*
X1116293Y1825225D01*
X1116156Y1825550*
X1045256Y1844500D02*
X1045120Y1844825D01*
X1044847Y1845150*
X1044574Y1845313*
X1044574D02*
X1044029D01*
X1044029D02*
X1043756Y1845150D01*
X1043484Y1844825*
X1043347Y1844500*
X1043211Y1844013*
X1043211D02*
Y1843200D01*
X1043347Y1842713*
X1043347D02*
X1043484Y1842388D01*
X1043484D02*
X1043756Y1842063D01*
X1043756D02*
X1044029Y1841900D01*
X1044574*
X1044847Y1842063*
X1044847D02*
X1045120Y1842388D01*
X1045120D02*
X1045256Y1842713D01*
X1048120Y1844825D02*
X1047984Y1845150D01*
X1047574Y1845313*
X1047574D02*
X1047302D01*
X1047302D02*
X1046893Y1845150D01*
X1046620Y1844663*
X1046620D02*
X1046484Y1843850D01*
Y1843038*
X1046484D02*
X1046620Y1842388D01*
X1046620D02*
X1046893Y1842063D01*
X1046893D02*
X1047302Y1841900D01*
X1047438*
X1047847Y1842063*
X1047847D02*
X1048120Y1842388D01*
X1048120D02*
X1048256Y1842875D01*
Y1843038*
X1048256D02*
X1048120Y1843525D01*
X1047847Y1843850*
X1047438Y1844013*
X1047438D02*
X1047302D01*
X1047302D02*
X1046893Y1843850D01*
X1046620Y1843525*
X1046484Y1843038*
X1051256Y1845313D02*
X1049893D01*
X1049893D02*
X1049756Y1843850D01*
X1049893Y1844013*
X1049893D02*
X1050302Y1844175D01*
X1050711*
X1051120Y1844013*
X1051120D02*
X1051393Y1843688D01*
X1051393D02*
X1051529Y1843200D01*
X1051393Y1842875*
X1051256Y1842388*
X1051256D02*
X1050984Y1842063D01*
X1050984D02*
X1050574Y1841900D01*
X1050165*
X1049756Y1842063*
X1049756D02*
X1049620Y1842225D01*
X1049484Y1842550*
X1151311Y1832538D02*
Y1828600D01*
X1152947*
X1154174Y1831788D02*
X1154447Y1831975D01*
X1154856Y1832538*
Y1828600*
X1092011Y1832338D02*
Y1828400D01*
X1093647*
X1095011Y1831400D02*
Y1831588D01*
X1095147Y1831963*
X1095284Y1832150*
X1095556Y1832338*
X1096102*
X1096374Y1832150*
X1096511Y1831963*
X1096647Y1831588*
Y1831213*
X1096511Y1830838*
X1096238Y1830275*
X1094874Y1828400*
X1096784*
X1117256Y1889600D02*
X1117120Y1889925D01*
X1116847Y1890250*
X1116574Y1890413*
X1116574D02*
X1116029D01*
X1116029D02*
X1115756Y1890250D01*
X1115484Y1889925*
X1115347Y1889600*
X1115211Y1889113*
X1115211D02*
Y1888300D01*
X1115347Y1887813*
X1115347D02*
X1115484Y1887488D01*
X1115484D02*
X1115756Y1887163D01*
X1115756D02*
X1116029Y1887000D01*
X1116574*
X1116847Y1887163*
X1116847D02*
X1117120Y1887488D01*
X1117120D02*
X1117256Y1887813D01*
X1120256Y1890413D02*
X1118893D01*
X1118893D02*
X1118756Y1888950D01*
X1118893Y1889113*
X1118893D02*
X1119302Y1889275D01*
X1119711*
X1120120Y1889113*
X1120120D02*
X1120393Y1888788D01*
X1120393D02*
X1120529Y1888300D01*
X1120393Y1887975*
X1120256Y1887488*
X1120256D02*
X1119984Y1887163D01*
X1119984D02*
X1119574Y1887000D01*
X1119165*
X1118756Y1887163*
X1118756D02*
X1118620Y1887325D01*
X1118484Y1887650*
X1121756Y1889763D02*
X1122029Y1889925D01*
X1122438Y1890413*
X1122438D02*
Y1887000D01*
X1164956Y1889600D02*
X1164820Y1889925D01*
X1164547Y1890250*
X1164274Y1890413*
X1164274D02*
X1163729D01*
X1163729D02*
X1163456Y1890250D01*
X1163184Y1889925*
X1163047Y1889600*
X1162911Y1889113*
X1162911D02*
Y1888300D01*
X1163047Y1887813*
X1163047D02*
X1163184Y1887488D01*
X1163184D02*
X1163456Y1887163D01*
X1163456D02*
X1163729Y1887000D01*
X1164274*
X1164547Y1887163*
X1164547D02*
X1164820Y1887488D01*
X1164820D02*
X1164956Y1887813D01*
X1167956Y1890413D02*
X1166593D01*
X1166593D02*
X1166456Y1888950D01*
X1166593Y1889113*
X1166593D02*
X1167002Y1889275D01*
X1167411*
X1167820Y1889113*
X1167820D02*
X1168093Y1888788D01*
X1168093D02*
X1168229Y1888300D01*
X1168093Y1887975*
X1167956Y1887488*
X1167956D02*
X1167684Y1887163D01*
X1167684D02*
X1167274Y1887000D01*
X1166865*
X1166456Y1887163*
X1166456D02*
X1166320Y1887325D01*
X1166184Y1887650*
X1169593Y1889600D02*
Y1889763D01*
X1169593D02*
X1169729Y1890088D01*
X1169729D02*
X1169865Y1890250D01*
X1170138Y1890413*
X1170138D02*
X1170684D01*
X1170684D02*
X1170956Y1890250D01*
X1171093Y1890088*
X1171093D02*
X1171229Y1889763D01*
X1171229D02*
Y1889438D01*
X1171229D02*
X1171093Y1889113D01*
X1171093D02*
X1170820Y1888625D01*
X1169456Y1887000*
X1171365*
X1146256Y1908400D02*
X1146120Y1908725D01*
X1145847Y1909050*
X1145574Y1909213*
X1145574D02*
X1145029D01*
X1145029D02*
X1144756Y1909050D01*
X1144484Y1908725*
X1144347Y1908400*
X1144211Y1907913*
X1144211D02*
Y1907100D01*
X1144347Y1906613*
X1144347D02*
X1144484Y1906288D01*
X1144484D02*
X1144756Y1905963D01*
X1144756D02*
X1145029Y1905800D01*
X1145574*
X1145847Y1905963*
X1145847D02*
X1146120Y1906288D01*
X1146120D02*
X1146256Y1906613D01*
X1149256Y1909213D02*
X1147893D01*
X1147893D02*
X1147756Y1907750D01*
X1147893Y1907913*
X1147893D02*
X1148302Y1908075D01*
X1148711*
X1149120Y1907913*
X1149120D02*
X1149393Y1907588D01*
X1149393D02*
X1149529Y1907100D01*
X1149393Y1906775*
X1149256Y1906288*
X1149256D02*
X1148984Y1905963D01*
X1148984D02*
X1148574Y1905800D01*
X1148165*
X1147756Y1905963*
X1147756D02*
X1147620Y1906125D01*
X1147484Y1906450*
X1152665Y1909213D02*
X1151302Y1905800D01*
X1150756Y1909213D02*
X1152665D01*
X1056956Y1888900D02*
X1056820Y1889225D01*
X1056547Y1889550*
X1056274Y1889713*
X1056274D02*
X1055729D01*
X1055729D02*
X1055456Y1889550D01*
X1055184Y1889225*
X1055047Y1888900*
X1054911Y1888413*
X1054911D02*
Y1887600D01*
X1055047Y1887113*
X1055047D02*
X1055184Y1886788D01*
X1055184D02*
X1055456Y1886463D01*
X1055456D02*
X1055729Y1886300D01*
X1056274*
X1056547Y1886463*
X1056547D02*
X1056820Y1886788D01*
X1056820D02*
X1056956Y1887113D01*
X1059820Y1889225D02*
X1059684Y1889550D01*
X1059274Y1889713*
X1059274D02*
X1059002D01*
X1059002D02*
X1058593Y1889550D01*
X1058320Y1889063*
X1058320D02*
X1058184Y1888250D01*
Y1887438*
X1058184D02*
X1058320Y1886788D01*
X1058320D02*
X1058593Y1886463D01*
X1058593D02*
X1059002Y1886300D01*
X1059138*
X1059547Y1886463*
X1059547D02*
X1059820Y1886788D01*
X1059820D02*
X1059956Y1887275D01*
Y1887438*
X1059956D02*
X1059820Y1887925D01*
X1059547Y1888250*
X1059138Y1888413*
X1059138D02*
X1059002D01*
X1059002D02*
X1058593Y1888250D01*
X1058320Y1887925*
X1058184Y1887438*
X1061184Y1889063D02*
X1061456Y1889225D01*
X1061865Y1889713*
X1061865D02*
Y1886300D01*
X1103056Y1896600D02*
X1102920Y1896925D01*
X1102647Y1897250*
X1102374Y1897413*
X1102374D02*
X1101829D01*
X1101829D02*
X1101556Y1897250D01*
X1101284Y1896925*
X1101147Y1896600*
X1101011Y1896113*
X1101011D02*
Y1895300D01*
X1101147Y1894813*
X1101147D02*
X1101284Y1894488D01*
X1101284D02*
X1101556Y1894163D01*
X1101556D02*
X1101829Y1894000D01*
X1102374*
X1102647Y1894163*
X1102647D02*
X1102920Y1894488D01*
X1102920D02*
X1103056Y1894813D01*
X1105920Y1896925D02*
X1105784Y1897250D01*
X1105374Y1897413*
X1105374D02*
X1105102D01*
X1105102D02*
X1104693Y1897250D01*
X1104420Y1896763*
X1104420D02*
X1104284Y1895950D01*
Y1895138*
X1104284D02*
X1104420Y1894488D01*
X1104420D02*
X1104693Y1894163D01*
X1104693D02*
X1105102Y1894000D01*
X1105238*
X1105647Y1894163*
X1105647D02*
X1105920Y1894488D01*
X1105920D02*
X1106056Y1894975D01*
Y1895138*
X1106056D02*
X1105920Y1895625D01*
X1105647Y1895950*
X1105238Y1896113*
X1105238D02*
X1105102D01*
X1105102D02*
X1104693Y1895950D01*
X1104420Y1895625*
X1104284Y1895138*
X1107420Y1896600D02*
Y1896763D01*
X1107420D02*
X1107556Y1897088D01*
X1107556D02*
X1107693Y1897250D01*
X1107965Y1897413*
X1107965D02*
X1108511D01*
X1108511D02*
X1108784Y1897250D01*
X1108920Y1897088*
X1108920D02*
X1109056Y1896763D01*
X1109056D02*
Y1896438D01*
X1109056D02*
X1108920Y1896113D01*
X1108920D02*
X1108647Y1895625D01*
X1107284Y1894000*
X1109193*
X1085056Y1907800D02*
X1084920Y1908125D01*
X1084647Y1908450*
X1084374Y1908613*
X1084374D02*
X1083829D01*
X1083829D02*
X1083556Y1908450D01*
X1083284Y1908125*
X1083147Y1907800*
X1083011Y1907313*
X1083011D02*
Y1906500D01*
X1083147Y1906013*
X1083147D02*
X1083284Y1905688D01*
X1083284D02*
X1083556Y1905363D01*
X1083556D02*
X1083829Y1905200D01*
X1084374*
X1084647Y1905363*
X1084647D02*
X1084920Y1905688D01*
X1084920D02*
X1085056Y1906013D01*
X1087920Y1908125D02*
X1087784Y1908450D01*
X1087374Y1908613*
X1087374D02*
X1087102D01*
X1087102D02*
X1086693Y1908450D01*
X1086420Y1907963*
X1086420D02*
X1086284Y1907150D01*
Y1906338*
X1086284D02*
X1086420Y1905688D01*
X1086420D02*
X1086693Y1905363D01*
X1086693D02*
X1087102Y1905200D01*
X1087238*
X1087647Y1905363*
X1087647D02*
X1087920Y1905688D01*
X1087920D02*
X1088056Y1906175D01*
Y1906338*
X1088056D02*
X1087920Y1906825D01*
X1087647Y1907150*
X1087238Y1907313*
X1087238D02*
X1087102D01*
X1087102D02*
X1086693Y1907150D01*
X1086420Y1906825*
X1086284Y1906338*
X1091193Y1908613D02*
X1089829Y1905200D01*
X1089284Y1908613D02*
X1091193D01*
X1150311Y1894913D02*
Y1891500D01*
Y1894913D02*
X1151538D01*
X1151538D02*
X1151947Y1894750D01*
X1152084Y1894588*
X1152084D02*
X1152220Y1894263D01*
X1152220D02*
Y1893938D01*
X1152220D02*
X1152084Y1893613D01*
X1152084D02*
X1151947Y1893450D01*
X1151538Y1893288*
X1151538D02*
X1150311D01*
X1151265D02*
X1152220Y1891500D01*
X1155356Y1894913D02*
X1153993Y1891500D01*
X1153447Y1894913D02*
X1155356D01*
X1157265D02*
X1156856Y1894750D01*
X1156720Y1894425*
Y1894100*
X1156856Y1893775*
X1157129Y1893613*
X1157129D02*
X1157674Y1893450D01*
X1158084Y1893288*
X1158084D02*
X1158356Y1892963D01*
X1158356D02*
X1158493Y1892638D01*
X1158493D02*
Y1892150D01*
X1158356Y1891825*
X1158220Y1891663*
X1158220D02*
X1157811Y1891500D01*
X1157265*
X1156856Y1891663*
X1156856D02*
X1156720Y1891825D01*
X1156584Y1892150*
Y1892638*
X1156584D02*
X1156720Y1892963D01*
X1156720D02*
X1156993Y1893288D01*
X1156993D02*
X1157402Y1893450D01*
X1157947Y1893613*
X1157947D02*
X1158220Y1893775D01*
X1158356Y1894100*
Y1894425*
X1158220Y1894750*
X1157811Y1894913*
X1157811D02*
X1157265D01*
X1086111Y1895112D02*
Y1891700D01*
Y1895112D02*
X1087338D01*
X1087338D02*
X1087747Y1894950D01*
X1087884Y1894787*
X1087884D02*
X1088020Y1894462D01*
X1088020D02*
Y1894137D01*
X1088020D02*
X1087884Y1893812D01*
X1087884D02*
X1087747Y1893650D01*
X1087338Y1893487*
X1087338D02*
X1086111D01*
X1087065D02*
X1088020Y1891700D01*
X1089929Y1895112D02*
X1089520Y1894950D01*
X1089384Y1894625*
Y1894300*
X1089520Y1893975*
X1089793Y1893812*
X1089793D02*
X1090338Y1893650D01*
X1090747Y1893487*
X1090747D02*
X1091020Y1893162D01*
X1091020D02*
X1091156Y1892837D01*
X1091156D02*
Y1892350D01*
X1091020Y1892025*
X1090884Y1891862*
X1090884D02*
X1090474Y1891700D01*
X1089929*
X1089520Y1891862*
X1089520D02*
X1089384Y1892025D01*
X1089247Y1892350*
Y1892837*
X1089247D02*
X1089384Y1893162D01*
X1089384D02*
X1089656Y1893487D01*
X1089656D02*
X1090065Y1893650D01*
X1090611Y1893812*
X1090611D02*
X1090884Y1893975D01*
X1091020Y1894300*
Y1894625*
X1090884Y1894950*
X1090474Y1895112*
X1090474D02*
X1089929D01*
X1094156D02*
X1092793D01*
X1092793D02*
X1092656Y1893650D01*
X1092793Y1893812*
X1092793D02*
X1093202Y1893975D01*
X1093611*
X1094020Y1893812*
X1094020D02*
X1094293Y1893487D01*
X1094293D02*
X1094429Y1893000D01*
X1094293Y1892675*
X1094156Y1892187*
X1094156D02*
X1093884Y1891862D01*
X1093884D02*
X1093474Y1891700D01*
X1093065*
X1092656Y1891862*
X1092656D02*
X1092520Y1892025D01*
X1092384Y1892350*
X1156915Y1760500D02*
X1156802Y1760813D01*
X1156802D02*
X1156574Y1761125D01*
X1156347Y1761281*
X1155893*
X1155665Y1761125*
X1155438Y1760813*
X1155438D02*
X1155324Y1760500D01*
X1155211Y1760031*
Y1759250*
X1155324Y1758781*
X1155438Y1758469*
X1155665Y1758156*
X1155893Y1758000*
X1156347*
X1156574Y1758156*
X1156802Y1758469*
X1156915Y1758781*
X1159529Y1761281D02*
X1158393Y1758000D01*
X1157938Y1761281D02*
X1159529D01*
X1160665Y1760500D02*
Y1760656D01*
X1160779Y1760969*
X1160893Y1761125*
X1161120Y1761281*
X1161574*
X1161802Y1761125*
X1161915Y1760969*
X1162029Y1760656*
Y1760344*
X1161915Y1760031*
X1161688Y1759563*
X1161688D02*
X1160552Y1758000D01*
X1162143*
X1156915Y1769900D02*
X1156802Y1770213D01*
X1156802D02*
X1156574Y1770525D01*
X1156347Y1770681*
X1155893*
X1155665Y1770525*
X1155438Y1770213*
X1155438D02*
X1155324Y1769900D01*
X1155211Y1769431*
Y1768650*
X1155324Y1768181*
X1155438Y1767869*
X1155665Y1767556*
X1155893Y1767400*
X1156347*
X1156574Y1767556*
X1156802Y1767869*
X1156915Y1768181*
X1159529Y1770681D02*
X1158393Y1767400D01*
X1157938Y1770681D02*
X1159529D01*
X1160779D02*
X1162029D01*
X1161347Y1769431*
X1161688*
X1161915Y1769275*
X1162029Y1769119*
X1162143Y1768650*
Y1768338*
X1162143D02*
X1162029Y1767869D01*
X1161802Y1767556*
X1161461Y1767400*
X1161120*
X1160779Y1767556*
X1160665Y1767713*
X1160665D02*
X1160552Y1768025D01*
X993211Y1586781D02*
Y1583500D01*
Y1586781D02*
X994234D01*
X994574Y1586625*
X994688Y1586469*
X994802Y1586156*
Y1585844*
X994688Y1585531*
X994574Y1585375*
X994234Y1585219*
X993211*
X994006D02*
X994802Y1583500D01*
X995824Y1586156D02*
X996052Y1586313D01*
X996052D02*
X996393Y1586781D01*
Y1583500*
X998097Y1586781D02*
X997756Y1586625D01*
X997529Y1586156*
X997415Y1585375*
Y1584906*
X997529Y1584125*
X997756Y1583656*
X998097Y1583500*
X998324*
X998665Y1583656*
X998893Y1584125*
X999006Y1584906*
Y1585375*
X998893Y1586156*
X998665Y1586625*
X998324Y1586781*
X998097*
X1000711D02*
X1000370Y1586625D01*
X1000143Y1586156*
X1000029Y1585375*
Y1584906*
X1000143Y1584125*
X1000370Y1583656*
X1000711Y1583500*
X1000938*
X1001279Y1583656*
X1001506Y1584125*
X1001620Y1584906*
Y1585375*
X1001506Y1586156*
X1001279Y1586625*
X1000938Y1586781*
X1000711*
X993211Y1594681D02*
Y1591400D01*
Y1594681D02*
X994234D01*
X994574Y1594525*
X994688Y1594369*
X994802Y1594056*
Y1593744*
X994688Y1593431*
X994574Y1593275*
X994234Y1593119*
X993211*
X994006D02*
X994802Y1591400D01*
X995824Y1594056D02*
X996052Y1594213D01*
X996052D02*
X996393Y1594681D01*
Y1591400*
X998097Y1594681D02*
X997756Y1594525D01*
X997529Y1594056*
X997415Y1593275*
Y1592806*
X997529Y1592025*
X997756Y1591556*
X998097Y1591400*
X998324*
X998665Y1591556*
X998893Y1592025*
X999006Y1592806*
Y1593275*
X998893Y1594056*
X998665Y1594525*
X998324Y1594681*
X998097*
X1000029Y1594056D02*
X1000256Y1594213D01*
X1000256D02*
X1000597Y1594681D01*
Y1591400*
X993211Y1602581D02*
Y1599300D01*
Y1602581D02*
X994234D01*
X994574Y1602425*
X994688Y1602269*
X994802Y1601956*
Y1601644*
X994688Y1601331*
X994574Y1601175*
X994234Y1601019*
X993211*
X994006D02*
X994802Y1599300D01*
X995824Y1601956D02*
X996052Y1602113D01*
X996052D02*
X996393Y1602581D01*
Y1599300*
X998097Y1602581D02*
X997756Y1602425D01*
X997529Y1601956*
X997415Y1601175*
Y1600706*
X997529Y1599925*
X997756Y1599456*
X998097Y1599300*
X998324*
X998665Y1599456*
X998893Y1599925*
X999006Y1600706*
Y1601175*
X998893Y1601956*
X998665Y1602425*
X998324Y1602581*
X998097*
X1000143Y1601800D02*
Y1601956D01*
X1000256Y1602269*
X1000370Y1602425*
X1000597Y1602581*
X1001052*
X1001279Y1602425*
X1001393Y1602269*
X1001506Y1601956*
Y1601644*
X1001393Y1601331*
X1001165Y1600863*
X1001165D02*
X1000029Y1599300D01*
X1001620*
X993211Y1610481D02*
Y1607200D01*
Y1610481D02*
X994234D01*
X994574Y1610325*
X994688Y1610169*
X994802Y1609856*
Y1609544*
X994688Y1609231*
X994574Y1609075*
X994234Y1608919*
X993211*
X994006D02*
X994802Y1607200D01*
X995824Y1609856D02*
X996052Y1610013D01*
X996052D02*
X996393Y1610481D01*
Y1607200*
X998097Y1610481D02*
X997756Y1610325D01*
X997529Y1609856*
X997415Y1609075*
Y1608606*
X997529Y1607825*
X997756Y1607356*
X998097Y1607200*
X998324*
X998665Y1607356*
X998893Y1607825*
X999006Y1608606*
Y1609075*
X998893Y1609856*
X998665Y1610325*
X998324Y1610481*
X998097*
X1000256D02*
X1001506D01*
X1000824Y1609231*
X1001165*
X1001393Y1609075*
X1001506Y1608919*
X1001620Y1608450*
Y1608138*
X1001620D02*
X1001506Y1607669D01*
X1001279Y1607356*
X1000938Y1607200*
X1000597*
X1000256Y1607356*
X1000143Y1607513*
X1000143D02*
X1000029Y1607825D01*
X1132211Y1761281D02*
Y1758000D01*
Y1761281D02*
X1133234D01*
X1133574Y1761125*
X1133688Y1760969*
X1133802Y1760656*
Y1760344*
X1133688Y1760031*
X1133574Y1759875*
X1133234Y1759719*
X1132211*
X1133006D02*
X1133802Y1758000D01*
X1136302Y1760188D02*
X1136188Y1759719D01*
X1135961Y1759406*
X1135620Y1759250*
X1135506*
X1135165Y1759406*
X1134938Y1759719*
X1134824Y1760188*
X1134824D02*
Y1760344D01*
X1134938Y1760813*
X1134938D02*
X1135165Y1761125D01*
X1135506Y1761281*
X1135620*
X1135961Y1761125*
X1136188Y1760813*
X1136188D02*
X1136302Y1760188D01*
X1136302D02*
Y1759406D01*
X1136188Y1758625*
X1135961Y1758156*
X1135620Y1758000*
X1135393*
X1135052Y1758156*
X1134938Y1758469*
X1138006Y1761281D02*
X1137665Y1761125D01*
X1137438Y1760656*
X1137324Y1759875*
Y1759406*
X1137438Y1758625*
X1137665Y1758156*
X1138006Y1758000*
X1138234*
X1138574Y1758156*
X1138802Y1758625*
X1138915Y1759406*
Y1759875*
X1138802Y1760656*
X1138574Y1761125*
X1138234Y1761281*
X1138006*
X1132211Y1770681D02*
Y1767400D01*
Y1770681D02*
X1133234D01*
X1133574Y1770525*
X1133688Y1770369*
X1133802Y1770056*
Y1769744*
X1133688Y1769431*
X1133574Y1769275*
X1133234Y1769119*
X1132211*
X1133006D02*
X1133802Y1767400D01*
X1136302Y1769588D02*
X1136188Y1769119D01*
X1135961Y1768806*
X1135620Y1768650*
X1135506*
X1135165Y1768806*
X1134938Y1769119*
X1134824Y1769588*
X1134824D02*
Y1769744D01*
X1134938Y1770213*
X1134938D02*
X1135165Y1770525D01*
X1135506Y1770681*
X1135620*
X1135961Y1770525*
X1136188Y1770213*
X1136188D02*
X1136302Y1769588D01*
X1136302D02*
Y1768806D01*
X1136188Y1768025*
X1135961Y1767556*
X1135620Y1767400*
X1135393*
X1135052Y1767556*
X1134938Y1767869*
X1137324Y1770056D02*
X1137552Y1770213D01*
X1137552D02*
X1137893Y1770681D01*
Y1767400*
X1144211Y1765481D02*
Y1762200D01*
Y1765481D02*
X1145234D01*
X1145574Y1765325*
X1145688Y1765169*
X1145802Y1764856*
Y1764544*
X1145688Y1764231*
X1145574Y1764075*
X1145234Y1763919*
X1144211*
X1145006D02*
X1145802Y1762200D01*
X1148302Y1764388D02*
X1148188Y1763919D01*
X1147961Y1763606*
X1147620Y1763450*
X1147506*
X1147165Y1763606*
X1146938Y1763919*
X1146824Y1764388*
X1146824D02*
Y1764544D01*
X1146938Y1765013*
X1146938D02*
X1147165Y1765325D01*
X1147506Y1765481*
X1147620*
X1147961Y1765325*
X1148188Y1765013*
X1148188D02*
X1148302Y1764388D01*
X1148302D02*
Y1763606D01*
X1148188Y1762825*
X1147961Y1762356*
X1147620Y1762200*
X1147393*
X1147052Y1762356*
X1146938Y1762669*
X1149438Y1764700D02*
Y1764856D01*
X1149552Y1765169*
X1149665Y1765325*
X1149893Y1765481*
X1150347*
X1150574Y1765325*
X1150688Y1765169*
X1150802Y1764856*
Y1764544*
X1150688Y1764231*
X1150461Y1763763*
X1150461D02*
X1149324Y1762200D01*
X1150915*
X1144211Y1774881D02*
Y1771600D01*
Y1774881D02*
X1145234D01*
X1145574Y1774725*
X1145688Y1774569*
X1145802Y1774256*
Y1773944*
X1145688Y1773631*
X1145574Y1773475*
X1145234Y1773319*
X1144211*
X1145006D02*
X1145802Y1771600D01*
X1148302Y1773788D02*
X1148188Y1773319D01*
X1147961Y1773006*
X1147620Y1772850*
X1147506*
X1147165Y1773006*
X1146938Y1773319*
X1146824Y1773788*
X1146824D02*
Y1773944D01*
X1146938Y1774413*
X1146938D02*
X1147165Y1774725D01*
X1147506Y1774881*
X1147620*
X1147961Y1774725*
X1148188Y1774413*
X1148188D02*
X1148302Y1773788D01*
X1148302D02*
Y1773006D01*
X1148188Y1772225*
X1147961Y1771756*
X1147620Y1771600*
X1147393*
X1147052Y1771756*
X1146938Y1772069*
X1149552Y1774881D02*
X1150802D01*
X1150120Y1773631*
X1150461*
X1150688Y1773475*
X1150802Y1773319*
X1150915Y1772850*
Y1772538*
X1150915D02*
X1150802Y1772069D01*
X1150574Y1771756*
X1150234Y1771600*
X1149893*
X1149552Y1771756*
X1149438Y1771913*
X1149438D02*
X1149324Y1772225D01*
X993211Y1571081D02*
Y1567800D01*
Y1571081D02*
X994234D01*
X994574Y1570925*
X994688Y1570769*
X994802Y1570456*
Y1570144*
X994688Y1569831*
X994574Y1569675*
X994234Y1569519*
X993211*
X994006D02*
X994802Y1567800D01*
X997302Y1569988D02*
X997188Y1569519D01*
X996961Y1569206*
X996620Y1569050*
X996506*
X996165Y1569206*
X995938Y1569519*
X995824Y1569988*
X995824D02*
Y1570144D01*
X995938Y1570613*
X995938D02*
X996165Y1570925D01*
X996506Y1571081*
X996620*
X996961Y1570925*
X997188Y1570613*
X997188D02*
X997302Y1569988D01*
X997302D02*
Y1569206D01*
X997188Y1568425*
X996961Y1567956*
X996620Y1567800*
X996393*
X996052Y1567956*
X995938Y1568269*
X998893Y1571081D02*
X998552Y1570925D01*
X998438Y1570613*
X998438D02*
Y1570300D01*
X998552Y1569988*
X998552D02*
X998779Y1569831D01*
X999234Y1569675*
X999574Y1569519*
X999802Y1569206*
X999915Y1568894*
Y1568425*
X999802Y1568113*
X999802D02*
X999688Y1567956D01*
X999347Y1567800*
X998893*
X998552Y1567956*
X998438Y1568113*
X998438D02*
X998324Y1568425D01*
Y1568894*
X998438Y1569206*
X998665Y1569519*
X999006Y1569675*
X999461Y1569831*
X999688Y1569988*
X999688D02*
X999802Y1570300D01*
Y1570613*
X999802D02*
X999688Y1570925D01*
X999347Y1571081*
X998893*
X993211Y1578881D02*
Y1575600D01*
Y1578881D02*
X994234D01*
X994574Y1578725*
X994688Y1578569*
X994802Y1578256*
Y1577944*
X994688Y1577631*
X994574Y1577475*
X994234Y1577319*
X993211*
X994006D02*
X994802Y1575600D01*
X997302Y1577788D02*
X997188Y1577319D01*
X996961Y1577006*
X996620Y1576850*
X996506*
X996165Y1577006*
X995938Y1577319*
X995824Y1577788*
X995824D02*
Y1577944D01*
X995938Y1578413*
X995938D02*
X996165Y1578725D01*
X996506Y1578881*
X996620*
X996961Y1578725*
X997188Y1578413*
X997188D02*
X997302Y1577788D01*
X997302D02*
Y1577006D01*
X997188Y1576225*
X996961Y1575756*
X996620Y1575600*
X996393*
X996052Y1575756*
X995938Y1576069*
X999802Y1577788D02*
X999688Y1577319D01*
X999461Y1577006*
X999120Y1576850*
X999006*
X998665Y1577006*
X998438Y1577319*
X998324Y1577788*
X998324D02*
Y1577944D01*
X998438Y1578413*
X998438D02*
X998665Y1578725D01*
X999006Y1578881*
X999120*
X999461Y1578725*
X999688Y1578413*
X999688D02*
X999802Y1577788D01*
X999802D02*
Y1577006D01*
X999688Y1576225*
X999461Y1575756*
X999120Y1575600*
X998893*
X998552Y1575756*
X998438Y1576069*
X1010111Y1625556D02*
Y1622800D01*
Y1625556D02*
X1011588D01*
X1010111Y1624244D02*
X1011020D01*
X1012611Y1625556D02*
Y1622800D01*
Y1625556D02*
X1013634D01*
X1013974Y1625425*
X1014088Y1625294*
X1014202Y1625031*
Y1624769*
X1014088Y1624506*
X1013974Y1624375*
X1013634Y1624244*
X1012611D02*
X1013634D01*
X1013974Y1624113*
X1013974D02*
X1014088Y1623981D01*
X1014202Y1623719*
Y1623325*
X1014088Y1623063*
X1014088D02*
X1013974Y1622931D01*
X1013634Y1622800*
X1012611*
X1015452Y1625556D02*
X1016702D01*
X1016020Y1624506*
X1016361*
X1016588Y1624375*
X1016702Y1624244*
X1016815Y1623850*
Y1623588*
X1016815D02*
X1016702Y1623194D01*
X1016474Y1622931*
X1016134Y1622800*
X1015793*
X1015452Y1622931*
X1015338Y1623063*
X1015338D02*
X1015224Y1623325D01*
X1026605Y1849509D02*
X1023105D01*
X1022448Y1849668*
X1022230Y1849827*
X1022011Y1850145*
Y1850464*
X1022230Y1850782*
X1022448Y1850941*
X1023105Y1851100*
X1023542*
X1025730Y1848077D02*
X1025948Y1847759D01*
X1026605Y1847282*
X1022011*
X1026605Y1845055D02*
X1026386Y1845532D01*
X1025948Y1845691*
X1025511*
X1025073Y1845532*
X1024855Y1845214*
X1024636Y1844577*
X1024417Y1844100*
X1023980Y1843782*
X1023542Y1843623*
X1022886*
X1022448Y1843782*
X1022230Y1843941*
X1022011Y1844418*
Y1845055*
X1022230Y1845532*
X1022448Y1845691*
X1022886Y1845850*
X1023542*
X1023980Y1845691*
X1024417Y1845373*
X1024636Y1844895*
X1024855Y1844259*
X1025073Y1843941*
X1025511Y1843782*
X1025948*
X1026386Y1843941*
X1026605Y1844418*
Y1845055*
X996561Y1867482D02*
X992561D01*
X991811Y1867664*
X991561Y1867845*
X991311Y1868209*
Y1868573*
X991561Y1868936*
X991811Y1869118*
X992561Y1869300*
X993061*
X995561Y1865845D02*
X995811Y1865482D01*
X996561Y1864936*
X991311*
X994811Y1860936D02*
X994061Y1861118D01*
X993561Y1861482*
X993311Y1862027*
Y1862209*
X993561Y1862755*
X994061Y1863118*
X994811Y1863300*
X995061*
X995811Y1863118*
X996311Y1862755*
X996561Y1862209*
Y1862027*
X996311Y1861482*
X995811Y1861118*
X994811Y1860936*
X993561*
X992311Y1861118*
X991561Y1861482*
X991311Y1862027*
Y1862391*
X991561Y1862936*
X992061Y1863118*
X1026905Y1888409D02*
X1023405D01*
X1022748Y1888568*
X1022530Y1888727*
X1022311Y1889045*
Y1889364*
X1022530Y1889682*
X1022748Y1889841*
X1023405Y1890000*
X1023842*
X1025811Y1886818D02*
X1026030D01*
X1026467Y1886659*
X1026686Y1886500*
X1026905Y1886182*
Y1885545*
X1026686Y1885227*
X1026467Y1885068*
X1026030Y1884909*
X1025592*
X1025155Y1885068*
X1024498Y1885386*
X1022311Y1886977*
Y1884750*
X1026905Y1882364D02*
X1026686Y1882841D01*
X1026030Y1883159*
X1024936Y1883318*
X1024280*
X1023186Y1883159*
X1022530Y1882841*
X1022311Y1882364*
Y1882045*
X1022530Y1881568*
X1023186Y1881250*
X1024280Y1881091*
X1024936*
X1026030Y1881250*
X1026686Y1881568*
X1026905Y1882045*
Y1882364*
X997761Y1829882D02*
X993761D01*
X993011Y1830064*
X992761Y1830245*
X992511Y1830609*
Y1830973*
X992761Y1831336*
X993011Y1831518*
X993761Y1831700*
X994261*
X996511Y1828064D02*
X996761D01*
X997261Y1827882*
X997511Y1827700*
X997761Y1827336*
Y1826609*
X997511Y1826245*
X997261Y1826064*
X996761Y1825882*
X996261*
X995761Y1826064*
X995011Y1826427*
X992511Y1828245*
Y1825700*
X996761Y1824064D02*
X997011Y1823700D01*
X997761Y1823155*
X992511*
X1194161Y1837418D02*
X1198161D01*
X1198911Y1837236*
X1199161Y1837055*
X1199411Y1836691*
Y1836327*
X1199161Y1835964*
X1198911Y1835782*
X1198161Y1835600*
X1197661*
X1195161Y1839055D02*
X1194911Y1839418D01*
X1194161Y1839964*
X1199411*
X1194161Y1843418D02*
X1197661Y1841600D01*
Y1844327*
X1194161Y1843418D02*
X1199411D01*
X1193261Y1872018D02*
X1197261D01*
X1198011Y1871836*
X1198261Y1871655*
X1198511Y1871291*
Y1870927*
X1198261Y1870564*
X1198011Y1870382*
X1197261Y1870200*
X1196761*
X1194261Y1873655D02*
X1194011Y1874018D01*
X1193261Y1874564*
X1198511*
X1193261Y1878564D02*
Y1876745D01*
X1195511Y1876564*
X1195261Y1876745*
X1195011Y1877291*
Y1877836*
X1195261Y1878382*
X1195761Y1878745*
X1196511Y1878927*
X1197011Y1878745*
X1197761Y1878564*
X1198261Y1878200*
X1198511Y1877655*
Y1877109*
X1198261Y1876564*
X1198011Y1876382*
X1197511Y1876200*
X1193561Y1573418D02*
X1197561D01*
X1198311Y1573236*
X1198561Y1573055*
X1198811Y1572691*
Y1572327*
X1198561Y1571964*
X1198311Y1571782*
X1197561Y1571600*
X1197061*
X1194561Y1575055D02*
X1194311Y1575418D01*
X1193561Y1575964*
X1198811*
X1194311Y1579782D02*
X1193811Y1579600D01*
X1193561Y1579055*
Y1578691*
X1193811Y1578145*
X1194561Y1577782*
X1195811Y1577600*
X1197061*
X1198061Y1577782*
X1198561Y1578145*
X1198811Y1578691*
Y1578873*
X1198561Y1579418*
X1198061Y1579782*
X1197311Y1579964*
X1197061*
X1196311Y1579782*
X1195811Y1579418*
X1195561Y1578873*
Y1578691*
X1195811Y1578145*
X1196311Y1577782*
X1197061Y1577600*
X1194161Y1607018D02*
X1198161D01*
X1198911Y1606836*
X1199161Y1606655*
X1199411Y1606291*
Y1605927*
X1199161Y1605564*
X1198911Y1605382*
X1198161Y1605200*
X1197661*
X1195161Y1608655D02*
X1194911Y1609018D01*
X1194161Y1609564*
X1199411*
X1194161Y1613745D02*
X1199411Y1611927D01*
X1194161Y1611200D02*
Y1613745D01*
X1020011Y1872825D02*
Y1870200D01*
Y1872825D02*
X1020829D01*
X1021102Y1872700*
X1021193Y1872575*
X1021284Y1872325*
Y1872075*
X1021193Y1871825*
X1021102Y1871700*
X1020829Y1871575*
X1020011*
X1020647D02*
X1021284Y1870200D01*
X1022102Y1872325D02*
X1022284Y1872450D01*
X1022556Y1872825*
Y1870200*
X1023920Y1872825D02*
X1023647Y1872700D01*
X1023465Y1872325*
X1023374Y1871700*
Y1871325*
X1023465Y1870700*
X1023647Y1870325*
X1023920Y1870200*
X1024102*
X1024374Y1870325*
X1024556Y1870700*
X1024647Y1871325*
Y1871700*
X1024556Y1872325*
X1024374Y1872700*
X1024102Y1872825*
X1023920*
X1026647D02*
X1025738D01*
X1025647Y1871700*
X1025738Y1871825*
X1026011Y1871950*
X1026284*
X1026556Y1871825*
X1026738Y1871575*
X1026829Y1871200*
X1026738Y1870950*
X1026647Y1870575*
X1026465Y1870325*
X1026193Y1870200*
X1025920*
X1025647Y1870325*
X1025556Y1870450*
X1025465Y1870700*
X1020011Y1865325D02*
Y1862700D01*
Y1865325D02*
X1020829D01*
X1021102Y1865200*
X1021193Y1865075*
X1021284Y1864825*
Y1864575*
X1021193Y1864325*
X1021102Y1864200*
X1020829Y1864075*
X1020011*
X1020647D02*
X1021284Y1862700D01*
X1022102Y1864825D02*
X1022284Y1864950D01*
X1022556Y1865325*
Y1862700*
X1023920Y1865325D02*
X1023647Y1865200D01*
X1023465Y1864825*
X1023374Y1864200*
Y1863825*
X1023465Y1863200*
X1023647Y1862825*
X1023920Y1862700*
X1024102*
X1024374Y1862825*
X1024556Y1863200*
X1024647Y1863825*
Y1864200*
X1024556Y1864825*
X1024374Y1865200*
X1024102Y1865325*
X1023920*
X1026556Y1864950D02*
X1026465Y1865200D01*
X1026193Y1865325*
X1026011*
X1025738Y1865200*
X1025556Y1864825*
X1025465Y1864200*
Y1863575*
X1025556Y1863075*
X1025738Y1862825*
X1026011Y1862700*
X1026102*
X1026374Y1862825*
X1026556Y1863075*
X1026647Y1863450*
Y1863575*
X1026556Y1863950*
X1026374Y1864200*
X1026102Y1864325*
X1026011*
X1025738Y1864200*
X1025556Y1863950*
X1025465Y1863575*
X1019911Y1833725D02*
Y1831100D01*
Y1833725D02*
X1020729D01*
X1021002Y1833600*
X1021093Y1833475*
X1021184Y1833225*
Y1832975*
X1021093Y1832725*
X1021002Y1832600*
X1020729Y1832475*
X1019911*
X1020547D02*
X1021184Y1831100D01*
X1022002Y1833225D02*
X1022184Y1833350D01*
X1022456Y1833725*
Y1831100*
X1023820Y1833725D02*
X1023547Y1833600D01*
X1023365Y1833225*
X1023274Y1832600*
Y1832225*
X1023365Y1831600*
X1023547Y1831225*
X1023820Y1831100*
X1024002*
X1024274Y1831225*
X1024456Y1831600*
X1024547Y1832225*
Y1832600*
X1024456Y1833225*
X1024274Y1833600*
X1024002Y1833725*
X1023820*
X1026547Y1832850D02*
X1026456Y1832475D01*
X1026274Y1832225*
X1026002Y1832100*
X1025911*
X1025638Y1832225*
X1025456Y1832475*
X1025365Y1832850*
Y1832975*
X1025456Y1833350*
X1025638Y1833600*
X1025911Y1833725*
X1026002*
X1026274Y1833600*
X1026456Y1833350*
X1026547Y1832850*
Y1832225*
X1026456Y1831600*
X1026274Y1831225*
X1026002Y1831100*
X1025820*
X1025547Y1831225*
X1025456Y1831475*
X1019711Y1826025D02*
Y1823400D01*
Y1826025D02*
X1020529D01*
X1020802Y1825900*
X1020893Y1825775*
X1020984Y1825525*
Y1825275*
X1020893Y1825025*
X1020802Y1824900*
X1020529Y1824775*
X1019711*
X1020347D02*
X1020984Y1823400D01*
X1021802Y1825525D02*
X1021984Y1825650D01*
X1022256Y1826025*
Y1823400*
X1023074Y1825525D02*
X1023256Y1825650D01*
X1023529Y1826025*
Y1823400*
X1024893Y1826025D02*
X1024620Y1825900D01*
X1024438Y1825525*
X1024347Y1824900*
Y1824525*
X1024438Y1823900*
X1024620Y1823525*
X1024893Y1823400*
X1025074*
X1025347Y1823525*
X1025529Y1823900*
X1025620Y1824525*
Y1824900*
X1025529Y1825525*
X1025347Y1825900*
X1025074Y1826025*
X1024893*
X997861Y1627082D02*
X993861D01*
X993111Y1627264*
X992861Y1627445*
X992611Y1627809*
Y1628173*
X992861Y1628536*
X993111Y1628718*
X993861Y1628900*
X994361*
X996861Y1625445D02*
X997111Y1625082D01*
X997861Y1624536*
X992611*
X997861Y1622536D02*
Y1620536D01*
X995861Y1621627*
Y1621082*
X995611Y1620718*
X995361Y1620536*
X994611Y1620355*
X994111*
X993361Y1620536*
X992861Y1620900*
X992611Y1621445*
Y1621991*
X992861Y1622536*
X993111Y1622718*
X993611Y1622900*
X1132611Y1720156D02*
Y1717400D01*
Y1720156D02*
X1133634D01*
X1133974Y1720025*
X1134088Y1719894*
X1134202Y1719631*
Y1719369*
X1134088Y1719106*
X1133974Y1718975*
X1133634Y1718844*
X1132611*
X1133406D02*
X1134202Y1717400D01*
X1135452Y1720156D02*
X1136702D01*
X1136020Y1719106*
X1136361*
X1136588Y1718975*
X1136702Y1718844*
X1136815Y1718450*
Y1718188*
X1136815D02*
X1136702Y1717794D01*
X1136474Y1717531*
X1136134Y1717400*
X1135793*
X1135452Y1717531*
X1135338Y1717663*
X1135338D02*
X1135224Y1717925D01*
X1144611Y1724356D02*
Y1721600D01*
Y1724356D02*
X1145634D01*
X1145974Y1724225*
X1146088Y1724094*
X1146202Y1723831*
Y1723569*
X1146088Y1723306*
X1145974Y1723175*
X1145634Y1723044*
X1144611*
X1145406D02*
X1146202Y1721600D01*
X1148702Y1724356D02*
X1147565D01*
X1147452Y1723175*
X1147565Y1723306*
X1147906Y1723438*
X1147906D02*
X1148247D01*
X1148247D02*
X1148588Y1723306D01*
X1148815Y1723044*
X1148929Y1722650*
X1148815Y1722388*
X1148815D02*
X1148702Y1721994D01*
X1148474Y1721731*
X1148134Y1721600*
X1147793*
X1147452Y1721731*
X1147338Y1721863*
X1147338D02*
X1147224Y1722125D01*
X1125256Y2021925D02*
Y2018425D01*
X1125097Y2017769*
X1124938Y2017550*
X1124620Y2017331*
X1124302*
X1123984Y2017550*
X1123824Y2017769*
X1123665Y2018425*
Y2018862*
X1126847Y2020831D02*
Y2021050D01*
X1127006Y2021487*
X1127006D02*
X1127165Y2021706D01*
X1127484Y2021925*
X1128120*
X1128438Y2021706*
X1128597Y2021487*
X1128597D02*
X1128756Y2021050D01*
Y2020612*
X1128756D02*
X1128597Y2020175D01*
X1128279Y2019519*
X1126688Y2017331*
X1128915*
X1130506Y2020831D02*
Y2021050D01*
X1130665Y2021487*
X1130665D02*
X1130824Y2021706D01*
X1131143Y2021925*
X1131779*
X1132097Y2021706*
X1132256Y2021487*
X1132256D02*
X1132415Y2021050D01*
Y2020612*
X1132415D02*
X1132256Y2020175D01*
X1131938Y2019519*
X1130347Y2017331*
X1132574*
X1188317Y1423891D02*
X1191817D01*
X1192473Y1423732*
X1192692Y1423573*
X1192911Y1423255*
Y1422936*
X1192692Y1422618*
X1192473Y1422459*
X1191817Y1422300*
X1191380*
X1189411Y1425482D02*
X1189192D01*
X1188755Y1425641*
X1188536Y1425800*
X1188317Y1426118*
Y1426755*
X1188536Y1427073*
X1188755Y1427232*
X1189192Y1427391*
X1189630*
X1190067Y1427232*
X1190723Y1426914*
X1192911Y1425323*
Y1427550*
X1188317Y1429300D02*
Y1431050D01*
X1190067Y1430095*
Y1430573*
X1190286Y1430891*
X1190505Y1431050*
X1191161Y1431209*
X1191598*
X1192255Y1431050*
X1192692Y1430732*
X1192911Y1430255*
Y1429777*
X1192692Y1429300*
X1192473Y1429141*
X1192036Y1428982*
X1205311Y1413281D02*
Y1410000D01*
Y1413281D02*
X1206788D01*
X1205311Y1411719D02*
X1206220D01*
X1207811Y1412656D02*
X1208038Y1412813D01*
X1208038D02*
X1208379Y1413281D01*
Y1410000*
X1203717Y1401400D02*
X1208311D01*
X1203717D02*
Y1403468D01*
X1205905Y1401400D02*
Y1402673D01*
X1203717Y1406173D02*
X1208311Y1404900D01*
X1203717Y1406173D02*
X1208311Y1407445D01*
X1206780Y1405377D02*
Y1406968D01*
X1203717Y1408877D02*
X1208311D01*
X1203717D02*
X1208311Y1411105D01*
X1203717D02*
X1208311D01*
X1203717Y1416195D02*
X1208311D01*
X1203717D02*
Y1418264D01*
X1205905Y1416195D02*
Y1417468D01*
X1203717Y1419695D02*
X1206998D01*
X1207655Y1419855*
X1208092Y1420173*
X1208311Y1420650*
Y1420968*
X1208092Y1421445*
X1207655Y1421764*
X1206998Y1421923*
X1203717*
X1204373Y1425582D02*
X1203936Y1425264D01*
X1203717Y1424786*
Y1424150*
X1203936Y1423673*
X1204373Y1423355*
X1204811*
X1205248Y1423514*
X1205467Y1423673*
X1205686Y1423991*
X1206123Y1424945*
X1206342Y1425264*
X1206561Y1425423*
X1206998Y1425582*
X1207655*
X1208092Y1425264*
X1208311Y1424786*
Y1424150*
X1208092Y1423673*
X1207655Y1423355*
X1203717Y1427014D02*
X1208311D01*
X1203717D02*
Y1429082D01*
X1205905Y1427014D02*
Y1428286D01*
X1208311Y1427014D02*
Y1429082D01*
X1001117Y1453991D02*
Y1451741D01*
X998867Y1452968*
Y1452355*
X998586Y1451945*
X998305Y1451741*
X997461Y1451536*
X996898*
X996055Y1451741*
X995492Y1452150*
X995211Y1452764*
Y1453377*
X995492Y1453991*
X995773Y1454195*
X996336Y1454400*
X995773Y1449491D02*
X995492Y1449695D01*
X995211Y1449491*
X995492Y1449286*
X995773Y1449491*
X1001117Y1447036D02*
Y1444786D01*
X998867Y1446014*
Y1445400*
X998586Y1444991*
X998305Y1444786*
X997461Y1444582*
X996898*
X996055Y1444786*
X995492Y1445195*
X995211Y1445809*
Y1446423*
X995492Y1447036*
X995773Y1447241*
X996336Y1447445*
X1001117Y1442741D02*
X995211Y1441105D01*
X1001117Y1439468D02*
X995211Y1441105D01*
X1001717Y1416941D02*
Y1418986D01*
X999186Y1419191*
X999467Y1418986*
X999748Y1418373*
Y1417759*
X999467Y1417145*
X998905Y1416736*
X998061Y1416532*
X997498Y1416736*
X996655Y1416941*
X996092Y1417350*
X995811Y1417964*
Y1418577*
X996092Y1419191*
X996373Y1419395*
X996936Y1419600*
X996373Y1414486D02*
X996092Y1414691D01*
X995811Y1414486*
X996092Y1414282*
X996373Y1414486*
X1001717Y1411214D02*
X1001436Y1411827D01*
X1000592Y1412236*
X999186Y1412441*
X998342*
X996936Y1412236*
X996092Y1411827*
X995811Y1411214*
Y1410805*
X996092Y1410191*
X996936Y1409782*
X998342Y1409577*
X999186*
X1000592Y1409782*
X1001436Y1410191*
X1001717Y1410805*
Y1411214*
Y1407736D02*
X995811Y1406100D01*
X1001717Y1404464D02*
X995811Y1406100D01*
G54D15*
X1099711Y1550100D02*
X1128911D01*
Y1547300*
X1099711*
Y1550100*
G54D19*
X988211Y2025000D02*
X1213211D01*
Y1375000*
X988211*
Y2025000*
G54D117*
X1122207Y1965836D02*
X1059215D01*
Y2022384*
X1122207*
Y1965836*
X997463Y1676182D02*
X991164D01*
X997463Y1707678D02*
X991164D01*
X997463Y1739175D02*
X991164D01*
X997463Y1770671D02*
X991164D01*
X1035258Y1676182D02*
X1028959D01*
X1035258Y1707678D02*
X1028959D01*
X1035258Y1739962D02*
X1028959D01*
X1035258Y1770671D02*
X1028959D01*
X1172463Y1676182D02*
X1166164D01*
X1172463Y1707678D02*
X1166164D01*
X1172463Y1739175D02*
X1166164D01*
X1172463Y1770671D02*
X1166164D01*
X1210258Y1676182D02*
X1203959D01*
X1210258Y1707678D02*
X1203959D01*
X1210258Y1739962D02*
X1203959D01*
X1210258Y1770671D02*
X1203959D01*
G54D134*
X1027774Y1632482D02*
X998641D01*
X998644Y1817521*
X1027778*
X1027774Y1632482*
X998644Y1639568D02*
X1011518D01*
X1011530Y1634844*
X1027778*
X998644Y1810434D02*
X1011538D01*
Y1815159*
X1027778*
X1202774Y1632482D02*
X1173641D01*
X1173644Y1817521*
X1202778*
X1202774Y1632482*
X1173644Y1639568D02*
X1186518D01*
X1186530Y1634844*
X1202778*
X1173644Y1810434D02*
X1186538D01*
Y1815159*
X1202778*
G54D187*
X1093266Y1493126D02*
Y1483756D01*
X1090510Y1481000*
X1077912*
X1075156Y1483756*
Y1493126*
X1093266Y1508874D02*
Y1521000D01*
X1075156*
Y1508874*
X1074266Y1442126D02*
Y1432756D01*
X1071510Y1430000*
X1058912*
X1056156Y1432756*
Y1442126*
X1074266Y1457874D02*
Y1470000D01*
X1056156*
Y1457874*
X1128266Y1442126D02*
Y1432756D01*
X1125510Y1430000*
X1112912*
X1110156Y1432756*
Y1442126*
X1128266Y1457874D02*
Y1470000D01*
X1110156*
Y1457874*
X1182566Y1441926D02*
Y1432556D01*
X1179810Y1429800*
X1167212*
X1164456Y1432556*
Y1441926*
X1182566Y1457674D02*
Y1469800D01*
X1164456*
Y1457674*
X1182266Y1493126D02*
Y1483756D01*
X1179510Y1481000*
X1166912*
X1164156Y1483756*
Y1493126*
X1182266Y1508874D02*
Y1521000D01*
X1164156*
Y1508874*
X1079711Y1403000D02*
X1121711D01*
Y1378000*
X1079711*
Y1403000*
X1079805Y1398768D02*
X1121616D01*
X1083711Y1382800D02*
X1087711D01*
Y1378500*
X1083711*
Y1382800*
X1093711D02*
X1097711D01*
Y1378500*
X1093711*
Y1382800*
X1103711D02*
X1107711D01*
Y1378500*
X1103711*
Y1382800*
X1113711D02*
X1117711D01*
Y1378500*
X1113711*
Y1382800*
X1132211Y1403000D02*
X1174211D01*
Y1378000*
X1132211*
Y1403000*
X1132305Y1398768D02*
X1174116D01*
X1136211Y1382800D02*
X1140211D01*
Y1378500*
X1136211*
Y1382800*
X1146211D02*
X1150211D01*
Y1378500*
X1146211*
Y1382800*
X1156211D02*
X1160211D01*
Y1378500*
X1156211*
Y1382800*
X1166211D02*
X1170211D01*
Y1378500*
X1166211*
Y1382800*
X1185211Y1471500D02*
Y1513500D01*
X1210211*
Y1471500*
X1185211*
X1189443Y1471594D02*
Y1513406D01*
X1205411Y1475500D02*
Y1479500D01*
X1209711*
Y1475500*
X1205411*
Y1485500D02*
Y1489500D01*
X1209711*
Y1485500*
X1205411*
Y1495500D02*
Y1499500D01*
X1209711*
Y1495500*
X1205411*
Y1505500D02*
Y1509500D01*
X1209711*
Y1505500*
X1205411*
X1016211Y1513500D02*
Y1471500D01*
X991211*
Y1513500*
X1016211*
X1011979Y1513406D02*
Y1471594D01*
X996011Y1509500D02*
Y1505500D01*
X991711*
Y1509500*
X996011*
Y1499500D02*
Y1495500D01*
X991711*
Y1499500*
X996011*
Y1489500D02*
Y1485500D01*
X991711*
Y1489500*
X996011*
Y1479500D02*
Y1475500D01*
X991711*
Y1479500*
X996011*
X1027211Y1403000D02*
X1069211D01*
Y1378000*
X1027211*
Y1403000*
X1027305Y1398768D02*
X1069116D01*
X1031211Y1382800D02*
X1035211D01*
Y1378500*
X1031211*
Y1382800*
X1041211D02*
X1045211D01*
Y1378500*
X1041211*
Y1382800*
X1051211D02*
X1055211D01*
Y1378500*
X1051211*
Y1382800*
X1061211D02*
X1065211D01*
Y1378500*
X1061211*
Y1382800*
X1011211Y1515700D02*
X999011D01*
Y1520300*
X1011211*
Y1515700*
X1000311D02*
Y1520300D01*
X1024311Y1399500D02*
Y1387300D01*
X1019711*
Y1399500*
X1024311*
Y1388600D02*
X1019711D01*
X1077511Y1399600D02*
Y1387400D01*
X1072911*
Y1399600*
X1077511*
Y1388700D02*
X1072911D01*
X1130511Y1399700D02*
Y1387500D01*
X1125911*
Y1399700*
X1130511*
Y1388800D02*
X1125911D01*
X1190211Y1520300D02*
X1202411D01*
Y1515700*
X1190211*
Y1520300*
X1201111D02*
Y1515700D01*
X1017768Y1501587D02*
X1037453D01*
Y1487413*
X1017768*
Y1501587*
X1026024Y1404657D02*
Y1424343D01*
X1040197*
Y1404657*
X1026024*
X1088424D02*
Y1424343D01*
X1102597*
Y1404657*
X1088424*
X1147824D02*
Y1424343D01*
X1161997*
Y1404657*
X1147824*
X1107368Y1501587D02*
X1127053D01*
Y1487413*
X1107368*
Y1501587*
X1070990Y1509280D02*
X1043431D01*
Y1481720*
X1070990*
Y1489004*
X1069809Y1489594*
X1070990Y1490185*
Y1509280*
X1053990Y1461780D02*
X1026431D01*
Y1434220*
X1053990*
Y1441504*
X1052809Y1442094*
X1053990Y1442685*
Y1461780*
X1107990D02*
X1080431D01*
Y1434220*
X1107990*
Y1441504*
X1106809Y1442094*
X1107990Y1442685*
Y1461780*
X1162290Y1461580D02*
X1134731D01*
Y1434020*
X1162290*
Y1441304*
X1161109Y1441894*
X1162290Y1442485*
Y1461580*
X1160590Y1509080D02*
X1133031D01*
Y1481520*
X1160590*
Y1488804*
X1159409Y1489394*
X1160590Y1489985*
Y1509080*
X1150069Y1863406D02*
Y1861044D01*
X1156368Y1863406D02*
Y1861044D01*
X1150069Y1863406D02*
Y1861044D01*
X1156361Y1863406D02*
Y1861044D01*
X1097569Y1872706D02*
Y1870344D01*
X1103868Y1872706D02*
Y1870344D01*
X1097569Y1872706D02*
Y1870344D01*
X1103861Y1872706D02*
Y1870344D01*
X1011211Y1422600D02*
X999011D01*
Y1427200*
X1011211*
Y1422600*
X1000311D02*
Y1427200D01*
X1011211Y1457700D02*
X999011D01*
Y1462300*
X1011211*
Y1457700*
X1000311D02*
Y1462300D01*
G54D188*
X991711Y1990000D02*
Y1930000D01*
X1016711*
Y1990000*
X991711*
X1008811D02*
Y1930000D01*
X1009311Y1990000D02*
Y1930000D01*
X1009811Y1990000D02*
Y1930000D01*
X1010211Y1990000D02*
Y1930000D01*
X1010811Y1990000D02*
Y1930000D01*
X1011211Y1990000D02*
Y1930000D01*
X1011741Y1989990D02*
Y1929990D01*
X1012341Y1989990D02*
Y1929990D01*
X1012841Y1989990D02*
Y1929990D01*
X1013341Y1989990D02*
Y1929990D01*
X1013741Y1989990D02*
Y1929990D01*
X1014341Y1989990D02*
Y1929990D01*
X1014741Y1989990D02*
Y1929990D01*
X1020711Y1990000D02*
Y1930000D01*
X1045711*
Y1990000*
X1020711*
X1037811D02*
Y1930000D01*
X1038311Y1990000D02*
Y1930000D01*
X1038811Y1990000D02*
Y1930000D01*
X1039211Y1990000D02*
Y1930000D01*
X1039811Y1990000D02*
Y1930000D01*
X1040211Y1990000D02*
Y1930000D01*
X1040741Y1989990D02*
Y1929990D01*
X1041341Y1989990D02*
Y1929990D01*
X1041841Y1989990D02*
Y1929990D01*
X1042341Y1989990D02*
Y1929990D01*
X1042741Y1989990D02*
Y1929990D01*
X1043341Y1989990D02*
Y1929990D01*
X1043741Y1989990D02*
Y1929990D01*
X1126711Y1990000D02*
Y1930000D01*
X1151711*
Y1990000*
X1126711*
X1143811D02*
Y1930000D01*
X1144311Y1990000D02*
Y1930000D01*
X1144811Y1990000D02*
Y1930000D01*
X1145211Y1990000D02*
Y1930000D01*
X1145811Y1990000D02*
Y1930000D01*
X1146211Y1990000D02*
Y1930000D01*
X1146741Y1989990D02*
Y1929990D01*
X1147341Y1989990D02*
Y1929990D01*
X1147841Y1989990D02*
Y1929990D01*
X1148341Y1989990D02*
Y1929990D01*
X1148741Y1989990D02*
Y1929990D01*
X1149341Y1989990D02*
Y1929990D01*
X1149741Y1989990D02*
Y1929990D01*
X1155711Y1990000D02*
Y1930000D01*
X1180711*
Y1990000*
X1155711*
X1172811D02*
Y1930000D01*
X1173311Y1990000D02*
Y1930000D01*
X1173811Y1990000D02*
Y1930000D01*
X1174211Y1990000D02*
Y1930000D01*
X1174811Y1990000D02*
Y1930000D01*
X1175211Y1990000D02*
Y1930000D01*
X1175741Y1989990D02*
Y1929990D01*
X1176341Y1989990D02*
Y1929990D01*
X1176841Y1989990D02*
Y1929990D01*
X1177341Y1989990D02*
Y1929990D01*
X1177741Y1989990D02*
Y1929990D01*
X1178341Y1989990D02*
Y1929990D01*
X1178741Y1989990D02*
Y1929990D01*
X1184711Y1990000D02*
Y1930000D01*
X1209711*
Y1990000*
X1184711*
X1201811D02*
Y1930000D01*
X1202311Y1990000D02*
Y1930000D01*
X1202811Y1990000D02*
Y1930000D01*
X1203211Y1990000D02*
Y1930000D01*
X1203811Y1990000D02*
Y1930000D01*
X1204211Y1990000D02*
Y1930000D01*
X1204741Y1989990D02*
Y1929990D01*
X1205341Y1989990D02*
Y1929990D01*
X1205841Y1989990D02*
Y1929990D01*
X1206341Y1989990D02*
Y1929990D01*
X1206741Y1989990D02*
Y1929990D01*
X1207341Y1989990D02*
Y1929990D01*
X1207741Y1989990D02*
Y1929990D01*
X1127142Y1871030D02*
X1142103D01*
Y1889928*
X1127142*
Y1871030*
X1066742D02*
X1081703D01*
Y1889928*
X1066742*
Y1871030*
X1119711Y1831500D02*
X1118211Y1830000D01*
X1107211*
X1105711Y1831500*
Y1864500*
X1119711*
Y1831500*
Y1844500D02*
X1105711D01*
X1053811Y1848300D02*
X1052311Y1846800D01*
X1041311*
X1039811Y1848300*
Y1881300*
X1053811*
Y1848300*
Y1861300D02*
X1039811D01*
X1147611Y1867776D02*
Y1827224D01*
X1121611*
Y1867776*
X1147611*
X1087211D02*
Y1827224D01*
X1061211*
Y1867776*
X1087211*
X1006411Y1615000D02*
Y1619000D01*
G54D189*
X1146211Y1678900D02*
Y1681900D01*
X1158211Y1674700D02*
Y1677700D01*
X1134211Y1674700D02*
Y1677700D01*
X1158211Y1684100D02*
Y1687100D01*
Y1693600D02*
Y1696600D01*
Y1712500D02*
Y1715500D01*
Y1721950D02*
Y1724950D01*
Y1731400D02*
Y1734400D01*
X1146211Y1735600D02*
Y1738600D01*
X1134211Y1731400D02*
Y1734400D01*
Y1721950D02*
Y1724950D01*
X1146211Y1726150D02*
Y1729150D01*
Y1697800D02*
Y1700800D01*
X1134211Y1693600D02*
Y1696600D01*
X1146211Y1688300D02*
Y1691300D01*
X1134211Y1684100D02*
Y1687100D01*
X1117711Y1876100D02*
X1120711D01*
X1157611Y1884800D02*
X1160611D01*
X1141711Y1903600D02*
X1138711D01*
X1057411Y1876200D02*
X1060411D01*
X1095711Y1891800D02*
X1098711D01*
X1081211Y1903000D02*
X1078211D01*
X1155111Y1884800D02*
X1152111D01*
X1092211Y1885000D02*
X1089211D01*
X1158211Y1753500D02*
Y1756500D01*
Y1762900D02*
Y1765900D01*
X1010211Y1587000D02*
Y1584000D01*
Y1594900D02*
Y1591900D01*
Y1602800D02*
Y1599800D01*
Y1610700D02*
Y1607700D01*
X1134211Y1753500D02*
Y1756500D01*
Y1762900D02*
Y1765900D01*
X1146211Y1757700D02*
Y1760700D01*
Y1767100D02*
Y1770100D01*
X1010211Y1571300D02*
Y1568300D01*
Y1579100D02*
Y1576100D01*
X1022711Y1869300D02*
Y1866300D01*
Y1861500D02*
Y1858500D01*
Y1830250D02*
Y1827250D01*
Y1822400D02*
Y1819400D01*
X1134211Y1712500D02*
Y1715500D01*
X1146211Y1716700D02*
Y1719700D01*
X1197211Y1412600D02*
X1200211D01*
G54D190*
X996083Y1647816D02*
G03X996083I-2101J0D01*
G01X1171083D02*
G03X1171083I-2101J0D01*
G74*
G01X0Y0D02*
M02*
