*
*
G04 PADS Layout (Build Number 2007.45.1) generated Gerber (RS-274-X) file*
G04 PC Version=2.1*
*
%IN "09051-00121-A.pcb"*%
*
%MOIN*%
*
%FSLAX35Y35*%
*
*
*
*
G04 PC Standard Apertures*
*
*
G04 Thermal Relief Aperture macro.*
%AMTER*
1,1,$1,0,0*
1,0,$1-$2,0,0*
21,0,$3,$4,0,0,45*
21,0,$3,$4,0,0,135*
%
*
*
G04 Annular Aperture macro.*
%AMANN*
1,1,$1,0,0*
1,0,$2,0,0*
%
*
*
G04 Odd Aperture macro.*
%AMODD*
1,1,$1,0,0*
1,0,$1-0.005,0,0*
%
*
*
G04 PC Custom Aperture Macros*
*
*
*
*
*
*
G04 PC Aperture Table*
*
%ADD010C,0.01*%
%ADD016C,0.02*%
%ADD019C,0.025*%
%ADD049C,0.18*%
%ADD101C,0.062*%
%ADD147C,0.08268*%
%ADD155C,0.05512*%
%ADD157C,0.09449*%
%ADD158C,0.15197*%
%ADD194C,0.02953*%
%ADD195C,0.04528*%
*
*
*
*
G04 PC Copper Outlines (0)*
G04 Layer Name 09051-00121-A.pcb - dark (0)*
%LPD*%
*
*
G04 PC Area=Custom_Thermal*
*
G04 PC Custom Flashes*
G04 Layer Name 09051-00121-A.pcb - flashes*
%LPD*%
*
*
G04 PC Circuitry*
G04 Layer Name 09051-00121-A.pcb - circuitry*
%LPD*%
*
G54D10*
G01X1144727Y2004594D02*
X1143136Y2000000D01*
X1142500Y2004594D02*
X1144727D01*
X1021200Y1402600D02*
Y1441850D01*
X1025700Y1446350*
Y1449500*
X1025500Y1449700*
Y1452000*
X1074500Y1402100D02*
Y1449100D01*
X1078900Y1453500*
X1127500Y1402000D02*
Y1446870D01*
X1133615Y1452985*
X1015000Y1414500D02*
Y1438090D01*
X1021658Y1444748*
Y1446458*
X1023600Y1448400*
X1077000Y1414500D02*
Y1447500D01*
X1079500Y1450000*
X1130000Y1414300D02*
Y1446400D01*
X1133200Y1449600*
X1133500Y1449800*
X1042700Y1466100D02*
Y1473525D01*
X1051800Y1482625*
Y1491096*
X1040500Y1467800D02*
Y1473606D01*
X1050200Y1483306*
Y1490099*
X1037531Y1467969D02*
Y1480937D01*
X1045100Y1488506*
Y1490431*
X1017500Y1446000D02*
Y1455007D01*
X997766Y1474741*
Y1512032*
X1005000Y1519266*
Y1524912*
X1014200Y1534112*
Y1627500*
X1016400Y1629700*
Y1657300*
X1015500Y1658200*
Y1660500*
X1048370Y1458900D02*
X1046430D01*
X1044592Y1460738*
Y1461408*
X1042500Y1463500*
X1048370Y1458900D02*
X1051800Y1462330D01*
Y1478075*
X1056000Y1482275*
Y1485356*
X1057100Y1486456*
X1047100Y1475650D02*
X1054400Y1482950D01*
Y1488425*
X1055500Y1489525*
Y1493670*
X1083000Y1449500D02*
Y1460069D01*
X1081300Y1461769*
Y1486000*
X1084400Y1489100*
X1045900Y1482000D02*
X1046100D01*
Y1484500*
X1046000Y1484600*
Y1487019*
X1046700Y1487719*
Y1491154*
X1046200Y1491654*
Y1497956*
X1040600Y1503556*
Y1589200*
X1038000Y1591800*
X1047300Y1461000D02*
X1047100D01*
Y1475650*
X1079500Y1446000D02*
X1083000Y1449500D01*
X1087570Y1461200D02*
X1085330D01*
X1084100Y1462430*
Y1473073*
X1087570Y1461200D02*
X1091500Y1465130D01*
Y1468900*
X1118750Y1467850D02*
Y1678550D01*
X1119000Y1678800*
Y1769000*
X1084100Y1473073D02*
X1089800Y1478773D01*
Y1587300*
X1094300Y1591800*
X1106000Y1448700D02*
Y1511370D01*
X1107660Y1513030*
X1120350Y1470180D02*
Y1589700D01*
X1122450Y1591800*
X1108100Y1444100D02*
Y1446600D01*
X1106000Y1448700*
X1099100Y1463263D02*
Y1563840D01*
X1105560Y1570300*
X1096669Y1465300D02*
X1097000D01*
Y1564266*
X1101900Y1569166*
Y1575734*
X1094800Y1467900D02*
Y1565300D01*
X1099800Y1570300*
X1086200Y1463300D02*
Y1468654D01*
X1093200Y1475654*
Y1566500*
X1094300Y1567600*
Y1570300*
X1134230Y1456300D02*
X1135970D01*
X1140500Y1460830*
Y1463100*
X1134230Y1456300D02*
X1120350Y1470180D01*
X1144900Y1467700D02*
X1142330D01*
X1122450Y1487580*
Y1570300*
X1149070Y1479300D02*
X1143230D01*
X1140400Y1482130*
Y1494231*
X1134300Y1500331*
X1147600Y1473200D02*
X1144830D01*
X1128080Y1489950*
Y1570300*
X1142600Y1470400D02*
X1125980Y1487020D01*
Y1589700*
X1118750Y1467850D02*
X1133800Y1452800D01*
X1134300Y1453300*
X1137600*
X1133800Y1452800D02*
X1133615Y1452985D01*
X1151700Y1472700D02*
Y1476670D01*
X1149070Y1479300*
X1038000Y1498600D02*
X1031100D01*
X1008000Y1521700*
X1012592Y1526292*
X1013262*
X1024300Y1537330*
Y1683200*
X1042500Y1493500D02*
Y1497097D01*
X1026600Y1512997*
Y1686870*
X1016370Y1697100*
X1057100Y1486456D02*
Y1500215D01*
X1047500Y1509815*
X1055500Y1493670D02*
X1053470Y1495700D01*
X1053330*
X1051100Y1497930*
Y1503819*
X1045900Y1509019*
Y1563999*
X1045100Y1490431D02*
X1044600Y1490931D01*
Y1497276*
X1038000Y1503876*
Y1570300*
X1047500Y1509815D02*
Y1561798D01*
X1049260Y1563558*
Y1570300*
X1050200Y1490099D02*
X1047800Y1492499D01*
Y1498624*
X1042700Y1503724*
Y1581975*
X1051800Y1491096D02*
X1049400Y1493496D01*
Y1503122*
X1044300Y1508222*
Y1566200*
X1070600Y1492100D02*
Y1496100D01*
X1068263Y1498437*
Y1561153*
X1077410Y1570300*
X1059669Y1512800D02*
Y1558189D01*
X1071780Y1570300*
X1057400Y1515300D02*
Y1558381D01*
X1069000Y1569981*
Y1589020*
X1071780Y1591800*
X1054531Y1515469D02*
Y1558681D01*
X1066150Y1570300*
X1049600Y1510800D02*
X1049400D01*
Y1559836*
X1061800Y1510900D02*
Y1557151D01*
X1074600Y1569951*
Y1588990*
X1077410Y1591800*
X1083900Y1500400D02*
Y1540099D01*
X1085500Y1541699*
Y1676000*
X1084400Y1489100D02*
Y1499900D01*
X1083900Y1500400*
X1107660Y1513030D02*
Y1577333D01*
X1103460Y1581533*
X1109500Y1499000D02*
Y1705500D01*
X1129700Y1499369D02*
Y1566290D01*
X1133710Y1570300*
X1134300Y1500331D02*
Y1536645D01*
X1135810Y1538155*
X1135500Y1485500D02*
Y1493569D01*
X1129700Y1499369*
X1147300Y1515100D02*
Y1562446D01*
X1153400Y1568546*
Y1588970*
X1156230Y1591800*
X1144131Y1515269D02*
Y1563831D01*
X1150600Y1570300*
X1151700Y1510600D02*
X1155400Y1514300D01*
Y1564200*
X1159000Y1567800*
Y1588940*
X1161860Y1591800*
X1161200Y1492900D02*
Y1495900D01*
X1157800Y1498700*
Y1564137*
X1161860Y1568197*
Y1570300*
X1149269Y1512600D02*
X1153500Y1516831D01*
Y1564800*
X1156230Y1567530*
Y1570300*
X1138800Y1510600D02*
Y1581200D01*
X1150600Y1593000*
X1191900Y1521600D02*
X1187400Y1526100D01*
Y1552728*
X1192600Y1557928*
Y1679100*
X1190300Y1681400*
Y1683200*
X1192600Y1685500*
Y1853500*
X1190900Y1855200*
Y1862400*
X999500Y1527000D02*
X999642Y1527142D01*
X1004026*
X1012600Y1535716*
Y1629400*
X1015500Y1531500D02*
X1015900D01*
Y1623551*
X1018000Y1625651*
X1049400Y1559836D02*
X1054100Y1564536D01*
Y1579750*
X1066150Y1591800*
X1135810Y1538155D02*
Y1589700D01*
X1133710Y1591800*
X998000Y1565500D02*
X993000Y1570500D01*
Y1744500*
X1009500Y1761000*
X1002000Y1601500D02*
Y1604800D01*
X1004100Y1606900*
Y1670600*
X1009500Y1676000*
X1002000Y1593500D02*
X1005700Y1597200D01*
Y1669200*
X1009500Y1673000*
X1002000Y1577500D02*
X999050Y1580450D01*
Y1586980*
X1001970Y1589900*
X1007300Y1595200*
Y1661300*
X1009500Y1663500*
X1002000Y1570000D02*
X1009000Y1577000D01*
Y1648354*
X1011600Y1650954*
Y1654913*
X1009500Y1657013*
Y1660500*
X1042700Y1581975D02*
X1045300Y1584575D01*
Y1590130*
X1029500Y1572500D02*
Y1575600D01*
X1029200Y1575900*
Y1686533*
X1017033Y1698700*
X1038000Y1570300D02*
X1031500Y1576800D01*
Y1700970*
X1016170Y1716300*
X1045900Y1563999D02*
X1047000Y1565099D01*
Y1579106*
X1051400Y1583506*
Y1589660*
X1044300Y1566200D02*
X1044800Y1566700D01*
Y1570300*
X1051400Y1589660D02*
X1049260Y1591800D01*
X1053000Y1581878D02*
Y1723500D01*
X1015500Y1761000*
X1045300Y1590130D02*
X1043630Y1591800D01*
X1046900Y1582590D02*
Y1595854D01*
X1045800Y1596954*
Y1698433*
X1016933Y1727300*
X1077410Y1570300D02*
X1083000Y1575890D01*
Y1729500*
X1049260Y1591800D02*
Y1600819D01*
X1047400Y1602679*
Y1701100*
X1015500Y1733000*
X1044800Y1570300D02*
Y1580490D01*
X1046900Y1582590*
X1043630Y1591800D02*
X1040800Y1594630D01*
Y1701170*
X1016370Y1725600*
X1049260Y1570300D02*
Y1578138D01*
X1053000Y1581878*
X1092200Y1602100D02*
Y1675700D01*
X1095500Y1679000*
X1097700Y1589600D02*
X1099900Y1591800D01*
X1101900Y1575734D02*
X1097700Y1579934D01*
Y1589600*
X1103460Y1581533D02*
Y1589700D01*
X1105560Y1591800*
Y1599940*
X1103000Y1602500*
Y1777000*
X1099900Y1591800D02*
Y1600000D01*
X1097500Y1602400*
Y1669500*
X1094300Y1591800D02*
Y1600000D01*
X1092200Y1602100*
X1131610Y1580590D02*
Y1614122D01*
X1131700Y1614212*
X1125980Y1589700D02*
X1128080Y1591800D01*
Y1600080*
X1130000Y1602000*
Y1619026*
X1130100Y1619126*
X1133710Y1570300D02*
Y1578490D01*
X1131610Y1580590*
X1133710Y1591800D02*
Y1600010D01*
X1135900Y1602200*
Y1684700*
X1137100Y1685900*
Y1689500*
X1187700Y1582874D02*
X1176200Y1594374D01*
Y1749800*
X1167000Y1759000*
X1187700Y1567126D02*
X1165100Y1589726D01*
Y1632330*
X1147900Y1649530*
X1187700Y1602126D02*
X1178300Y1611526D01*
Y1750670*
X1167870Y1761100*
X999000Y1642500D02*
Y1747470D01*
X1008630Y1757100*
X1002000Y1609000D02*
Y1675000D01*
X1009500Y1682500*
X1018000Y1625651D02*
Y1677200D01*
X1015500Y1679700*
Y1682500*
X1011800Y1643100D02*
X1014800Y1646100D01*
Y1656420*
X1013400Y1657820*
Y1661400*
X1015500Y1663500*
X1130100Y1619126D02*
Y1664100D01*
X1129500Y1664700*
Y1701500*
X1131700Y1614212D02*
Y1703500D01*
X1130000Y1705200*
Y1708500*
X1187700Y1617874D02*
Y1617800D01*
X1182800Y1622700*
Y1651100*
X1187000Y1655300*
Y1748500*
X1167000Y1768500*
X1024300Y1683200D02*
X1015500Y1692000D01*
X1011800Y1646100D02*
X1011814D01*
X1013200Y1647486*
Y1655639*
X1011700Y1657139*
Y1664300*
X1009500Y1666500*
X1034800Y1664900D02*
X1034500Y1700233D01*
X1016633Y1718100*
X1014930*
X1012500Y1720530*
Y1723500*
X1007400Y1728600*
Y1743370*
X1008630Y1744600*
X1011570*
X1017600Y1750630*
Y1756533*
X1015333Y1758800*
X1014730*
X1013200Y1760330*
Y1766281*
X1007400Y1772081*
Y1778600*
X1009500Y1780700*
Y1783500*
X1147900Y1649530D02*
Y1740000D01*
X1150000Y1742100*
Y1752500*
X1126000Y1676000D02*
Y1680200D01*
X1123800Y1682400*
Y1734362*
X1128100Y1738662*
Y1756400*
X1126900Y1757600*
Y1761150*
X1128100Y1762350*
Y1765900*
X1126400Y1767600*
Y1935100*
X1126500Y1935200*
Y1940500*
X1138000Y1680500D02*
Y1683100D01*
X1140100Y1685200*
X1150000Y1674000D02*
X1153700Y1677700D01*
Y1830414*
X1146800Y1837314*
Y1881300*
X1141500Y1886600*
Y1925700*
X1134000Y1933200*
Y1940800*
X1138500Y1945000*
X1166500Y1680000D02*
X1155600Y1690900D01*
Y1850803*
X1149600Y1856803*
Y1882589*
X1144100Y1888089*
Y1925600*
X1138900Y1930800*
Y1935000*
X1016170Y1716300D02*
X1010730D01*
X1005800Y1721230*
Y1744770*
X1009830Y1748800*
X1013400Y1695870D02*
X1014630Y1697100D01*
X1016370*
X1009500Y1695000D02*
X1013200Y1698700D01*
X1017033*
X1015500Y1685500D02*
Y1688300D01*
X1013400Y1690400*
Y1695870*
X1162130Y1715900D02*
X1164400D01*
X1166500Y1718000*
X1162130Y1715900D02*
X1157500Y1720530D01*
Y1937700*
X1140240Y1955000*
X1138500*
X1140100Y1685200D02*
Y1764800D01*
X1139500Y1765400*
Y1804000*
X1163000Y1718000D02*
Y1750250D01*
X1160900Y1752350*
X1138000Y1699500D02*
X1133800Y1703700D01*
Y1789081*
X1131500Y1791381*
Y1930000*
X1145500Y1683500D02*
Y1754000D01*
X1145000Y1754500*
Y1825000*
X1150000Y1711500D02*
Y1726700D01*
X1152100Y1728800*
Y1826791*
X1139300Y1839491*
Y1894100*
X1139900Y1894700*
Y1896700*
X1139400Y1897200*
Y1925484*
X1131700Y1933084*
Y1958200*
X1138500Y1965000*
X1202000Y1686100D02*
X1207600Y1691700D01*
Y1933900*
X1202000Y1692000D02*
Y1702600D01*
X1204100Y1704700*
Y1873400*
X1187400Y1890100*
Y1925900*
X1196500Y1935000*
X1016933Y1727300D02*
X1014730D01*
X1013400Y1728630*
X1016370Y1725600D02*
X1014167D01*
X1011700Y1728067*
Y1735350*
X1010500Y1736550*
X1009830Y1748800D02*
X1010270D01*
X1011808Y1750338*
Y1750608*
X1013600Y1752400*
X1013400Y1728630D02*
Y1735350D01*
X1015500Y1737450*
Y1742500*
X1010500Y1736550D02*
Y1740500D01*
X1015500Y1745500*
X1013900Y1755000D02*
X1011800Y1757100D01*
X1008630*
X1105200Y1741100D02*
Y1779000D01*
X1102000Y1782600*
X1101700*
X1107500Y1731000D02*
Y1781100D01*
X1100400Y1788800*
X1160900Y1752350D02*
Y1798600D01*
X1162500Y1800200*
Y1841000*
X1163000Y1759000D02*
X1165100Y1761100D01*
X1167870*
X1159800Y1745500D02*
Y1749400D01*
X1159300Y1749900*
Y1936800*
X1126000Y1733000D02*
X1131100Y1738100D01*
Y1774694*
X1014630Y1784400D02*
X1016370D01*
X1020400Y1788430*
Y1845000*
X1031600Y1856200*
Y1873500*
X1014630Y1784400D02*
X1013400Y1785630D01*
Y1787800*
X1015100Y1789500*
X1015500Y1777000D02*
X1022000Y1783500D01*
Y1840700*
X1029500Y1848200*
X1015500Y1774000D02*
X1024100Y1782600D01*
Y1829700*
X1029400Y1835000*
Y1840300*
X1028500Y1781000D02*
Y1801100D01*
X1027400Y1802200*
Y1830304*
X1015500Y1786500D02*
X1018400Y1789400D01*
Y1848900*
X1029500Y1860000*
X1015100Y1792500D02*
Y1795300D01*
X1013000Y1797400*
Y1806700*
X1016300Y1810000*
Y1874800*
X1029500Y1888000*
X1101700Y1782600D02*
X1069700Y1814600D01*
X1061200*
X1038900Y1836900*
X1039000Y1837000*
Y1846300*
X1131100Y1774694D02*
X1128500Y1777294D01*
Y1931000*
X1186370Y1773400D02*
X1184630D01*
X1182244Y1775786*
Y1950744*
X1186370Y1773400D02*
X1188500Y1775530D01*
Y1787500*
X1173000Y1780000D02*
Y1949500D01*
X1167500Y1955000*
X1185500Y1775500D02*
Y1803200D01*
X1183844Y1804856*
Y1942344*
X1027400Y1830304D02*
X1033200Y1836104D01*
Y1879270*
X1039500Y1815500D02*
X1035600Y1819400D01*
Y1903400*
X1032500Y1906500*
Y1935000*
X1027400Y1873200D02*
Y1880870D01*
X1028630Y1882100*
X1033200Y1879270D02*
X1030370Y1882100D01*
X1028630*
X1031600Y1873500D02*
X1029500Y1875600D01*
Y1880000*
Y1868000D02*
Y1871100D01*
X1027400Y1873200*
X1038500Y1855500D02*
Y1949000D01*
X1032500Y1955000*
X1018400Y1913600D02*
Y1950100D01*
X1003500Y1965000*
X1159300Y1936800D02*
X1167500Y1945000D01*
X1138500Y1935000D02*
X1138900D01*
X1182244Y1950744D02*
X1196500Y1965000D01*
X1183844Y1942344D02*
X1196500Y1955000D01*
X1207600Y1933900D02*
X1196500Y1945000D01*
X1140900Y2007000D02*
X1146200D01*
Y1997500*
X1140900*
Y2007000*
G54D16*
X1035697Y1383500D02*
X1028297D01*
X1024297Y1387500*
Y1394500*
X1028300Y1398503*
Y1439300*
X1025600Y1442000*
X1025500*
X1035697Y1383500D02*
X1042500Y1390500D01*
X1032500D02*
Y1428800D01*
X1037700Y1434000*
X1080600Y1383500D02*
X1088500D01*
X1095000Y1390000*
Y1390500*
X1080600Y1383500D02*
X1076600Y1386900D01*
Y1395600*
X1080400Y1399400*
Y1441100*
X1079500Y1442000*
X1062500Y1390500D02*
Y1397700D01*
X1058200Y1402000*
Y1436600*
X1054400Y1440400*
X1052500Y1390500D02*
X1052303Y1422197D01*
X1040408Y1434092*
X1115000Y1390500D02*
Y1399000D01*
X1112200Y1401800*
Y1436600*
X1108400Y1440400*
X1105000Y1390500D02*
X1104803Y1423697D01*
X1094500Y1434000*
X1085000Y1390500D02*
Y1426900D01*
X1091500Y1433400*
X1157000Y1389697D02*
Y1425600D01*
X1148708Y1433892*
X1157000Y1389697D02*
X1157500Y1390500D01*
X1141197Y1383500D02*
X1133297D01*
X1129297Y1386900*
Y1395600*
X1133097Y1399400*
Y1440597*
X1134500Y1442000*
X1141197Y1383500D02*
X1147697Y1390000D01*
X1147500Y1390500*
X1137500D02*
Y1425600D01*
X1145700Y1433800*
X1167500Y1390500D02*
Y1399000D01*
X1164300Y1402200*
Y1438600*
X1162700Y1440200*
X1045023Y1456800D02*
X1049240D01*
X1054400Y1461960*
Y1477700*
X1045023Y1456800D02*
X1029900Y1471923D01*
Y1480600*
X1003000Y1507500*
X1017700Y1390900D03*
X1021200Y1402600D03*
X1070900Y1391100D03*
X1074500Y1402100D03*
X1124100Y1391200D03*
X1127500Y1402000D03*
X1001900Y1429400D03*
X1008000D03*
X1031100Y1438200D03*
X1038300Y1409900D03*
X1040400Y1428600D03*
X1036000Y1428500D03*
X1025500Y1442000D03*
X1040408Y1434092D03*
X1037700Y1434000D03*
X1015000Y1414500D03*
X1047800Y1438200D03*
X1064600Y1428500D03*
X1079500Y1442000D03*
X1077000Y1414500D03*
X1054400Y1440400D03*
X1101500Y1438200D03*
X1085400Y1438300D03*
X1118400Y1428500D03*
X1100300Y1409700D03*
X1094400Y1428600D03*
X1087300Y1433400D03*
X1094500Y1434000D03*
X1091500Y1433400D03*
X1108400Y1440400D03*
X1155600Y1438100D03*
X1139700D03*
X1159900Y1409900D03*
X1148700Y1428400D03*
X1141600Y1433400D03*
X1130000Y1414300D03*
X1134500Y1442000D03*
X1162700Y1440200D03*
X1148708Y1433892D03*
X1145700Y1433800D03*
X1197900Y1421000D03*
X1172900Y1429200D03*
X1002000Y1463500D03*
X1042500Y1451100D03*
Y1445000D03*
X1036400Y1451100D03*
Y1445000D03*
X1027500Y1456900D03*
X1008000Y1455500D03*
X1022200Y1476800D03*
X1030100Y1457400D03*
X1025500Y1452000D03*
X1023600Y1448400D03*
X1042700Y1466100D03*
X1040500Y1467800D03*
X1037531Y1467969D03*
X1042500Y1463500D03*
X1032900Y1465200D03*
X1017500Y1446000D03*
X1069600Y1454500D03*
X1068600Y1483100D03*
X1080900Y1458000D03*
X1054500Y1454700D03*
X1045900Y1482000D03*
X1078900Y1453500D03*
X1079500Y1450000D03*
X1066000Y1481600D03*
X1054000Y1450000D03*
X1065000Y1445700D03*
X1057000Y1477500D03*
X1049300Y1462800D03*
X1047300Y1461000D03*
X1053700Y1444100D03*
X1054400Y1477700D03*
X1058500Y1482000D03*
X1079500Y1446000D03*
X1083400Y1479600D03*
X1096500Y1451000D03*
Y1445000D03*
X1090500D03*
Y1451000D03*
X1111900Y1476800D03*
X1108100Y1444100D03*
Y1449900D03*
X1119000Y1445950D03*
X1108700Y1454700D03*
X1102000Y1462694D03*
X1099100Y1463263D03*
X1096669Y1465300D03*
X1094800Y1467900D03*
X1091500Y1468900D03*
X1086200Y1463300D03*
X1088600Y1465200D03*
X1148000Y1481600D03*
X1153000Y1482100D03*
X1123300Y1454700D03*
X1150900Y1451000D03*
Y1445000D03*
X1145000D03*
X1144900Y1451000D03*
X1135100Y1458400D03*
X1142600Y1470400D03*
X1144900Y1467700D03*
X1140500Y1463100D03*
X1162300Y1443900D03*
X1133500Y1449800D03*
X1133800Y1452800D03*
X1151700Y1472700D03*
X1147600Y1473200D03*
X1162600Y1449600D03*
X1162900Y1454500D03*
X1156300Y1462494D03*
X1148200Y1477200D03*
X1144000D03*
X1142900Y1465000D03*
X1144000Y1481500D03*
X1134000Y1446000D03*
X1177500Y1454700D03*
X1173200Y1445400D03*
X1002000Y1521600D03*
X1008000Y1521700D03*
X1038000Y1498600D03*
X1043000Y1489500D03*
X1042500Y1493500D03*
X1070700Y1501400D03*
X1048100Y1485900D03*
X1053400Y1492800D03*
Y1498600D03*
X1059400D03*
Y1492800D03*
X1045700Y1503700D03*
X1070600Y1492100D03*
X1065000Y1510194D03*
X1059669Y1512800D03*
X1057400Y1515300D03*
X1054531Y1515469D03*
X1049600Y1510800D03*
X1072300Y1499200D03*
X1082300Y1495500D03*
X1051600Y1512700D03*
X1070000Y1489500D03*
X1061800Y1510900D03*
X1086000Y1504800D03*
X1109500Y1499000D03*
X1132500Y1489394D03*
X1137700Y1487000D03*
X1149000Y1498200D03*
X1143100D03*
X1149000Y1492400D03*
X1143100Y1492300D03*
X1136400Y1504500D03*
X1135500Y1485500D03*
X1147300Y1515100D03*
X1144131Y1515269D03*
X1132500Y1493500D03*
X1161900Y1499000D03*
X1154600Y1510000D03*
X1141200Y1512500D03*
X1159900Y1502600D03*
X1151700Y1510600D03*
X1161200Y1492900D03*
X1149269Y1512600D03*
X1138800Y1510600D03*
X1160300Y1489900D03*
X1131800Y1500337D03*
X1176300Y1504800D03*
X1180900Y1488000D03*
X1198100Y1521500D03*
X1171900Y1495300D03*
X1191900Y1521600D03*
X999500Y1527000D03*
X1015500Y1531500D03*
X1001900Y1585500D03*
X998000Y1565500D03*
X1002000Y1601500D03*
Y1593500D03*
Y1577500D03*
Y1570000D03*
X1038000Y1587500D03*
Y1591800D03*
X1029500Y1572500D03*
X1038000Y1570300D03*
X1077410Y1587500D03*
X1049300D03*
X1066150D03*
X1043200D03*
X1071780D03*
X1077410Y1570300D03*
X1071780D03*
Y1591800D03*
X1066150Y1570300D03*
Y1591800D03*
X1049260D03*
X1044800Y1570300D03*
X1043630Y1591800D03*
X1049260Y1570300D03*
X1077410Y1591800D03*
X1099800Y1587500D03*
X1094300D03*
X1105560D03*
X1122450D03*
Y1570300D03*
Y1591800D03*
X1105560D03*
Y1570300D03*
X1099900Y1591800D03*
X1099800Y1570300D03*
X1094300Y1591800D03*
Y1570300D03*
X1150600Y1587500D03*
X1161860D03*
X1133710D03*
X1156230D03*
X1128080D03*
Y1591800D03*
X1133710Y1570300D03*
X1156230Y1591800D03*
X1150600Y1570300D03*
X1133710Y1591800D03*
X1128080Y1570300D03*
X1161860Y1591800D03*
Y1570300D03*
X1156230D03*
X1150600Y1593000D03*
X1173400Y1572600D03*
X999000Y1642500D03*
X1002000Y1609000D03*
X1012600Y1629400D03*
X1011800Y1643100D03*
X1038000Y1609000D03*
X1071780D03*
X1066150D03*
X1077410D03*
X1049500D03*
X1043630D03*
X1105560D03*
X1122450D03*
X1099900D03*
X1094300D03*
X1156230D03*
X1161860D03*
X1150600D03*
X1133710D03*
X1127900D03*
X1128000Y1628500D03*
X1169800Y1614900D03*
X1173400Y1618700D03*
X1011800Y1646100D03*
X1009500Y1654000D03*
X1015500Y1673000D03*
Y1682500D03*
Y1663500D03*
X1034800Y1664900D03*
X1009500Y1682500D03*
Y1676000D03*
Y1673000D03*
Y1666500D03*
Y1663500D03*
Y1660500D03*
X1015500Y1666500D03*
Y1676000D03*
Y1660500D03*
X1097500Y1669500D03*
X1095500Y1679000D03*
X1085500Y1676000D03*
X1157600Y1651500D03*
X1126000Y1676000D03*
X1138000Y1680500D03*
X1150000Y1674000D03*
X1172100Y1670000D03*
X1202100Y1660400D03*
X1184500Y1663500D03*
X1202000Y1673000D03*
X1193700Y1682400D03*
X1202000Y1676200D03*
X1166500Y1680000D03*
X1009500Y1701500D03*
Y1704500D03*
Y1711000D03*
Y1714000D03*
X1015500Y1692000D03*
Y1701500D03*
X1009500Y1692000D03*
Y1695000D03*
X1038000Y1715000D03*
X1009500Y1720500D03*
X1015500Y1711000D03*
Y1714000D03*
Y1720500D03*
Y1695000D03*
Y1704500D03*
Y1685500D03*
X1065000Y1723000D03*
X1109500Y1705500D03*
X1131400Y1718200D03*
X1126400Y1714100D03*
X1129500Y1701500D03*
X1130000Y1708500D03*
X1163000Y1718000D03*
X1138000Y1699500D03*
X1126000Y1685500D03*
Y1695000D03*
X1134500Y1690000D03*
X1137100Y1689500D03*
X1145500Y1683500D03*
X1150000Y1711500D03*
X1202000Y1710500D03*
Y1720000D03*
Y1683500D03*
X1189500Y1698000D03*
X1184500Y1690000D03*
X1202000Y1714000D03*
X1166500Y1689500D03*
X1202000Y1686100D03*
Y1692000D03*
X1166500Y1718000D03*
X1012600Y1739000D03*
X1028100Y1736025D03*
X1009500Y1729500D03*
Y1733000D03*
X1015500Y1729500D03*
X1013900Y1755000D03*
X1010700Y1746700D03*
X1009500Y1723500D03*
Y1742500D03*
X1009400Y1750900D03*
X1009500Y1755000D03*
Y1761000D03*
X1015500Y1723500D03*
Y1733000D03*
Y1742500D03*
Y1745500D03*
X1013600Y1752400D03*
X1015500Y1761000D03*
X1083000Y1729500D03*
X1096300Y1741100D03*
X1105200D03*
X1107500Y1731000D03*
X1122100Y1736025D03*
X1126000Y1755000D03*
X1129000Y1759000D03*
X1163000D03*
X1126000Y1723500D03*
X1159800Y1745500D03*
X1126000Y1733000D03*
X1137000Y1737000D03*
X1138000Y1727500D03*
X1150000Y1752500D03*
X1171800Y1748200D03*
X1169000Y1737700D03*
X1166000D03*
X1202000Y1723500D03*
X1167000Y1759000D03*
X1166500Y1727500D03*
X1202000Y1761100D03*
Y1751600D03*
Y1755000D03*
X1028100Y1767500D03*
X1012100Y1770600D03*
X1009500Y1777000D03*
Y1786500D03*
Y1783500D03*
X1015500Y1777000D03*
Y1774000D03*
X1015100Y1802000D03*
Y1799000D03*
X1028500Y1781000D03*
X1015500Y1786500D03*
X1015100Y1789500D03*
Y1792500D03*
X1009500Y1764500D03*
Y1774000D03*
X1100400Y1788800D03*
X1101700Y1782600D03*
X1103000Y1777000D03*
X1119000Y1769000D03*
X1126000Y1764500D03*
X1129000Y1768500D03*
X1202000Y1770600D03*
X1189100Y1799200D03*
X1188500Y1787500D03*
X1173000Y1780000D03*
X1185500Y1775500D03*
X1167000Y1768500D03*
X1202000Y1764500D03*
X1029400Y1840300D03*
X1029500Y1821000D03*
Y1829000D03*
X1039500Y1815500D03*
X1059400Y1821700D03*
X1046100Y1837800D03*
X1080800Y1821900D03*
X1073300Y1824500D03*
X1073400Y1817200D03*
X1087500Y1821700D03*
X1133900D03*
X1139500Y1804000D03*
X1162500Y1841000D03*
X1145000Y1825000D03*
X1039000Y1846300D03*
X1029500Y1848200D03*
Y1868000D03*
Y1860000D03*
Y1880000D03*
X1038500Y1855500D03*
X1063800Y1877800D03*
X1046100Y1843800D03*
X1073500Y1870500D03*
X1083200Y1877800D03*
X1090100Y1877200D03*
X1143900Y1878000D03*
X1124200Y1877700D03*
X1152900Y1876500D03*
X1133900Y1869900D03*
X1190900Y1862400D03*
X1018400Y1913600D03*
X1029500Y1888000D03*
X1049300Y1917200D03*
X1057100Y1917000D03*
X1074500Y1891400D03*
X1058600Y1903100D03*
X1058200Y1888300D03*
X1076700Y1895700D03*
X1083000Y1894600D03*
X1074600Y1894000D03*
X1074100Y1907200D03*
X1073200Y1898200D03*
X1059400Y1893000D03*
X1118200Y1888100D03*
X1118300Y1903000D03*
X1086300Y1888400D03*
X1101900Y1895200D03*
X1119800Y1893000D03*
X1090100Y1906000D03*
X1148900Y1888200D03*
X1134900Y1891400D03*
X1137500Y1895800D03*
X1147800Y1892500D03*
X1133700Y1898300D03*
X1134900Y1894000D03*
X1134300Y1907300D03*
X1163200Y1888100D03*
X1126500Y1940500D03*
X1131500Y1930000D03*
X1128500Y1931000D03*
G54D19*
X987500Y2025000D02*
X1212500D01*
Y1375000*
X987500*
Y2025000*
G54D49*
X1002500Y1909900D03*
X1197500D03*
X1002500Y2007500D03*
X1197500D03*
X1002500Y1539900D03*
X1197500D03*
X1002500Y1390300D03*
X1197500D03*
G54D101*
X1003500Y1935000D03*
Y1945000D03*
Y1955000D03*
Y1965000D03*
Y1975000D03*
Y1985000D03*
X1032500Y1935000D03*
Y1945000D03*
Y1955000D03*
Y1965000D03*
Y1975000D03*
Y1985000D03*
X1138500Y1935000D03*
Y1945000D03*
Y1955000D03*
Y1965000D03*
Y1975000D03*
Y1985000D03*
X1167500Y1935000D03*
Y1945000D03*
Y1955000D03*
Y1965000D03*
Y1975000D03*
Y1985000D03*
X1196500Y1935000D03*
Y1945000D03*
Y1955000D03*
Y1965000D03*
Y1975000D03*
Y1985000D03*
X1020100Y1617022D03*
Y1609148D03*
Y1601274D03*
Y1593400D03*
Y1585526D03*
Y1577652D03*
Y1569778D03*
G54D147*
X1085000Y1390500D03*
X1095000D03*
X1105000D03*
X1115000D03*
X1137500D03*
X1147500D03*
X1157500D03*
X1167500D03*
X1197000Y1477500D03*
Y1487500D03*
Y1497500D03*
Y1507500D03*
X1003000D03*
Y1497500D03*
Y1487500D03*
Y1477500D03*
X1032500Y1390500D03*
X1042500D03*
X1052500D03*
X1062500D03*
G54D155*
X1012000Y1840363D03*
Y1848237D03*
X1011700Y1867837D03*
Y1859963D03*
X1012000Y1880163D03*
Y1888037D03*
Y1828737D03*
Y1820863D03*
X1187700Y1832126D03*
Y1840000D03*
Y1847874D03*
Y1867126D03*
Y1875000D03*
Y1882874D03*
Y1567126D03*
Y1575000D03*
Y1582874D03*
Y1602126D03*
Y1610000D03*
Y1617874D03*
X1187500Y1409063D03*
Y1416937D03*
G54D157*
X1106299Y1972502D03*
X1090000D03*
X1073701D03*
G54D158*
X1090000Y2001400D03*
G54D194*
X1012500Y1812008D03*
G54D195*
Y1637992D03*
X1187500Y1812008D03*
Y1637992D03*
X0Y0D02*
M02*
