*
*
G04 PADS Layout (Build Number 2007.45.1) generated Gerber (RS-274-X) file*
G04 PC Version=2.1*
*
%IN "09051-00121-A.pcb"*%
*
%MOIN*%
*
%FSLAX35Y35*%
*
*
*
*
G04 PC Standard Apertures*
*
*
G04 Thermal Relief Aperture macro.*
%AMTER*
1,1,$1,0,0*
1,0,$1-$2,0,0*
21,0,$3,$4,0,0,45*
21,0,$3,$4,0,0,135*
%
*
*
G04 Annular Aperture macro.*
%AMANN*
1,1,$1,0,0*
1,0,$2,0,0*
%
*
*
G04 Odd Aperture macro.*
%AMODD*
1,1,$1,0,0*
1,0,$1-0.005,0,0*
%
*
*
G04 PC Custom Aperture Macros*
*
*
*
*
*
*
G04 PC Aperture Table*
*
%ADD058R,0.049X0.049*%
%ADD059R,0.073X0.073*%
%ADD061R,0.061X0.061*%
%ADD072C,0.19*%
%ADD088R,0.041X0.041*%
%ADD109R,0.072X0.072*%
%ADD110C,0.072*%
%ADD113R,0.02181X0.02181*%
%ADD114R,0.02969X0.02969*%
%ADD166R,0.1163X0.1163*%
%ADD167C,0.09268*%
%ADD168R,0.07299X0.07299*%
%ADD169R,0.08874X0.08874*%
%ADD170R,0.13402X0.13402*%
%ADD171R,0.01984X0.01984*%
%ADD172R,0.01866X0.01866*%
%ADD173R,0.1163X0.1163*%
%ADD174R,0.082X0.082*%
%ADD175R,0.06512X0.06512*%
%ADD176C,0.06512*%
%ADD177R,0.10449X0.10449*%
%ADD178C,0.10449*%
%ADD179C,0.16197*%
%ADD196C,0.03953*%
%ADD197C,0.05528*%
*
*
*
*
G04 PC Copper Outlines (0)*
G04 Layer Name 09051-00121-A.pcb - dark (0)*
%LPD*%
*
*
G04 PC Area=Custom_Thermal*
*
G04 PC Custom Flashes*
G04 Layer Name 09051-00121-A.pcb - flashes*
%LPD*%
*
*
G04 PC Circuitry*
G04 Layer Name 09051-00121-A.pcb - circuitry*
%LPD*%
*
G54D58*
G01X1142300Y1681500D02*
X1141900D01*
X1149100D02*
X1148700D01*
X1154300Y1677300D02*
X1153900D01*
X1161100D02*
X1160700D01*
X1130300D02*
X1129900D01*
X1137100D02*
X1136700D01*
X1154300Y1686700D02*
X1153900D01*
X1161100D02*
X1160700D01*
X1154300Y1696200D02*
X1153900D01*
X1161100D02*
X1160700D01*
X1154300Y1715100D02*
X1153900D01*
X1161100D02*
X1160700D01*
X1154300Y1724550D02*
X1153900D01*
X1161100D02*
X1160700D01*
X1154300Y1734000D02*
X1153900D01*
X1161100D02*
X1160700D01*
X1142300Y1738200D02*
X1141900D01*
X1149100D02*
X1148700D01*
X1130300Y1734000D02*
X1129900D01*
X1137100D02*
X1136700D01*
X1130300Y1724550D02*
X1129900D01*
X1137100D02*
X1136700D01*
X1142300Y1728750D02*
X1141900D01*
X1149100D02*
X1148700D01*
X1142300Y1700400D02*
X1141900D01*
X1149100D02*
X1148700D01*
X1130300Y1696200D02*
X1129900D01*
X1137100D02*
X1136700D01*
X1142300Y1690900D02*
X1141900D01*
X1149100D02*
X1148700D01*
X1130300Y1686700D02*
X1129900D01*
X1137100D02*
X1136700D01*
X1118500Y1880400D02*
Y1880800D01*
Y1873600D02*
Y1874000D01*
X1158400Y1889100D02*
Y1889500D01*
Y1882300D02*
Y1882700D01*
X1139500Y1901500D02*
Y1901100D01*
Y1908300D02*
Y1907900D01*
X1058200Y1880500D02*
Y1880900D01*
Y1873700D02*
Y1874100D01*
X1096500Y1896100D02*
Y1896500D01*
Y1889300D02*
Y1889700D01*
X1079000Y1900900D02*
Y1900500D01*
Y1907700D02*
Y1907300D01*
X1152900Y1882700D02*
Y1882300D01*
Y1889500D02*
Y1889100D01*
X1090000Y1882900D02*
Y1882500D01*
Y1889700D02*
Y1889300D01*
X1154300Y1756100D02*
X1153900D01*
X1161100D02*
X1160700D01*
X1154300Y1765500D02*
X1153900D01*
X1161100D02*
X1160700D01*
X1012700Y1586600D02*
X1013100D01*
X1005900D02*
X1006300D01*
X1012700Y1594500D02*
X1013100D01*
X1005900D02*
X1006300D01*
X1012700Y1602400D02*
X1013100D01*
X1005900D02*
X1006300D01*
X1012700Y1610300D02*
X1013100D01*
X1005900D02*
X1006300D01*
X1130300Y1756100D02*
X1129900D01*
X1137100D02*
X1136700D01*
X1130300Y1765500D02*
X1129900D01*
X1137100D02*
X1136700D01*
X1142300Y1760300D02*
X1141900D01*
X1149100D02*
X1148700D01*
X1142300Y1769700D02*
X1141900D01*
X1149100D02*
X1148700D01*
X1012700Y1570900D02*
X1013100D01*
X1005900D02*
X1006300D01*
X1012700Y1578700D02*
X1013100D01*
X1005900D02*
X1006300D01*
X1025200Y1868900D02*
X1025600D01*
X1018400D02*
X1018800D01*
X1025200Y1861100D02*
X1025600D01*
X1018400D02*
X1018800D01*
X1025200Y1829850D02*
X1025600D01*
X1018400D02*
X1018800D01*
X1025200Y1822000D02*
X1025600D01*
X1018400D02*
X1018800D01*
X1130300Y1715100D02*
X1129900D01*
X1137100D02*
X1136700D01*
X1142300Y1719300D02*
X1141900D01*
X1149100D02*
X1148700D01*
X1198000Y1416900D02*
Y1417300D01*
Y1410100D02*
Y1410500D01*
G54D59*
X1152100Y1868900D02*
X1152900D01*
X1152100Y1857900D02*
X1152900D01*
X1099600Y1878200D02*
X1100400D01*
X1099600Y1867200D02*
X1100400D01*
G54D61*
X1001900Y1617700D02*
Y1618500D01*
X1009500Y1617700D02*
Y1618500D01*
G54D72*
X1002500Y1911000D03*
X1197500D03*
X1002500Y2008600D03*
X1197500D03*
X1002500Y1541000D03*
X1197500D03*
X1002500Y1391400D03*
X1197500D03*
G54D88*
X1007950Y1519100D03*
X1002050D03*
X1021300Y1398050D03*
Y1392150D03*
X1074500Y1398150D03*
Y1392250D03*
X1127500Y1398250D03*
Y1392350D03*
X1192050Y1519100D03*
X1197950D03*
X1007950Y1426000D03*
X1002050D03*
X1007950Y1461100D03*
X1002050D03*
G54D109*
X1003500Y1936100D03*
X1032500D03*
X1138500D03*
X1167500D03*
X1196500D03*
X1020100Y1618122D03*
G54D110*
X1003500Y1946100D03*
Y1956100D03*
Y1966100D03*
Y1976100D03*
Y1986100D03*
X1032500Y1946100D03*
Y1956100D03*
Y1966100D03*
Y1976100D03*
Y1986100D03*
X1138500Y1946100D03*
Y1956100D03*
Y1966100D03*
Y1976100D03*
Y1986100D03*
X1167500Y1946100D03*
Y1956100D03*
Y1966100D03*
Y1976100D03*
Y1986100D03*
X1196500Y1946100D03*
Y1956100D03*
Y1966100D03*
Y1976100D03*
Y1986100D03*
X1020100Y1610248D03*
Y1602374D03*
Y1594500D03*
Y1586626D03*
Y1578752D03*
Y1570878D03*
G54D113*
X1067819Y1490694D02*
X1064709D01*
X1067819Y1492663D02*
X1064709D01*
X1067819Y1494631D02*
X1064709D01*
X1067819Y1496600D02*
X1064709D01*
X1067819Y1498569D02*
X1064709D01*
X1067819Y1500537D02*
X1064709D01*
X1067819Y1502506D02*
X1064709D01*
X1062406Y1507919D02*
Y1504809D01*
X1060437Y1507919D02*
Y1504809D01*
X1058469Y1507919D02*
Y1504809D01*
X1056500Y1507919D02*
Y1504809D01*
X1054531Y1507919D02*
Y1504809D01*
X1052563Y1507919D02*
Y1504809D01*
X1050594Y1507919D02*
Y1504809D01*
X1048291Y1502506D02*
X1045181D01*
X1048291Y1500537D02*
X1045181D01*
X1048291Y1498569D02*
X1045181D01*
X1048291Y1496600D02*
X1045181D01*
X1048291Y1494631D02*
X1045181D01*
X1048291Y1492663D02*
X1045181D01*
X1048291Y1490694D02*
X1045181D01*
X1050594Y1488391D02*
Y1485281D01*
X1052563Y1488391D02*
Y1485281D01*
X1054531Y1488391D02*
Y1485281D01*
X1056500Y1488391D02*
Y1485281D01*
X1058469Y1488391D02*
Y1485281D01*
X1060437Y1488391D02*
Y1485281D01*
X1062406Y1488391D02*
Y1485281D01*
X1050819Y1443194D02*
X1047709D01*
X1050819Y1445163D02*
X1047709D01*
X1050819Y1447131D02*
X1047709D01*
X1050819Y1449100D02*
X1047709D01*
X1050819Y1451069D02*
X1047709D01*
X1050819Y1453037D02*
X1047709D01*
X1050819Y1455006D02*
X1047709D01*
X1045406Y1460419D02*
Y1457309D01*
X1043437Y1460419D02*
Y1457309D01*
X1041469Y1460419D02*
Y1457309D01*
X1039500Y1460419D02*
Y1457309D01*
X1037531Y1460419D02*
Y1457309D01*
X1035563Y1460419D02*
Y1457309D01*
X1033594Y1460419D02*
Y1457309D01*
X1031291Y1455006D02*
X1028181D01*
X1031291Y1453037D02*
X1028181D01*
X1031291Y1451069D02*
X1028181D01*
X1031291Y1449100D02*
X1028181D01*
X1031291Y1447131D02*
X1028181D01*
X1031291Y1445163D02*
X1028181D01*
X1031291Y1443194D02*
X1028181D01*
X1033594Y1440891D02*
Y1437781D01*
X1035563Y1440891D02*
Y1437781D01*
X1037531Y1440891D02*
Y1437781D01*
X1039500Y1440891D02*
Y1437781D01*
X1041469Y1440891D02*
Y1437781D01*
X1043437Y1440891D02*
Y1437781D01*
X1045406Y1440891D02*
Y1437781D01*
X1104819Y1443194D02*
X1101709D01*
X1104819Y1445163D02*
X1101709D01*
X1104819Y1447131D02*
X1101709D01*
X1104819Y1449100D02*
X1101709D01*
X1104819Y1451069D02*
X1101709D01*
X1104819Y1453037D02*
X1101709D01*
X1104819Y1455006D02*
X1101709D01*
X1099406Y1460419D02*
Y1457309D01*
X1097437Y1460419D02*
Y1457309D01*
X1095469Y1460419D02*
Y1457309D01*
X1093500Y1460419D02*
Y1457309D01*
X1091531Y1460419D02*
Y1457309D01*
X1089563Y1460419D02*
Y1457309D01*
X1087594Y1460419D02*
Y1457309D01*
X1085291Y1455006D02*
X1082181D01*
X1085291Y1453037D02*
X1082181D01*
X1085291Y1451069D02*
X1082181D01*
X1085291Y1449100D02*
X1082181D01*
X1085291Y1447131D02*
X1082181D01*
X1085291Y1445163D02*
X1082181D01*
X1085291Y1443194D02*
X1082181D01*
X1087594Y1440891D02*
Y1437781D01*
X1089563Y1440891D02*
Y1437781D01*
X1091531Y1440891D02*
Y1437781D01*
X1093500Y1440891D02*
Y1437781D01*
X1095469Y1440891D02*
Y1437781D01*
X1097437Y1440891D02*
Y1437781D01*
X1099406Y1440891D02*
Y1437781D01*
X1159119Y1442994D02*
X1156009D01*
X1159119Y1444963D02*
X1156009D01*
X1159119Y1446931D02*
X1156009D01*
X1159119Y1448900D02*
X1156009D01*
X1159119Y1450869D02*
X1156009D01*
X1159119Y1452837D02*
X1156009D01*
X1159119Y1454806D02*
X1156009D01*
X1153706Y1460219D02*
Y1457109D01*
X1151737Y1460219D02*
Y1457109D01*
X1149769Y1460219D02*
Y1457109D01*
X1147800Y1460219D02*
Y1457109D01*
X1145831Y1460219D02*
Y1457109D01*
X1143863Y1460219D02*
Y1457109D01*
X1141894Y1460219D02*
Y1457109D01*
X1139591Y1454806D02*
X1136481D01*
X1139591Y1452837D02*
X1136481D01*
X1139591Y1450869D02*
X1136481D01*
X1139591Y1448900D02*
X1136481D01*
X1139591Y1446931D02*
X1136481D01*
X1139591Y1444963D02*
X1136481D01*
X1139591Y1442994D02*
X1136481D01*
X1141894Y1440691D02*
Y1437581D01*
X1143863Y1440691D02*
Y1437581D01*
X1145831Y1440691D02*
Y1437581D01*
X1147800Y1440691D02*
Y1437581D01*
X1149769Y1440691D02*
Y1437581D01*
X1151737Y1440691D02*
Y1437581D01*
X1153706Y1440691D02*
Y1437581D01*
X1157419Y1490494D02*
X1154309D01*
X1157419Y1492463D02*
X1154309D01*
X1157419Y1494431D02*
X1154309D01*
X1157419Y1496400D02*
X1154309D01*
X1157419Y1498369D02*
X1154309D01*
X1157419Y1500337D02*
X1154309D01*
X1157419Y1502306D02*
X1154309D01*
X1152006Y1507719D02*
Y1504609D01*
X1150037Y1507719D02*
Y1504609D01*
X1148069Y1507719D02*
Y1504609D01*
X1146100Y1507719D02*
Y1504609D01*
X1144131Y1507719D02*
Y1504609D01*
X1142163Y1507719D02*
Y1504609D01*
X1140194Y1507719D02*
Y1504609D01*
X1137891Y1502306D02*
X1134781D01*
X1137891Y1500337D02*
X1134781D01*
X1137891Y1498369D02*
X1134781D01*
X1137891Y1496400D02*
X1134781D01*
X1137891Y1494431D02*
X1134781D01*
X1137891Y1492463D02*
X1134781D01*
X1137891Y1490494D02*
X1134781D01*
X1140194Y1488191D02*
Y1485081D01*
X1142163Y1488191D02*
Y1485081D01*
X1144131Y1488191D02*
Y1485081D01*
X1146100Y1488191D02*
Y1485081D01*
X1148069Y1488191D02*
Y1485081D01*
X1150037Y1488191D02*
Y1485081D01*
X1152006Y1488191D02*
Y1485081D01*
G54D114*
X1006791Y1648936D02*
X1000886D01*
X1024114D02*
X1018209D01*
X1006791Y1652086D02*
X1000886D01*
X1024114D02*
X1018209D01*
X1006791Y1655235D02*
X1000886D01*
X1024114D02*
X1018209D01*
X1006791Y1658385D02*
X1000886D01*
X1024114D02*
X1018209D01*
X1006791Y1661534D02*
X1000886D01*
X1024114D02*
X1018209D01*
X1006791Y1664684D02*
X1000886D01*
X1024114D02*
X1018209D01*
X1006791Y1667834D02*
X1000886D01*
X1024114D02*
X1018209D01*
X1006791Y1670983D02*
X1000886D01*
X1024114D02*
X1018209D01*
X1006791Y1674133D02*
X1000886D01*
X1024114D02*
X1018209D01*
X1006791Y1677282D02*
X1000886D01*
X1024114D02*
X1018209D01*
X1006791Y1680432D02*
X1000886D01*
X1024114D02*
X1018209D01*
X1006791Y1683582D02*
X1000886D01*
X1024114D02*
X1018209D01*
X1006791Y1686731D02*
X1000886D01*
X1024114D02*
X1018209D01*
X1006791Y1689881D02*
X1000886D01*
X1024114D02*
X1018209D01*
X1006791Y1693030D02*
X1000886D01*
X1024114D02*
X1018209D01*
X1006791Y1696180D02*
X1000886D01*
X1024114D02*
X1018209D01*
X1006791Y1699330D02*
X1000886D01*
X1024114D02*
X1018209D01*
X1006791Y1702479D02*
X1000886D01*
X1024114D02*
X1018209D01*
X1006791Y1705629D02*
X1000886D01*
X1024114D02*
X1018209D01*
X1006791Y1708778D02*
X1000886D01*
X1024114D02*
X1018209D01*
X1006791Y1711928D02*
X1000886D01*
X1024114D02*
X1018209D01*
X1006791Y1715078D02*
X1000886D01*
X1024114D02*
X1018209D01*
X1006791Y1718227D02*
X1000886D01*
X1024114D02*
X1018209D01*
X1006791Y1721377D02*
X1000886D01*
X1024114D02*
X1018209D01*
X1006791Y1724527D02*
X1000886D01*
X1024114D02*
X1018209D01*
X1006791Y1727676D02*
X1000886D01*
X1024114D02*
X1018209D01*
X1006791Y1730826D02*
X1000886D01*
X1024114D02*
X1018209D01*
X1006791Y1733975D02*
X1000886D01*
X1024114D02*
X1018209D01*
X1006791Y1737125D02*
X1000886D01*
X1024114D02*
X1018209D01*
X1006791Y1740275D02*
X1000886D01*
X1024114D02*
X1018209D01*
X1006791Y1743424D02*
X1000886D01*
X1024114D02*
X1018209D01*
X1006791Y1746574D02*
X1000886D01*
X1024114D02*
X1018209D01*
X1006791Y1749723D02*
X1000886D01*
X1024114D02*
X1018209D01*
X1006791Y1752873D02*
X1000886D01*
X1024114D02*
X1018209D01*
X1006791Y1756023D02*
X1000886D01*
X1024114D02*
X1018209D01*
X1006791Y1759172D02*
X1000886D01*
X1024114D02*
X1018209D01*
X1006791Y1762322D02*
X1000886D01*
X1024114D02*
X1018209D01*
X1006791Y1765471D02*
X1000886D01*
X1024114D02*
X1018209D01*
X1006791Y1768621D02*
X1000886D01*
X1024114D02*
X1018209D01*
X1006791Y1771771D02*
X1000886D01*
X1024114D02*
X1018209D01*
X1006791Y1774920D02*
X1000886D01*
X1024114D02*
X1018209D01*
X1006791Y1778070D02*
X1000886D01*
X1024114D02*
X1018209D01*
X1006791Y1781219D02*
X1000886D01*
X1024114D02*
X1018209D01*
X1006791Y1784369D02*
X1000886D01*
X1024114D02*
X1018209D01*
X1006791Y1787519D02*
X1000886D01*
X1024114D02*
X1018209D01*
X1006791Y1790668D02*
X1000886D01*
X1024114D02*
X1018209D01*
X1006791Y1793818D02*
X1000886D01*
X1024114D02*
X1018209D01*
X1006791Y1796967D02*
X1000886D01*
X1024114D02*
X1018209D01*
X1006791Y1800117D02*
X1000886D01*
X1024114D02*
X1018209D01*
X1006791Y1803267D02*
X1000886D01*
X1024114D02*
X1018209D01*
X1181791Y1648936D02*
X1175886D01*
X1199114D02*
X1193209D01*
X1181791Y1652086D02*
X1175886D01*
X1199114D02*
X1193209D01*
X1181791Y1655235D02*
X1175886D01*
X1199114D02*
X1193209D01*
X1181791Y1658385D02*
X1175886D01*
X1199114D02*
X1193209D01*
X1181791Y1661534D02*
X1175886D01*
X1199114D02*
X1193209D01*
X1181791Y1664684D02*
X1175886D01*
X1199114D02*
X1193209D01*
X1181791Y1667834D02*
X1175886D01*
X1199114D02*
X1193209D01*
X1181791Y1670983D02*
X1175886D01*
X1199114D02*
X1193209D01*
X1181791Y1674133D02*
X1175886D01*
X1199114D02*
X1193209D01*
X1181791Y1677282D02*
X1175886D01*
X1199114D02*
X1193209D01*
X1181791Y1680432D02*
X1175886D01*
X1199114D02*
X1193209D01*
X1181791Y1683582D02*
X1175886D01*
X1199114D02*
X1193209D01*
X1181791Y1686731D02*
X1175886D01*
X1199114D02*
X1193209D01*
X1181791Y1689881D02*
X1175886D01*
X1199114D02*
X1193209D01*
X1181791Y1693030D02*
X1175886D01*
X1199114D02*
X1193209D01*
X1181791Y1696180D02*
X1175886D01*
X1199114D02*
X1193209D01*
X1181791Y1699330D02*
X1175886D01*
X1199114D02*
X1193209D01*
X1181791Y1702479D02*
X1175886D01*
X1199114D02*
X1193209D01*
X1181791Y1705629D02*
X1175886D01*
X1199114D02*
X1193209D01*
X1181791Y1708778D02*
X1175886D01*
X1199114D02*
X1193209D01*
X1181791Y1711928D02*
X1175886D01*
X1199114D02*
X1193209D01*
X1181791Y1715078D02*
X1175886D01*
X1199114D02*
X1193209D01*
X1181791Y1718227D02*
X1175886D01*
X1199114D02*
X1193209D01*
X1181791Y1721377D02*
X1175886D01*
X1199114D02*
X1193209D01*
X1181791Y1724527D02*
X1175886D01*
X1199114D02*
X1193209D01*
X1181791Y1727676D02*
X1175886D01*
X1199114D02*
X1193209D01*
X1181791Y1730826D02*
X1175886D01*
X1199114D02*
X1193209D01*
X1181791Y1733975D02*
X1175886D01*
X1199114D02*
X1193209D01*
X1181791Y1737125D02*
X1175886D01*
X1199114D02*
X1193209D01*
X1181791Y1740275D02*
X1175886D01*
X1199114D02*
X1193209D01*
X1181791Y1743424D02*
X1175886D01*
X1199114D02*
X1193209D01*
X1181791Y1746574D02*
X1175886D01*
X1199114D02*
X1193209D01*
X1181791Y1749723D02*
X1175886D01*
X1199114D02*
X1193209D01*
X1181791Y1752873D02*
X1175886D01*
X1199114D02*
X1193209D01*
X1181791Y1756023D02*
X1175886D01*
X1199114D02*
X1193209D01*
X1181791Y1759172D02*
X1175886D01*
X1199114D02*
X1193209D01*
X1181791Y1762322D02*
X1175886D01*
X1199114D02*
X1193209D01*
X1181791Y1765471D02*
X1175886D01*
X1199114D02*
X1193209D01*
X1181791Y1768621D02*
X1175886D01*
X1199114D02*
X1193209D01*
X1181791Y1771771D02*
X1175886D01*
X1199114D02*
X1193209D01*
X1181791Y1774920D02*
X1175886D01*
X1199114D02*
X1193209D01*
X1181791Y1778070D02*
X1175886D01*
X1199114D02*
X1193209D01*
X1181791Y1781219D02*
X1175886D01*
X1199114D02*
X1193209D01*
X1181791Y1784369D02*
X1175886D01*
X1199114D02*
X1193209D01*
X1181791Y1787519D02*
X1175886D01*
X1199114D02*
X1193209D01*
X1181791Y1790668D02*
X1175886D01*
X1199114D02*
X1193209D01*
X1181791Y1793818D02*
X1175886D01*
X1199114D02*
X1193209D01*
X1181791Y1796967D02*
X1175886D01*
X1199114D02*
X1193209D01*
X1181791Y1800117D02*
X1175886D01*
X1199114D02*
X1193209D01*
X1181791Y1803267D02*
X1175886D01*
X1199114D02*
X1193209D01*
G54D166*
X1084091Y1489100D02*
X1082909D01*
X1084091Y1515100D02*
X1082909D01*
X1065091Y1438100D02*
X1063909D01*
X1065091Y1464100D02*
X1063909D01*
X1119091Y1438100D02*
X1117909D01*
X1119091Y1464100D02*
X1117909D01*
X1173391Y1437900D02*
X1172209D01*
X1173391Y1463900D02*
X1172209D01*
X1173091Y1489100D02*
X1171909D01*
X1173091Y1515100D02*
X1171909D01*
X1112197Y1838100D02*
X1111803D01*
X1112197Y1859100D02*
X1111803D01*
X1046297Y1854900D02*
X1045903D01*
X1046297Y1875900D02*
X1045903D01*
G54D167*
X1085000Y1391600D03*
X1095000D03*
X1105000D03*
X1115000D03*
X1137500D03*
X1147500D03*
X1157500D03*
X1167500D03*
X1197000Y1478600D03*
Y1488600D03*
Y1498600D03*
Y1508600D03*
X1003000D03*
Y1498600D03*
Y1488600D03*
Y1478600D03*
X1032500Y1391600D03*
X1042500D03*
X1052500D03*
X1062500D03*
G54D168*
X1022274Y1483002D02*
Y1484576D01*
X1031526Y1483002D02*
Y1484576D01*
X1044998Y1410974D02*
X1043424D01*
X1044998Y1420226D02*
X1043424D01*
X1107398Y1410974D02*
X1105824D01*
X1107398Y1420226D02*
X1105824D01*
X1166798Y1410974D02*
X1165224D01*
X1166798Y1420226D02*
X1165224D01*
X1111874Y1483002D02*
Y1484576D01*
X1121126Y1483002D02*
Y1484576D01*
G54D169*
X1026900Y1507411D03*
X1020589Y1415600D03*
X1082989D03*
X1142389D03*
X1116500Y1507411D03*
G54D170*
X1056500Y1496600D03*
X1039500Y1449100D03*
X1093500D03*
X1147800Y1448900D03*
X1146100Y1496400D03*
G54D171*
X1130959Y1873213D02*
Y1874984D01*
X1132928Y1873213D02*
Y1874984D01*
X1134896Y1873213D02*
Y1874984D01*
X1136865Y1873213D02*
Y1874984D01*
X1138538Y1876657D02*
X1140309D01*
X1138538Y1880594D02*
X1140309D01*
X1138538Y1882563D02*
X1140309D01*
X1138538Y1884531D02*
X1140309D01*
X1138538Y1886500D02*
X1140309D01*
X1136865Y1888173D02*
Y1889945D01*
X1134896Y1888173D02*
Y1889945D01*
X1132928Y1888173D02*
Y1889945D01*
X1130959Y1888173D02*
Y1889945D01*
X1127514Y1886500D02*
X1129286D01*
X1127514Y1884531D02*
X1129286D01*
X1127514Y1882563D02*
X1129286D01*
X1127514Y1880594D02*
X1129286D01*
X1127514Y1876657D02*
X1129286D01*
X1070559Y1873213D02*
Y1874984D01*
X1072528Y1873213D02*
Y1874984D01*
X1074496Y1873213D02*
Y1874984D01*
X1076465Y1873213D02*
Y1874984D01*
X1078138Y1876657D02*
X1079909D01*
X1078138Y1880594D02*
X1079909D01*
X1078138Y1882563D02*
X1079909D01*
X1078138Y1884531D02*
X1079909D01*
X1078138Y1886500D02*
X1079909D01*
X1076465Y1888173D02*
Y1889945D01*
X1074496Y1888173D02*
Y1889945D01*
X1072528Y1888173D02*
Y1889945D01*
X1070559Y1888173D02*
Y1889945D01*
X1067114Y1886500D02*
X1068886D01*
X1067114Y1884531D02*
X1068886D01*
X1067114Y1882563D02*
X1068886D01*
X1067114Y1880594D02*
X1068886D01*
X1067114Y1876657D02*
X1068886D01*
G54D172*
X1133912Y1877209D02*
Y1877917D01*
Y1880240D02*
Y1880949D01*
X1073512Y1877209D02*
Y1877917D01*
Y1880240D02*
Y1880949D01*
G54D173*
X1067090Y1928827D02*
X1065910D01*
X1067090Y1957173D02*
X1065910D01*
G54D174*
X1130750Y1864151D02*
X1137050D01*
X1130750Y1833049D02*
X1137050D01*
X1070350Y1864151D02*
X1076650D01*
X1070350Y1833049D02*
X1076650D01*
G54D175*
X1012000Y1841463D03*
X1011700Y1868937D03*
X1012000Y1881263D03*
Y1829837D03*
X1187700Y1833226D03*
Y1848974D03*
Y1868226D03*
Y1883974D03*
Y1568226D03*
Y1583974D03*
Y1603226D03*
Y1618974D03*
X1187500Y1410163D03*
G54D176*
X1012000Y1849337D03*
X1011700Y1861063D03*
X1012000Y1889137D03*
Y1821963D03*
X1187700Y1841100D03*
Y1876100D03*
Y1576100D03*
Y1611100D03*
X1187500Y1418037D03*
G54D177*
X1106299Y1973602D03*
G54D178*
X1090000D03*
X1073701D03*
G54D179*
X1090000Y2002500D03*
G54D196*
X1012500Y1813108D03*
G54D197*
Y1639092D03*
X1187500Y1813108D03*
Y1639092D03*
X0Y0D02*
M02*
