*
*
G04 PADS Layout (Build Number 2007.45.1) generated Gerber (RS-274-X) file*
G04 PC Version=2.1*
*
%IN "09051-00121-A.pcb"*%
*
%MOIN*%
*
%FSLAX35Y35*%
*
*
*
*
G04 PC Standard Apertures*
*
*
G04 Thermal Relief Aperture macro.*
%AMTER*
1,1,$1,0,0*
1,0,$1-$2,0,0*
21,0,$3,$4,0,0,45*
21,0,$3,$4,0,0,135*
%
*
*
G04 Annular Aperture macro.*
%AMANN*
1,1,$1,0,0*
1,0,$2,0,0*
%
*
*
G04 Odd Aperture macro.*
%AMODD*
1,1,$1,0,0*
1,0,$1-0.005,0,0*
%
*
*
G04 PC Custom Aperture Macros*
*
*
*
*
*
*
G04 PC Aperture Table*
*
%ADD019C,0.025*%
%ADD058R,0.049X0.049*%
%ADD061R,0.061X0.061*%
%ADD072C,0.19*%
%ADD109R,0.072X0.072*%
%ADD110C,0.072*%
%ADD167C,0.09268*%
%ADD175R,0.06512X0.06512*%
%ADD176C,0.06512*%
%ADD177R,0.10449X0.10449*%
%ADD178C,0.10449*%
%ADD179C,0.16197*%
%ADD180R,0.13343X0.13343*%
%ADD181R,0.03953X0.03953*%
%ADD182R,0.02949X0.02949*%
%ADD183R,0.0287X0.0287*%
%ADD184R,0.1478X0.1478*%
%ADD185R,0.08874X0.08874*%
%ADD186R,0.05803X0.05803*%
%ADD196C,0.03953*%
%ADD197C,0.05528*%
*
*
*
*
G04 PC Copper Outlines (0)*
G04 Layer Name 09051-00121-A.pcb - dark (0)*
%LPD*%
*
*
G04 PC Area=Custom_Thermal*
*
G04 PC Custom Flashes*
G04 Layer Name 09051-00121-A.pcb - flashes*
%LPD*%
*
*
G04 PC Circuitry*
G04 Layer Name 09051-00121-A.pcb - circuitry*
%LPD*%
*
G54D19*
G01X987500Y2025000D02*
X1212500D01*
Y1375000*
X987500*
Y2025000*
G54D58*
X1183300Y1676200D02*
X1182900D01*
X1190100D02*
X1189700D01*
X1171300Y1680400D02*
X1170900D01*
X1178100D02*
X1177700D01*
X1159300Y1676200D02*
X1158900D01*
X1166100D02*
X1165700D01*
X1183300Y1723500D02*
X1182900D01*
X1190100D02*
X1189700D01*
X1171300Y1727700D02*
X1170900D01*
X1178100D02*
X1177700D01*
X1159300Y1723500D02*
X1158900D01*
X1166100D02*
X1165700D01*
X1183300Y1714100D02*
X1182900D01*
X1190100D02*
X1189700D01*
X1171300Y1718300D02*
X1170900D01*
X1178100D02*
X1177700D01*
X1159300Y1714300D02*
X1158900D01*
X1166100D02*
X1165700D01*
X1159300Y1685700D02*
X1158900D01*
X1166100D02*
X1165700D01*
X1171300Y1689900D02*
X1170900D01*
X1178100D02*
X1177700D01*
X1183200Y1685700D02*
X1182800D01*
X1190000D02*
X1189600D01*
X1012500Y1975600D02*
Y1975200D01*
Y1982400D02*
Y1982000D01*
X1159400Y1975400D02*
Y1975000D01*
Y1982200D02*
Y1981800D01*
X1140200Y1821300D02*
Y1821700D01*
Y1814500D02*
Y1814900D01*
X1174800Y1737600D02*
X1174400D01*
X1181600D02*
X1181200D01*
X1087400Y1826400D02*
Y1826000D01*
Y1833200D02*
Y1832800D01*
X1080900Y1826400D02*
Y1826000D01*
Y1833200D02*
Y1832800D01*
X1188500Y1975200D02*
Y1974800D01*
Y1982000D02*
Y1981600D01*
X1181200Y1799300D02*
X1181600D01*
X1174400D02*
X1174800D01*
X1033300Y1736050D02*
X1032900D01*
X1040100D02*
X1039700D01*
X1033300Y1767500D02*
X1032900D01*
X1040100D02*
X1039700D01*
X1067500Y1517500D02*
X1067100D01*
X1074300D02*
X1073900D01*
X1082000Y1504800D02*
X1082400D01*
X1075200D02*
X1075600D01*
X1042700Y1509500D02*
X1043100D01*
X1035900D02*
X1036300D01*
X1082000Y1499100D02*
X1082400D01*
X1075200D02*
X1075600D01*
X1048200Y1466700D02*
X1047800D01*
X1055000D02*
X1054600D01*
X1064800Y1454700D02*
X1065200D01*
X1058000D02*
X1058400D01*
X1025700Y1461700D02*
X1026100D01*
X1018900D02*
X1019300D01*
X1064800Y1449850D02*
X1065200D01*
X1058000D02*
X1058400D01*
X1102300Y1466700D02*
X1101900D01*
X1109100D02*
X1108700D01*
X1118800Y1454700D02*
X1119200D01*
X1112000D02*
X1112400D01*
X1080700Y1462000D02*
X1081100D01*
X1073900D02*
X1074300D01*
X1118800Y1450000D02*
X1119200D01*
X1112000D02*
X1112400D01*
X1023700Y1975600D02*
Y1975200D01*
Y1982400D02*
Y1982000D01*
X1156500Y1466700D02*
X1156100D01*
X1163300D02*
X1162900D01*
X1173000Y1454700D02*
X1173400D01*
X1166200D02*
X1166600D01*
X1135000Y1462000D02*
X1135400D01*
X1128200D02*
X1128600D01*
X1173000Y1449800D02*
X1173400D01*
X1166200D02*
X1166600D01*
X1156900Y1517300D02*
X1156500D01*
X1163700D02*
X1163300D01*
X1171700Y1504800D02*
X1172100D01*
X1164900D02*
X1165300D01*
X1132200Y1509500D02*
X1132600D01*
X1125400D02*
X1125800D01*
X1171700Y1499000D02*
X1172100D01*
X1164900D02*
X1165300D01*
X1123900Y1893100D02*
X1123500D01*
X1130700D02*
X1130300D01*
X1127700Y1821400D02*
Y1821800D01*
Y1814600D02*
Y1815000D01*
X1137100Y1903100D02*
X1136700D01*
X1143900D02*
X1143500D01*
X1123900Y1898100D02*
X1123500D01*
X1130700D02*
X1130300D01*
X1063300Y1893100D02*
X1062900D01*
X1070100D02*
X1069700D01*
X1059400Y1826100D02*
Y1825700D01*
Y1832900D02*
Y1832500D01*
X1076600Y1902500D02*
X1076200D01*
X1083400D02*
X1083000D01*
X1063300Y1898100D02*
X1062900D01*
X1070100D02*
X1069700D01*
X1130500Y1975300D02*
Y1974900D01*
Y1982100D02*
Y1981700D01*
X1077410Y1596800D02*
Y1596400D01*
Y1603600D02*
Y1603200D01*
X1071780Y1575300D02*
Y1574900D01*
Y1582100D02*
Y1581700D01*
Y1596800D02*
Y1596400D01*
Y1603600D02*
Y1603200D01*
X1066150Y1575300D02*
Y1574900D01*
Y1582100D02*
Y1581700D01*
Y1596800D02*
Y1596400D01*
Y1603600D02*
Y1603200D01*
X1077410Y1575300D02*
Y1574900D01*
Y1582100D02*
Y1581700D01*
X1036300Y1517500D02*
X1035900D01*
X1043100D02*
X1042700D01*
X1002100Y1518100D02*
X1001700D01*
X1008900D02*
X1008500D01*
X1049260Y1596800D02*
Y1596400D01*
Y1603600D02*
Y1603200D01*
X1043630Y1575300D02*
Y1574900D01*
Y1582100D02*
Y1581700D01*
Y1596800D02*
Y1596400D01*
Y1603600D02*
Y1603200D01*
X1038000Y1575300D02*
Y1574900D01*
Y1582100D02*
Y1581700D01*
Y1596800D02*
Y1596400D01*
Y1603600D02*
Y1603200D01*
X1049260Y1575300D02*
Y1574900D01*
Y1582100D02*
Y1581700D01*
X1019100Y1470200D02*
X1018700D01*
X1025900D02*
X1025500D01*
X1021300Y1391100D02*
Y1390700D01*
Y1397900D02*
Y1397500D01*
X1105560Y1575300D02*
Y1574900D01*
Y1582100D02*
Y1581700D01*
X1099900Y1596800D02*
Y1596400D01*
Y1603600D02*
Y1603200D01*
X1099800Y1575300D02*
Y1574900D01*
Y1582100D02*
Y1581700D01*
X1094300Y1596800D02*
Y1596400D01*
Y1603600D02*
Y1603200D01*
Y1575300D02*
Y1574900D01*
Y1582100D02*
Y1581700D01*
X1105560Y1596800D02*
Y1596400D01*
Y1603600D02*
Y1603200D01*
X1074300Y1469000D02*
X1073900D01*
X1081100D02*
X1080700D01*
X1074500Y1391200D02*
Y1390800D01*
Y1398000D02*
Y1397600D01*
X1133710Y1596800D02*
Y1596400D01*
Y1603600D02*
Y1603200D01*
X1128080Y1575300D02*
Y1574900D01*
Y1582100D02*
Y1581700D01*
Y1596800D02*
Y1596400D01*
Y1603600D02*
Y1603200D01*
X1122450Y1575300D02*
Y1574900D01*
Y1582100D02*
Y1581700D01*
Y1596800D02*
Y1596400D01*
Y1603600D02*
Y1603200D01*
X1133710Y1575300D02*
Y1574900D01*
Y1582100D02*
Y1581700D01*
X1128600Y1469000D02*
X1128200D01*
X1135400D02*
X1135000D01*
X1127500Y1391300D02*
Y1390900D01*
Y1398100D02*
Y1397700D01*
X1161860Y1596800D02*
Y1596400D01*
Y1603600D02*
Y1603200D01*
X1156230Y1575300D02*
Y1574900D01*
Y1582100D02*
Y1581700D01*
Y1596800D02*
Y1596400D01*
Y1603600D02*
Y1603200D01*
X1150600Y1575300D02*
Y1574900D01*
Y1582100D02*
Y1581700D01*
Y1596800D02*
Y1596400D01*
Y1603600D02*
Y1603200D01*
X1161860Y1575300D02*
Y1574900D01*
Y1582100D02*
Y1581700D01*
X1125800Y1517500D02*
X1125400D01*
X1132600D02*
X1132200D01*
X1197900Y1518000D02*
X1198300D01*
X1191100D02*
X1191500D01*
X1130300Y1903100D02*
X1130700D01*
X1123500D02*
X1123900D01*
X1002100Y1424800D02*
X1001700D01*
X1008900D02*
X1008500D01*
X1130300Y1888100D02*
X1130700D01*
X1123500D02*
X1123900D01*
X1157700Y1897600D02*
X1158100D01*
X1150900D02*
X1151300D01*
X1123900Y1883100D02*
X1123500D01*
X1130700D02*
X1130300D01*
X1069700Y1903100D02*
X1070100D01*
X1062900D02*
X1063300D01*
X1002100Y1460000D02*
X1001700D01*
X1008900D02*
X1008500D01*
X1090000Y1866800D02*
Y1866400D01*
Y1873600D02*
Y1873200D01*
X1069700Y1888100D02*
X1070100D01*
X1062900D02*
X1063300D01*
Y1883100D02*
X1062900D01*
X1070100D02*
X1069700D01*
X1183300Y1755000D02*
X1182900D01*
X1190100D02*
X1189700D01*
X1183300Y1764500D02*
X1182900D01*
X1190100D02*
X1189700D01*
X1025200Y1840300D02*
X1025600D01*
X1018400D02*
X1018800D01*
X1159300Y1755000D02*
X1158900D01*
X1166100D02*
X1165700D01*
X1159300Y1764500D02*
X1158900D01*
X1166100D02*
X1165700D01*
X1171300Y1759200D02*
X1170900D01*
X1178100D02*
X1177700D01*
X1171300Y1768700D02*
X1170900D01*
X1178100D02*
X1177700D01*
X1153000Y1866200D02*
Y1865800D01*
Y1873000D02*
Y1872600D01*
X1025200Y1880150D02*
X1025600D01*
X1018400D02*
X1018800D01*
X1025200Y1888000D02*
X1025600D01*
X1018400D02*
X1018800D01*
X1025200Y1848200D02*
X1025600D01*
X1018400D02*
X1018800D01*
X1096700Y1897600D02*
X1097100D01*
X1089900D02*
X1090300D01*
X1168800Y1651600D02*
X1169200D01*
X1162000D02*
X1162400D01*
X1183300Y1658900D02*
X1182900D01*
X1190100D02*
X1189700D01*
X1034800Y1653600D02*
Y1653200D01*
Y1660400D02*
Y1660000D01*
X1021400Y1654100D02*
X1021800D01*
X1014600D02*
X1015000D01*
X1096700Y1902500D02*
X1097100D01*
X1089900D02*
X1090300D01*
X1185600Y1488300D02*
Y1487900D01*
Y1495100D02*
Y1494700D01*
X1172900Y1422900D02*
Y1423300D01*
Y1416100D02*
Y1416500D01*
X1118500Y1422900D02*
Y1423300D01*
Y1416100D02*
Y1416500D01*
X1064600Y1422900D02*
Y1423300D01*
Y1416100D02*
Y1416500D01*
X1083600Y1474400D02*
X1083200D01*
X1090400D02*
X1090000D01*
G54D61*
X1070000Y1477000D02*
Y1477800D01*
X1062400Y1477000D02*
Y1477800D01*
X1042300D02*
Y1477000D01*
X1049900Y1477800D02*
Y1477000D01*
X1053300Y1428200D02*
Y1429000D01*
X1045700Y1428200D02*
Y1429000D01*
X1023800D02*
Y1428200D01*
X1031400Y1429000D02*
Y1428200D01*
X1106300D02*
Y1429000D01*
X1098700Y1428200D02*
Y1429000D01*
X1079700D02*
Y1428200D01*
X1087300Y1429000D02*
Y1428200D01*
X1160600D02*
Y1429000D01*
X1153000Y1428200D02*
Y1429000D01*
X1134000D02*
Y1428200D01*
X1141600Y1429000D02*
Y1428200D01*
X1159900Y1476900D02*
Y1477700D01*
X1152300Y1476900D02*
Y1477700D01*
X1132300D02*
Y1476900D01*
X1139900Y1477700D02*
Y1476900D01*
X1032900Y2011300D02*
X1032100D01*
X1032900Y2003700D02*
X1032100D01*
X1118700Y1926000D02*
Y1925200D01*
X1126300Y1926000D02*
Y1925200D01*
X1053600Y1936000D02*
X1054400D01*
X1053600Y1943600D02*
X1054400D01*
G54D72*
X1002500Y1909900D03*
X1197500D03*
X1002500Y2007500D03*
X1197500D03*
X1002500Y1539900D03*
X1197500D03*
X1002500Y1390300D03*
X1197500D03*
G54D109*
X1003500Y1935000D03*
X1032500D03*
X1138500D03*
X1167500D03*
X1196500D03*
X1020100Y1617022D03*
G54D110*
X1003500Y1945000D03*
Y1955000D03*
Y1965000D03*
Y1975000D03*
Y1985000D03*
X1032500Y1945000D03*
Y1955000D03*
Y1965000D03*
Y1975000D03*
Y1985000D03*
X1138500Y1945000D03*
Y1955000D03*
Y1965000D03*
Y1975000D03*
Y1985000D03*
X1167500Y1945000D03*
Y1955000D03*
Y1965000D03*
Y1975000D03*
Y1985000D03*
X1196500Y1945000D03*
Y1955000D03*
Y1965000D03*
Y1975000D03*
Y1985000D03*
X1020100Y1609148D03*
Y1601274D03*
Y1593400D03*
Y1585526D03*
Y1577652D03*
Y1569778D03*
G54D167*
X1085000Y1390500D03*
X1095000D03*
X1105000D03*
X1115000D03*
X1137500D03*
X1147500D03*
X1157500D03*
X1167500D03*
X1197000Y1477500D03*
Y1487500D03*
Y1497500D03*
Y1507500D03*
X1003000D03*
Y1497500D03*
Y1487500D03*
Y1477500D03*
X1032500Y1390500D03*
X1042500D03*
X1052500D03*
X1062500D03*
G54D175*
X1012000Y1840363D03*
X1011700Y1867837D03*
X1012000Y1880163D03*
Y1828737D03*
X1187700Y1832126D03*
Y1867126D03*
Y1567126D03*
Y1602126D03*
X1187500Y1409063D03*
G54D176*
X1012000Y1848237D03*
X1011700Y1859963D03*
X1012000Y1888037D03*
Y1820863D03*
X1187700Y1840000D03*
Y1847874D03*
Y1875000D03*
Y1882874D03*
Y1575000D03*
Y1582874D03*
Y1610000D03*
Y1617874D03*
X1187500Y1416937D03*
G54D177*
X1106299Y1972502D03*
X1073701D03*
G54D178*
X1090000D03*
G54D179*
Y2001400D03*
G54D180*
X1083379Y1916280D02*
Y1917520D01*
X1067021Y1916280D02*
Y1917520D01*
X1083279Y1935280D02*
Y1936520D01*
X1066921Y1935280D02*
Y1936520D01*
X1046880Y1989221D02*
X1048120D01*
X1046880Y2005579D02*
X1048120D01*
X1068880Y1989221D02*
X1070120D01*
X1068880Y2005579D02*
X1070120D01*
G54D181*
X1101000Y1959608D02*
Y1960592D01*
X1106000Y1959608D02*
Y1960592D01*
X1111000Y1959608D02*
Y1960592D01*
X1116000Y1959608D02*
Y1960592D01*
G54D182*
X1118451Y1949293D02*
Y1950907D01*
X1098549Y1949537D02*
Y1951151D01*
G54D183*
X1116719Y1937433D02*
X1115636D01*
X1101364D02*
X1100281D01*
G54D184*
X1109484Y1946399D02*
X1107516D01*
G54D185*
X1194200Y1451274D03*
Y1435526D03*
G54D186*
X1178293Y1651541D02*
Y1651659D01*
X1189907Y1651541D02*
Y1651659D01*
X1030807Y1645359D02*
Y1645241D01*
X1019193Y1645359D02*
Y1645241D01*
G54D196*
X1012500Y1812008D03*
G54D197*
Y1637992D03*
X1187500Y1812008D03*
Y1637992D03*
X0Y0D02*
M02*
